G04 #@! TF.GenerationSoftware,KiCad,Pcbnew,(5.1.5)-3*
G04 #@! TF.CreationDate,2020-04-05T19:38:57+02:00*
G04 #@! TF.ProjectId,DrSquigglesController,44725371-7569-4676-976c-6573436f6e74,rev?*
G04 #@! TF.SameCoordinates,Original*
G04 #@! TF.FileFunction,Paste,Top*
G04 #@! TF.FilePolarity,Positive*
%FSLAX46Y46*%
G04 Gerber Fmt 4.6, Leading zero omitted, Abs format (unit mm)*
G04 Created by KiCad (PCBNEW (5.1.5)-3) date 2020-04-05 19:38:57*
%MOMM*%
%LPD*%
G04 APERTURE LIST*
%ADD10C,0.150000*%
G04 APERTURE END LIST*
D10*
X143962380Y-91509761D02*
X142962380Y-91509761D01*
X142962380Y-91271666D01*
X143010000Y-91128809D01*
X143105238Y-91033571D01*
X143200476Y-90985952D01*
X143390952Y-90938333D01*
X143533809Y-90938333D01*
X143724285Y-90985952D01*
X143819523Y-91033571D01*
X143914761Y-91128809D01*
X143962380Y-91271666D01*
X143962380Y-91509761D01*
X143962380Y-90509761D02*
X143295714Y-90509761D01*
X143486190Y-90509761D02*
X143390952Y-90462142D01*
X143343333Y-90414523D01*
X143295714Y-90319285D01*
X143295714Y-90224047D01*
X143867142Y-89890714D02*
X143914761Y-89843095D01*
X143962380Y-89890714D01*
X143914761Y-89938333D01*
X143867142Y-89890714D01*
X143962380Y-89890714D01*
X143914761Y-88700238D02*
X143962380Y-88557380D01*
X143962380Y-88319285D01*
X143914761Y-88224047D01*
X143867142Y-88176428D01*
X143771904Y-88128809D01*
X143676666Y-88128809D01*
X143581428Y-88176428D01*
X143533809Y-88224047D01*
X143486190Y-88319285D01*
X143438571Y-88509761D01*
X143390952Y-88605000D01*
X143343333Y-88652619D01*
X143248095Y-88700238D01*
X143152857Y-88700238D01*
X143057619Y-88652619D01*
X143010000Y-88605000D01*
X142962380Y-88509761D01*
X142962380Y-88271666D01*
X143010000Y-88128809D01*
X143295714Y-87271666D02*
X144295714Y-87271666D01*
X143914761Y-87271666D02*
X143962380Y-87366904D01*
X143962380Y-87557380D01*
X143914761Y-87652619D01*
X143867142Y-87700238D01*
X143771904Y-87747857D01*
X143486190Y-87747857D01*
X143390952Y-87700238D01*
X143343333Y-87652619D01*
X143295714Y-87557380D01*
X143295714Y-87366904D01*
X143343333Y-87271666D01*
X143295714Y-86366904D02*
X143962380Y-86366904D01*
X143295714Y-86795476D02*
X143819523Y-86795476D01*
X143914761Y-86747857D01*
X143962380Y-86652619D01*
X143962380Y-86509761D01*
X143914761Y-86414523D01*
X143867142Y-86366904D01*
X143962380Y-85890714D02*
X143295714Y-85890714D01*
X142962380Y-85890714D02*
X143010000Y-85938333D01*
X143057619Y-85890714D01*
X143010000Y-85843095D01*
X142962380Y-85890714D01*
X143057619Y-85890714D01*
X143295714Y-84985952D02*
X144105238Y-84985952D01*
X144200476Y-85033571D01*
X144248095Y-85081190D01*
X144295714Y-85176428D01*
X144295714Y-85319285D01*
X144248095Y-85414523D01*
X143914761Y-84985952D02*
X143962380Y-85081190D01*
X143962380Y-85271666D01*
X143914761Y-85366904D01*
X143867142Y-85414523D01*
X143771904Y-85462142D01*
X143486190Y-85462142D01*
X143390952Y-85414523D01*
X143343333Y-85366904D01*
X143295714Y-85271666D01*
X143295714Y-85081190D01*
X143343333Y-84985952D01*
X143295714Y-84081190D02*
X144105238Y-84081190D01*
X144200476Y-84128809D01*
X144248095Y-84176428D01*
X144295714Y-84271666D01*
X144295714Y-84414523D01*
X144248095Y-84509761D01*
X143914761Y-84081190D02*
X143962380Y-84176428D01*
X143962380Y-84366904D01*
X143914761Y-84462142D01*
X143867142Y-84509761D01*
X143771904Y-84557380D01*
X143486190Y-84557380D01*
X143390952Y-84509761D01*
X143343333Y-84462142D01*
X143295714Y-84366904D01*
X143295714Y-84176428D01*
X143343333Y-84081190D01*
X143962380Y-83462142D02*
X143914761Y-83557380D01*
X143819523Y-83605000D01*
X142962380Y-83605000D01*
X143914761Y-82700238D02*
X143962380Y-82795476D01*
X143962380Y-82985952D01*
X143914761Y-83081190D01*
X143819523Y-83128809D01*
X143438571Y-83128809D01*
X143343333Y-83081190D01*
X143295714Y-82985952D01*
X143295714Y-82795476D01*
X143343333Y-82700238D01*
X143438571Y-82652619D01*
X143533809Y-82652619D01*
X143629047Y-83128809D01*
X143914761Y-82271666D02*
X143962380Y-82176428D01*
X143962380Y-81985952D01*
X143914761Y-81890714D01*
X143819523Y-81843095D01*
X143771904Y-81843095D01*
X143676666Y-81890714D01*
X143629047Y-81985952D01*
X143629047Y-82128809D01*
X143581428Y-82224047D01*
X143486190Y-82271666D01*
X143438571Y-82271666D01*
X143343333Y-82224047D01*
X143295714Y-82128809D01*
X143295714Y-81985952D01*
X143343333Y-81890714D01*
X143867142Y-80081190D02*
X143914761Y-80128809D01*
X143962380Y-80271666D01*
X143962380Y-80366904D01*
X143914761Y-80509761D01*
X143819523Y-80605000D01*
X143724285Y-80652619D01*
X143533809Y-80700238D01*
X143390952Y-80700238D01*
X143200476Y-80652619D01*
X143105238Y-80605000D01*
X143010000Y-80509761D01*
X142962380Y-80366904D01*
X142962380Y-80271666D01*
X143010000Y-80128809D01*
X143057619Y-80081190D01*
X143962380Y-79509761D02*
X143914761Y-79605000D01*
X143867142Y-79652619D01*
X143771904Y-79700238D01*
X143486190Y-79700238D01*
X143390952Y-79652619D01*
X143343333Y-79605000D01*
X143295714Y-79509761D01*
X143295714Y-79366904D01*
X143343333Y-79271666D01*
X143390952Y-79224047D01*
X143486190Y-79176428D01*
X143771904Y-79176428D01*
X143867142Y-79224047D01*
X143914761Y-79271666D01*
X143962380Y-79366904D01*
X143962380Y-79509761D01*
X143295714Y-78747857D02*
X143962380Y-78747857D01*
X143390952Y-78747857D02*
X143343333Y-78700238D01*
X143295714Y-78605000D01*
X143295714Y-78462142D01*
X143343333Y-78366904D01*
X143438571Y-78319285D01*
X143962380Y-78319285D01*
X143295714Y-77985952D02*
X143295714Y-77605000D01*
X142962380Y-77843095D02*
X143819523Y-77843095D01*
X143914761Y-77795476D01*
X143962380Y-77700238D01*
X143962380Y-77605000D01*
X143962380Y-77271666D02*
X143295714Y-77271666D01*
X143486190Y-77271666D02*
X143390952Y-77224047D01*
X143343333Y-77176428D01*
X143295714Y-77081190D01*
X143295714Y-76985952D01*
X143962380Y-76509761D02*
X143914761Y-76605000D01*
X143867142Y-76652619D01*
X143771904Y-76700238D01*
X143486190Y-76700238D01*
X143390952Y-76652619D01*
X143343333Y-76605000D01*
X143295714Y-76509761D01*
X143295714Y-76366904D01*
X143343333Y-76271666D01*
X143390952Y-76224047D01*
X143486190Y-76176428D01*
X143771904Y-76176428D01*
X143867142Y-76224047D01*
X143914761Y-76271666D01*
X143962380Y-76366904D01*
X143962380Y-76509761D01*
X143962380Y-75605000D02*
X143914761Y-75700238D01*
X143819523Y-75747857D01*
X142962380Y-75747857D01*
X143962380Y-75081190D02*
X143914761Y-75176428D01*
X143819523Y-75224047D01*
X142962380Y-75224047D01*
X143914761Y-74319285D02*
X143962380Y-74414523D01*
X143962380Y-74605000D01*
X143914761Y-74700238D01*
X143819523Y-74747857D01*
X143438571Y-74747857D01*
X143343333Y-74700238D01*
X143295714Y-74605000D01*
X143295714Y-74414523D01*
X143343333Y-74319285D01*
X143438571Y-74271666D01*
X143533809Y-74271666D01*
X143629047Y-74747857D01*
X143962380Y-73843095D02*
X143295714Y-73843095D01*
X143486190Y-73843095D02*
X143390952Y-73795476D01*
X143343333Y-73747857D01*
X143295714Y-73652619D01*
X143295714Y-73557380D01*
X143438571Y-72128809D02*
X143486190Y-71985952D01*
X143533809Y-71938333D01*
X143629047Y-71890714D01*
X143771904Y-71890714D01*
X143867142Y-71938333D01*
X143914761Y-71985952D01*
X143962380Y-72081190D01*
X143962380Y-72462142D01*
X142962380Y-72462142D01*
X142962380Y-72128809D01*
X143010000Y-72033571D01*
X143057619Y-71985952D01*
X143152857Y-71938333D01*
X143248095Y-71938333D01*
X143343333Y-71985952D01*
X143390952Y-72033571D01*
X143438571Y-72128809D01*
X143438571Y-72462142D01*
X143962380Y-71319285D02*
X143914761Y-71414523D01*
X143867142Y-71462142D01*
X143771904Y-71509761D01*
X143486190Y-71509761D01*
X143390952Y-71462142D01*
X143343333Y-71414523D01*
X143295714Y-71319285D01*
X143295714Y-71176428D01*
X143343333Y-71081190D01*
X143390952Y-71033571D01*
X143486190Y-70985952D01*
X143771904Y-70985952D01*
X143867142Y-71033571D01*
X143914761Y-71081190D01*
X143962380Y-71176428D01*
X143962380Y-71319285D01*
X143962380Y-70128809D02*
X143438571Y-70128809D01*
X143343333Y-70176428D01*
X143295714Y-70271666D01*
X143295714Y-70462142D01*
X143343333Y-70557380D01*
X143914761Y-70128809D02*
X143962380Y-70224047D01*
X143962380Y-70462142D01*
X143914761Y-70557380D01*
X143819523Y-70605000D01*
X143724285Y-70605000D01*
X143629047Y-70557380D01*
X143581428Y-70462142D01*
X143581428Y-70224047D01*
X143533809Y-70128809D01*
X143962380Y-69652619D02*
X143295714Y-69652619D01*
X143486190Y-69652619D02*
X143390952Y-69605000D01*
X143343333Y-69557380D01*
X143295714Y-69462142D01*
X143295714Y-69366904D01*
X143962380Y-68605000D02*
X142962380Y-68605000D01*
X143914761Y-68605000D02*
X143962380Y-68700238D01*
X143962380Y-68890714D01*
X143914761Y-68985952D01*
X143867142Y-69033571D01*
X143771904Y-69081190D01*
X143486190Y-69081190D01*
X143390952Y-69033571D01*
X143343333Y-68985952D01*
X143295714Y-68890714D01*
X143295714Y-68700238D01*
X143343333Y-68605000D01*
X143295714Y-67462142D02*
X143962380Y-67224047D01*
X143295714Y-66985952D01*
X143962380Y-66081190D02*
X143962380Y-66652619D01*
X143962380Y-66366904D02*
X142962380Y-66366904D01*
X143105238Y-66462142D01*
X143200476Y-66557380D01*
X143248095Y-66652619D01*
X143867142Y-65652619D02*
X143914761Y-65605000D01*
X143962380Y-65652619D01*
X143914761Y-65700238D01*
X143867142Y-65652619D01*
X143962380Y-65652619D01*
X142962380Y-64985952D02*
X142962380Y-64890714D01*
X143010000Y-64795476D01*
X143057619Y-64747857D01*
X143152857Y-64700238D01*
X143343333Y-64652619D01*
X143581428Y-64652619D01*
X143771904Y-64700238D01*
X143867142Y-64747857D01*
X143914761Y-64795476D01*
X143962380Y-64890714D01*
X143962380Y-64985952D01*
X143914761Y-65081190D01*
X143867142Y-65128809D01*
X143771904Y-65176428D01*
X143581428Y-65224047D01*
X143343333Y-65224047D01*
X143152857Y-65176428D01*
X143057619Y-65128809D01*
X143010000Y-65081190D01*
X142962380Y-64985952D01*
M02*
