M48
; DRILL file {KiCad (5.1.5)-3} date 05-Apr-20 7:39:03 PM
; FORMAT={-:-/ absolute / inch / decimal}
; #@! TF.CreationDate,2020-04-05T19:39:03+02:00
; #@! TF.GenerationSoftware,Kicad,Pcbnew,(5.1.5)-3
; #@! TF.FileFunction,Plated,1,2,PTH
FMAT,2
INCH
T1C0.0300
T2C0.0315
T3C0.0394
T4C0.0512
%
G90
G05
T1
X4.2589Y-2.4956
X4.2589Y-2.5956
X4.2589Y-2.6956
X4.2589Y-2.7956
X4.2589Y-2.8956
X4.2589Y-2.9956
X4.2589Y-3.0956
X4.2589Y-3.1956
X4.2589Y-3.2956
X4.2589Y-3.3956
X4.2589Y-3.4956
X4.2589Y-3.5956
X4.2589Y-3.6956
X4.2589Y-3.7956
X4.3589Y-2.4956
X4.4589Y-2.4956
X4.5589Y-2.4956
X4.6589Y-2.4956
X4.7589Y-2.4956
X4.8589Y-2.4956
X4.8589Y-2.5956
X4.8589Y-2.6956
X4.8589Y-2.7956
X4.8589Y-2.8956
X4.8589Y-2.9956
X4.8589Y-3.0956
X4.8589Y-3.1956
X4.8589Y-3.2956
X4.8589Y-3.3956
X4.8589Y-3.4956
X4.8589Y-3.5956
X4.8589Y-3.6956
X4.8589Y-3.7956
X5.01Y-3.835
X5.01Y-3.935
X5.01Y-4.035
X5.01Y-4.135
X5.01Y-4.235
T2
X5.0Y-2.7
X5.0Y-2.8
X5.0Y-2.9
X5.0Y-3.0
X5.0Y-3.1
X5.0Y-3.2
X5.0Y-3.3
X5.0Y-3.4
X5.0Y-3.5
X5.3Y-2.7
X5.3Y-2.8
X5.3Y-2.9
X5.3Y-3.0
X5.3Y-3.1
X5.3Y-3.2
X5.3Y-3.3
X5.3Y-3.4
X5.3Y-3.5
T3
X4.7Y-4.2
X4.7Y-4.3
X5.45Y-2.7
X5.45Y-2.8
X5.45Y-2.9
X5.45Y-3.0
X5.45Y-3.1
X5.45Y-3.2
X5.45Y-3.3
X5.45Y-3.4
X5.55Y-2.7
X5.55Y-2.8
X5.55Y-2.9
X5.55Y-3.0
X5.55Y-3.1
X5.55Y-3.2
X5.55Y-3.3
X5.55Y-3.4
X4.4Y-2.35
X4.5Y-2.35
X4.6Y-2.35
X4.7Y-2.35
T4
X4.3Y-4.25
X4.5Y-4.25
T0
M30
