G04 #@! TF.GenerationSoftware,KiCad,Pcbnew,(5.1.5)-3*
G04 #@! TF.CreationDate,2020-04-07T17:58:51+02:00*
G04 #@! TF.ProjectId,DrSquigglesController,44725371-7569-4676-976c-6573436f6e74,rev?*
G04 #@! TF.SameCoordinates,Original*
G04 #@! TF.FileFunction,Legend,Top*
G04 #@! TF.FilePolarity,Positive*
%FSLAX46Y46*%
G04 Gerber Fmt 4.6, Leading zero omitted, Abs format (unit mm)*
G04 Created by KiCad (PCBNEW (5.1.5)-3) date 2020-04-07 17:58:51*
%MOMM*%
%LPD*%
G04 APERTURE LIST*
%ADD10C,0.010000*%
%ADD11C,0.120000*%
%ADD12C,0.150000*%
G04 APERTURE END LIST*
D10*
G36*
X139763027Y-56928486D02*
G01*
X139912256Y-56932913D01*
X140019723Y-56940410D01*
X140041738Y-56943219D01*
X140178566Y-56987739D01*
X140298498Y-57069851D01*
X140384467Y-57175181D01*
X140415961Y-57258417D01*
X140412101Y-57395791D01*
X140358053Y-57529277D01*
X140264240Y-57636060D01*
X140233723Y-57657186D01*
X140199205Y-57676206D01*
X140160242Y-57691021D01*
X140108957Y-57702130D01*
X140037473Y-57710034D01*
X139937914Y-57715233D01*
X139802402Y-57718230D01*
X139623061Y-57719523D01*
X139392013Y-57719615D01*
X139255500Y-57719368D01*
X139023266Y-57717923D01*
X138809440Y-57714804D01*
X138622966Y-57710284D01*
X138472787Y-57704635D01*
X138367847Y-57698130D01*
X138317091Y-57691042D01*
X138316285Y-57690738D01*
X138215229Y-57621348D01*
X138132825Y-57514393D01*
X138085925Y-57394551D01*
X138080868Y-57346001D01*
X138105580Y-57213815D01*
X138170109Y-57088593D01*
X138260435Y-56996050D01*
X138277488Y-56985338D01*
X138328903Y-56973442D01*
X138433289Y-56962354D01*
X138580121Y-56952326D01*
X138758873Y-56943609D01*
X138959019Y-56936454D01*
X139170033Y-56931113D01*
X139381390Y-56927838D01*
X139582563Y-56926878D01*
X139763027Y-56928486D01*
G37*
X139763027Y-56928486D02*
X139912256Y-56932913D01*
X140019723Y-56940410D01*
X140041738Y-56943219D01*
X140178566Y-56987739D01*
X140298498Y-57069851D01*
X140384467Y-57175181D01*
X140415961Y-57258417D01*
X140412101Y-57395791D01*
X140358053Y-57529277D01*
X140264240Y-57636060D01*
X140233723Y-57657186D01*
X140199205Y-57676206D01*
X140160242Y-57691021D01*
X140108957Y-57702130D01*
X140037473Y-57710034D01*
X139937914Y-57715233D01*
X139802402Y-57718230D01*
X139623061Y-57719523D01*
X139392013Y-57719615D01*
X139255500Y-57719368D01*
X139023266Y-57717923D01*
X138809440Y-57714804D01*
X138622966Y-57710284D01*
X138472787Y-57704635D01*
X138367847Y-57698130D01*
X138317091Y-57691042D01*
X138316285Y-57690738D01*
X138215229Y-57621348D01*
X138132825Y-57514393D01*
X138085925Y-57394551D01*
X138080868Y-57346001D01*
X138105580Y-57213815D01*
X138170109Y-57088593D01*
X138260435Y-56996050D01*
X138277488Y-56985338D01*
X138328903Y-56973442D01*
X138433289Y-56962354D01*
X138580121Y-56952326D01*
X138758873Y-56943609D01*
X138959019Y-56936454D01*
X139170033Y-56931113D01*
X139381390Y-56927838D01*
X139582563Y-56926878D01*
X139763027Y-56928486D01*
G36*
X141734970Y-56964204D02*
G01*
X141866036Y-56966966D01*
X141953448Y-56971882D01*
X141972895Y-56974385D01*
X142075372Y-57015868D01*
X142190375Y-57097052D01*
X142299583Y-57202132D01*
X142384673Y-57315304D01*
X142399845Y-57342646D01*
X142445416Y-57483152D01*
X142461465Y-57649811D01*
X142447418Y-57813992D01*
X142411605Y-57929753D01*
X142313297Y-58075796D01*
X142174783Y-58202166D01*
X142016628Y-58292305D01*
X141925581Y-58321123D01*
X141762776Y-58346601D01*
X141599503Y-58356016D01*
X141452928Y-58349749D01*
X141340222Y-58328183D01*
X141294564Y-58307074D01*
X141235044Y-58237089D01*
X141230652Y-58159188D01*
X141262100Y-58108850D01*
X141315857Y-58088270D01*
X141422517Y-58075141D01*
X141564744Y-58070750D01*
X141764730Y-58061204D01*
X141915170Y-58030132D01*
X142027454Y-57973876D01*
X142106834Y-57896751D01*
X142182085Y-57756340D01*
X142195588Y-57608795D01*
X142155961Y-57478867D01*
X142108450Y-57392816D01*
X142056865Y-57328865D01*
X141991046Y-57283348D01*
X141900831Y-57252599D01*
X141776058Y-57232954D01*
X141606567Y-57220748D01*
X141420235Y-57213500D01*
X140922375Y-57197625D01*
X140922375Y-56975375D01*
X141398625Y-56965978D01*
X141574437Y-56963806D01*
X141734970Y-56964204D01*
G37*
X141734970Y-56964204D02*
X141866036Y-56966966D01*
X141953448Y-56971882D01*
X141972895Y-56974385D01*
X142075372Y-57015868D01*
X142190375Y-57097052D01*
X142299583Y-57202132D01*
X142384673Y-57315304D01*
X142399845Y-57342646D01*
X142445416Y-57483152D01*
X142461465Y-57649811D01*
X142447418Y-57813992D01*
X142411605Y-57929753D01*
X142313297Y-58075796D01*
X142174783Y-58202166D01*
X142016628Y-58292305D01*
X141925581Y-58321123D01*
X141762776Y-58346601D01*
X141599503Y-58356016D01*
X141452928Y-58349749D01*
X141340222Y-58328183D01*
X141294564Y-58307074D01*
X141235044Y-58237089D01*
X141230652Y-58159188D01*
X141262100Y-58108850D01*
X141315857Y-58088270D01*
X141422517Y-58075141D01*
X141564744Y-58070750D01*
X141764730Y-58061204D01*
X141915170Y-58030132D01*
X142027454Y-57973876D01*
X142106834Y-57896751D01*
X142182085Y-57756340D01*
X142195588Y-57608795D01*
X142155961Y-57478867D01*
X142108450Y-57392816D01*
X142056865Y-57328865D01*
X141991046Y-57283348D01*
X141900831Y-57252599D01*
X141776058Y-57232954D01*
X141606567Y-57220748D01*
X141420235Y-57213500D01*
X140922375Y-57197625D01*
X140922375Y-56975375D01*
X141398625Y-56965978D01*
X141574437Y-56963806D01*
X141734970Y-56964204D01*
G36*
X139191452Y-58072484D02*
G01*
X139329214Y-58079199D01*
X139421111Y-58093158D01*
X139475931Y-58116627D01*
X139502464Y-58151869D01*
X139509497Y-58201151D01*
X139509500Y-58202299D01*
X139494293Y-58263398D01*
X139444097Y-58306974D01*
X139352049Y-58335063D01*
X139211285Y-58349702D01*
X139014942Y-58352930D01*
X139002372Y-58352816D01*
X138851486Y-58350129D01*
X138720412Y-58345637D01*
X138624331Y-58339997D01*
X138580834Y-58334618D01*
X138528713Y-58292735D01*
X138502870Y-58219283D01*
X138510715Y-58143325D01*
X138525592Y-58117962D01*
X138554827Y-58098129D01*
X138610393Y-58084455D01*
X138701929Y-58075979D01*
X138839072Y-58071739D01*
X138999037Y-58070750D01*
X139191452Y-58072484D01*
G37*
X139191452Y-58072484D02*
X139329214Y-58079199D01*
X139421111Y-58093158D01*
X139475931Y-58116627D01*
X139502464Y-58151869D01*
X139509497Y-58201151D01*
X139509500Y-58202299D01*
X139494293Y-58263398D01*
X139444097Y-58306974D01*
X139352049Y-58335063D01*
X139211285Y-58349702D01*
X139014942Y-58352930D01*
X139002372Y-58352816D01*
X138851486Y-58350129D01*
X138720412Y-58345637D01*
X138624331Y-58339997D01*
X138580834Y-58334618D01*
X138528713Y-58292735D01*
X138502870Y-58219283D01*
X138510715Y-58143325D01*
X138525592Y-58117962D01*
X138554827Y-58098129D01*
X138610393Y-58084455D01*
X138701929Y-58075979D01*
X138839072Y-58071739D01*
X138999037Y-58070750D01*
X139191452Y-58072484D01*
G36*
X138040738Y-57975265D02*
G01*
X138119161Y-58037233D01*
X138170675Y-58121908D01*
X138185086Y-58219681D01*
X138152201Y-58320946D01*
X138115066Y-58369643D01*
X138023075Y-58442784D01*
X137922296Y-58463758D01*
X137867070Y-58458569D01*
X137783889Y-58417468D01*
X137713454Y-58335317D01*
X137672440Y-58234442D01*
X137668000Y-58192025D01*
X137695008Y-58091879D01*
X137745931Y-58021681D01*
X137843930Y-57957881D01*
X137945597Y-57945612D01*
X138040738Y-57975265D01*
G37*
X138040738Y-57975265D02*
X138119161Y-58037233D01*
X138170675Y-58121908D01*
X138185086Y-58219681D01*
X138152201Y-58320946D01*
X138115066Y-58369643D01*
X138023075Y-58442784D01*
X137922296Y-58463758D01*
X137867070Y-58458569D01*
X137783889Y-58417468D01*
X137713454Y-58335317D01*
X137672440Y-58234442D01*
X137668000Y-58192025D01*
X137695008Y-58091879D01*
X137745931Y-58021681D01*
X137843930Y-57957881D01*
X137945597Y-57945612D01*
X138040738Y-57975265D01*
G36*
X141657258Y-58616626D02*
G01*
X141699989Y-58617485D01*
X141872478Y-58621907D01*
X141992563Y-58627808D01*
X142071341Y-58636954D01*
X142119907Y-58651109D01*
X142149356Y-58672037D01*
X142164329Y-58691347D01*
X142190590Y-58749203D01*
X142173381Y-58803647D01*
X142158404Y-58826285D01*
X142134875Y-58854678D01*
X142103578Y-58874144D01*
X142053229Y-58886357D01*
X141972543Y-58892994D01*
X141850237Y-58895733D01*
X141687495Y-58896250D01*
X141512605Y-58895263D01*
X141389981Y-58891387D01*
X141308406Y-58883250D01*
X141256664Y-58869479D01*
X141223537Y-58848702D01*
X141213045Y-58838187D01*
X141166703Y-58768596D01*
X141176356Y-58709995D01*
X141219614Y-58662093D01*
X141252773Y-58640004D01*
X141301842Y-58625460D01*
X141378095Y-58617414D01*
X141492809Y-58614818D01*
X141657258Y-58616626D01*
G37*
X141657258Y-58616626D02*
X141699989Y-58617485D01*
X141872478Y-58621907D01*
X141992563Y-58627808D01*
X142071341Y-58636954D01*
X142119907Y-58651109D01*
X142149356Y-58672037D01*
X142164329Y-58691347D01*
X142190590Y-58749203D01*
X142173381Y-58803647D01*
X142158404Y-58826285D01*
X142134875Y-58854678D01*
X142103578Y-58874144D01*
X142053229Y-58886357D01*
X141972543Y-58892994D01*
X141850237Y-58895733D01*
X141687495Y-58896250D01*
X141512605Y-58895263D01*
X141389981Y-58891387D01*
X141308406Y-58883250D01*
X141256664Y-58869479D01*
X141223537Y-58848702D01*
X141213045Y-58838187D01*
X141166703Y-58768596D01*
X141176356Y-58709995D01*
X141219614Y-58662093D01*
X141252773Y-58640004D01*
X141301842Y-58625460D01*
X141378095Y-58617414D01*
X141492809Y-58614818D01*
X141657258Y-58616626D01*
G36*
X139614780Y-58563179D02*
G01*
X139692432Y-58621421D01*
X139713052Y-58644686D01*
X139775564Y-58733244D01*
X139790989Y-58809023D01*
X139762621Y-58897902D01*
X139748799Y-58925729D01*
X139671523Y-59014671D01*
X139567034Y-59056342D01*
X139452813Y-59048581D01*
X139346337Y-58989228D01*
X139333431Y-58977068D01*
X139270281Y-58876590D01*
X139260032Y-58768667D01*
X139296165Y-58668243D01*
X139372159Y-58590259D01*
X139481492Y-58549659D01*
X139521109Y-58547000D01*
X139614780Y-58563179D01*
G37*
X139614780Y-58563179D02*
X139692432Y-58621421D01*
X139713052Y-58644686D01*
X139775564Y-58733244D01*
X139790989Y-58809023D01*
X139762621Y-58897902D01*
X139748799Y-58925729D01*
X139671523Y-59014671D01*
X139567034Y-59056342D01*
X139452813Y-59048581D01*
X139346337Y-58989228D01*
X139333431Y-58977068D01*
X139270281Y-58876590D01*
X139260032Y-58768667D01*
X139296165Y-58668243D01*
X139372159Y-58590259D01*
X139481492Y-58549659D01*
X139521109Y-58547000D01*
X139614780Y-58563179D01*
G36*
X137349750Y-56988767D02*
G01*
X137411695Y-57043156D01*
X137429338Y-57067739D01*
X137443511Y-57096399D01*
X137454593Y-57135895D01*
X137462963Y-57192985D01*
X137469002Y-57274428D01*
X137473088Y-57386984D01*
X137475601Y-57537409D01*
X137476920Y-57732462D01*
X137477426Y-57978903D01*
X137477500Y-58215084D01*
X137477500Y-59303355D01*
X137379813Y-59385552D01*
X137285847Y-59448981D01*
X137201511Y-59461337D01*
X137102712Y-59425351D01*
X137089713Y-59418443D01*
X137049057Y-59391945D01*
X137016135Y-59356813D01*
X136990229Y-59306702D01*
X136970621Y-59235269D01*
X136956594Y-59136169D01*
X136947427Y-59003057D01*
X136942405Y-58829590D01*
X136940808Y-58609422D01*
X136941918Y-58336210D01*
X136943735Y-58128825D01*
X136953625Y-57123276D01*
X137030596Y-57041388D01*
X137130573Y-56973719D01*
X137243335Y-56956208D01*
X137349750Y-56988767D01*
G37*
X137349750Y-56988767D02*
X137411695Y-57043156D01*
X137429338Y-57067739D01*
X137443511Y-57096399D01*
X137454593Y-57135895D01*
X137462963Y-57192985D01*
X137469002Y-57274428D01*
X137473088Y-57386984D01*
X137475601Y-57537409D01*
X137476920Y-57732462D01*
X137477426Y-57978903D01*
X137477500Y-58215084D01*
X137477500Y-59303355D01*
X137379813Y-59385552D01*
X137285847Y-59448981D01*
X137201511Y-59461337D01*
X137102712Y-59425351D01*
X137089713Y-59418443D01*
X137049057Y-59391945D01*
X137016135Y-59356813D01*
X136990229Y-59306702D01*
X136970621Y-59235269D01*
X136956594Y-59136169D01*
X136947427Y-59003057D01*
X136942405Y-58829590D01*
X136940808Y-58609422D01*
X136941918Y-58336210D01*
X136943735Y-58128825D01*
X136953625Y-57123276D01*
X137030596Y-57041388D01*
X137130573Y-56973719D01*
X137243335Y-56956208D01*
X137349750Y-56988767D01*
G36*
X139614780Y-59229929D02*
G01*
X139692432Y-59288171D01*
X139713052Y-59311436D01*
X139766127Y-59388461D01*
X139794012Y-59456144D01*
X139795250Y-59467750D01*
X139775692Y-59528848D01*
X139727260Y-59606295D01*
X139713052Y-59624063D01*
X139611812Y-59703076D01*
X139498416Y-59724028D01*
X139386197Y-59686225D01*
X139333431Y-59643818D01*
X139270281Y-59543340D01*
X139260032Y-59435417D01*
X139296165Y-59334993D01*
X139372159Y-59257009D01*
X139481492Y-59216409D01*
X139521109Y-59213750D01*
X139614780Y-59229929D01*
G37*
X139614780Y-59229929D02*
X139692432Y-59288171D01*
X139713052Y-59311436D01*
X139766127Y-59388461D01*
X139794012Y-59456144D01*
X139795250Y-59467750D01*
X139775692Y-59528848D01*
X139727260Y-59606295D01*
X139713052Y-59624063D01*
X139611812Y-59703076D01*
X139498416Y-59724028D01*
X139386197Y-59686225D01*
X139333431Y-59643818D01*
X139270281Y-59543340D01*
X139260032Y-59435417D01*
X139296165Y-59334993D01*
X139372159Y-59257009D01*
X139481492Y-59216409D01*
X139521109Y-59213750D01*
X139614780Y-59229929D01*
G36*
X137949372Y-59107848D02*
G01*
X138036005Y-59159035D01*
X138155492Y-59236728D01*
X138298893Y-59335088D01*
X138457266Y-59448279D01*
X138477625Y-59463147D01*
X138672420Y-59608004D01*
X138818357Y-59722890D01*
X138919593Y-59812784D01*
X138980289Y-59882662D01*
X139004602Y-59937503D01*
X138996692Y-59982285D01*
X138960717Y-60021985D01*
X138950821Y-60029533D01*
X138896095Y-60062814D01*
X138871383Y-60071000D01*
X138839500Y-60053371D01*
X138764734Y-60004386D01*
X138655659Y-59929896D01*
X138520850Y-59835752D01*
X138377389Y-59733894D01*
X138181409Y-59593062D01*
X138031550Y-59483415D01*
X137921804Y-59399871D01*
X137846167Y-59337353D01*
X137798631Y-59290781D01*
X137773189Y-59255076D01*
X137763835Y-59225158D01*
X137763250Y-59214565D01*
X137790916Y-59138351D01*
X137860923Y-59093928D01*
X137904537Y-59089004D01*
X137949372Y-59107848D01*
G37*
X137949372Y-59107848D02*
X138036005Y-59159035D01*
X138155492Y-59236728D01*
X138298893Y-59335088D01*
X138457266Y-59448279D01*
X138477625Y-59463147D01*
X138672420Y-59608004D01*
X138818357Y-59722890D01*
X138919593Y-59812784D01*
X138980289Y-59882662D01*
X139004602Y-59937503D01*
X138996692Y-59982285D01*
X138960717Y-60021985D01*
X138950821Y-60029533D01*
X138896095Y-60062814D01*
X138871383Y-60071000D01*
X138839500Y-60053371D01*
X138764734Y-60004386D01*
X138655659Y-59929896D01*
X138520850Y-59835752D01*
X138377389Y-59733894D01*
X138181409Y-59593062D01*
X138031550Y-59483415D01*
X137921804Y-59399871D01*
X137846167Y-59337353D01*
X137798631Y-59290781D01*
X137773189Y-59255076D01*
X137763835Y-59225158D01*
X137763250Y-59214565D01*
X137790916Y-59138351D01*
X137860923Y-59093928D01*
X137904537Y-59089004D01*
X137949372Y-59107848D01*
G36*
X139187071Y-60642864D02*
G01*
X139337532Y-60653596D01*
X139456047Y-60670749D01*
X139527168Y-60694232D01*
X139528114Y-60694839D01*
X139632129Y-60796338D01*
X139686245Y-60922067D01*
X139691080Y-61057782D01*
X139647254Y-61189239D01*
X139555384Y-61302192D01*
X139500021Y-61342285D01*
X139447281Y-61369024D01*
X139384180Y-61386937D01*
X139297414Y-61397678D01*
X139173678Y-61402902D01*
X139001500Y-61404262D01*
X138828000Y-61402874D01*
X138704656Y-61397608D01*
X138618164Y-61386810D01*
X138555216Y-61368824D01*
X138502978Y-61342285D01*
X138402904Y-61254440D01*
X138331168Y-61140303D01*
X138303013Y-61024296D01*
X138303000Y-61021937D01*
X138326172Y-60910680D01*
X138385098Y-60797531D01*
X138463893Y-60709886D01*
X138496204Y-60688726D01*
X138574695Y-60665979D01*
X138698474Y-60650111D01*
X138852094Y-60641030D01*
X139020109Y-60638645D01*
X139187071Y-60642864D01*
G37*
X139187071Y-60642864D02*
X139337532Y-60653596D01*
X139456047Y-60670749D01*
X139527168Y-60694232D01*
X139528114Y-60694839D01*
X139632129Y-60796338D01*
X139686245Y-60922067D01*
X139691080Y-61057782D01*
X139647254Y-61189239D01*
X139555384Y-61302192D01*
X139500021Y-61342285D01*
X139447281Y-61369024D01*
X139384180Y-61386937D01*
X139297414Y-61397678D01*
X139173678Y-61402902D01*
X139001500Y-61404262D01*
X138828000Y-61402874D01*
X138704656Y-61397608D01*
X138618164Y-61386810D01*
X138555216Y-61368824D01*
X138502978Y-61342285D01*
X138402904Y-61254440D01*
X138331168Y-61140303D01*
X138303013Y-61024296D01*
X138303000Y-61021937D01*
X138326172Y-60910680D01*
X138385098Y-60797531D01*
X138463893Y-60709886D01*
X138496204Y-60688726D01*
X138574695Y-60665979D01*
X138698474Y-60650111D01*
X138852094Y-60641030D01*
X139020109Y-60638645D01*
X139187071Y-60642864D01*
G36*
X137926096Y-59842060D02*
G01*
X137957479Y-59877221D01*
X137974647Y-59902190D01*
X137988187Y-59934699D01*
X137998525Y-59982007D01*
X138006088Y-60051371D01*
X138011304Y-60150049D01*
X138014600Y-60285299D01*
X138016403Y-60464380D01*
X138017139Y-60694549D01*
X138017250Y-60892952D01*
X138016832Y-61169080D01*
X138015352Y-61388675D01*
X138012471Y-61558704D01*
X138007848Y-61686130D01*
X138001142Y-61777917D01*
X137992016Y-61841030D01*
X137980127Y-61882434D01*
X137967824Y-61905435D01*
X137907832Y-61964547D01*
X137839944Y-61966632D01*
X137787062Y-61941706D01*
X137771635Y-61928588D01*
X137759342Y-61904746D01*
X137749831Y-61863545D01*
X137742752Y-61798352D01*
X137737751Y-61702535D01*
X137734478Y-61569458D01*
X137732579Y-61392490D01*
X137731704Y-61164996D01*
X137731500Y-60894241D01*
X137731500Y-59879138D01*
X137814604Y-59841273D01*
X137879674Y-59820735D01*
X137926096Y-59842060D01*
G37*
X137926096Y-59842060D02*
X137957479Y-59877221D01*
X137974647Y-59902190D01*
X137988187Y-59934699D01*
X137998525Y-59982007D01*
X138006088Y-60051371D01*
X138011304Y-60150049D01*
X138014600Y-60285299D01*
X138016403Y-60464380D01*
X138017139Y-60694549D01*
X138017250Y-60892952D01*
X138016832Y-61169080D01*
X138015352Y-61388675D01*
X138012471Y-61558704D01*
X138007848Y-61686130D01*
X138001142Y-61777917D01*
X137992016Y-61841030D01*
X137980127Y-61882434D01*
X137967824Y-61905435D01*
X137907832Y-61964547D01*
X137839944Y-61966632D01*
X137787062Y-61941706D01*
X137771635Y-61928588D01*
X137759342Y-61904746D01*
X137749831Y-61863545D01*
X137742752Y-61798352D01*
X137737751Y-61702535D01*
X137734478Y-61569458D01*
X137732579Y-61392490D01*
X137731704Y-61164996D01*
X137731500Y-60894241D01*
X137731500Y-59879138D01*
X137814604Y-59841273D01*
X137879674Y-59820735D01*
X137926096Y-59842060D01*
G36*
X140695017Y-58171728D02*
G01*
X140729431Y-58194516D01*
X140753122Y-58242772D01*
X140768024Y-58324900D01*
X140776068Y-58449308D01*
X140779184Y-58624401D01*
X140779500Y-58738443D01*
X140779500Y-59234686D01*
X140987159Y-59191981D01*
X141253441Y-59166373D01*
X141505191Y-59197213D01*
X141737675Y-59278211D01*
X141946159Y-59403077D01*
X142125909Y-59565519D01*
X142272190Y-59759247D01*
X142380268Y-59977969D01*
X142445408Y-60215396D01*
X142462877Y-60465235D01*
X142427940Y-60721197D01*
X142335863Y-60976991D01*
X142333764Y-60981326D01*
X142275867Y-61078835D01*
X142194802Y-61188234D01*
X142101901Y-61297213D01*
X142008500Y-61393463D01*
X141925931Y-61464673D01*
X141865528Y-61498535D01*
X141856441Y-61499750D01*
X141845650Y-61529690D01*
X141836732Y-61612298D01*
X141830409Y-61736750D01*
X141827400Y-61892224D01*
X141827250Y-61937900D01*
X141825653Y-62130487D01*
X141819219Y-62268491D01*
X141805484Y-62360781D01*
X141781985Y-62416229D01*
X141746256Y-62443707D01*
X141695833Y-62452085D01*
X141684375Y-62452250D01*
X141611514Y-62435055D01*
X141579600Y-62414150D01*
X141559896Y-62359484D01*
X141547262Y-62242351D01*
X141541756Y-62063396D01*
X141541500Y-62005248D01*
X141541500Y-61634447D01*
X141391287Y-61666485D01*
X141182831Y-61681602D01*
X140957335Y-61647340D01*
X140730172Y-61568921D01*
X140516714Y-61451571D01*
X140341633Y-61309779D01*
X140167526Y-61097020D01*
X140047200Y-60860362D01*
X139980688Y-60608713D01*
X139968025Y-60350982D01*
X139973163Y-60319203D01*
X140249719Y-60319203D01*
X140252982Y-60539656D01*
X140304445Y-60750533D01*
X140399655Y-60944099D01*
X140534159Y-61112622D01*
X140703503Y-61248369D01*
X140903234Y-61343606D01*
X141128899Y-61390600D01*
X141276248Y-61392342D01*
X141385299Y-61382767D01*
X141470059Y-61369855D01*
X141506435Y-61358923D01*
X141520220Y-61320281D01*
X141530524Y-61222734D01*
X141537414Y-61065021D01*
X141540954Y-60845881D01*
X141541500Y-60690519D01*
X141542167Y-60466070D01*
X141544567Y-60296741D01*
X141549302Y-60174160D01*
X141556969Y-60089958D01*
X141568168Y-60035763D01*
X141583499Y-60003206D01*
X141591392Y-59993892D01*
X141657894Y-59949113D01*
X141722930Y-59961303D01*
X141769187Y-59996545D01*
X141790057Y-60020965D01*
X141805278Y-60057065D01*
X141815722Y-60114226D01*
X141822262Y-60201828D01*
X141825769Y-60329250D01*
X141827114Y-60505873D01*
X141827250Y-60621205D01*
X141827250Y-61193318D01*
X141909646Y-61116346D01*
X142036160Y-60959645D01*
X142132143Y-60760318D01*
X142178457Y-60594875D01*
X142198185Y-60471141D01*
X142197996Y-60367853D01*
X142176714Y-60250700D01*
X142165062Y-60203926D01*
X142075342Y-59968680D01*
X141941719Y-59771056D01*
X141771796Y-59615615D01*
X141573176Y-59506916D01*
X141353462Y-59449519D01*
X141120257Y-59447984D01*
X140959314Y-59480750D01*
X140779500Y-59533023D01*
X140779013Y-59873449D01*
X140777300Y-60039064D01*
X140770959Y-60152560D01*
X140757346Y-60225285D01*
X140733819Y-60268589D01*
X140697737Y-60293821D01*
X140679398Y-60301322D01*
X140603782Y-60305531D01*
X140548079Y-60253672D01*
X140511159Y-60143925D01*
X140493592Y-60002178D01*
X140477559Y-59769375D01*
X140405610Y-59880500D01*
X140299111Y-60096906D01*
X140249719Y-60319203D01*
X139973163Y-60319203D01*
X140009245Y-60096076D01*
X140104382Y-59852903D01*
X140253469Y-59630371D01*
X140334866Y-59542567D01*
X140492119Y-59388375D01*
X140492934Y-58847752D01*
X140495292Y-58618595D01*
X140502688Y-58445562D01*
X140516777Y-58321366D01*
X140539218Y-58238719D01*
X140571667Y-58190335D01*
X140615780Y-58168928D01*
X140647950Y-58166000D01*
X140695017Y-58171728D01*
G37*
X140695017Y-58171728D02*
X140729431Y-58194516D01*
X140753122Y-58242772D01*
X140768024Y-58324900D01*
X140776068Y-58449308D01*
X140779184Y-58624401D01*
X140779500Y-58738443D01*
X140779500Y-59234686D01*
X140987159Y-59191981D01*
X141253441Y-59166373D01*
X141505191Y-59197213D01*
X141737675Y-59278211D01*
X141946159Y-59403077D01*
X142125909Y-59565519D01*
X142272190Y-59759247D01*
X142380268Y-59977969D01*
X142445408Y-60215396D01*
X142462877Y-60465235D01*
X142427940Y-60721197D01*
X142335863Y-60976991D01*
X142333764Y-60981326D01*
X142275867Y-61078835D01*
X142194802Y-61188234D01*
X142101901Y-61297213D01*
X142008500Y-61393463D01*
X141925931Y-61464673D01*
X141865528Y-61498535D01*
X141856441Y-61499750D01*
X141845650Y-61529690D01*
X141836732Y-61612298D01*
X141830409Y-61736750D01*
X141827400Y-61892224D01*
X141827250Y-61937900D01*
X141825653Y-62130487D01*
X141819219Y-62268491D01*
X141805484Y-62360781D01*
X141781985Y-62416229D01*
X141746256Y-62443707D01*
X141695833Y-62452085D01*
X141684375Y-62452250D01*
X141611514Y-62435055D01*
X141579600Y-62414150D01*
X141559896Y-62359484D01*
X141547262Y-62242351D01*
X141541756Y-62063396D01*
X141541500Y-62005248D01*
X141541500Y-61634447D01*
X141391287Y-61666485D01*
X141182831Y-61681602D01*
X140957335Y-61647340D01*
X140730172Y-61568921D01*
X140516714Y-61451571D01*
X140341633Y-61309779D01*
X140167526Y-61097020D01*
X140047200Y-60860362D01*
X139980688Y-60608713D01*
X139968025Y-60350982D01*
X139973163Y-60319203D01*
X140249719Y-60319203D01*
X140252982Y-60539656D01*
X140304445Y-60750533D01*
X140399655Y-60944099D01*
X140534159Y-61112622D01*
X140703503Y-61248369D01*
X140903234Y-61343606D01*
X141128899Y-61390600D01*
X141276248Y-61392342D01*
X141385299Y-61382767D01*
X141470059Y-61369855D01*
X141506435Y-61358923D01*
X141520220Y-61320281D01*
X141530524Y-61222734D01*
X141537414Y-61065021D01*
X141540954Y-60845881D01*
X141541500Y-60690519D01*
X141542167Y-60466070D01*
X141544567Y-60296741D01*
X141549302Y-60174160D01*
X141556969Y-60089958D01*
X141568168Y-60035763D01*
X141583499Y-60003206D01*
X141591392Y-59993892D01*
X141657894Y-59949113D01*
X141722930Y-59961303D01*
X141769187Y-59996545D01*
X141790057Y-60020965D01*
X141805278Y-60057065D01*
X141815722Y-60114226D01*
X141822262Y-60201828D01*
X141825769Y-60329250D01*
X141827114Y-60505873D01*
X141827250Y-60621205D01*
X141827250Y-61193318D01*
X141909646Y-61116346D01*
X142036160Y-60959645D01*
X142132143Y-60760318D01*
X142178457Y-60594875D01*
X142198185Y-60471141D01*
X142197996Y-60367853D01*
X142176714Y-60250700D01*
X142165062Y-60203926D01*
X142075342Y-59968680D01*
X141941719Y-59771056D01*
X141771796Y-59615615D01*
X141573176Y-59506916D01*
X141353462Y-59449519D01*
X141120257Y-59447984D01*
X140959314Y-59480750D01*
X140779500Y-59533023D01*
X140779013Y-59873449D01*
X140777300Y-60039064D01*
X140770959Y-60152560D01*
X140757346Y-60225285D01*
X140733819Y-60268589D01*
X140697737Y-60293821D01*
X140679398Y-60301322D01*
X140603782Y-60305531D01*
X140548079Y-60253672D01*
X140511159Y-60143925D01*
X140493592Y-60002178D01*
X140477559Y-59769375D01*
X140405610Y-59880500D01*
X140299111Y-60096906D01*
X140249719Y-60319203D01*
X139973163Y-60319203D01*
X140009245Y-60096076D01*
X140104382Y-59852903D01*
X140253469Y-59630371D01*
X140334866Y-59542567D01*
X140492119Y-59388375D01*
X140492934Y-58847752D01*
X140495292Y-58618595D01*
X140502688Y-58445562D01*
X140516777Y-58321366D01*
X140539218Y-58238719D01*
X140571667Y-58190335D01*
X140615780Y-58168928D01*
X140647950Y-58166000D01*
X140695017Y-58171728D01*
G36*
X140116846Y-61461310D02*
G01*
X140148229Y-61496471D01*
X140174304Y-61537222D01*
X140191645Y-61591373D01*
X140201924Y-61671620D01*
X140206817Y-61790661D01*
X140208000Y-61949854D01*
X140205336Y-62104111D01*
X140198094Y-62239303D01*
X140187398Y-62340347D01*
X140175132Y-62390837D01*
X140123212Y-62433175D01*
X140043844Y-62453596D01*
X139969020Y-62446543D01*
X139943416Y-62431083D01*
X139935861Y-62393347D01*
X139929497Y-62304038D01*
X139924853Y-62175080D01*
X139922459Y-62018395D01*
X139922250Y-61954152D01*
X139922250Y-61498388D01*
X140005354Y-61460523D01*
X140070424Y-61439985D01*
X140116846Y-61461310D01*
G37*
X140116846Y-61461310D02*
X140148229Y-61496471D01*
X140174304Y-61537222D01*
X140191645Y-61591373D01*
X140201924Y-61671620D01*
X140206817Y-61790661D01*
X140208000Y-61949854D01*
X140205336Y-62104111D01*
X140198094Y-62239303D01*
X140187398Y-62340347D01*
X140175132Y-62390837D01*
X140123212Y-62433175D01*
X140043844Y-62453596D01*
X139969020Y-62446543D01*
X139943416Y-62431083D01*
X139935861Y-62393347D01*
X139929497Y-62304038D01*
X139924853Y-62175080D01*
X139922459Y-62018395D01*
X139922250Y-61954152D01*
X139922250Y-61498388D01*
X140005354Y-61460523D01*
X140070424Y-61439985D01*
X140116846Y-61461310D01*
G36*
X137188248Y-59987405D02*
G01*
X137198312Y-60021594D01*
X137206207Y-60099461D01*
X137212008Y-60224348D01*
X137215789Y-60399594D01*
X137217625Y-60628539D01*
X137217589Y-60914524D01*
X137215948Y-61233593D01*
X137207625Y-62436375D01*
X137104417Y-62446325D01*
X137027920Y-62444452D01*
X136986320Y-62409714D01*
X136969479Y-62372821D01*
X136961036Y-62318574D01*
X136953656Y-62206642D01*
X136947495Y-62042834D01*
X136942707Y-61832956D01*
X136939448Y-61582819D01*
X136937874Y-61298229D01*
X136937749Y-61187247D01*
X136938079Y-60887343D01*
X136939248Y-60644539D01*
X136941525Y-60452441D01*
X136945181Y-60304651D01*
X136950484Y-60194773D01*
X136957704Y-60116411D01*
X136967112Y-60063169D01*
X136978976Y-60028649D01*
X136987175Y-60014564D01*
X137055937Y-59956001D01*
X137132054Y-59949747D01*
X137188248Y-59987405D01*
G37*
X137188248Y-59987405D02*
X137198312Y-60021594D01*
X137206207Y-60099461D01*
X137212008Y-60224348D01*
X137215789Y-60399594D01*
X137217625Y-60628539D01*
X137217589Y-60914524D01*
X137215948Y-61233593D01*
X137207625Y-62436375D01*
X137104417Y-62446325D01*
X137027920Y-62444452D01*
X136986320Y-62409714D01*
X136969479Y-62372821D01*
X136961036Y-62318574D01*
X136953656Y-62206642D01*
X136947495Y-62042834D01*
X136942707Y-61832956D01*
X136939448Y-61582819D01*
X136937874Y-61298229D01*
X136937749Y-61187247D01*
X136938079Y-60887343D01*
X136939248Y-60644539D01*
X136941525Y-60452441D01*
X136945181Y-60304651D01*
X136950484Y-60194773D01*
X136957704Y-60116411D01*
X136967112Y-60063169D01*
X136978976Y-60028649D01*
X136987175Y-60014564D01*
X137055937Y-59956001D01*
X137132054Y-59949747D01*
X137188248Y-59987405D01*
G36*
X138938724Y-61983989D02*
G01*
X139012265Y-62051155D01*
X139055929Y-62140385D01*
X139059610Y-62241596D01*
X139013204Y-62344707D01*
X138993562Y-62368538D01*
X138896454Y-62446740D01*
X138794064Y-62465285D01*
X138693043Y-62436869D01*
X138600958Y-62367194D01*
X138554317Y-62268288D01*
X138555297Y-62157398D01*
X138606076Y-62051770D01*
X138639889Y-62015687D01*
X138742430Y-61956173D01*
X138845410Y-61948968D01*
X138938724Y-61983989D01*
G37*
X138938724Y-61983989D02*
X139012265Y-62051155D01*
X139055929Y-62140385D01*
X139059610Y-62241596D01*
X139013204Y-62344707D01*
X138993562Y-62368538D01*
X138896454Y-62446740D01*
X138794064Y-62465285D01*
X138693043Y-62436869D01*
X138600958Y-62367194D01*
X138554317Y-62268288D01*
X138555297Y-62157398D01*
X138606076Y-62051770D01*
X138639889Y-62015687D01*
X138742430Y-61956173D01*
X138845410Y-61948968D01*
X138938724Y-61983989D01*
D11*
X125790000Y-113090000D02*
X124460000Y-113090000D01*
X125790000Y-111760000D02*
X125790000Y-113090000D01*
X125790000Y-110490000D02*
X123130000Y-110490000D01*
X123130000Y-110490000D02*
X123130000Y-107890000D01*
X125790000Y-110490000D02*
X125790000Y-107890000D01*
X125790000Y-107890000D02*
X123130000Y-107890000D01*
X133460000Y-63440000D02*
X131810000Y-63440000D01*
X133460000Y-86420000D02*
X133460000Y-63440000D01*
X128160000Y-86420000D02*
X133460000Y-86420000D01*
X128160000Y-63440000D02*
X128160000Y-86420000D01*
X129810000Y-63440000D02*
X128160000Y-63440000D01*
X131810000Y-63440000D02*
G75*
G02X129810000Y-63440000I-1000000J0D01*
G01*
X125730000Y-105410000D02*
X125730000Y-87630000D01*
X143510000Y-105410000D02*
X125730000Y-105410000D01*
X143510000Y-87630000D02*
X143510000Y-105410000D01*
X125730000Y-87630000D02*
X143510000Y-87630000D01*
X127970000Y-116660000D02*
X128470000Y-116660000D01*
X127970000Y-115920000D02*
X127970000Y-116660000D01*
X134663000Y-112783000D02*
X134616000Y-112829000D01*
X136960000Y-110485000D02*
X136925000Y-110521000D01*
X134856000Y-112999000D02*
X134821000Y-113034000D01*
X137165000Y-110691000D02*
X137118000Y-110737000D01*
X138490000Y-106499000D02*
X138490000Y-116420000D01*
X128210000Y-106499000D02*
X128210000Y-116420000D01*
X128210000Y-116420000D02*
X138490000Y-116420000D01*
X128210000Y-106499000D02*
X138490000Y-106499000D01*
X128210000Y-109459000D02*
X138490000Y-109459000D01*
X128210000Y-114360000D02*
X138490000Y-114360000D01*
X128210000Y-115860000D02*
X138490000Y-115860000D01*
X137570000Y-111760000D02*
G75*
G03X137570000Y-111760000I-1680000J0D01*
G01*
X130838805Y-113440253D02*
G75*
G02X130126000Y-113295000I-28805J1680253D01*
G01*
X129274574Y-112443042D02*
G75*
G02X129275000Y-111076000I1535426J683042D01*
G01*
X130126958Y-110224574D02*
G75*
G02X131494000Y-110225000I683042J-1535426D01*
G01*
X132345426Y-111076958D02*
G75*
G02X132345000Y-112444000I-1535426J-683042D01*
G01*
X131493318Y-113294756D02*
G75*
G02X130810000Y-113440000I-683318J1534756D01*
G01*
X137100000Y-64710000D02*
X138430000Y-64710000D01*
X137100000Y-66040000D02*
X137100000Y-64710000D01*
X139700000Y-64710000D02*
X142300000Y-64710000D01*
X139700000Y-67310000D02*
X139700000Y-64710000D01*
X137100000Y-67310000D02*
X139700000Y-67310000D01*
X142300000Y-64710000D02*
X142300000Y-85150000D01*
X137100000Y-67310000D02*
X137100000Y-85150000D01*
X137100000Y-85150000D02*
X142300000Y-85150000D01*
X142300000Y-113090000D02*
X140970000Y-113090000D01*
X142300000Y-111760000D02*
X142300000Y-113090000D01*
X142300000Y-110490000D02*
X139640000Y-110490000D01*
X139640000Y-110490000D02*
X139640000Y-107890000D01*
X142300000Y-110490000D02*
X142300000Y-107890000D01*
X142300000Y-107890000D02*
X139640000Y-107890000D01*
X110430000Y-61020000D02*
X110430000Y-59690000D01*
X111760000Y-61020000D02*
X110430000Y-61020000D01*
X113030000Y-61020000D02*
X113030000Y-58360000D01*
X113030000Y-58360000D02*
X120710000Y-58360000D01*
X113030000Y-61020000D02*
X120710000Y-61020000D01*
X120710000Y-61020000D02*
X120710000Y-58360000D01*
D12*
X124126666Y-113542380D02*
X124126666Y-114256666D01*
X124079047Y-114399523D01*
X123983809Y-114494761D01*
X123840952Y-114542380D01*
X123745714Y-114542380D01*
X125079047Y-113542380D02*
X124602857Y-113542380D01*
X124555238Y-114018571D01*
X124602857Y-113970952D01*
X124698095Y-113923333D01*
X124936190Y-113923333D01*
X125031428Y-113970952D01*
X125079047Y-114018571D01*
X125126666Y-114113809D01*
X125126666Y-114351904D01*
X125079047Y-114447142D01*
X125031428Y-114494761D01*
X124936190Y-114542380D01*
X124698095Y-114542380D01*
X124602857Y-114494761D01*
X124555238Y-114447142D01*
X115035094Y-78079379D02*
X115035094Y-78888903D01*
X115082713Y-78984141D01*
X115130332Y-79031760D01*
X115225570Y-79079379D01*
X115416046Y-79079379D01*
X115511284Y-79031760D01*
X115558903Y-78984141D01*
X115606522Y-78888903D01*
X115606522Y-78079379D01*
X116606522Y-79079379D02*
X116035094Y-79079379D01*
X116320808Y-79079379D02*
X116320808Y-78079379D01*
X116225570Y-78222237D01*
X116130332Y-78317475D01*
X116035094Y-78365094D01*
X130048095Y-65492380D02*
X130048095Y-66301904D01*
X130095714Y-66397142D01*
X130143333Y-66444761D01*
X130238571Y-66492380D01*
X130429047Y-66492380D01*
X130524285Y-66444761D01*
X130571904Y-66397142D01*
X130619523Y-66301904D01*
X130619523Y-65492380D01*
X131000476Y-65492380D02*
X131619523Y-65492380D01*
X131286190Y-65873333D01*
X131429047Y-65873333D01*
X131524285Y-65920952D01*
X131571904Y-65968571D01*
X131619523Y-66063809D01*
X131619523Y-66301904D01*
X131571904Y-66397142D01*
X131524285Y-66444761D01*
X131429047Y-66492380D01*
X131143333Y-66492380D01*
X131048095Y-66444761D01*
X131000476Y-66397142D01*
X135128095Y-93432380D02*
X135128095Y-94241904D01*
X135175714Y-94337142D01*
X135223333Y-94384761D01*
X135318571Y-94432380D01*
X135509047Y-94432380D01*
X135604285Y-94384761D01*
X135651904Y-94337142D01*
X135699523Y-94241904D01*
X135699523Y-93432380D01*
X136128095Y-93527619D02*
X136175714Y-93480000D01*
X136270952Y-93432380D01*
X136509047Y-93432380D01*
X136604285Y-93480000D01*
X136651904Y-93527619D01*
X136699523Y-93622857D01*
X136699523Y-93718095D01*
X136651904Y-93860952D01*
X136080476Y-94432380D01*
X136699523Y-94432380D01*
X133016666Y-107402380D02*
X133016666Y-108116666D01*
X132969047Y-108259523D01*
X132873809Y-108354761D01*
X132730952Y-108402380D01*
X132635714Y-108402380D01*
X133921428Y-107735714D02*
X133921428Y-108402380D01*
X133683333Y-107354761D02*
X133445238Y-108069047D01*
X134064285Y-108069047D01*
X139366666Y-85812380D02*
X139366666Y-86526666D01*
X139319047Y-86669523D01*
X139223809Y-86764761D01*
X139080952Y-86812380D01*
X138985714Y-86812380D01*
X139747619Y-85812380D02*
X140366666Y-85812380D01*
X140033333Y-86193333D01*
X140176190Y-86193333D01*
X140271428Y-86240952D01*
X140319047Y-86288571D01*
X140366666Y-86383809D01*
X140366666Y-86621904D01*
X140319047Y-86717142D01*
X140271428Y-86764761D01*
X140176190Y-86812380D01*
X139890476Y-86812380D01*
X139795238Y-86764761D01*
X139747619Y-86717142D01*
X140636666Y-113542380D02*
X140636666Y-114256666D01*
X140589047Y-114399523D01*
X140493809Y-114494761D01*
X140350952Y-114542380D01*
X140255714Y-114542380D01*
X141065238Y-113637619D02*
X141112857Y-113590000D01*
X141208095Y-113542380D01*
X141446190Y-113542380D01*
X141541428Y-113590000D01*
X141589047Y-113637619D01*
X141636666Y-113732857D01*
X141636666Y-113828095D01*
X141589047Y-113970952D01*
X141017619Y-114542380D01*
X141636666Y-114542380D01*
X108882380Y-60023333D02*
X109596666Y-60023333D01*
X109739523Y-60070952D01*
X109834761Y-60166190D01*
X109882380Y-60309047D01*
X109882380Y-60404285D01*
X109882380Y-59023333D02*
X109882380Y-59594761D01*
X109882380Y-59309047D02*
X108882380Y-59309047D01*
X109025238Y-59404285D01*
X109120476Y-59499523D01*
X109168095Y-59594761D01*
M02*
