G04 #@! TF.GenerationSoftware,KiCad,Pcbnew,(5.1.5)-3*
G04 #@! TF.CreationDate,2020-04-07T15:58:51+02:00*
G04 #@! TF.ProjectId,DrSquigglesController,44725371-7569-4676-976c-6573436f6e74,rev?*
G04 #@! TF.SameCoordinates,Original*
G04 #@! TF.FileFunction,Soldermask,Top*
G04 #@! TF.FilePolarity,Negative*
%FSLAX46Y46*%
G04 Gerber Fmt 4.6, Leading zero omitted, Abs format (unit mm)*
G04 Created by KiCad (PCBNEW (5.1.5)-3) date 2020-04-07 15:58:51*
%MOMM*%
%LPD*%
G04 APERTURE LIST*
%ADD10C,0.100000*%
G04 APERTURE END LIST*
D10*
G36*
X136284072Y-110460918D02*
G01*
X136529939Y-110562759D01*
X136751212Y-110710610D01*
X136939390Y-110898788D01*
X137087241Y-111120061D01*
X137189082Y-111365928D01*
X137241000Y-111626938D01*
X137241000Y-111893062D01*
X137189082Y-112154072D01*
X137087241Y-112399939D01*
X136939390Y-112621212D01*
X136751212Y-112809390D01*
X136529939Y-112957241D01*
X136529938Y-112957242D01*
X136529937Y-112957242D01*
X136284072Y-113059082D01*
X136023063Y-113111000D01*
X135756937Y-113111000D01*
X135495928Y-113059082D01*
X135250063Y-112957242D01*
X135250062Y-112957242D01*
X135250061Y-112957241D01*
X135028788Y-112809390D01*
X134840610Y-112621212D01*
X134692759Y-112399939D01*
X134590918Y-112154072D01*
X134539000Y-111893062D01*
X134539000Y-111626938D01*
X134590918Y-111365928D01*
X134692759Y-111120061D01*
X134840610Y-110898788D01*
X135028788Y-110710610D01*
X135250061Y-110562759D01*
X135495928Y-110460918D01*
X135756937Y-110409000D01*
X136023063Y-110409000D01*
X136284072Y-110460918D01*
G37*
G36*
X132161000Y-113111000D02*
G01*
X129459000Y-113111000D01*
X129459000Y-110409000D01*
X132161000Y-110409000D01*
X132161000Y-113111000D01*
G37*
G36*
X125361000Y-112661000D02*
G01*
X123559000Y-112661000D01*
X123559000Y-110859000D01*
X125361000Y-110859000D01*
X125361000Y-112661000D01*
G37*
G36*
X141871000Y-112661000D02*
G01*
X140069000Y-112661000D01*
X140069000Y-110859000D01*
X141871000Y-110859000D01*
X141871000Y-112661000D01*
G37*
G36*
X141083512Y-108323927D02*
G01*
X141232812Y-108353624D01*
X141396784Y-108421544D01*
X141544354Y-108520147D01*
X141669853Y-108645646D01*
X141768456Y-108793216D01*
X141836376Y-108957188D01*
X141871000Y-109131259D01*
X141871000Y-109308741D01*
X141836376Y-109482812D01*
X141768456Y-109646784D01*
X141669853Y-109794354D01*
X141544354Y-109919853D01*
X141396784Y-110018456D01*
X141232812Y-110086376D01*
X141083512Y-110116073D01*
X141058742Y-110121000D01*
X140881258Y-110121000D01*
X140856488Y-110116073D01*
X140707188Y-110086376D01*
X140543216Y-110018456D01*
X140395646Y-109919853D01*
X140270147Y-109794354D01*
X140171544Y-109646784D01*
X140103624Y-109482812D01*
X140069000Y-109308741D01*
X140069000Y-109131259D01*
X140103624Y-108957188D01*
X140171544Y-108793216D01*
X140270147Y-108645646D01*
X140395646Y-108520147D01*
X140543216Y-108421544D01*
X140707188Y-108353624D01*
X140856488Y-108323927D01*
X140881258Y-108319000D01*
X141058742Y-108319000D01*
X141083512Y-108323927D01*
G37*
G36*
X124573512Y-108323927D02*
G01*
X124722812Y-108353624D01*
X124886784Y-108421544D01*
X125034354Y-108520147D01*
X125159853Y-108645646D01*
X125258456Y-108793216D01*
X125326376Y-108957188D01*
X125361000Y-109131259D01*
X125361000Y-109308741D01*
X125326376Y-109482812D01*
X125258456Y-109646784D01*
X125159853Y-109794354D01*
X125034354Y-109919853D01*
X124886784Y-110018456D01*
X124722812Y-110086376D01*
X124573512Y-110116073D01*
X124548742Y-110121000D01*
X124371258Y-110121000D01*
X124346488Y-110116073D01*
X124197188Y-110086376D01*
X124033216Y-110018456D01*
X123885646Y-109919853D01*
X123760147Y-109794354D01*
X123661544Y-109646784D01*
X123593624Y-109482812D01*
X123559000Y-109308741D01*
X123559000Y-109131259D01*
X123593624Y-108957188D01*
X123661544Y-108793216D01*
X123760147Y-108645646D01*
X123885646Y-108520147D01*
X124033216Y-108421544D01*
X124197188Y-108353624D01*
X124346488Y-108323927D01*
X124371258Y-108319000D01*
X124548742Y-108319000D01*
X124573512Y-108323927D01*
G37*
G36*
X127237142Y-98278242D02*
G01*
X127385101Y-98339529D01*
X127518255Y-98428499D01*
X127631501Y-98541745D01*
X127720471Y-98674899D01*
X127781758Y-98822858D01*
X127813000Y-98979925D01*
X127813000Y-99140075D01*
X127781758Y-99297142D01*
X127720471Y-99445101D01*
X127631501Y-99578255D01*
X127518255Y-99691501D01*
X127385101Y-99780471D01*
X127237142Y-99841758D01*
X127080075Y-99873000D01*
X126919925Y-99873000D01*
X126762858Y-99841758D01*
X126614899Y-99780471D01*
X126481745Y-99691501D01*
X126368499Y-99578255D01*
X126279529Y-99445101D01*
X126218242Y-99297142D01*
X126187000Y-99140075D01*
X126187000Y-98979925D01*
X126218242Y-98822858D01*
X126279529Y-98674899D01*
X126368499Y-98541745D01*
X126481745Y-98428499D01*
X126614899Y-98339529D01*
X126762858Y-98278242D01*
X126919925Y-98247000D01*
X127080075Y-98247000D01*
X127237142Y-98278242D01*
G37*
G36*
X127237142Y-95738242D02*
G01*
X127385101Y-95799529D01*
X127518255Y-95888499D01*
X127631501Y-96001745D01*
X127720471Y-96134899D01*
X127781758Y-96282858D01*
X127813000Y-96439925D01*
X127813000Y-96600075D01*
X127781758Y-96757142D01*
X127720471Y-96905101D01*
X127631501Y-97038255D01*
X127518255Y-97151501D01*
X127385101Y-97240471D01*
X127237142Y-97301758D01*
X127080075Y-97333000D01*
X126919925Y-97333000D01*
X126762858Y-97301758D01*
X126614899Y-97240471D01*
X126481745Y-97151501D01*
X126368499Y-97038255D01*
X126279529Y-96905101D01*
X126218242Y-96757142D01*
X126187000Y-96600075D01*
X126187000Y-96439925D01*
X126218242Y-96282858D01*
X126279529Y-96134899D01*
X126368499Y-96001745D01*
X126481745Y-95888499D01*
X126614899Y-95799529D01*
X126762858Y-95738242D01*
X126919925Y-95707000D01*
X127080075Y-95707000D01*
X127237142Y-95738242D01*
G37*
G36*
X108414141Y-95625241D02*
G01*
X108562100Y-95686528D01*
X108695254Y-95775498D01*
X108808500Y-95888744D01*
X108897470Y-96021898D01*
X108958757Y-96169857D01*
X108989999Y-96326924D01*
X108989999Y-96487074D01*
X108958757Y-96644141D01*
X108897470Y-96792100D01*
X108808500Y-96925254D01*
X108695254Y-97038500D01*
X108562100Y-97127470D01*
X108414141Y-97188757D01*
X108257074Y-97219999D01*
X108096924Y-97219999D01*
X107939857Y-97188757D01*
X107791898Y-97127470D01*
X107658744Y-97038500D01*
X107545498Y-96925254D01*
X107456528Y-96792100D01*
X107395241Y-96644141D01*
X107363999Y-96487074D01*
X107363999Y-96326924D01*
X107395241Y-96169857D01*
X107456528Y-96021898D01*
X107545498Y-95888744D01*
X107658744Y-95775498D01*
X107791898Y-95686528D01*
X107939857Y-95625241D01*
X108096924Y-95593999D01*
X108257074Y-95593999D01*
X108414141Y-95625241D01*
G37*
G36*
X123654141Y-95625241D02*
G01*
X123802100Y-95686528D01*
X123935254Y-95775498D01*
X124048500Y-95888744D01*
X124137470Y-96021898D01*
X124198757Y-96169857D01*
X124229999Y-96326924D01*
X124229999Y-96487074D01*
X124198757Y-96644141D01*
X124137470Y-96792100D01*
X124048500Y-96925254D01*
X123935254Y-97038500D01*
X123802100Y-97127470D01*
X123654141Y-97188757D01*
X123497074Y-97219999D01*
X123336924Y-97219999D01*
X123179857Y-97188757D01*
X123031898Y-97127470D01*
X122898744Y-97038500D01*
X122785498Y-96925254D01*
X122696528Y-96792100D01*
X122635241Y-96644141D01*
X122603999Y-96487074D01*
X122603999Y-96326924D01*
X122635241Y-96169857D01*
X122696528Y-96021898D01*
X122785498Y-95888744D01*
X122898744Y-95775498D01*
X123031898Y-95686528D01*
X123179857Y-95625241D01*
X123336924Y-95593999D01*
X123497074Y-95593999D01*
X123654141Y-95625241D01*
G37*
G36*
X127237142Y-93198242D02*
G01*
X127385101Y-93259529D01*
X127518255Y-93348499D01*
X127631501Y-93461745D01*
X127720471Y-93594899D01*
X127781758Y-93742858D01*
X127813000Y-93899925D01*
X127813000Y-94060075D01*
X127781758Y-94217142D01*
X127720471Y-94365101D01*
X127631501Y-94498255D01*
X127518255Y-94611501D01*
X127385101Y-94700471D01*
X127237142Y-94761758D01*
X127080075Y-94793000D01*
X126919925Y-94793000D01*
X126762858Y-94761758D01*
X126614899Y-94700471D01*
X126481745Y-94611501D01*
X126368499Y-94498255D01*
X126279529Y-94365101D01*
X126218242Y-94217142D01*
X126187000Y-94060075D01*
X126187000Y-93899925D01*
X126218242Y-93742858D01*
X126279529Y-93594899D01*
X126368499Y-93461745D01*
X126481745Y-93348499D01*
X126614899Y-93259529D01*
X126762858Y-93198242D01*
X126919925Y-93167000D01*
X127080075Y-93167000D01*
X127237142Y-93198242D01*
G37*
G36*
X123654141Y-93085241D02*
G01*
X123802100Y-93146528D01*
X123935254Y-93235498D01*
X124048500Y-93348744D01*
X124137470Y-93481898D01*
X124198757Y-93629857D01*
X124229999Y-93786924D01*
X124229999Y-93947074D01*
X124198757Y-94104141D01*
X124137470Y-94252100D01*
X124048500Y-94385254D01*
X123935254Y-94498500D01*
X123802100Y-94587470D01*
X123654141Y-94648757D01*
X123497074Y-94679999D01*
X123336924Y-94679999D01*
X123179857Y-94648757D01*
X123031898Y-94587470D01*
X122898744Y-94498500D01*
X122785498Y-94385254D01*
X122696528Y-94252100D01*
X122635241Y-94104141D01*
X122603999Y-93947074D01*
X122603999Y-93786924D01*
X122635241Y-93629857D01*
X122696528Y-93481898D01*
X122785498Y-93348744D01*
X122898744Y-93235498D01*
X123031898Y-93146528D01*
X123179857Y-93085241D01*
X123336924Y-93053999D01*
X123497074Y-93053999D01*
X123654141Y-93085241D01*
G37*
G36*
X108414141Y-93085241D02*
G01*
X108562100Y-93146528D01*
X108695254Y-93235498D01*
X108808500Y-93348744D01*
X108897470Y-93481898D01*
X108958757Y-93629857D01*
X108989999Y-93786924D01*
X108989999Y-93947074D01*
X108958757Y-94104141D01*
X108897470Y-94252100D01*
X108808500Y-94385254D01*
X108695254Y-94498500D01*
X108562100Y-94587470D01*
X108414141Y-94648757D01*
X108257074Y-94679999D01*
X108096924Y-94679999D01*
X107939857Y-94648757D01*
X107791898Y-94587470D01*
X107658744Y-94498500D01*
X107545498Y-94385254D01*
X107456528Y-94252100D01*
X107395241Y-94104141D01*
X107363999Y-93947074D01*
X107363999Y-93786924D01*
X107395241Y-93629857D01*
X107456528Y-93481898D01*
X107545498Y-93348744D01*
X107658744Y-93235498D01*
X107791898Y-93146528D01*
X107939857Y-93085241D01*
X108096924Y-93053999D01*
X108257074Y-93053999D01*
X108414141Y-93085241D01*
G37*
G36*
X127237142Y-90658242D02*
G01*
X127385101Y-90719529D01*
X127518255Y-90808499D01*
X127631501Y-90921745D01*
X127720471Y-91054899D01*
X127781758Y-91202858D01*
X127813000Y-91359925D01*
X127813000Y-91520075D01*
X127781758Y-91677142D01*
X127720471Y-91825101D01*
X127631501Y-91958255D01*
X127518255Y-92071501D01*
X127385101Y-92160471D01*
X127237142Y-92221758D01*
X127080075Y-92253000D01*
X126919925Y-92253000D01*
X126762858Y-92221758D01*
X126614899Y-92160471D01*
X126481745Y-92071501D01*
X126368499Y-91958255D01*
X126279529Y-91825101D01*
X126218242Y-91677142D01*
X126187000Y-91520075D01*
X126187000Y-91359925D01*
X126218242Y-91202858D01*
X126279529Y-91054899D01*
X126368499Y-90921745D01*
X126481745Y-90808499D01*
X126614899Y-90719529D01*
X126762858Y-90658242D01*
X126919925Y-90627000D01*
X127080075Y-90627000D01*
X127237142Y-90658242D01*
G37*
G36*
X108414141Y-90545241D02*
G01*
X108562100Y-90606528D01*
X108695254Y-90695498D01*
X108808500Y-90808744D01*
X108897470Y-90941898D01*
X108958757Y-91089857D01*
X108989999Y-91246924D01*
X108989999Y-91407074D01*
X108958757Y-91564141D01*
X108897470Y-91712100D01*
X108808500Y-91845254D01*
X108695254Y-91958500D01*
X108562100Y-92047470D01*
X108414141Y-92108757D01*
X108257074Y-92139999D01*
X108096924Y-92139999D01*
X107939857Y-92108757D01*
X107791898Y-92047470D01*
X107658744Y-91958500D01*
X107545498Y-91845254D01*
X107456528Y-91712100D01*
X107395241Y-91564141D01*
X107363999Y-91407074D01*
X107363999Y-91246924D01*
X107395241Y-91089857D01*
X107456528Y-90941898D01*
X107545498Y-90808744D01*
X107658744Y-90695498D01*
X107791898Y-90606528D01*
X107939857Y-90545241D01*
X108096924Y-90513999D01*
X108257074Y-90513999D01*
X108414141Y-90545241D01*
G37*
G36*
X123654141Y-90545241D02*
G01*
X123802100Y-90606528D01*
X123935254Y-90695498D01*
X124048500Y-90808744D01*
X124137470Y-90941898D01*
X124198757Y-91089857D01*
X124229999Y-91246924D01*
X124229999Y-91407074D01*
X124198757Y-91564141D01*
X124137470Y-91712100D01*
X124048500Y-91845254D01*
X123935254Y-91958500D01*
X123802100Y-92047470D01*
X123654141Y-92108757D01*
X123497074Y-92139999D01*
X123336924Y-92139999D01*
X123179857Y-92108757D01*
X123031898Y-92047470D01*
X122898744Y-91958500D01*
X122785498Y-91845254D01*
X122696528Y-91712100D01*
X122635241Y-91564141D01*
X122603999Y-91407074D01*
X122603999Y-91246924D01*
X122635241Y-91089857D01*
X122696528Y-90941898D01*
X122785498Y-90808744D01*
X122898744Y-90695498D01*
X123031898Y-90606528D01*
X123179857Y-90545241D01*
X123336924Y-90513999D01*
X123497074Y-90513999D01*
X123654141Y-90545241D01*
G37*
G36*
X127237142Y-88118242D02*
G01*
X127385101Y-88179529D01*
X127518255Y-88268499D01*
X127631501Y-88381745D01*
X127720471Y-88514899D01*
X127781758Y-88662858D01*
X127813000Y-88819925D01*
X127813000Y-88980075D01*
X127781758Y-89137142D01*
X127720471Y-89285101D01*
X127631501Y-89418255D01*
X127518255Y-89531501D01*
X127385101Y-89620471D01*
X127237142Y-89681758D01*
X127080075Y-89713000D01*
X126919925Y-89713000D01*
X126762858Y-89681758D01*
X126614899Y-89620471D01*
X126481745Y-89531501D01*
X126368499Y-89418255D01*
X126279529Y-89285101D01*
X126218242Y-89137142D01*
X126187000Y-88980075D01*
X126187000Y-88819925D01*
X126218242Y-88662858D01*
X126279529Y-88514899D01*
X126368499Y-88381745D01*
X126481745Y-88268499D01*
X126614899Y-88179529D01*
X126762858Y-88118242D01*
X126919925Y-88087000D01*
X127080075Y-88087000D01*
X127237142Y-88118242D01*
G37*
G36*
X108414141Y-88005241D02*
G01*
X108562100Y-88066528D01*
X108695254Y-88155498D01*
X108808500Y-88268744D01*
X108897470Y-88401898D01*
X108958757Y-88549857D01*
X108989999Y-88706924D01*
X108989999Y-88867074D01*
X108958757Y-89024141D01*
X108897470Y-89172100D01*
X108808500Y-89305254D01*
X108695254Y-89418500D01*
X108562100Y-89507470D01*
X108414141Y-89568757D01*
X108257074Y-89599999D01*
X108096924Y-89599999D01*
X107939857Y-89568757D01*
X107791898Y-89507470D01*
X107658744Y-89418500D01*
X107545498Y-89305254D01*
X107456528Y-89172100D01*
X107395241Y-89024141D01*
X107363999Y-88867074D01*
X107363999Y-88706924D01*
X107395241Y-88549857D01*
X107456528Y-88401898D01*
X107545498Y-88268744D01*
X107658744Y-88155498D01*
X107791898Y-88066528D01*
X107939857Y-88005241D01*
X108096924Y-87973999D01*
X108257074Y-87973999D01*
X108414141Y-88005241D01*
G37*
G36*
X123654141Y-88005241D02*
G01*
X123802100Y-88066528D01*
X123935254Y-88155498D01*
X124048500Y-88268744D01*
X124137470Y-88401898D01*
X124198757Y-88549857D01*
X124229999Y-88706924D01*
X124229999Y-88867074D01*
X124198757Y-89024141D01*
X124137470Y-89172100D01*
X124048500Y-89305254D01*
X123935254Y-89418500D01*
X123802100Y-89507470D01*
X123654141Y-89568757D01*
X123497074Y-89599999D01*
X123336924Y-89599999D01*
X123179857Y-89568757D01*
X123031898Y-89507470D01*
X122898744Y-89418500D01*
X122785498Y-89305254D01*
X122696528Y-89172100D01*
X122635241Y-89024141D01*
X122603999Y-88867074D01*
X122603999Y-88706924D01*
X122635241Y-88549857D01*
X122696528Y-88401898D01*
X122785498Y-88268744D01*
X122898744Y-88155498D01*
X123031898Y-88066528D01*
X123179857Y-88005241D01*
X123336924Y-87973999D01*
X123497074Y-87973999D01*
X123654141Y-88005241D01*
G37*
G36*
X123654141Y-85465241D02*
G01*
X123802100Y-85526528D01*
X123935254Y-85615498D01*
X124048500Y-85728744D01*
X124137470Y-85861898D01*
X124198757Y-86009857D01*
X124229999Y-86166924D01*
X124229999Y-86327074D01*
X124198757Y-86484141D01*
X124137470Y-86632100D01*
X124048500Y-86765254D01*
X123935254Y-86878500D01*
X123802100Y-86967470D01*
X123654141Y-87028757D01*
X123497074Y-87059999D01*
X123336924Y-87059999D01*
X123179857Y-87028757D01*
X123031898Y-86967470D01*
X122898744Y-86878500D01*
X122785498Y-86765254D01*
X122696528Y-86632100D01*
X122635241Y-86484141D01*
X122603999Y-86327074D01*
X122603999Y-86166924D01*
X122635241Y-86009857D01*
X122696528Y-85861898D01*
X122785498Y-85728744D01*
X122898744Y-85615498D01*
X123031898Y-85526528D01*
X123179857Y-85465241D01*
X123336924Y-85433999D01*
X123497074Y-85433999D01*
X123654141Y-85465241D01*
G37*
G36*
X108414141Y-85465241D02*
G01*
X108562100Y-85526528D01*
X108695254Y-85615498D01*
X108808500Y-85728744D01*
X108897470Y-85861898D01*
X108958757Y-86009857D01*
X108989999Y-86166924D01*
X108989999Y-86327074D01*
X108958757Y-86484141D01*
X108897470Y-86632100D01*
X108808500Y-86765254D01*
X108695254Y-86878500D01*
X108562100Y-86967470D01*
X108414141Y-87028757D01*
X108257074Y-87059999D01*
X108096924Y-87059999D01*
X107939857Y-87028757D01*
X107791898Y-86967470D01*
X107658744Y-86878500D01*
X107545498Y-86765254D01*
X107456528Y-86632100D01*
X107395241Y-86484141D01*
X107363999Y-86327074D01*
X107363999Y-86166924D01*
X107395241Y-86009857D01*
X107456528Y-85861898D01*
X107545498Y-85728744D01*
X107658744Y-85615498D01*
X107791898Y-85526528D01*
X107939857Y-85465241D01*
X108096924Y-85433999D01*
X108257074Y-85433999D01*
X108414141Y-85465241D01*
G37*
G36*
X127248228Y-84271703D02*
G01*
X127403100Y-84335853D01*
X127542481Y-84428985D01*
X127661015Y-84547519D01*
X127754147Y-84686900D01*
X127818297Y-84841772D01*
X127851000Y-85006184D01*
X127851000Y-85173816D01*
X127818297Y-85338228D01*
X127754147Y-85493100D01*
X127661015Y-85632481D01*
X127542481Y-85751015D01*
X127403100Y-85844147D01*
X127248228Y-85908297D01*
X127083816Y-85941000D01*
X126916184Y-85941000D01*
X126751772Y-85908297D01*
X126596900Y-85844147D01*
X126457519Y-85751015D01*
X126338985Y-85632481D01*
X126245853Y-85493100D01*
X126181703Y-85338228D01*
X126149000Y-85173816D01*
X126149000Y-85006184D01*
X126181703Y-84841772D01*
X126245853Y-84686900D01*
X126338985Y-84547519D01*
X126457519Y-84428985D01*
X126596900Y-84335853D01*
X126751772Y-84271703D01*
X126916184Y-84239000D01*
X127083816Y-84239000D01*
X127248228Y-84271703D01*
G37*
G36*
X134868228Y-84271703D02*
G01*
X135023100Y-84335853D01*
X135162481Y-84428985D01*
X135281015Y-84547519D01*
X135374147Y-84686900D01*
X135438297Y-84841772D01*
X135471000Y-85006184D01*
X135471000Y-85173816D01*
X135438297Y-85338228D01*
X135374147Y-85493100D01*
X135281015Y-85632481D01*
X135162481Y-85751015D01*
X135023100Y-85844147D01*
X134868228Y-85908297D01*
X134703816Y-85941000D01*
X134536184Y-85941000D01*
X134371772Y-85908297D01*
X134216900Y-85844147D01*
X134077519Y-85751015D01*
X133958985Y-85632481D01*
X133865853Y-85493100D01*
X133801703Y-85338228D01*
X133769000Y-85173816D01*
X133769000Y-85006184D01*
X133801703Y-84841772D01*
X133865853Y-84686900D01*
X133958985Y-84547519D01*
X134077519Y-84428985D01*
X134216900Y-84335853D01*
X134371772Y-84271703D01*
X134536184Y-84239000D01*
X134703816Y-84239000D01*
X134868228Y-84271703D01*
G37*
G36*
X138543512Y-82923927D02*
G01*
X138692812Y-82953624D01*
X138856784Y-83021544D01*
X139004354Y-83120147D01*
X139129853Y-83245646D01*
X139228456Y-83393216D01*
X139296376Y-83557188D01*
X139331000Y-83731259D01*
X139331000Y-83908741D01*
X139296376Y-84082812D01*
X139228456Y-84246784D01*
X139129853Y-84394354D01*
X139004354Y-84519853D01*
X138856784Y-84618456D01*
X138692812Y-84686376D01*
X138543512Y-84716073D01*
X138518742Y-84721000D01*
X138341258Y-84721000D01*
X138316488Y-84716073D01*
X138167188Y-84686376D01*
X138003216Y-84618456D01*
X137855646Y-84519853D01*
X137730147Y-84394354D01*
X137631544Y-84246784D01*
X137563624Y-84082812D01*
X137529000Y-83908741D01*
X137529000Y-83731259D01*
X137563624Y-83557188D01*
X137631544Y-83393216D01*
X137730147Y-83245646D01*
X137855646Y-83120147D01*
X138003216Y-83021544D01*
X138167188Y-82953624D01*
X138316488Y-82923927D01*
X138341258Y-82919000D01*
X138518742Y-82919000D01*
X138543512Y-82923927D01*
G37*
G36*
X141083512Y-82923927D02*
G01*
X141232812Y-82953624D01*
X141396784Y-83021544D01*
X141544354Y-83120147D01*
X141669853Y-83245646D01*
X141768456Y-83393216D01*
X141836376Y-83557188D01*
X141871000Y-83731259D01*
X141871000Y-83908741D01*
X141836376Y-84082812D01*
X141768456Y-84246784D01*
X141669853Y-84394354D01*
X141544354Y-84519853D01*
X141396784Y-84618456D01*
X141232812Y-84686376D01*
X141083512Y-84716073D01*
X141058742Y-84721000D01*
X140881258Y-84721000D01*
X140856488Y-84716073D01*
X140707188Y-84686376D01*
X140543216Y-84618456D01*
X140395646Y-84519853D01*
X140270147Y-84394354D01*
X140171544Y-84246784D01*
X140103624Y-84082812D01*
X140069000Y-83908741D01*
X140069000Y-83731259D01*
X140103624Y-83557188D01*
X140171544Y-83393216D01*
X140270147Y-83245646D01*
X140395646Y-83120147D01*
X140543216Y-83021544D01*
X140707188Y-82953624D01*
X140856488Y-82923927D01*
X140881258Y-82919000D01*
X141058742Y-82919000D01*
X141083512Y-82923927D01*
G37*
G36*
X123654141Y-82925241D02*
G01*
X123802100Y-82986528D01*
X123935254Y-83075498D01*
X124048500Y-83188744D01*
X124137470Y-83321898D01*
X124198757Y-83469857D01*
X124229999Y-83626924D01*
X124229999Y-83787074D01*
X124198757Y-83944141D01*
X124137470Y-84092100D01*
X124048500Y-84225254D01*
X123935254Y-84338500D01*
X123802100Y-84427470D01*
X123654141Y-84488757D01*
X123497074Y-84519999D01*
X123336924Y-84519999D01*
X123179857Y-84488757D01*
X123031898Y-84427470D01*
X122898744Y-84338500D01*
X122785498Y-84225254D01*
X122696528Y-84092100D01*
X122635241Y-83944141D01*
X122603999Y-83787074D01*
X122603999Y-83626924D01*
X122635241Y-83469857D01*
X122696528Y-83321898D01*
X122785498Y-83188744D01*
X122898744Y-83075498D01*
X123031898Y-82986528D01*
X123179857Y-82925241D01*
X123336924Y-82893999D01*
X123497074Y-82893999D01*
X123654141Y-82925241D01*
G37*
G36*
X108414141Y-82925241D02*
G01*
X108562100Y-82986528D01*
X108695254Y-83075498D01*
X108808500Y-83188744D01*
X108897470Y-83321898D01*
X108958757Y-83469857D01*
X108989999Y-83626924D01*
X108989999Y-83787074D01*
X108958757Y-83944141D01*
X108897470Y-84092100D01*
X108808500Y-84225254D01*
X108695254Y-84338500D01*
X108562100Y-84427470D01*
X108414141Y-84488757D01*
X108257074Y-84519999D01*
X108096924Y-84519999D01*
X107939857Y-84488757D01*
X107791898Y-84427470D01*
X107658744Y-84338500D01*
X107545498Y-84225254D01*
X107456528Y-84092100D01*
X107395241Y-83944141D01*
X107363999Y-83787074D01*
X107363999Y-83626924D01*
X107395241Y-83469857D01*
X107456528Y-83321898D01*
X107545498Y-83188744D01*
X107658744Y-83075498D01*
X107791898Y-82986528D01*
X107939857Y-82925241D01*
X108096924Y-82893999D01*
X108257074Y-82893999D01*
X108414141Y-82925241D01*
G37*
G36*
X134868228Y-81731703D02*
G01*
X135023100Y-81795853D01*
X135162481Y-81888985D01*
X135281015Y-82007519D01*
X135374147Y-82146900D01*
X135438297Y-82301772D01*
X135471000Y-82466184D01*
X135471000Y-82633816D01*
X135438297Y-82798228D01*
X135374147Y-82953100D01*
X135281015Y-83092481D01*
X135162481Y-83211015D01*
X135023100Y-83304147D01*
X134868228Y-83368297D01*
X134703816Y-83401000D01*
X134536184Y-83401000D01*
X134371772Y-83368297D01*
X134216900Y-83304147D01*
X134077519Y-83211015D01*
X133958985Y-83092481D01*
X133865853Y-82953100D01*
X133801703Y-82798228D01*
X133769000Y-82633816D01*
X133769000Y-82466184D01*
X133801703Y-82301772D01*
X133865853Y-82146900D01*
X133958985Y-82007519D01*
X134077519Y-81888985D01*
X134216900Y-81795853D01*
X134371772Y-81731703D01*
X134536184Y-81699000D01*
X134703816Y-81699000D01*
X134868228Y-81731703D01*
G37*
G36*
X127248228Y-81731703D02*
G01*
X127403100Y-81795853D01*
X127542481Y-81888985D01*
X127661015Y-82007519D01*
X127754147Y-82146900D01*
X127818297Y-82301772D01*
X127851000Y-82466184D01*
X127851000Y-82633816D01*
X127818297Y-82798228D01*
X127754147Y-82953100D01*
X127661015Y-83092481D01*
X127542481Y-83211015D01*
X127403100Y-83304147D01*
X127248228Y-83368297D01*
X127083816Y-83401000D01*
X126916184Y-83401000D01*
X126751772Y-83368297D01*
X126596900Y-83304147D01*
X126457519Y-83211015D01*
X126338985Y-83092481D01*
X126245853Y-82953100D01*
X126181703Y-82798228D01*
X126149000Y-82633816D01*
X126149000Y-82466184D01*
X126181703Y-82301772D01*
X126245853Y-82146900D01*
X126338985Y-82007519D01*
X126457519Y-81888985D01*
X126596900Y-81795853D01*
X126751772Y-81731703D01*
X126916184Y-81699000D01*
X127083816Y-81699000D01*
X127248228Y-81731703D01*
G37*
G36*
X138543512Y-80383927D02*
G01*
X138692812Y-80413624D01*
X138856784Y-80481544D01*
X139004354Y-80580147D01*
X139129853Y-80705646D01*
X139228456Y-80853216D01*
X139296376Y-81017188D01*
X139331000Y-81191259D01*
X139331000Y-81368741D01*
X139296376Y-81542812D01*
X139228456Y-81706784D01*
X139129853Y-81854354D01*
X139004354Y-81979853D01*
X138856784Y-82078456D01*
X138692812Y-82146376D01*
X138543512Y-82176073D01*
X138518742Y-82181000D01*
X138341258Y-82181000D01*
X138316488Y-82176073D01*
X138167188Y-82146376D01*
X138003216Y-82078456D01*
X137855646Y-81979853D01*
X137730147Y-81854354D01*
X137631544Y-81706784D01*
X137563624Y-81542812D01*
X137529000Y-81368741D01*
X137529000Y-81191259D01*
X137563624Y-81017188D01*
X137631544Y-80853216D01*
X137730147Y-80705646D01*
X137855646Y-80580147D01*
X138003216Y-80481544D01*
X138167188Y-80413624D01*
X138316488Y-80383927D01*
X138341258Y-80379000D01*
X138518742Y-80379000D01*
X138543512Y-80383927D01*
G37*
G36*
X141083512Y-80383927D02*
G01*
X141232812Y-80413624D01*
X141396784Y-80481544D01*
X141544354Y-80580147D01*
X141669853Y-80705646D01*
X141768456Y-80853216D01*
X141836376Y-81017188D01*
X141871000Y-81191259D01*
X141871000Y-81368741D01*
X141836376Y-81542812D01*
X141768456Y-81706784D01*
X141669853Y-81854354D01*
X141544354Y-81979853D01*
X141396784Y-82078456D01*
X141232812Y-82146376D01*
X141083512Y-82176073D01*
X141058742Y-82181000D01*
X140881258Y-82181000D01*
X140856488Y-82176073D01*
X140707188Y-82146376D01*
X140543216Y-82078456D01*
X140395646Y-81979853D01*
X140270147Y-81854354D01*
X140171544Y-81706784D01*
X140103624Y-81542812D01*
X140069000Y-81368741D01*
X140069000Y-81191259D01*
X140103624Y-81017188D01*
X140171544Y-80853216D01*
X140270147Y-80705646D01*
X140395646Y-80580147D01*
X140543216Y-80481544D01*
X140707188Y-80413624D01*
X140856488Y-80383927D01*
X140881258Y-80379000D01*
X141058742Y-80379000D01*
X141083512Y-80383927D01*
G37*
G36*
X123654141Y-80385241D02*
G01*
X123802100Y-80446528D01*
X123935254Y-80535498D01*
X124048500Y-80648744D01*
X124137470Y-80781898D01*
X124198757Y-80929857D01*
X124229999Y-81086924D01*
X124229999Y-81247074D01*
X124198757Y-81404141D01*
X124137470Y-81552100D01*
X124048500Y-81685254D01*
X123935254Y-81798500D01*
X123802100Y-81887470D01*
X123654141Y-81948757D01*
X123497074Y-81979999D01*
X123336924Y-81979999D01*
X123179857Y-81948757D01*
X123031898Y-81887470D01*
X122898744Y-81798500D01*
X122785498Y-81685254D01*
X122696528Y-81552100D01*
X122635241Y-81404141D01*
X122603999Y-81247074D01*
X122603999Y-81086924D01*
X122635241Y-80929857D01*
X122696528Y-80781898D01*
X122785498Y-80648744D01*
X122898744Y-80535498D01*
X123031898Y-80446528D01*
X123179857Y-80385241D01*
X123336924Y-80353999D01*
X123497074Y-80353999D01*
X123654141Y-80385241D01*
G37*
G36*
X108414141Y-80385241D02*
G01*
X108562100Y-80446528D01*
X108695254Y-80535498D01*
X108808500Y-80648744D01*
X108897470Y-80781898D01*
X108958757Y-80929857D01*
X108989999Y-81086924D01*
X108989999Y-81247074D01*
X108958757Y-81404141D01*
X108897470Y-81552100D01*
X108808500Y-81685254D01*
X108695254Y-81798500D01*
X108562100Y-81887470D01*
X108414141Y-81948757D01*
X108257074Y-81979999D01*
X108096924Y-81979999D01*
X107939857Y-81948757D01*
X107791898Y-81887470D01*
X107658744Y-81798500D01*
X107545498Y-81685254D01*
X107456528Y-81552100D01*
X107395241Y-81404141D01*
X107363999Y-81247074D01*
X107363999Y-81086924D01*
X107395241Y-80929857D01*
X107456528Y-80781898D01*
X107545498Y-80648744D01*
X107658744Y-80535498D01*
X107791898Y-80446528D01*
X107939857Y-80385241D01*
X108096924Y-80353999D01*
X108257074Y-80353999D01*
X108414141Y-80385241D01*
G37*
G36*
X134868228Y-79191703D02*
G01*
X135023100Y-79255853D01*
X135162481Y-79348985D01*
X135281015Y-79467519D01*
X135374147Y-79606900D01*
X135438297Y-79761772D01*
X135471000Y-79926184D01*
X135471000Y-80093816D01*
X135438297Y-80258228D01*
X135374147Y-80413100D01*
X135281015Y-80552481D01*
X135162481Y-80671015D01*
X135023100Y-80764147D01*
X134868228Y-80828297D01*
X134703816Y-80861000D01*
X134536184Y-80861000D01*
X134371772Y-80828297D01*
X134216900Y-80764147D01*
X134077519Y-80671015D01*
X133958985Y-80552481D01*
X133865853Y-80413100D01*
X133801703Y-80258228D01*
X133769000Y-80093816D01*
X133769000Y-79926184D01*
X133801703Y-79761772D01*
X133865853Y-79606900D01*
X133958985Y-79467519D01*
X134077519Y-79348985D01*
X134216900Y-79255853D01*
X134371772Y-79191703D01*
X134536184Y-79159000D01*
X134703816Y-79159000D01*
X134868228Y-79191703D01*
G37*
G36*
X127248228Y-79191703D02*
G01*
X127403100Y-79255853D01*
X127542481Y-79348985D01*
X127661015Y-79467519D01*
X127754147Y-79606900D01*
X127818297Y-79761772D01*
X127851000Y-79926184D01*
X127851000Y-80093816D01*
X127818297Y-80258228D01*
X127754147Y-80413100D01*
X127661015Y-80552481D01*
X127542481Y-80671015D01*
X127403100Y-80764147D01*
X127248228Y-80828297D01*
X127083816Y-80861000D01*
X126916184Y-80861000D01*
X126751772Y-80828297D01*
X126596900Y-80764147D01*
X126457519Y-80671015D01*
X126338985Y-80552481D01*
X126245853Y-80413100D01*
X126181703Y-80258228D01*
X126149000Y-80093816D01*
X126149000Y-79926184D01*
X126181703Y-79761772D01*
X126245853Y-79606900D01*
X126338985Y-79467519D01*
X126457519Y-79348985D01*
X126596900Y-79255853D01*
X126751772Y-79191703D01*
X126916184Y-79159000D01*
X127083816Y-79159000D01*
X127248228Y-79191703D01*
G37*
G36*
X141083512Y-77843927D02*
G01*
X141232812Y-77873624D01*
X141396784Y-77941544D01*
X141544354Y-78040147D01*
X141669853Y-78165646D01*
X141768456Y-78313216D01*
X141836376Y-78477188D01*
X141871000Y-78651259D01*
X141871000Y-78828741D01*
X141836376Y-79002812D01*
X141768456Y-79166784D01*
X141669853Y-79314354D01*
X141544354Y-79439853D01*
X141396784Y-79538456D01*
X141232812Y-79606376D01*
X141083512Y-79636073D01*
X141058742Y-79641000D01*
X140881258Y-79641000D01*
X140856488Y-79636073D01*
X140707188Y-79606376D01*
X140543216Y-79538456D01*
X140395646Y-79439853D01*
X140270147Y-79314354D01*
X140171544Y-79166784D01*
X140103624Y-79002812D01*
X140069000Y-78828741D01*
X140069000Y-78651259D01*
X140103624Y-78477188D01*
X140171544Y-78313216D01*
X140270147Y-78165646D01*
X140395646Y-78040147D01*
X140543216Y-77941544D01*
X140707188Y-77873624D01*
X140856488Y-77843927D01*
X140881258Y-77839000D01*
X141058742Y-77839000D01*
X141083512Y-77843927D01*
G37*
G36*
X138543512Y-77843927D02*
G01*
X138692812Y-77873624D01*
X138856784Y-77941544D01*
X139004354Y-78040147D01*
X139129853Y-78165646D01*
X139228456Y-78313216D01*
X139296376Y-78477188D01*
X139331000Y-78651259D01*
X139331000Y-78828741D01*
X139296376Y-79002812D01*
X139228456Y-79166784D01*
X139129853Y-79314354D01*
X139004354Y-79439853D01*
X138856784Y-79538456D01*
X138692812Y-79606376D01*
X138543512Y-79636073D01*
X138518742Y-79641000D01*
X138341258Y-79641000D01*
X138316488Y-79636073D01*
X138167188Y-79606376D01*
X138003216Y-79538456D01*
X137855646Y-79439853D01*
X137730147Y-79314354D01*
X137631544Y-79166784D01*
X137563624Y-79002812D01*
X137529000Y-78828741D01*
X137529000Y-78651259D01*
X137563624Y-78477188D01*
X137631544Y-78313216D01*
X137730147Y-78165646D01*
X137855646Y-78040147D01*
X138003216Y-77941544D01*
X138167188Y-77873624D01*
X138316488Y-77843927D01*
X138341258Y-77839000D01*
X138518742Y-77839000D01*
X138543512Y-77843927D01*
G37*
G36*
X108414141Y-77845241D02*
G01*
X108562100Y-77906528D01*
X108695254Y-77995498D01*
X108808500Y-78108744D01*
X108897470Y-78241898D01*
X108958757Y-78389857D01*
X108989999Y-78546924D01*
X108989999Y-78707074D01*
X108958757Y-78864141D01*
X108897470Y-79012100D01*
X108808500Y-79145254D01*
X108695254Y-79258500D01*
X108562100Y-79347470D01*
X108414141Y-79408757D01*
X108257074Y-79439999D01*
X108096924Y-79439999D01*
X107939857Y-79408757D01*
X107791898Y-79347470D01*
X107658744Y-79258500D01*
X107545498Y-79145254D01*
X107456528Y-79012100D01*
X107395241Y-78864141D01*
X107363999Y-78707074D01*
X107363999Y-78546924D01*
X107395241Y-78389857D01*
X107456528Y-78241898D01*
X107545498Y-78108744D01*
X107658744Y-77995498D01*
X107791898Y-77906528D01*
X107939857Y-77845241D01*
X108096924Y-77813999D01*
X108257074Y-77813999D01*
X108414141Y-77845241D01*
G37*
G36*
X123654141Y-77845241D02*
G01*
X123802100Y-77906528D01*
X123935254Y-77995498D01*
X124048500Y-78108744D01*
X124137470Y-78241898D01*
X124198757Y-78389857D01*
X124229999Y-78546924D01*
X124229999Y-78707074D01*
X124198757Y-78864141D01*
X124137470Y-79012100D01*
X124048500Y-79145254D01*
X123935254Y-79258500D01*
X123802100Y-79347470D01*
X123654141Y-79408757D01*
X123497074Y-79439999D01*
X123336924Y-79439999D01*
X123179857Y-79408757D01*
X123031898Y-79347470D01*
X122898744Y-79258500D01*
X122785498Y-79145254D01*
X122696528Y-79012100D01*
X122635241Y-78864141D01*
X122603999Y-78707074D01*
X122603999Y-78546924D01*
X122635241Y-78389857D01*
X122696528Y-78241898D01*
X122785498Y-78108744D01*
X122898744Y-77995498D01*
X123031898Y-77906528D01*
X123179857Y-77845241D01*
X123336924Y-77813999D01*
X123497074Y-77813999D01*
X123654141Y-77845241D01*
G37*
G36*
X127248228Y-76651703D02*
G01*
X127403100Y-76715853D01*
X127542481Y-76808985D01*
X127661015Y-76927519D01*
X127754147Y-77066900D01*
X127818297Y-77221772D01*
X127851000Y-77386184D01*
X127851000Y-77553816D01*
X127818297Y-77718228D01*
X127754147Y-77873100D01*
X127661015Y-78012481D01*
X127542481Y-78131015D01*
X127403100Y-78224147D01*
X127248228Y-78288297D01*
X127083816Y-78321000D01*
X126916184Y-78321000D01*
X126751772Y-78288297D01*
X126596900Y-78224147D01*
X126457519Y-78131015D01*
X126338985Y-78012481D01*
X126245853Y-77873100D01*
X126181703Y-77718228D01*
X126149000Y-77553816D01*
X126149000Y-77386184D01*
X126181703Y-77221772D01*
X126245853Y-77066900D01*
X126338985Y-76927519D01*
X126457519Y-76808985D01*
X126596900Y-76715853D01*
X126751772Y-76651703D01*
X126916184Y-76619000D01*
X127083816Y-76619000D01*
X127248228Y-76651703D01*
G37*
G36*
X134868228Y-76651703D02*
G01*
X135023100Y-76715853D01*
X135162481Y-76808985D01*
X135281015Y-76927519D01*
X135374147Y-77066900D01*
X135438297Y-77221772D01*
X135471000Y-77386184D01*
X135471000Y-77553816D01*
X135438297Y-77718228D01*
X135374147Y-77873100D01*
X135281015Y-78012481D01*
X135162481Y-78131015D01*
X135023100Y-78224147D01*
X134868228Y-78288297D01*
X134703816Y-78321000D01*
X134536184Y-78321000D01*
X134371772Y-78288297D01*
X134216900Y-78224147D01*
X134077519Y-78131015D01*
X133958985Y-78012481D01*
X133865853Y-77873100D01*
X133801703Y-77718228D01*
X133769000Y-77553816D01*
X133769000Y-77386184D01*
X133801703Y-77221772D01*
X133865853Y-77066900D01*
X133958985Y-76927519D01*
X134077519Y-76808985D01*
X134216900Y-76715853D01*
X134371772Y-76651703D01*
X134536184Y-76619000D01*
X134703816Y-76619000D01*
X134868228Y-76651703D01*
G37*
G36*
X138543512Y-75303927D02*
G01*
X138692812Y-75333624D01*
X138856784Y-75401544D01*
X139004354Y-75500147D01*
X139129853Y-75625646D01*
X139228456Y-75773216D01*
X139296376Y-75937188D01*
X139331000Y-76111259D01*
X139331000Y-76288741D01*
X139296376Y-76462812D01*
X139228456Y-76626784D01*
X139129853Y-76774354D01*
X139004354Y-76899853D01*
X138856784Y-76998456D01*
X138692812Y-77066376D01*
X138543512Y-77096073D01*
X138518742Y-77101000D01*
X138341258Y-77101000D01*
X138316488Y-77096073D01*
X138167188Y-77066376D01*
X138003216Y-76998456D01*
X137855646Y-76899853D01*
X137730147Y-76774354D01*
X137631544Y-76626784D01*
X137563624Y-76462812D01*
X137529000Y-76288741D01*
X137529000Y-76111259D01*
X137563624Y-75937188D01*
X137631544Y-75773216D01*
X137730147Y-75625646D01*
X137855646Y-75500147D01*
X138003216Y-75401544D01*
X138167188Y-75333624D01*
X138316488Y-75303927D01*
X138341258Y-75299000D01*
X138518742Y-75299000D01*
X138543512Y-75303927D01*
G37*
G36*
X141083512Y-75303927D02*
G01*
X141232812Y-75333624D01*
X141396784Y-75401544D01*
X141544354Y-75500147D01*
X141669853Y-75625646D01*
X141768456Y-75773216D01*
X141836376Y-75937188D01*
X141871000Y-76111259D01*
X141871000Y-76288741D01*
X141836376Y-76462812D01*
X141768456Y-76626784D01*
X141669853Y-76774354D01*
X141544354Y-76899853D01*
X141396784Y-76998456D01*
X141232812Y-77066376D01*
X141083512Y-77096073D01*
X141058742Y-77101000D01*
X140881258Y-77101000D01*
X140856488Y-77096073D01*
X140707188Y-77066376D01*
X140543216Y-76998456D01*
X140395646Y-76899853D01*
X140270147Y-76774354D01*
X140171544Y-76626784D01*
X140103624Y-76462812D01*
X140069000Y-76288741D01*
X140069000Y-76111259D01*
X140103624Y-75937188D01*
X140171544Y-75773216D01*
X140270147Y-75625646D01*
X140395646Y-75500147D01*
X140543216Y-75401544D01*
X140707188Y-75333624D01*
X140856488Y-75303927D01*
X140881258Y-75299000D01*
X141058742Y-75299000D01*
X141083512Y-75303927D01*
G37*
G36*
X123654141Y-75305241D02*
G01*
X123802100Y-75366528D01*
X123935254Y-75455498D01*
X124048500Y-75568744D01*
X124137470Y-75701898D01*
X124198757Y-75849857D01*
X124229999Y-76006924D01*
X124229999Y-76167074D01*
X124198757Y-76324141D01*
X124137470Y-76472100D01*
X124048500Y-76605254D01*
X123935254Y-76718500D01*
X123802100Y-76807470D01*
X123654141Y-76868757D01*
X123497074Y-76899999D01*
X123336924Y-76899999D01*
X123179857Y-76868757D01*
X123031898Y-76807470D01*
X122898744Y-76718500D01*
X122785498Y-76605254D01*
X122696528Y-76472100D01*
X122635241Y-76324141D01*
X122603999Y-76167074D01*
X122603999Y-76006924D01*
X122635241Y-75849857D01*
X122696528Y-75701898D01*
X122785498Y-75568744D01*
X122898744Y-75455498D01*
X123031898Y-75366528D01*
X123179857Y-75305241D01*
X123336924Y-75273999D01*
X123497074Y-75273999D01*
X123654141Y-75305241D01*
G37*
G36*
X108414141Y-75305241D02*
G01*
X108562100Y-75366528D01*
X108695254Y-75455498D01*
X108808500Y-75568744D01*
X108897470Y-75701898D01*
X108958757Y-75849857D01*
X108989999Y-76006924D01*
X108989999Y-76167074D01*
X108958757Y-76324141D01*
X108897470Y-76472100D01*
X108808500Y-76605254D01*
X108695254Y-76718500D01*
X108562100Y-76807470D01*
X108414141Y-76868757D01*
X108257074Y-76899999D01*
X108096924Y-76899999D01*
X107939857Y-76868757D01*
X107791898Y-76807470D01*
X107658744Y-76718500D01*
X107545498Y-76605254D01*
X107456528Y-76472100D01*
X107395241Y-76324141D01*
X107363999Y-76167074D01*
X107363999Y-76006924D01*
X107395241Y-75849857D01*
X107456528Y-75701898D01*
X107545498Y-75568744D01*
X107658744Y-75455498D01*
X107791898Y-75366528D01*
X107939857Y-75305241D01*
X108096924Y-75273999D01*
X108257074Y-75273999D01*
X108414141Y-75305241D01*
G37*
G36*
X127248228Y-74111703D02*
G01*
X127403100Y-74175853D01*
X127542481Y-74268985D01*
X127661015Y-74387519D01*
X127754147Y-74526900D01*
X127818297Y-74681772D01*
X127851000Y-74846184D01*
X127851000Y-75013816D01*
X127818297Y-75178228D01*
X127754147Y-75333100D01*
X127661015Y-75472481D01*
X127542481Y-75591015D01*
X127403100Y-75684147D01*
X127248228Y-75748297D01*
X127083816Y-75781000D01*
X126916184Y-75781000D01*
X126751772Y-75748297D01*
X126596900Y-75684147D01*
X126457519Y-75591015D01*
X126338985Y-75472481D01*
X126245853Y-75333100D01*
X126181703Y-75178228D01*
X126149000Y-75013816D01*
X126149000Y-74846184D01*
X126181703Y-74681772D01*
X126245853Y-74526900D01*
X126338985Y-74387519D01*
X126457519Y-74268985D01*
X126596900Y-74175853D01*
X126751772Y-74111703D01*
X126916184Y-74079000D01*
X127083816Y-74079000D01*
X127248228Y-74111703D01*
G37*
G36*
X134868228Y-74111703D02*
G01*
X135023100Y-74175853D01*
X135162481Y-74268985D01*
X135281015Y-74387519D01*
X135374147Y-74526900D01*
X135438297Y-74681772D01*
X135471000Y-74846184D01*
X135471000Y-75013816D01*
X135438297Y-75178228D01*
X135374147Y-75333100D01*
X135281015Y-75472481D01*
X135162481Y-75591015D01*
X135023100Y-75684147D01*
X134868228Y-75748297D01*
X134703816Y-75781000D01*
X134536184Y-75781000D01*
X134371772Y-75748297D01*
X134216900Y-75684147D01*
X134077519Y-75591015D01*
X133958985Y-75472481D01*
X133865853Y-75333100D01*
X133801703Y-75178228D01*
X133769000Y-75013816D01*
X133769000Y-74846184D01*
X133801703Y-74681772D01*
X133865853Y-74526900D01*
X133958985Y-74387519D01*
X134077519Y-74268985D01*
X134216900Y-74175853D01*
X134371772Y-74111703D01*
X134536184Y-74079000D01*
X134703816Y-74079000D01*
X134868228Y-74111703D01*
G37*
G36*
X141083512Y-72763927D02*
G01*
X141232812Y-72793624D01*
X141396784Y-72861544D01*
X141544354Y-72960147D01*
X141669853Y-73085646D01*
X141768456Y-73233216D01*
X141836376Y-73397188D01*
X141871000Y-73571259D01*
X141871000Y-73748741D01*
X141836376Y-73922812D01*
X141768456Y-74086784D01*
X141669853Y-74234354D01*
X141544354Y-74359853D01*
X141396784Y-74458456D01*
X141232812Y-74526376D01*
X141083512Y-74556073D01*
X141058742Y-74561000D01*
X140881258Y-74561000D01*
X140856488Y-74556073D01*
X140707188Y-74526376D01*
X140543216Y-74458456D01*
X140395646Y-74359853D01*
X140270147Y-74234354D01*
X140171544Y-74086784D01*
X140103624Y-73922812D01*
X140069000Y-73748741D01*
X140069000Y-73571259D01*
X140103624Y-73397188D01*
X140171544Y-73233216D01*
X140270147Y-73085646D01*
X140395646Y-72960147D01*
X140543216Y-72861544D01*
X140707188Y-72793624D01*
X140856488Y-72763927D01*
X140881258Y-72759000D01*
X141058742Y-72759000D01*
X141083512Y-72763927D01*
G37*
G36*
X138543512Y-72763927D02*
G01*
X138692812Y-72793624D01*
X138856784Y-72861544D01*
X139004354Y-72960147D01*
X139129853Y-73085646D01*
X139228456Y-73233216D01*
X139296376Y-73397188D01*
X139331000Y-73571259D01*
X139331000Y-73748741D01*
X139296376Y-73922812D01*
X139228456Y-74086784D01*
X139129853Y-74234354D01*
X139004354Y-74359853D01*
X138856784Y-74458456D01*
X138692812Y-74526376D01*
X138543512Y-74556073D01*
X138518742Y-74561000D01*
X138341258Y-74561000D01*
X138316488Y-74556073D01*
X138167188Y-74526376D01*
X138003216Y-74458456D01*
X137855646Y-74359853D01*
X137730147Y-74234354D01*
X137631544Y-74086784D01*
X137563624Y-73922812D01*
X137529000Y-73748741D01*
X137529000Y-73571259D01*
X137563624Y-73397188D01*
X137631544Y-73233216D01*
X137730147Y-73085646D01*
X137855646Y-72960147D01*
X138003216Y-72861544D01*
X138167188Y-72793624D01*
X138316488Y-72763927D01*
X138341258Y-72759000D01*
X138518742Y-72759000D01*
X138543512Y-72763927D01*
G37*
G36*
X108414141Y-72765241D02*
G01*
X108562100Y-72826528D01*
X108695254Y-72915498D01*
X108808500Y-73028744D01*
X108897470Y-73161898D01*
X108958757Y-73309857D01*
X108989999Y-73466924D01*
X108989999Y-73627074D01*
X108958757Y-73784141D01*
X108897470Y-73932100D01*
X108808500Y-74065254D01*
X108695254Y-74178500D01*
X108562100Y-74267470D01*
X108414141Y-74328757D01*
X108257074Y-74359999D01*
X108096924Y-74359999D01*
X107939857Y-74328757D01*
X107791898Y-74267470D01*
X107658744Y-74178500D01*
X107545498Y-74065254D01*
X107456528Y-73932100D01*
X107395241Y-73784141D01*
X107363999Y-73627074D01*
X107363999Y-73466924D01*
X107395241Y-73309857D01*
X107456528Y-73161898D01*
X107545498Y-73028744D01*
X107658744Y-72915498D01*
X107791898Y-72826528D01*
X107939857Y-72765241D01*
X108096924Y-72733999D01*
X108257074Y-72733999D01*
X108414141Y-72765241D01*
G37*
G36*
X123654141Y-72765241D02*
G01*
X123802100Y-72826528D01*
X123935254Y-72915498D01*
X124048500Y-73028744D01*
X124137470Y-73161898D01*
X124198757Y-73309857D01*
X124229999Y-73466924D01*
X124229999Y-73627074D01*
X124198757Y-73784141D01*
X124137470Y-73932100D01*
X124048500Y-74065254D01*
X123935254Y-74178500D01*
X123802100Y-74267470D01*
X123654141Y-74328757D01*
X123497074Y-74359999D01*
X123336924Y-74359999D01*
X123179857Y-74328757D01*
X123031898Y-74267470D01*
X122898744Y-74178500D01*
X122785498Y-74065254D01*
X122696528Y-73932100D01*
X122635241Y-73784141D01*
X122603999Y-73627074D01*
X122603999Y-73466924D01*
X122635241Y-73309857D01*
X122696528Y-73161898D01*
X122785498Y-73028744D01*
X122898744Y-72915498D01*
X123031898Y-72826528D01*
X123179857Y-72765241D01*
X123336924Y-72733999D01*
X123497074Y-72733999D01*
X123654141Y-72765241D01*
G37*
G36*
X134868228Y-71571703D02*
G01*
X135023100Y-71635853D01*
X135162481Y-71728985D01*
X135281015Y-71847519D01*
X135374147Y-71986900D01*
X135438297Y-72141772D01*
X135471000Y-72306184D01*
X135471000Y-72473816D01*
X135438297Y-72638228D01*
X135374147Y-72793100D01*
X135281015Y-72932481D01*
X135162481Y-73051015D01*
X135023100Y-73144147D01*
X134868228Y-73208297D01*
X134703816Y-73241000D01*
X134536184Y-73241000D01*
X134371772Y-73208297D01*
X134216900Y-73144147D01*
X134077519Y-73051015D01*
X133958985Y-72932481D01*
X133865853Y-72793100D01*
X133801703Y-72638228D01*
X133769000Y-72473816D01*
X133769000Y-72306184D01*
X133801703Y-72141772D01*
X133865853Y-71986900D01*
X133958985Y-71847519D01*
X134077519Y-71728985D01*
X134216900Y-71635853D01*
X134371772Y-71571703D01*
X134536184Y-71539000D01*
X134703816Y-71539000D01*
X134868228Y-71571703D01*
G37*
G36*
X127248228Y-71571703D02*
G01*
X127403100Y-71635853D01*
X127542481Y-71728985D01*
X127661015Y-71847519D01*
X127754147Y-71986900D01*
X127818297Y-72141772D01*
X127851000Y-72306184D01*
X127851000Y-72473816D01*
X127818297Y-72638228D01*
X127754147Y-72793100D01*
X127661015Y-72932481D01*
X127542481Y-73051015D01*
X127403100Y-73144147D01*
X127248228Y-73208297D01*
X127083816Y-73241000D01*
X126916184Y-73241000D01*
X126751772Y-73208297D01*
X126596900Y-73144147D01*
X126457519Y-73051015D01*
X126338985Y-72932481D01*
X126245853Y-72793100D01*
X126181703Y-72638228D01*
X126149000Y-72473816D01*
X126149000Y-72306184D01*
X126181703Y-72141772D01*
X126245853Y-71986900D01*
X126338985Y-71847519D01*
X126457519Y-71728985D01*
X126596900Y-71635853D01*
X126751772Y-71571703D01*
X126916184Y-71539000D01*
X127083816Y-71539000D01*
X127248228Y-71571703D01*
G37*
G36*
X141083512Y-70223927D02*
G01*
X141232812Y-70253624D01*
X141396784Y-70321544D01*
X141544354Y-70420147D01*
X141669853Y-70545646D01*
X141768456Y-70693216D01*
X141836376Y-70857188D01*
X141871000Y-71031259D01*
X141871000Y-71208741D01*
X141836376Y-71382812D01*
X141768456Y-71546784D01*
X141669853Y-71694354D01*
X141544354Y-71819853D01*
X141396784Y-71918456D01*
X141232812Y-71986376D01*
X141083512Y-72016073D01*
X141058742Y-72021000D01*
X140881258Y-72021000D01*
X140856488Y-72016073D01*
X140707188Y-71986376D01*
X140543216Y-71918456D01*
X140395646Y-71819853D01*
X140270147Y-71694354D01*
X140171544Y-71546784D01*
X140103624Y-71382812D01*
X140069000Y-71208741D01*
X140069000Y-71031259D01*
X140103624Y-70857188D01*
X140171544Y-70693216D01*
X140270147Y-70545646D01*
X140395646Y-70420147D01*
X140543216Y-70321544D01*
X140707188Y-70253624D01*
X140856488Y-70223927D01*
X140881258Y-70219000D01*
X141058742Y-70219000D01*
X141083512Y-70223927D01*
G37*
G36*
X138543512Y-70223927D02*
G01*
X138692812Y-70253624D01*
X138856784Y-70321544D01*
X139004354Y-70420147D01*
X139129853Y-70545646D01*
X139228456Y-70693216D01*
X139296376Y-70857188D01*
X139331000Y-71031259D01*
X139331000Y-71208741D01*
X139296376Y-71382812D01*
X139228456Y-71546784D01*
X139129853Y-71694354D01*
X139004354Y-71819853D01*
X138856784Y-71918456D01*
X138692812Y-71986376D01*
X138543512Y-72016073D01*
X138518742Y-72021000D01*
X138341258Y-72021000D01*
X138316488Y-72016073D01*
X138167188Y-71986376D01*
X138003216Y-71918456D01*
X137855646Y-71819853D01*
X137730147Y-71694354D01*
X137631544Y-71546784D01*
X137563624Y-71382812D01*
X137529000Y-71208741D01*
X137529000Y-71031259D01*
X137563624Y-70857188D01*
X137631544Y-70693216D01*
X137730147Y-70545646D01*
X137855646Y-70420147D01*
X138003216Y-70321544D01*
X138167188Y-70253624D01*
X138316488Y-70223927D01*
X138341258Y-70219000D01*
X138518742Y-70219000D01*
X138543512Y-70223927D01*
G37*
G36*
X123654141Y-70225241D02*
G01*
X123802100Y-70286528D01*
X123935254Y-70375498D01*
X124048500Y-70488744D01*
X124137470Y-70621898D01*
X124198757Y-70769857D01*
X124229999Y-70926924D01*
X124229999Y-71087074D01*
X124198757Y-71244141D01*
X124137470Y-71392100D01*
X124048500Y-71525254D01*
X123935254Y-71638500D01*
X123802100Y-71727470D01*
X123654141Y-71788757D01*
X123497074Y-71819999D01*
X123336924Y-71819999D01*
X123179857Y-71788757D01*
X123031898Y-71727470D01*
X122898744Y-71638500D01*
X122785498Y-71525254D01*
X122696528Y-71392100D01*
X122635241Y-71244141D01*
X122603999Y-71087074D01*
X122603999Y-70926924D01*
X122635241Y-70769857D01*
X122696528Y-70621898D01*
X122785498Y-70488744D01*
X122898744Y-70375498D01*
X123031898Y-70286528D01*
X123179857Y-70225241D01*
X123336924Y-70193999D01*
X123497074Y-70193999D01*
X123654141Y-70225241D01*
G37*
G36*
X108414141Y-70225241D02*
G01*
X108562100Y-70286528D01*
X108695254Y-70375498D01*
X108808500Y-70488744D01*
X108897470Y-70621898D01*
X108958757Y-70769857D01*
X108989999Y-70926924D01*
X108989999Y-71087074D01*
X108958757Y-71244141D01*
X108897470Y-71392100D01*
X108808500Y-71525254D01*
X108695254Y-71638500D01*
X108562100Y-71727470D01*
X108414141Y-71788757D01*
X108257074Y-71819999D01*
X108096924Y-71819999D01*
X107939857Y-71788757D01*
X107791898Y-71727470D01*
X107658744Y-71638500D01*
X107545498Y-71525254D01*
X107456528Y-71392100D01*
X107395241Y-71244141D01*
X107363999Y-71087074D01*
X107363999Y-70926924D01*
X107395241Y-70769857D01*
X107456528Y-70621898D01*
X107545498Y-70488744D01*
X107658744Y-70375498D01*
X107791898Y-70286528D01*
X107939857Y-70225241D01*
X108096924Y-70193999D01*
X108257074Y-70193999D01*
X108414141Y-70225241D01*
G37*
G36*
X134868228Y-69031703D02*
G01*
X135023100Y-69095853D01*
X135162481Y-69188985D01*
X135281015Y-69307519D01*
X135374147Y-69446900D01*
X135438297Y-69601772D01*
X135471000Y-69766184D01*
X135471000Y-69933816D01*
X135438297Y-70098228D01*
X135374147Y-70253100D01*
X135281015Y-70392481D01*
X135162481Y-70511015D01*
X135023100Y-70604147D01*
X134868228Y-70668297D01*
X134703816Y-70701000D01*
X134536184Y-70701000D01*
X134371772Y-70668297D01*
X134216900Y-70604147D01*
X134077519Y-70511015D01*
X133958985Y-70392481D01*
X133865853Y-70253100D01*
X133801703Y-70098228D01*
X133769000Y-69933816D01*
X133769000Y-69766184D01*
X133801703Y-69601772D01*
X133865853Y-69446900D01*
X133958985Y-69307519D01*
X134077519Y-69188985D01*
X134216900Y-69095853D01*
X134371772Y-69031703D01*
X134536184Y-68999000D01*
X134703816Y-68999000D01*
X134868228Y-69031703D01*
G37*
G36*
X127248228Y-69031703D02*
G01*
X127403100Y-69095853D01*
X127542481Y-69188985D01*
X127661015Y-69307519D01*
X127754147Y-69446900D01*
X127818297Y-69601772D01*
X127851000Y-69766184D01*
X127851000Y-69933816D01*
X127818297Y-70098228D01*
X127754147Y-70253100D01*
X127661015Y-70392481D01*
X127542481Y-70511015D01*
X127403100Y-70604147D01*
X127248228Y-70668297D01*
X127083816Y-70701000D01*
X126916184Y-70701000D01*
X126751772Y-70668297D01*
X126596900Y-70604147D01*
X126457519Y-70511015D01*
X126338985Y-70392481D01*
X126245853Y-70253100D01*
X126181703Y-70098228D01*
X126149000Y-69933816D01*
X126149000Y-69766184D01*
X126181703Y-69601772D01*
X126245853Y-69446900D01*
X126338985Y-69307519D01*
X126457519Y-69188985D01*
X126596900Y-69095853D01*
X126751772Y-69031703D01*
X126916184Y-68999000D01*
X127083816Y-68999000D01*
X127248228Y-69031703D01*
G37*
G36*
X138543512Y-67683927D02*
G01*
X138692812Y-67713624D01*
X138856784Y-67781544D01*
X139004354Y-67880147D01*
X139129853Y-68005646D01*
X139228456Y-68153216D01*
X139296376Y-68317188D01*
X139331000Y-68491259D01*
X139331000Y-68668741D01*
X139296376Y-68842812D01*
X139228456Y-69006784D01*
X139129853Y-69154354D01*
X139004354Y-69279853D01*
X138856784Y-69378456D01*
X138692812Y-69446376D01*
X138543512Y-69476073D01*
X138518742Y-69481000D01*
X138341258Y-69481000D01*
X138316488Y-69476073D01*
X138167188Y-69446376D01*
X138003216Y-69378456D01*
X137855646Y-69279853D01*
X137730147Y-69154354D01*
X137631544Y-69006784D01*
X137563624Y-68842812D01*
X137529000Y-68668741D01*
X137529000Y-68491259D01*
X137563624Y-68317188D01*
X137631544Y-68153216D01*
X137730147Y-68005646D01*
X137855646Y-67880147D01*
X138003216Y-67781544D01*
X138167188Y-67713624D01*
X138316488Y-67683927D01*
X138341258Y-67679000D01*
X138518742Y-67679000D01*
X138543512Y-67683927D01*
G37*
G36*
X141083512Y-67683927D02*
G01*
X141232812Y-67713624D01*
X141396784Y-67781544D01*
X141544354Y-67880147D01*
X141669853Y-68005646D01*
X141768456Y-68153216D01*
X141836376Y-68317188D01*
X141871000Y-68491259D01*
X141871000Y-68668741D01*
X141836376Y-68842812D01*
X141768456Y-69006784D01*
X141669853Y-69154354D01*
X141544354Y-69279853D01*
X141396784Y-69378456D01*
X141232812Y-69446376D01*
X141083512Y-69476073D01*
X141058742Y-69481000D01*
X140881258Y-69481000D01*
X140856488Y-69476073D01*
X140707188Y-69446376D01*
X140543216Y-69378456D01*
X140395646Y-69279853D01*
X140270147Y-69154354D01*
X140171544Y-69006784D01*
X140103624Y-68842812D01*
X140069000Y-68668741D01*
X140069000Y-68491259D01*
X140103624Y-68317188D01*
X140171544Y-68153216D01*
X140270147Y-68005646D01*
X140395646Y-67880147D01*
X140543216Y-67781544D01*
X140707188Y-67713624D01*
X140856488Y-67683927D01*
X140881258Y-67679000D01*
X141058742Y-67679000D01*
X141083512Y-67683927D01*
G37*
G36*
X123654141Y-67685241D02*
G01*
X123802100Y-67746528D01*
X123935254Y-67835498D01*
X124048500Y-67948744D01*
X124137470Y-68081898D01*
X124198757Y-68229857D01*
X124229999Y-68386924D01*
X124229999Y-68547074D01*
X124198757Y-68704141D01*
X124137470Y-68852100D01*
X124048500Y-68985254D01*
X123935254Y-69098500D01*
X123802100Y-69187470D01*
X123654141Y-69248757D01*
X123497074Y-69279999D01*
X123336924Y-69279999D01*
X123179857Y-69248757D01*
X123031898Y-69187470D01*
X122898744Y-69098500D01*
X122785498Y-68985254D01*
X122696528Y-68852100D01*
X122635241Y-68704141D01*
X122603999Y-68547074D01*
X122603999Y-68386924D01*
X122635241Y-68229857D01*
X122696528Y-68081898D01*
X122785498Y-67948744D01*
X122898744Y-67835498D01*
X123031898Y-67746528D01*
X123179857Y-67685241D01*
X123336924Y-67653999D01*
X123497074Y-67653999D01*
X123654141Y-67685241D01*
G37*
G36*
X108414141Y-67685241D02*
G01*
X108562100Y-67746528D01*
X108695254Y-67835498D01*
X108808500Y-67948744D01*
X108897470Y-68081898D01*
X108958757Y-68229857D01*
X108989999Y-68386924D01*
X108989999Y-68547074D01*
X108958757Y-68704141D01*
X108897470Y-68852100D01*
X108808500Y-68985254D01*
X108695254Y-69098500D01*
X108562100Y-69187470D01*
X108414141Y-69248757D01*
X108257074Y-69279999D01*
X108096924Y-69279999D01*
X107939857Y-69248757D01*
X107791898Y-69187470D01*
X107658744Y-69098500D01*
X107545498Y-68985254D01*
X107456528Y-68852100D01*
X107395241Y-68704141D01*
X107363999Y-68547074D01*
X107363999Y-68386924D01*
X107395241Y-68229857D01*
X107456528Y-68081898D01*
X107545498Y-67948744D01*
X107658744Y-67835498D01*
X107791898Y-67746528D01*
X107939857Y-67685241D01*
X108096924Y-67653999D01*
X108257074Y-67653999D01*
X108414141Y-67685241D01*
G37*
G36*
X127248228Y-66491703D02*
G01*
X127403100Y-66555853D01*
X127542481Y-66648985D01*
X127661015Y-66767519D01*
X127754147Y-66906900D01*
X127818297Y-67061772D01*
X127851000Y-67226184D01*
X127851000Y-67393816D01*
X127818297Y-67558228D01*
X127754147Y-67713100D01*
X127661015Y-67852481D01*
X127542481Y-67971015D01*
X127403100Y-68064147D01*
X127248228Y-68128297D01*
X127083816Y-68161000D01*
X126916184Y-68161000D01*
X126751772Y-68128297D01*
X126596900Y-68064147D01*
X126457519Y-67971015D01*
X126338985Y-67852481D01*
X126245853Y-67713100D01*
X126181703Y-67558228D01*
X126149000Y-67393816D01*
X126149000Y-67226184D01*
X126181703Y-67061772D01*
X126245853Y-66906900D01*
X126338985Y-66767519D01*
X126457519Y-66648985D01*
X126596900Y-66555853D01*
X126751772Y-66491703D01*
X126916184Y-66459000D01*
X127083816Y-66459000D01*
X127248228Y-66491703D01*
G37*
G36*
X134868228Y-66491703D02*
G01*
X135023100Y-66555853D01*
X135162481Y-66648985D01*
X135281015Y-66767519D01*
X135374147Y-66906900D01*
X135438297Y-67061772D01*
X135471000Y-67226184D01*
X135471000Y-67393816D01*
X135438297Y-67558228D01*
X135374147Y-67713100D01*
X135281015Y-67852481D01*
X135162481Y-67971015D01*
X135023100Y-68064147D01*
X134868228Y-68128297D01*
X134703816Y-68161000D01*
X134536184Y-68161000D01*
X134371772Y-68128297D01*
X134216900Y-68064147D01*
X134077519Y-67971015D01*
X133958985Y-67852481D01*
X133865853Y-67713100D01*
X133801703Y-67558228D01*
X133769000Y-67393816D01*
X133769000Y-67226184D01*
X133801703Y-67061772D01*
X133865853Y-66906900D01*
X133958985Y-66767519D01*
X134077519Y-66648985D01*
X134216900Y-66555853D01*
X134371772Y-66491703D01*
X134536184Y-66459000D01*
X134703816Y-66459000D01*
X134868228Y-66491703D01*
G37*
G36*
X139331000Y-66941000D02*
G01*
X137529000Y-66941000D01*
X137529000Y-65139000D01*
X139331000Y-65139000D01*
X139331000Y-66941000D01*
G37*
G36*
X141083512Y-65143927D02*
G01*
X141232812Y-65173624D01*
X141396784Y-65241544D01*
X141544354Y-65340147D01*
X141669853Y-65465646D01*
X141768456Y-65613216D01*
X141836376Y-65777188D01*
X141871000Y-65951259D01*
X141871000Y-66128741D01*
X141836376Y-66302812D01*
X141768456Y-66466784D01*
X141669853Y-66614354D01*
X141544354Y-66739853D01*
X141396784Y-66838456D01*
X141232812Y-66906376D01*
X141083512Y-66936073D01*
X141058742Y-66941000D01*
X140881258Y-66941000D01*
X140856488Y-66936073D01*
X140707188Y-66906376D01*
X140543216Y-66838456D01*
X140395646Y-66739853D01*
X140270147Y-66614354D01*
X140171544Y-66466784D01*
X140103624Y-66302812D01*
X140069000Y-66128741D01*
X140069000Y-65951259D01*
X140103624Y-65777188D01*
X140171544Y-65613216D01*
X140270147Y-65465646D01*
X140395646Y-65340147D01*
X140543216Y-65241544D01*
X140707188Y-65173624D01*
X140856488Y-65143927D01*
X140881258Y-65139000D01*
X141058742Y-65139000D01*
X141083512Y-65143927D01*
G37*
G36*
X108414141Y-65145241D02*
G01*
X108562100Y-65206528D01*
X108695254Y-65295498D01*
X108808500Y-65408744D01*
X108897470Y-65541898D01*
X108958757Y-65689857D01*
X108989999Y-65846924D01*
X108989999Y-66007074D01*
X108958757Y-66164141D01*
X108897470Y-66312100D01*
X108808500Y-66445254D01*
X108695254Y-66558500D01*
X108562100Y-66647470D01*
X108414141Y-66708757D01*
X108257074Y-66739999D01*
X108096924Y-66739999D01*
X107939857Y-66708757D01*
X107791898Y-66647470D01*
X107658744Y-66558500D01*
X107545498Y-66445254D01*
X107456528Y-66312100D01*
X107395241Y-66164141D01*
X107363999Y-66007074D01*
X107363999Y-65846924D01*
X107395241Y-65689857D01*
X107456528Y-65541898D01*
X107545498Y-65408744D01*
X107658744Y-65295498D01*
X107791898Y-65206528D01*
X107939857Y-65145241D01*
X108096924Y-65113999D01*
X108257074Y-65113999D01*
X108414141Y-65145241D01*
G37*
G36*
X123654141Y-65145241D02*
G01*
X123802100Y-65206528D01*
X123935254Y-65295498D01*
X124048500Y-65408744D01*
X124137470Y-65541898D01*
X124198757Y-65689857D01*
X124229999Y-65846924D01*
X124229999Y-66007074D01*
X124198757Y-66164141D01*
X124137470Y-66312100D01*
X124048500Y-66445254D01*
X123935254Y-66558500D01*
X123802100Y-66647470D01*
X123654141Y-66708757D01*
X123497074Y-66739999D01*
X123336924Y-66739999D01*
X123179857Y-66708757D01*
X123031898Y-66647470D01*
X122898744Y-66558500D01*
X122785498Y-66445254D01*
X122696528Y-66312100D01*
X122635241Y-66164141D01*
X122603999Y-66007074D01*
X122603999Y-65846924D01*
X122635241Y-65689857D01*
X122696528Y-65541898D01*
X122785498Y-65408744D01*
X122898744Y-65295498D01*
X123031898Y-65206528D01*
X123179857Y-65145241D01*
X123336924Y-65113999D01*
X123497074Y-65113999D01*
X123654141Y-65145241D01*
G37*
G36*
X134868228Y-63951703D02*
G01*
X135023100Y-64015853D01*
X135162481Y-64108985D01*
X135281015Y-64227519D01*
X135374147Y-64366900D01*
X135438297Y-64521772D01*
X135471000Y-64686184D01*
X135471000Y-64853816D01*
X135438297Y-65018228D01*
X135374147Y-65173100D01*
X135281015Y-65312481D01*
X135162481Y-65431015D01*
X135023100Y-65524147D01*
X134868228Y-65588297D01*
X134703816Y-65621000D01*
X134536184Y-65621000D01*
X134371772Y-65588297D01*
X134216900Y-65524147D01*
X134077519Y-65431015D01*
X133958985Y-65312481D01*
X133865853Y-65173100D01*
X133801703Y-65018228D01*
X133769000Y-64853816D01*
X133769000Y-64686184D01*
X133801703Y-64521772D01*
X133865853Y-64366900D01*
X133958985Y-64227519D01*
X134077519Y-64108985D01*
X134216900Y-64015853D01*
X134371772Y-63951703D01*
X134536184Y-63919000D01*
X134703816Y-63919000D01*
X134868228Y-63951703D01*
G37*
G36*
X127851000Y-65621000D02*
G01*
X126149000Y-65621000D01*
X126149000Y-63919000D01*
X127851000Y-63919000D01*
X127851000Y-65621000D01*
G37*
G36*
X121114141Y-62605241D02*
G01*
X121262100Y-62666528D01*
X121395254Y-62755498D01*
X121508500Y-62868744D01*
X121597470Y-63001898D01*
X121658757Y-63149857D01*
X121689999Y-63306924D01*
X121689999Y-63467074D01*
X121658757Y-63624141D01*
X121597470Y-63772100D01*
X121508500Y-63905254D01*
X121395254Y-64018500D01*
X121262100Y-64107470D01*
X121114141Y-64168757D01*
X120957074Y-64199999D01*
X120796924Y-64199999D01*
X120639857Y-64168757D01*
X120491898Y-64107470D01*
X120358744Y-64018500D01*
X120245498Y-63905254D01*
X120156528Y-63772100D01*
X120095241Y-63624141D01*
X120063999Y-63467074D01*
X120063999Y-63306924D01*
X120095241Y-63149857D01*
X120156528Y-63001898D01*
X120245498Y-62868744D01*
X120358744Y-62755498D01*
X120491898Y-62666528D01*
X120639857Y-62605241D01*
X120796924Y-62573999D01*
X120957074Y-62573999D01*
X121114141Y-62605241D01*
G37*
G36*
X108414141Y-62605241D02*
G01*
X108562100Y-62666528D01*
X108695254Y-62755498D01*
X108808500Y-62868744D01*
X108897470Y-63001898D01*
X108958757Y-63149857D01*
X108989999Y-63306924D01*
X108989999Y-63467074D01*
X108958757Y-63624141D01*
X108897470Y-63772100D01*
X108808500Y-63905254D01*
X108695254Y-64018500D01*
X108562100Y-64107470D01*
X108414141Y-64168757D01*
X108257074Y-64199999D01*
X108096924Y-64199999D01*
X107939857Y-64168757D01*
X107791898Y-64107470D01*
X107658744Y-64018500D01*
X107545498Y-63905254D01*
X107456528Y-63772100D01*
X107395241Y-63624141D01*
X107363999Y-63467074D01*
X107363999Y-63306924D01*
X107395241Y-63149857D01*
X107456528Y-63001898D01*
X107545498Y-62868744D01*
X107658744Y-62755498D01*
X107791898Y-62666528D01*
X107939857Y-62605241D01*
X108096924Y-62573999D01*
X108257074Y-62573999D01*
X108414141Y-62605241D01*
G37*
G36*
X110954141Y-62605241D02*
G01*
X111102100Y-62666528D01*
X111235254Y-62755498D01*
X111348500Y-62868744D01*
X111437470Y-63001898D01*
X111498757Y-63149857D01*
X111529999Y-63306924D01*
X111529999Y-63467074D01*
X111498757Y-63624141D01*
X111437470Y-63772100D01*
X111348500Y-63905254D01*
X111235254Y-64018500D01*
X111102100Y-64107470D01*
X110954141Y-64168757D01*
X110797074Y-64199999D01*
X110636924Y-64199999D01*
X110479857Y-64168757D01*
X110331898Y-64107470D01*
X110198744Y-64018500D01*
X110085498Y-63905254D01*
X109996528Y-63772100D01*
X109935241Y-63624141D01*
X109903999Y-63467074D01*
X109903999Y-63306924D01*
X109935241Y-63149857D01*
X109996528Y-63001898D01*
X110085498Y-62868744D01*
X110198744Y-62755498D01*
X110331898Y-62666528D01*
X110479857Y-62605241D01*
X110636924Y-62573999D01*
X110797074Y-62573999D01*
X110954141Y-62605241D01*
G37*
G36*
X113494141Y-62605241D02*
G01*
X113642100Y-62666528D01*
X113775254Y-62755498D01*
X113888500Y-62868744D01*
X113977470Y-63001898D01*
X114038757Y-63149857D01*
X114069999Y-63306924D01*
X114069999Y-63467074D01*
X114038757Y-63624141D01*
X113977470Y-63772100D01*
X113888500Y-63905254D01*
X113775254Y-64018500D01*
X113642100Y-64107470D01*
X113494141Y-64168757D01*
X113337074Y-64199999D01*
X113176924Y-64199999D01*
X113019857Y-64168757D01*
X112871898Y-64107470D01*
X112738744Y-64018500D01*
X112625498Y-63905254D01*
X112536528Y-63772100D01*
X112475241Y-63624141D01*
X112443999Y-63467074D01*
X112443999Y-63306924D01*
X112475241Y-63149857D01*
X112536528Y-63001898D01*
X112625498Y-62868744D01*
X112738744Y-62755498D01*
X112871898Y-62666528D01*
X113019857Y-62605241D01*
X113176924Y-62573999D01*
X113337074Y-62573999D01*
X113494141Y-62605241D01*
G37*
G36*
X118574141Y-62605241D02*
G01*
X118722100Y-62666528D01*
X118855254Y-62755498D01*
X118968500Y-62868744D01*
X119057470Y-63001898D01*
X119118757Y-63149857D01*
X119149999Y-63306924D01*
X119149999Y-63467074D01*
X119118757Y-63624141D01*
X119057470Y-63772100D01*
X118968500Y-63905254D01*
X118855254Y-64018500D01*
X118722100Y-64107470D01*
X118574141Y-64168757D01*
X118417074Y-64199999D01*
X118256924Y-64199999D01*
X118099857Y-64168757D01*
X117951898Y-64107470D01*
X117818744Y-64018500D01*
X117705498Y-63905254D01*
X117616528Y-63772100D01*
X117555241Y-63624141D01*
X117523999Y-63467074D01*
X117523999Y-63306924D01*
X117555241Y-63149857D01*
X117616528Y-63001898D01*
X117705498Y-62868744D01*
X117818744Y-62755498D01*
X117951898Y-62666528D01*
X118099857Y-62605241D01*
X118256924Y-62573999D01*
X118417074Y-62573999D01*
X118574141Y-62605241D01*
G37*
G36*
X123654141Y-62605241D02*
G01*
X123802100Y-62666528D01*
X123935254Y-62755498D01*
X124048500Y-62868744D01*
X124137470Y-63001898D01*
X124198757Y-63149857D01*
X124229999Y-63306924D01*
X124229999Y-63467074D01*
X124198757Y-63624141D01*
X124137470Y-63772100D01*
X124048500Y-63905254D01*
X123935254Y-64018500D01*
X123802100Y-64107470D01*
X123654141Y-64168757D01*
X123497074Y-64199999D01*
X123336924Y-64199999D01*
X123179857Y-64168757D01*
X123031898Y-64107470D01*
X122898744Y-64018500D01*
X122785498Y-63905254D01*
X122696528Y-63772100D01*
X122635241Y-63624141D01*
X122603999Y-63467074D01*
X122603999Y-63306924D01*
X122635241Y-63149857D01*
X122696528Y-63001898D01*
X122785498Y-62868744D01*
X122898744Y-62755498D01*
X123031898Y-62666528D01*
X123179857Y-62605241D01*
X123336924Y-62573999D01*
X123497074Y-62573999D01*
X123654141Y-62605241D01*
G37*
G36*
X116034141Y-62605241D02*
G01*
X116182100Y-62666528D01*
X116315254Y-62755498D01*
X116428500Y-62868744D01*
X116517470Y-63001898D01*
X116578757Y-63149857D01*
X116609999Y-63306924D01*
X116609999Y-63467074D01*
X116578757Y-63624141D01*
X116517470Y-63772100D01*
X116428500Y-63905254D01*
X116315254Y-64018500D01*
X116182100Y-64107470D01*
X116034141Y-64168757D01*
X115877074Y-64199999D01*
X115716924Y-64199999D01*
X115559857Y-64168757D01*
X115411898Y-64107470D01*
X115278744Y-64018500D01*
X115165498Y-63905254D01*
X115076528Y-63772100D01*
X115015241Y-63624141D01*
X114983999Y-63467074D01*
X114983999Y-63306924D01*
X115015241Y-63149857D01*
X115076528Y-63001898D01*
X115165498Y-62868744D01*
X115278744Y-62755498D01*
X115411898Y-62666528D01*
X115559857Y-62605241D01*
X115716924Y-62573999D01*
X115877074Y-62573999D01*
X116034141Y-62605241D01*
G37*
G36*
X116953512Y-58793927D02*
G01*
X117102812Y-58823624D01*
X117266784Y-58891544D01*
X117414354Y-58990147D01*
X117539853Y-59115646D01*
X117638456Y-59263216D01*
X117706376Y-59427188D01*
X117741000Y-59601259D01*
X117741000Y-59778741D01*
X117706376Y-59952812D01*
X117638456Y-60116784D01*
X117539853Y-60264354D01*
X117414354Y-60389853D01*
X117266784Y-60488456D01*
X117102812Y-60556376D01*
X116953512Y-60586073D01*
X116928742Y-60591000D01*
X116751258Y-60591000D01*
X116726488Y-60586073D01*
X116577188Y-60556376D01*
X116413216Y-60488456D01*
X116265646Y-60389853D01*
X116140147Y-60264354D01*
X116041544Y-60116784D01*
X115973624Y-59952812D01*
X115939000Y-59778741D01*
X115939000Y-59601259D01*
X115973624Y-59427188D01*
X116041544Y-59263216D01*
X116140147Y-59115646D01*
X116265646Y-58990147D01*
X116413216Y-58891544D01*
X116577188Y-58823624D01*
X116726488Y-58793927D01*
X116751258Y-58789000D01*
X116928742Y-58789000D01*
X116953512Y-58793927D01*
G37*
G36*
X119493512Y-58793927D02*
G01*
X119642812Y-58823624D01*
X119806784Y-58891544D01*
X119954354Y-58990147D01*
X120079853Y-59115646D01*
X120178456Y-59263216D01*
X120246376Y-59427188D01*
X120281000Y-59601259D01*
X120281000Y-59778741D01*
X120246376Y-59952812D01*
X120178456Y-60116784D01*
X120079853Y-60264354D01*
X119954354Y-60389853D01*
X119806784Y-60488456D01*
X119642812Y-60556376D01*
X119493512Y-60586073D01*
X119468742Y-60591000D01*
X119291258Y-60591000D01*
X119266488Y-60586073D01*
X119117188Y-60556376D01*
X118953216Y-60488456D01*
X118805646Y-60389853D01*
X118680147Y-60264354D01*
X118581544Y-60116784D01*
X118513624Y-59952812D01*
X118479000Y-59778741D01*
X118479000Y-59601259D01*
X118513624Y-59427188D01*
X118581544Y-59263216D01*
X118680147Y-59115646D01*
X118805646Y-58990147D01*
X118953216Y-58891544D01*
X119117188Y-58823624D01*
X119266488Y-58793927D01*
X119291258Y-58789000D01*
X119468742Y-58789000D01*
X119493512Y-58793927D01*
G37*
G36*
X114413512Y-58793927D02*
G01*
X114562812Y-58823624D01*
X114726784Y-58891544D01*
X114874354Y-58990147D01*
X114999853Y-59115646D01*
X115098456Y-59263216D01*
X115166376Y-59427188D01*
X115201000Y-59601259D01*
X115201000Y-59778741D01*
X115166376Y-59952812D01*
X115098456Y-60116784D01*
X114999853Y-60264354D01*
X114874354Y-60389853D01*
X114726784Y-60488456D01*
X114562812Y-60556376D01*
X114413512Y-60586073D01*
X114388742Y-60591000D01*
X114211258Y-60591000D01*
X114186488Y-60586073D01*
X114037188Y-60556376D01*
X113873216Y-60488456D01*
X113725646Y-60389853D01*
X113600147Y-60264354D01*
X113501544Y-60116784D01*
X113433624Y-59952812D01*
X113399000Y-59778741D01*
X113399000Y-59601259D01*
X113433624Y-59427188D01*
X113501544Y-59263216D01*
X113600147Y-59115646D01*
X113725646Y-58990147D01*
X113873216Y-58891544D01*
X114037188Y-58823624D01*
X114186488Y-58793927D01*
X114211258Y-58789000D01*
X114388742Y-58789000D01*
X114413512Y-58793927D01*
G37*
G36*
X112661000Y-60591000D02*
G01*
X110859000Y-60591000D01*
X110859000Y-58789000D01*
X112661000Y-58789000D01*
X112661000Y-60591000D01*
G37*
M02*
