G04 #@! TF.GenerationSoftware,KiCad,Pcbnew,(5.1.5)-3*
G04 #@! TF.CreationDate,2020-04-07T15:58:51+02:00*
G04 #@! TF.ProjectId,DrSquigglesController,44725371-7569-4676-976c-6573436f6e74,rev?*
G04 #@! TF.SameCoordinates,Original*
G04 #@! TF.FileFunction,Legend,Top*
G04 #@! TF.FilePolarity,Positive*
%FSLAX46Y46*%
G04 Gerber Fmt 4.6, Leading zero omitted, Abs format (unit mm)*
G04 Created by KiCad (PCBNEW (5.1.5)-3) date 2020-04-07 15:58:51*
%MOMM*%
%LPD*%
G04 APERTURE LIST*
%ADD10C,0.120000*%
%ADD11C,0.150000*%
G04 APERTURE END LIST*
D10*
X125790000Y-113090000D02*
X124460000Y-113090000D01*
X125790000Y-111760000D02*
X125790000Y-113090000D01*
X125790000Y-110490000D02*
X123130000Y-110490000D01*
X123130000Y-110490000D02*
X123130000Y-107890000D01*
X125790000Y-110490000D02*
X125790000Y-107890000D01*
X125790000Y-107890000D02*
X123130000Y-107890000D01*
X133460000Y-63440000D02*
X131810000Y-63440000D01*
X133460000Y-86420000D02*
X133460000Y-63440000D01*
X128160000Y-86420000D02*
X133460000Y-86420000D01*
X128160000Y-63440000D02*
X128160000Y-86420000D01*
X129810000Y-63440000D02*
X128160000Y-63440000D01*
X131810000Y-63440000D02*
G75*
G02X129810000Y-63440000I-1000000J0D01*
G01*
X125730000Y-105410000D02*
X125730000Y-87630000D01*
X143510000Y-105410000D02*
X125730000Y-105410000D01*
X143510000Y-87630000D02*
X143510000Y-105410000D01*
X125730000Y-87630000D02*
X143510000Y-87630000D01*
X127970000Y-116660000D02*
X128470000Y-116660000D01*
X127970000Y-115920000D02*
X127970000Y-116660000D01*
X134663000Y-112783000D02*
X134616000Y-112829000D01*
X136960000Y-110485000D02*
X136925000Y-110521000D01*
X134856000Y-112999000D02*
X134821000Y-113034000D01*
X137165000Y-110691000D02*
X137118000Y-110737000D01*
X138490000Y-106499000D02*
X138490000Y-116420000D01*
X128210000Y-106499000D02*
X128210000Y-116420000D01*
X128210000Y-116420000D02*
X138490000Y-116420000D01*
X128210000Y-106499000D02*
X138490000Y-106499000D01*
X128210000Y-109459000D02*
X138490000Y-109459000D01*
X128210000Y-114360000D02*
X138490000Y-114360000D01*
X128210000Y-115860000D02*
X138490000Y-115860000D01*
X137570000Y-111760000D02*
G75*
G03X137570000Y-111760000I-1680000J0D01*
G01*
X130838805Y-113440253D02*
G75*
G02X130126000Y-113295000I-28805J1680253D01*
G01*
X129274574Y-112443042D02*
G75*
G02X129275000Y-111076000I1535426J683042D01*
G01*
X130126958Y-110224574D02*
G75*
G02X131494000Y-110225000I683042J-1535426D01*
G01*
X132345426Y-111076958D02*
G75*
G02X132345000Y-112444000I-1535426J-683042D01*
G01*
X131493318Y-113294756D02*
G75*
G02X130810000Y-113440000I-683318J1534756D01*
G01*
X137100000Y-64710000D02*
X138430000Y-64710000D01*
X137100000Y-66040000D02*
X137100000Y-64710000D01*
X139700000Y-64710000D02*
X142300000Y-64710000D01*
X139700000Y-67310000D02*
X139700000Y-64710000D01*
X137100000Y-67310000D02*
X139700000Y-67310000D01*
X142300000Y-64710000D02*
X142300000Y-85150000D01*
X137100000Y-67310000D02*
X137100000Y-85150000D01*
X137100000Y-85150000D02*
X142300000Y-85150000D01*
X142300000Y-113090000D02*
X140970000Y-113090000D01*
X142300000Y-111760000D02*
X142300000Y-113090000D01*
X142300000Y-110490000D02*
X139640000Y-110490000D01*
X139640000Y-110490000D02*
X139640000Y-107890000D01*
X142300000Y-110490000D02*
X142300000Y-107890000D01*
X142300000Y-107890000D02*
X139640000Y-107890000D01*
X110430000Y-61020000D02*
X110430000Y-59690000D01*
X111760000Y-61020000D02*
X110430000Y-61020000D01*
X113030000Y-61020000D02*
X113030000Y-58360000D01*
X113030000Y-58360000D02*
X120710000Y-58360000D01*
X113030000Y-61020000D02*
X120710000Y-61020000D01*
X120710000Y-61020000D02*
X120710000Y-58360000D01*
D11*
X124126666Y-113542380D02*
X124126666Y-114256666D01*
X124079047Y-114399523D01*
X123983809Y-114494761D01*
X123840952Y-114542380D01*
X123745714Y-114542380D01*
X125079047Y-113542380D02*
X124602857Y-113542380D01*
X124555238Y-114018571D01*
X124602857Y-113970952D01*
X124698095Y-113923333D01*
X124936190Y-113923333D01*
X125031428Y-113970952D01*
X125079047Y-114018571D01*
X125126666Y-114113809D01*
X125126666Y-114351904D01*
X125079047Y-114447142D01*
X125031428Y-114494761D01*
X124936190Y-114542380D01*
X124698095Y-114542380D01*
X124602857Y-114494761D01*
X124555238Y-114447142D01*
X115035094Y-78079379D02*
X115035094Y-78888903D01*
X115082713Y-78984141D01*
X115130332Y-79031760D01*
X115225570Y-79079379D01*
X115416046Y-79079379D01*
X115511284Y-79031760D01*
X115558903Y-78984141D01*
X115606522Y-78888903D01*
X115606522Y-78079379D01*
X116606522Y-79079379D02*
X116035094Y-79079379D01*
X116320808Y-79079379D02*
X116320808Y-78079379D01*
X116225570Y-78222237D01*
X116130332Y-78317475D01*
X116035094Y-78365094D01*
X130048095Y-65492380D02*
X130048095Y-66301904D01*
X130095714Y-66397142D01*
X130143333Y-66444761D01*
X130238571Y-66492380D01*
X130429047Y-66492380D01*
X130524285Y-66444761D01*
X130571904Y-66397142D01*
X130619523Y-66301904D01*
X130619523Y-65492380D01*
X131000476Y-65492380D02*
X131619523Y-65492380D01*
X131286190Y-65873333D01*
X131429047Y-65873333D01*
X131524285Y-65920952D01*
X131571904Y-65968571D01*
X131619523Y-66063809D01*
X131619523Y-66301904D01*
X131571904Y-66397142D01*
X131524285Y-66444761D01*
X131429047Y-66492380D01*
X131143333Y-66492380D01*
X131048095Y-66444761D01*
X131000476Y-66397142D01*
X135128095Y-93432380D02*
X135128095Y-94241904D01*
X135175714Y-94337142D01*
X135223333Y-94384761D01*
X135318571Y-94432380D01*
X135509047Y-94432380D01*
X135604285Y-94384761D01*
X135651904Y-94337142D01*
X135699523Y-94241904D01*
X135699523Y-93432380D01*
X136128095Y-93527619D02*
X136175714Y-93480000D01*
X136270952Y-93432380D01*
X136509047Y-93432380D01*
X136604285Y-93480000D01*
X136651904Y-93527619D01*
X136699523Y-93622857D01*
X136699523Y-93718095D01*
X136651904Y-93860952D01*
X136080476Y-94432380D01*
X136699523Y-94432380D01*
X133016666Y-107402380D02*
X133016666Y-108116666D01*
X132969047Y-108259523D01*
X132873809Y-108354761D01*
X132730952Y-108402380D01*
X132635714Y-108402380D01*
X133921428Y-107735714D02*
X133921428Y-108402380D01*
X133683333Y-107354761D02*
X133445238Y-108069047D01*
X134064285Y-108069047D01*
X139366666Y-85812380D02*
X139366666Y-86526666D01*
X139319047Y-86669523D01*
X139223809Y-86764761D01*
X139080952Y-86812380D01*
X138985714Y-86812380D01*
X139747619Y-85812380D02*
X140366666Y-85812380D01*
X140033333Y-86193333D01*
X140176190Y-86193333D01*
X140271428Y-86240952D01*
X140319047Y-86288571D01*
X140366666Y-86383809D01*
X140366666Y-86621904D01*
X140319047Y-86717142D01*
X140271428Y-86764761D01*
X140176190Y-86812380D01*
X139890476Y-86812380D01*
X139795238Y-86764761D01*
X139747619Y-86717142D01*
X140636666Y-113542380D02*
X140636666Y-114256666D01*
X140589047Y-114399523D01*
X140493809Y-114494761D01*
X140350952Y-114542380D01*
X140255714Y-114542380D01*
X141065238Y-113637619D02*
X141112857Y-113590000D01*
X141208095Y-113542380D01*
X141446190Y-113542380D01*
X141541428Y-113590000D01*
X141589047Y-113637619D01*
X141636666Y-113732857D01*
X141636666Y-113828095D01*
X141589047Y-113970952D01*
X141017619Y-114542380D01*
X141636666Y-114542380D01*
X108882380Y-60023333D02*
X109596666Y-60023333D01*
X109739523Y-60070952D01*
X109834761Y-60166190D01*
X109882380Y-60309047D01*
X109882380Y-60404285D01*
X109882380Y-59023333D02*
X109882380Y-59594761D01*
X109882380Y-59309047D02*
X108882380Y-59309047D01*
X109025238Y-59404285D01*
X109120476Y-59499523D01*
X109168095Y-59594761D01*
M02*
