G04 #@! TF.GenerationSoftware,KiCad,Pcbnew,(5.1.5)-3*
G04 #@! TF.CreationDate,2020-04-05T19:38:57+02:00*
G04 #@! TF.ProjectId,DrSquigglesController,44725371-7569-4676-976c-6573436f6e74,rev?*
G04 #@! TF.SameCoordinates,Original*
G04 #@! TF.FileFunction,Copper,L1,Top*
G04 #@! TF.FilePolarity,Positive*
%FSLAX46Y46*%
G04 Gerber Fmt 4.6, Leading zero omitted, Abs format (unit mm)*
G04 Created by KiCad (PCBNEW (5.1.5)-3) date 2020-04-05 19:38:57*
%MOMM*%
%LPD*%
G04 APERTURE LIST*
%ADD10C,1.524000*%
%ADD11O,1.600000X1.600000*%
%ADD12R,1.600000X1.600000*%
%ADD13C,2.600000*%
%ADD14R,2.600000X2.600000*%
%ADD15O,1.700000X1.700000*%
%ADD16R,1.700000X1.700000*%
%ADD17C,0.500000*%
%ADD18C,1.000000*%
%ADD19C,0.254000*%
G04 APERTURE END LIST*
D10*
X108176999Y-96406999D03*
X108176999Y-93866999D03*
X108176999Y-91326999D03*
X108176999Y-88786999D03*
X108176999Y-86246999D03*
X108176999Y-83706999D03*
X108176999Y-81166999D03*
X108176999Y-78626999D03*
X108176999Y-76086999D03*
X108176999Y-73546999D03*
X108176999Y-71006999D03*
X108176999Y-68466999D03*
X108176999Y-65926999D03*
X108176999Y-63386999D03*
X110716999Y-63386999D03*
X113256999Y-63386999D03*
X115796999Y-63386999D03*
X118336999Y-63386999D03*
X120876999Y-63386999D03*
X123416999Y-63386999D03*
X123416999Y-65926999D03*
X123416999Y-68466999D03*
X123416999Y-71006999D03*
X123416999Y-73546999D03*
X123416999Y-76086999D03*
X123416999Y-78626999D03*
X123416999Y-81166999D03*
X123416999Y-83706999D03*
X123416999Y-86246999D03*
X123416999Y-88786999D03*
X123416999Y-91326999D03*
X123416999Y-93866999D03*
X123416999Y-96406999D03*
D11*
X134620000Y-68580000D03*
X127000000Y-88900000D03*
X134620000Y-71120000D03*
X127000000Y-86360000D03*
X134620000Y-73660000D03*
X127000000Y-83820000D03*
X134620000Y-76200000D03*
X127000000Y-81280000D03*
X134620000Y-78740000D03*
X127000000Y-78740000D03*
X134620000Y-81280000D03*
X127000000Y-76200000D03*
X134620000Y-83820000D03*
X127000000Y-73660000D03*
X134620000Y-86360000D03*
X127000000Y-71120000D03*
X134620000Y-88900000D03*
D12*
X127000000Y-68580000D03*
D10*
X127254000Y-107569000D03*
X127254000Y-105029000D03*
X127254000Y-102489000D03*
X127254000Y-99949000D03*
X127254000Y-97409000D03*
D13*
X114300000Y-107950000D03*
D14*
X109220000Y-107950000D03*
D15*
X140970000Y-86360000D03*
X138430000Y-86360000D03*
X140970000Y-83820000D03*
X138430000Y-83820000D03*
X140970000Y-81280000D03*
X138430000Y-81280000D03*
X140970000Y-78740000D03*
X138430000Y-78740000D03*
X140970000Y-76200000D03*
X138430000Y-76200000D03*
X140970000Y-73660000D03*
X138430000Y-73660000D03*
X140970000Y-71120000D03*
X138430000Y-71120000D03*
X140970000Y-68580000D03*
D16*
X138430000Y-68580000D03*
D15*
X119380000Y-106680000D03*
D16*
X119380000Y-109220000D03*
D15*
X119380000Y-59690000D03*
X116840000Y-59690000D03*
X114300000Y-59690000D03*
D16*
X111760000Y-59690000D03*
D17*
X107415000Y-90565000D02*
X106440000Y-90565000D01*
X108176999Y-91326999D02*
X107415000Y-90565000D01*
X106440000Y-90565000D02*
X106440000Y-59295000D01*
X106440000Y-59295000D02*
X107950000Y-57785000D01*
X107950000Y-57785000D02*
X118745000Y-57785000D01*
X119380000Y-58420000D02*
X119380000Y-59690000D01*
X118745000Y-57785000D02*
X119380000Y-58420000D01*
X108176999Y-93866999D02*
X112916999Y-93866999D01*
X115456999Y-96406999D02*
X123416999Y-96406999D01*
X112916999Y-93866999D02*
X115456999Y-96406999D01*
X116840000Y-59690000D02*
X116840000Y-60960000D01*
X115796999Y-62003001D02*
X115796999Y-63386999D01*
X116840000Y-60960000D02*
X115796999Y-62003001D01*
X108176999Y-93866999D02*
X106793001Y-93866999D01*
X106793001Y-93866999D02*
X106045000Y-94615000D01*
X107420000Y-107950000D02*
X109220000Y-107950000D01*
X106045000Y-106575000D02*
X107420000Y-107950000D01*
X106045000Y-94615000D02*
X106045000Y-106575000D01*
X110603001Y-78626999D02*
X108176999Y-78626999D01*
X114584998Y-74645002D02*
X110603001Y-78626999D01*
X114300000Y-59690000D02*
X114300000Y-60960000D01*
X114584998Y-61244998D02*
X114584998Y-74645002D01*
X114300000Y-60960000D02*
X114584998Y-61244998D01*
X111929000Y-62805238D02*
X111929000Y-74126000D01*
X111760000Y-59690000D02*
X111760000Y-62636238D01*
X111760000Y-62636238D02*
X111929000Y-62805238D01*
X109968001Y-76086999D02*
X108176999Y-76086999D01*
X111929000Y-74126000D02*
X109968001Y-76086999D01*
D18*
X134620000Y-88900000D02*
X139700000Y-88900000D01*
X140970000Y-87630000D02*
X140970000Y-68580000D01*
X139700000Y-88900000D02*
X140970000Y-87630000D01*
X129159000Y-102489000D02*
X127254000Y-102489000D01*
X130175000Y-103505000D02*
X129159000Y-102489000D01*
X119380000Y-106680000D02*
X121920000Y-106680000D01*
X125730000Y-110490000D02*
X128270000Y-110490000D01*
X130175000Y-108585000D02*
X130175000Y-103505000D01*
X121920000Y-106680000D02*
X125730000Y-110490000D01*
X128270000Y-110490000D02*
X130175000Y-108585000D01*
X134620000Y-97028000D02*
X134620000Y-88900000D01*
X129159000Y-102489000D02*
X134620000Y-97028000D01*
X114300000Y-107950000D02*
X116205000Y-107950000D01*
X117475000Y-109220000D02*
X119380000Y-109220000D01*
X116205000Y-107950000D02*
X117475000Y-109220000D01*
D17*
X134620000Y-86360000D02*
X138430000Y-86360000D01*
X134620000Y-83820000D02*
X138430000Y-83820000D01*
X134620000Y-81280000D02*
X138430000Y-81280000D01*
X134620000Y-78740000D02*
X138430000Y-78740000D01*
X134620000Y-76200000D02*
X138430000Y-76200000D01*
X134620000Y-73660000D02*
X138430000Y-73660000D01*
X134620000Y-71120000D02*
X138430000Y-71120000D01*
X134620000Y-68580000D02*
X138430000Y-68580000D01*
X108176999Y-96406999D02*
X110830000Y-99060000D01*
X110830000Y-99060000D02*
X121920000Y-99060000D01*
X121920000Y-99060000D02*
X121920000Y-104140000D01*
X125349000Y-107569000D02*
X127254000Y-107569000D01*
X121920000Y-104140000D02*
X125349000Y-107569000D01*
X125901000Y-77299000D02*
X118281000Y-77299000D01*
X127000000Y-76200000D02*
X125901000Y-77299000D01*
X111873001Y-83706999D02*
X108176999Y-83706999D01*
X118281000Y-77299000D02*
X111873001Y-83706999D01*
X125901000Y-74759000D02*
X117011000Y-74759000D01*
X127000000Y-73660000D02*
X125901000Y-74759000D01*
X110603001Y-81166999D02*
X108176999Y-81166999D01*
X117011000Y-74759000D02*
X110603001Y-81166999D01*
X126886999Y-68466999D02*
X127000000Y-68580000D01*
X123416999Y-68466999D02*
X126886999Y-68466999D01*
X126886999Y-71006999D02*
X127000000Y-71120000D01*
X123416999Y-71006999D02*
X126886999Y-71006999D01*
X126886999Y-78626999D02*
X127000000Y-78740000D01*
X123416999Y-78626999D02*
X126886999Y-78626999D01*
X126886999Y-81166999D02*
X127000000Y-81280000D01*
X123416999Y-81166999D02*
X126886999Y-81166999D01*
X126886999Y-83706999D02*
X127000000Y-83820000D01*
X123416999Y-83706999D02*
X126886999Y-83706999D01*
X126886999Y-86246999D02*
X127000000Y-86360000D01*
X123416999Y-86246999D02*
X126886999Y-86246999D01*
D19*
G36*
X142604545Y-56578909D02*
G01*
X142955208Y-56684780D01*
X143278625Y-56856744D01*
X143562484Y-57088254D01*
X143795965Y-57370486D01*
X143970183Y-57692695D01*
X144078502Y-58042614D01*
X144120000Y-58437443D01*
X144120001Y-59657581D01*
X144120000Y-112997721D01*
X144081091Y-113394545D01*
X143975220Y-113745206D01*
X143803257Y-114068623D01*
X143571748Y-114352482D01*
X143289514Y-114585965D01*
X142967304Y-114760184D01*
X142617385Y-114868502D01*
X142222557Y-114910000D01*
X106712279Y-114910000D01*
X106315455Y-114871091D01*
X105964794Y-114765220D01*
X105641377Y-114593257D01*
X105357518Y-114361748D01*
X105124035Y-114079514D01*
X104949816Y-113757304D01*
X104841498Y-113407385D01*
X104800000Y-113012557D01*
X104800000Y-94615000D01*
X105155719Y-94615000D01*
X105160000Y-94658469D01*
X105160001Y-106531521D01*
X105155719Y-106575000D01*
X105172805Y-106748490D01*
X105223412Y-106915313D01*
X105305590Y-107069059D01*
X105388468Y-107170046D01*
X105388471Y-107170049D01*
X105416184Y-107203817D01*
X105449951Y-107231529D01*
X106763470Y-108545049D01*
X106791183Y-108578817D01*
X106824951Y-108606530D01*
X106824953Y-108606532D01*
X106925941Y-108689411D01*
X107079686Y-108771589D01*
X107246510Y-108822195D01*
X107281928Y-108825683D01*
X107281928Y-109250000D01*
X107294188Y-109374482D01*
X107330498Y-109494180D01*
X107389463Y-109604494D01*
X107468815Y-109701185D01*
X107565506Y-109780537D01*
X107675820Y-109839502D01*
X107795518Y-109875812D01*
X107920000Y-109888072D01*
X110520000Y-109888072D01*
X110644482Y-109875812D01*
X110764180Y-109839502D01*
X110874494Y-109780537D01*
X110971185Y-109701185D01*
X111050537Y-109604494D01*
X111109502Y-109494180D01*
X111145812Y-109374482D01*
X111158072Y-109250000D01*
X111158072Y-106650000D01*
X111145812Y-106525518D01*
X111109502Y-106405820D01*
X111050537Y-106295506D01*
X110971185Y-106198815D01*
X110874494Y-106119463D01*
X110764180Y-106060498D01*
X110644482Y-106024188D01*
X110520000Y-106011928D01*
X107920000Y-106011928D01*
X107795518Y-106024188D01*
X107675820Y-106060498D01*
X107565506Y-106119463D01*
X107468815Y-106198815D01*
X107389463Y-106295506D01*
X107330498Y-106405820D01*
X107294188Y-106525518D01*
X107289966Y-106568387D01*
X106930000Y-106208422D01*
X106930000Y-97047013D01*
X106938994Y-97068726D01*
X107091879Y-97297534D01*
X107286464Y-97492119D01*
X107515272Y-97645004D01*
X107769509Y-97750313D01*
X108039407Y-97803999D01*
X108314591Y-97803999D01*
X108321122Y-97802700D01*
X110173470Y-99655049D01*
X110201183Y-99688817D01*
X110234951Y-99716530D01*
X110234953Y-99716532D01*
X110306452Y-99775210D01*
X110335941Y-99799411D01*
X110489687Y-99881589D01*
X110605903Y-99916843D01*
X110656509Y-99932195D01*
X110671306Y-99933652D01*
X110786523Y-99945000D01*
X110786531Y-99945000D01*
X110830000Y-99949281D01*
X110873469Y-99945000D01*
X121035000Y-99945000D01*
X121035001Y-104096521D01*
X121030719Y-104140000D01*
X121047805Y-104313490D01*
X121098412Y-104480313D01*
X121180590Y-104634059D01*
X121263468Y-104735046D01*
X121263471Y-104735049D01*
X121291184Y-104768817D01*
X121324951Y-104796529D01*
X122084092Y-105555670D01*
X121975752Y-105545000D01*
X121975751Y-105545000D01*
X121920000Y-105539509D01*
X121864249Y-105545000D01*
X120345107Y-105545000D01*
X120326632Y-105526525D01*
X120083411Y-105364010D01*
X119813158Y-105252068D01*
X119526260Y-105195000D01*
X119233740Y-105195000D01*
X118946842Y-105252068D01*
X118676589Y-105364010D01*
X118433368Y-105526525D01*
X118226525Y-105733368D01*
X118064010Y-105976589D01*
X117952068Y-106246842D01*
X117895000Y-106533740D01*
X117895000Y-106826260D01*
X117952068Y-107113158D01*
X118064010Y-107383411D01*
X118226525Y-107626632D01*
X118358380Y-107758487D01*
X118285820Y-107780498D01*
X118175506Y-107839463D01*
X118078815Y-107918815D01*
X117999463Y-108015506D01*
X117962317Y-108085000D01*
X117945132Y-108085000D01*
X117046996Y-107186865D01*
X117011449Y-107143551D01*
X116838623Y-107001716D01*
X116641447Y-106896324D01*
X116427499Y-106831423D01*
X116260752Y-106815000D01*
X116260751Y-106815000D01*
X116205000Y-106809509D01*
X116149249Y-106815000D01*
X115868822Y-106815000D01*
X115803013Y-106716509D01*
X115533491Y-106446987D01*
X115216566Y-106235225D01*
X114864419Y-106089361D01*
X114490581Y-106015000D01*
X114109419Y-106015000D01*
X113735581Y-106089361D01*
X113383434Y-106235225D01*
X113066509Y-106446987D01*
X112796987Y-106716509D01*
X112585225Y-107033434D01*
X112439361Y-107385581D01*
X112365000Y-107759419D01*
X112365000Y-108140581D01*
X112439361Y-108514419D01*
X112585225Y-108866566D01*
X112796987Y-109183491D01*
X113066509Y-109453013D01*
X113383434Y-109664775D01*
X113735581Y-109810639D01*
X114109419Y-109885000D01*
X114490581Y-109885000D01*
X114864419Y-109810639D01*
X115216566Y-109664775D01*
X115533491Y-109453013D01*
X115803013Y-109183491D01*
X115815168Y-109165299D01*
X116633008Y-109983140D01*
X116668551Y-110026449D01*
X116841377Y-110168284D01*
X117038553Y-110273676D01*
X117172076Y-110314180D01*
X117252500Y-110338577D01*
X117273493Y-110340644D01*
X117419248Y-110355000D01*
X117419255Y-110355000D01*
X117474999Y-110360490D01*
X117530743Y-110355000D01*
X117962317Y-110355000D01*
X117999463Y-110424494D01*
X118078815Y-110521185D01*
X118175506Y-110600537D01*
X118285820Y-110659502D01*
X118405518Y-110695812D01*
X118530000Y-110708072D01*
X120230000Y-110708072D01*
X120354482Y-110695812D01*
X120474180Y-110659502D01*
X120584494Y-110600537D01*
X120681185Y-110521185D01*
X120760537Y-110424494D01*
X120819502Y-110314180D01*
X120855812Y-110194482D01*
X120868072Y-110070000D01*
X120868072Y-108370000D01*
X120855812Y-108245518D01*
X120819502Y-108125820D01*
X120760537Y-108015506D01*
X120681185Y-107918815D01*
X120584494Y-107839463D01*
X120538728Y-107815000D01*
X121449869Y-107815000D01*
X124888013Y-111253146D01*
X124923551Y-111296449D01*
X124966854Y-111331987D01*
X124966856Y-111331989D01*
X125096377Y-111438284D01*
X125293553Y-111543676D01*
X125507501Y-111608577D01*
X125730000Y-111630491D01*
X125785752Y-111625000D01*
X128214249Y-111625000D01*
X128270000Y-111630491D01*
X128325751Y-111625000D01*
X128325752Y-111625000D01*
X128492499Y-111608577D01*
X128706447Y-111543676D01*
X128903623Y-111438284D01*
X129076449Y-111296449D01*
X129111996Y-111253135D01*
X130938141Y-109426991D01*
X130981449Y-109391449D01*
X131123284Y-109218623D01*
X131228676Y-109021447D01*
X131293577Y-108807499D01*
X131310000Y-108640752D01*
X131310000Y-108640751D01*
X131315491Y-108585000D01*
X131310000Y-108529248D01*
X131310000Y-103560751D01*
X131315491Y-103505000D01*
X131293577Y-103282501D01*
X131228676Y-103068553D01*
X131123284Y-102871377D01*
X130981449Y-102698551D01*
X130938140Y-102663008D01*
X130764131Y-102489000D01*
X135383141Y-97869991D01*
X135426449Y-97834449D01*
X135568284Y-97661623D01*
X135673676Y-97464447D01*
X135738577Y-97250499D01*
X135755000Y-97083752D01*
X135755000Y-97083743D01*
X135760490Y-97028001D01*
X135755000Y-96972259D01*
X135755000Y-90035000D01*
X139644249Y-90035000D01*
X139700000Y-90040491D01*
X139755751Y-90035000D01*
X139755752Y-90035000D01*
X139922499Y-90018577D01*
X140136447Y-89953676D01*
X140333623Y-89848284D01*
X140506449Y-89706449D01*
X140541996Y-89663135D01*
X141733140Y-88471992D01*
X141776449Y-88436449D01*
X141918284Y-88263623D01*
X142023676Y-88066447D01*
X142088577Y-87852499D01*
X142105000Y-87685752D01*
X142105000Y-87685745D01*
X142110490Y-87630001D01*
X142105000Y-87574257D01*
X142105000Y-87325107D01*
X142123475Y-87306632D01*
X142285990Y-87063411D01*
X142397932Y-86793158D01*
X142455000Y-86506260D01*
X142455000Y-86213740D01*
X142397932Y-85926842D01*
X142285990Y-85656589D01*
X142123475Y-85413368D01*
X142105000Y-85394893D01*
X142105000Y-84785107D01*
X142123475Y-84766632D01*
X142285990Y-84523411D01*
X142397932Y-84253158D01*
X142455000Y-83966260D01*
X142455000Y-83673740D01*
X142397932Y-83386842D01*
X142285990Y-83116589D01*
X142123475Y-82873368D01*
X142105000Y-82854893D01*
X142105000Y-82245107D01*
X142123475Y-82226632D01*
X142285990Y-81983411D01*
X142397932Y-81713158D01*
X142455000Y-81426260D01*
X142455000Y-81133740D01*
X142397932Y-80846842D01*
X142285990Y-80576589D01*
X142123475Y-80333368D01*
X142105000Y-80314893D01*
X142105000Y-79705107D01*
X142123475Y-79686632D01*
X142285990Y-79443411D01*
X142397932Y-79173158D01*
X142455000Y-78886260D01*
X142455000Y-78593740D01*
X142397932Y-78306842D01*
X142285990Y-78036589D01*
X142123475Y-77793368D01*
X142105000Y-77774893D01*
X142105000Y-77165107D01*
X142123475Y-77146632D01*
X142285990Y-76903411D01*
X142397932Y-76633158D01*
X142455000Y-76346260D01*
X142455000Y-76053740D01*
X142397932Y-75766842D01*
X142285990Y-75496589D01*
X142123475Y-75253368D01*
X142105000Y-75234893D01*
X142105000Y-74625107D01*
X142123475Y-74606632D01*
X142285990Y-74363411D01*
X142397932Y-74093158D01*
X142455000Y-73806260D01*
X142455000Y-73513740D01*
X142397932Y-73226842D01*
X142285990Y-72956589D01*
X142123475Y-72713368D01*
X142105000Y-72694893D01*
X142105000Y-72085107D01*
X142123475Y-72066632D01*
X142285990Y-71823411D01*
X142397932Y-71553158D01*
X142455000Y-71266260D01*
X142455000Y-70973740D01*
X142397932Y-70686842D01*
X142285990Y-70416589D01*
X142123475Y-70173368D01*
X142105000Y-70154893D01*
X142105000Y-69545107D01*
X142123475Y-69526632D01*
X142285990Y-69283411D01*
X142397932Y-69013158D01*
X142455000Y-68726260D01*
X142455000Y-68433740D01*
X142397932Y-68146842D01*
X142285990Y-67876589D01*
X142123475Y-67633368D01*
X141916632Y-67426525D01*
X141673411Y-67264010D01*
X141403158Y-67152068D01*
X141116260Y-67095000D01*
X140823740Y-67095000D01*
X140536842Y-67152068D01*
X140266589Y-67264010D01*
X140023368Y-67426525D01*
X139891513Y-67558380D01*
X139869502Y-67485820D01*
X139810537Y-67375506D01*
X139731185Y-67278815D01*
X139634494Y-67199463D01*
X139524180Y-67140498D01*
X139404482Y-67104188D01*
X139280000Y-67091928D01*
X137580000Y-67091928D01*
X137455518Y-67104188D01*
X137335820Y-67140498D01*
X137225506Y-67199463D01*
X137128815Y-67278815D01*
X137049463Y-67375506D01*
X136990498Y-67485820D01*
X136954188Y-67605518D01*
X136945375Y-67695000D01*
X135754521Y-67695000D01*
X135734637Y-67665241D01*
X135534759Y-67465363D01*
X135299727Y-67308320D01*
X135038574Y-67200147D01*
X134761335Y-67145000D01*
X134478665Y-67145000D01*
X134201426Y-67200147D01*
X133940273Y-67308320D01*
X133705241Y-67465363D01*
X133505363Y-67665241D01*
X133348320Y-67900273D01*
X133240147Y-68161426D01*
X133185000Y-68438665D01*
X133185000Y-68721335D01*
X133240147Y-68998574D01*
X133348320Y-69259727D01*
X133505363Y-69494759D01*
X133705241Y-69694637D01*
X133937759Y-69850000D01*
X133705241Y-70005363D01*
X133505363Y-70205241D01*
X133348320Y-70440273D01*
X133240147Y-70701426D01*
X133185000Y-70978665D01*
X133185000Y-71261335D01*
X133240147Y-71538574D01*
X133348320Y-71799727D01*
X133505363Y-72034759D01*
X133705241Y-72234637D01*
X133937759Y-72390000D01*
X133705241Y-72545363D01*
X133505363Y-72745241D01*
X133348320Y-72980273D01*
X133240147Y-73241426D01*
X133185000Y-73518665D01*
X133185000Y-73801335D01*
X133240147Y-74078574D01*
X133348320Y-74339727D01*
X133505363Y-74574759D01*
X133705241Y-74774637D01*
X133937759Y-74930000D01*
X133705241Y-75085363D01*
X133505363Y-75285241D01*
X133348320Y-75520273D01*
X133240147Y-75781426D01*
X133185000Y-76058665D01*
X133185000Y-76341335D01*
X133240147Y-76618574D01*
X133348320Y-76879727D01*
X133505363Y-77114759D01*
X133705241Y-77314637D01*
X133937759Y-77470000D01*
X133705241Y-77625363D01*
X133505363Y-77825241D01*
X133348320Y-78060273D01*
X133240147Y-78321426D01*
X133185000Y-78598665D01*
X133185000Y-78881335D01*
X133240147Y-79158574D01*
X133348320Y-79419727D01*
X133505363Y-79654759D01*
X133705241Y-79854637D01*
X133937759Y-80010000D01*
X133705241Y-80165363D01*
X133505363Y-80365241D01*
X133348320Y-80600273D01*
X133240147Y-80861426D01*
X133185000Y-81138665D01*
X133185000Y-81421335D01*
X133240147Y-81698574D01*
X133348320Y-81959727D01*
X133505363Y-82194759D01*
X133705241Y-82394637D01*
X133937759Y-82550000D01*
X133705241Y-82705363D01*
X133505363Y-82905241D01*
X133348320Y-83140273D01*
X133240147Y-83401426D01*
X133185000Y-83678665D01*
X133185000Y-83961335D01*
X133240147Y-84238574D01*
X133348320Y-84499727D01*
X133505363Y-84734759D01*
X133705241Y-84934637D01*
X133937759Y-85090000D01*
X133705241Y-85245363D01*
X133505363Y-85445241D01*
X133348320Y-85680273D01*
X133240147Y-85941426D01*
X133185000Y-86218665D01*
X133185000Y-86501335D01*
X133240147Y-86778574D01*
X133348320Y-87039727D01*
X133505363Y-87274759D01*
X133705241Y-87474637D01*
X133937759Y-87630000D01*
X133705241Y-87785363D01*
X133505363Y-87985241D01*
X133348320Y-88220273D01*
X133240147Y-88481426D01*
X133185000Y-88758665D01*
X133185000Y-89041335D01*
X133240147Y-89318574D01*
X133348320Y-89579727D01*
X133485001Y-89784285D01*
X133485000Y-96557868D01*
X128688869Y-101354000D01*
X128069884Y-101354000D01*
X127915727Y-101250995D01*
X127838485Y-101219000D01*
X127915727Y-101187005D01*
X128144535Y-101034120D01*
X128339120Y-100839535D01*
X128492005Y-100610727D01*
X128597314Y-100356490D01*
X128651000Y-100086592D01*
X128651000Y-99811408D01*
X128597314Y-99541510D01*
X128492005Y-99287273D01*
X128339120Y-99058465D01*
X128144535Y-98863880D01*
X127915727Y-98710995D01*
X127838485Y-98679000D01*
X127915727Y-98647005D01*
X128144535Y-98494120D01*
X128339120Y-98299535D01*
X128492005Y-98070727D01*
X128597314Y-97816490D01*
X128651000Y-97546592D01*
X128651000Y-97271408D01*
X128597314Y-97001510D01*
X128492005Y-96747273D01*
X128339120Y-96518465D01*
X128144535Y-96323880D01*
X127915727Y-96170995D01*
X127661490Y-96065686D01*
X127391592Y-96012000D01*
X127116408Y-96012000D01*
X126846510Y-96065686D01*
X126592273Y-96170995D01*
X126363465Y-96323880D01*
X126168880Y-96518465D01*
X126015995Y-96747273D01*
X125910686Y-97001510D01*
X125857000Y-97271408D01*
X125857000Y-97546592D01*
X125910686Y-97816490D01*
X126015995Y-98070727D01*
X126168880Y-98299535D01*
X126363465Y-98494120D01*
X126592273Y-98647005D01*
X126669515Y-98679000D01*
X126592273Y-98710995D01*
X126363465Y-98863880D01*
X126168880Y-99058465D01*
X126015995Y-99287273D01*
X125910686Y-99541510D01*
X125857000Y-99811408D01*
X125857000Y-100086592D01*
X125910686Y-100356490D01*
X126015995Y-100610727D01*
X126168880Y-100839535D01*
X126363465Y-101034120D01*
X126592273Y-101187005D01*
X126669515Y-101219000D01*
X126592273Y-101250995D01*
X126363465Y-101403880D01*
X126168880Y-101598465D01*
X126015995Y-101827273D01*
X125910686Y-102081510D01*
X125857000Y-102351408D01*
X125857000Y-102626592D01*
X125910686Y-102896490D01*
X126015995Y-103150727D01*
X126168880Y-103379535D01*
X126363465Y-103574120D01*
X126592273Y-103727005D01*
X126669515Y-103759000D01*
X126592273Y-103790995D01*
X126363465Y-103943880D01*
X126168880Y-104138465D01*
X126015995Y-104367273D01*
X125910686Y-104621510D01*
X125857000Y-104891408D01*
X125857000Y-105166592D01*
X125910686Y-105436490D01*
X126015995Y-105690727D01*
X126168880Y-105919535D01*
X126363465Y-106114120D01*
X126592273Y-106267005D01*
X126669515Y-106299000D01*
X126592273Y-106330995D01*
X126363465Y-106483880D01*
X126168880Y-106678465D01*
X126165182Y-106684000D01*
X125715579Y-106684000D01*
X122805000Y-103773422D01*
X122805000Y-99103477D01*
X122809282Y-99060000D01*
X122792195Y-98886510D01*
X122741589Y-98719687D01*
X122659411Y-98565941D01*
X122548817Y-98431183D01*
X122414059Y-98320589D01*
X122260313Y-98238411D01*
X122093490Y-98187805D01*
X121963477Y-98175000D01*
X121963476Y-98175000D01*
X121920000Y-98170718D01*
X121876523Y-98175000D01*
X111196579Y-98175000D01*
X109572700Y-96551122D01*
X109573999Y-96544591D01*
X109573999Y-96269407D01*
X109520313Y-95999509D01*
X109415004Y-95745272D01*
X109262119Y-95516464D01*
X109067534Y-95321879D01*
X108838726Y-95168994D01*
X108761484Y-95136999D01*
X108838726Y-95105004D01*
X109067534Y-94952119D01*
X109262119Y-94757534D01*
X109265817Y-94751999D01*
X112550421Y-94751999D01*
X114800469Y-97002048D01*
X114828182Y-97035816D01*
X114861950Y-97063529D01*
X114861952Y-97063531D01*
X114933451Y-97122209D01*
X114962940Y-97146410D01*
X115116686Y-97228588D01*
X115283509Y-97279194D01*
X115413522Y-97291999D01*
X115413532Y-97291999D01*
X115456998Y-97296280D01*
X115500464Y-97291999D01*
X122328181Y-97291999D01*
X122331879Y-97297534D01*
X122526464Y-97492119D01*
X122755272Y-97645004D01*
X123009509Y-97750313D01*
X123279407Y-97803999D01*
X123554591Y-97803999D01*
X123824489Y-97750313D01*
X124078726Y-97645004D01*
X124307534Y-97492119D01*
X124502119Y-97297534D01*
X124655004Y-97068726D01*
X124760313Y-96814489D01*
X124813999Y-96544591D01*
X124813999Y-96269407D01*
X124760313Y-95999509D01*
X124655004Y-95745272D01*
X124502119Y-95516464D01*
X124307534Y-95321879D01*
X124078726Y-95168994D01*
X124001484Y-95136999D01*
X124078726Y-95105004D01*
X124307534Y-94952119D01*
X124502119Y-94757534D01*
X124655004Y-94528726D01*
X124760313Y-94274489D01*
X124813999Y-94004591D01*
X124813999Y-93729407D01*
X124760313Y-93459509D01*
X124655004Y-93205272D01*
X124502119Y-92976464D01*
X124307534Y-92781879D01*
X124078726Y-92628994D01*
X124001484Y-92596999D01*
X124078726Y-92565004D01*
X124307534Y-92412119D01*
X124502119Y-92217534D01*
X124655004Y-91988726D01*
X124760313Y-91734489D01*
X124813999Y-91464591D01*
X124813999Y-91189407D01*
X124760313Y-90919509D01*
X124655004Y-90665272D01*
X124502119Y-90436464D01*
X124307534Y-90241879D01*
X124078726Y-90088994D01*
X124001484Y-90056999D01*
X124078726Y-90025004D01*
X124307534Y-89872119D01*
X124502119Y-89677534D01*
X124655004Y-89448726D01*
X124760313Y-89194489D01*
X124813999Y-88924591D01*
X124813999Y-88649407D01*
X124760313Y-88379509D01*
X124655004Y-88125272D01*
X124502119Y-87896464D01*
X124307534Y-87701879D01*
X124078726Y-87548994D01*
X124001484Y-87516999D01*
X124078726Y-87485004D01*
X124307534Y-87332119D01*
X124502119Y-87137534D01*
X124505817Y-87131999D01*
X125789974Y-87131999D01*
X125885363Y-87274759D01*
X126085241Y-87474637D01*
X126317759Y-87630000D01*
X126085241Y-87785363D01*
X125885363Y-87985241D01*
X125728320Y-88220273D01*
X125620147Y-88481426D01*
X125565000Y-88758665D01*
X125565000Y-89041335D01*
X125620147Y-89318574D01*
X125728320Y-89579727D01*
X125885363Y-89814759D01*
X126085241Y-90014637D01*
X126320273Y-90171680D01*
X126581426Y-90279853D01*
X126858665Y-90335000D01*
X127141335Y-90335000D01*
X127418574Y-90279853D01*
X127679727Y-90171680D01*
X127914759Y-90014637D01*
X128114637Y-89814759D01*
X128271680Y-89579727D01*
X128379853Y-89318574D01*
X128435000Y-89041335D01*
X128435000Y-88758665D01*
X128379853Y-88481426D01*
X128271680Y-88220273D01*
X128114637Y-87985241D01*
X127914759Y-87785363D01*
X127682241Y-87630000D01*
X127914759Y-87474637D01*
X128114637Y-87274759D01*
X128271680Y-87039727D01*
X128379853Y-86778574D01*
X128435000Y-86501335D01*
X128435000Y-86218665D01*
X128379853Y-85941426D01*
X128271680Y-85680273D01*
X128114637Y-85445241D01*
X127914759Y-85245363D01*
X127682241Y-85090000D01*
X127914759Y-84934637D01*
X128114637Y-84734759D01*
X128271680Y-84499727D01*
X128379853Y-84238574D01*
X128435000Y-83961335D01*
X128435000Y-83678665D01*
X128379853Y-83401426D01*
X128271680Y-83140273D01*
X128114637Y-82905241D01*
X127914759Y-82705363D01*
X127682241Y-82550000D01*
X127914759Y-82394637D01*
X128114637Y-82194759D01*
X128271680Y-81959727D01*
X128379853Y-81698574D01*
X128435000Y-81421335D01*
X128435000Y-81138665D01*
X128379853Y-80861426D01*
X128271680Y-80600273D01*
X128114637Y-80365241D01*
X127914759Y-80165363D01*
X127682241Y-80010000D01*
X127914759Y-79854637D01*
X128114637Y-79654759D01*
X128271680Y-79419727D01*
X128379853Y-79158574D01*
X128435000Y-78881335D01*
X128435000Y-78598665D01*
X128379853Y-78321426D01*
X128271680Y-78060273D01*
X128114637Y-77825241D01*
X127914759Y-77625363D01*
X127682241Y-77470000D01*
X127914759Y-77314637D01*
X128114637Y-77114759D01*
X128271680Y-76879727D01*
X128379853Y-76618574D01*
X128435000Y-76341335D01*
X128435000Y-76058665D01*
X128379853Y-75781426D01*
X128271680Y-75520273D01*
X128114637Y-75285241D01*
X127914759Y-75085363D01*
X127682241Y-74930000D01*
X127914759Y-74774637D01*
X128114637Y-74574759D01*
X128271680Y-74339727D01*
X128379853Y-74078574D01*
X128435000Y-73801335D01*
X128435000Y-73518665D01*
X128379853Y-73241426D01*
X128271680Y-72980273D01*
X128114637Y-72745241D01*
X127914759Y-72545363D01*
X127682241Y-72390000D01*
X127914759Y-72234637D01*
X128114637Y-72034759D01*
X128271680Y-71799727D01*
X128379853Y-71538574D01*
X128435000Y-71261335D01*
X128435000Y-70978665D01*
X128379853Y-70701426D01*
X128271680Y-70440273D01*
X128114637Y-70205241D01*
X127916039Y-70006643D01*
X127924482Y-70005812D01*
X128044180Y-69969502D01*
X128154494Y-69910537D01*
X128251185Y-69831185D01*
X128330537Y-69734494D01*
X128389502Y-69624180D01*
X128425812Y-69504482D01*
X128438072Y-69380000D01*
X128438072Y-67780000D01*
X128425812Y-67655518D01*
X128389502Y-67535820D01*
X128330537Y-67425506D01*
X128251185Y-67328815D01*
X128154494Y-67249463D01*
X128044180Y-67190498D01*
X127924482Y-67154188D01*
X127800000Y-67141928D01*
X126200000Y-67141928D01*
X126075518Y-67154188D01*
X125955820Y-67190498D01*
X125845506Y-67249463D01*
X125748815Y-67328815D01*
X125669463Y-67425506D01*
X125610498Y-67535820D01*
X125596490Y-67581999D01*
X124505817Y-67581999D01*
X124502119Y-67576464D01*
X124307534Y-67381879D01*
X124078726Y-67228994D01*
X124001484Y-67196999D01*
X124078726Y-67165004D01*
X124307534Y-67012119D01*
X124502119Y-66817534D01*
X124655004Y-66588726D01*
X124760313Y-66334489D01*
X124813999Y-66064591D01*
X124813999Y-65789407D01*
X124760313Y-65519509D01*
X124655004Y-65265272D01*
X124502119Y-65036464D01*
X124307534Y-64841879D01*
X124078726Y-64688994D01*
X124001484Y-64656999D01*
X124078726Y-64625004D01*
X124307534Y-64472119D01*
X124502119Y-64277534D01*
X124655004Y-64048726D01*
X124760313Y-63794489D01*
X124813999Y-63524591D01*
X124813999Y-63249407D01*
X124760313Y-62979509D01*
X124655004Y-62725272D01*
X124502119Y-62496464D01*
X124307534Y-62301879D01*
X124078726Y-62148994D01*
X123824489Y-62043685D01*
X123554591Y-61989999D01*
X123279407Y-61989999D01*
X123009509Y-62043685D01*
X122755272Y-62148994D01*
X122526464Y-62301879D01*
X122331879Y-62496464D01*
X122178994Y-62725272D01*
X122146999Y-62802514D01*
X122115004Y-62725272D01*
X121962119Y-62496464D01*
X121767534Y-62301879D01*
X121538726Y-62148994D01*
X121284489Y-62043685D01*
X121014591Y-61989999D01*
X120739407Y-61989999D01*
X120469509Y-62043685D01*
X120215272Y-62148994D01*
X119986464Y-62301879D01*
X119791879Y-62496464D01*
X119638994Y-62725272D01*
X119609307Y-62796942D01*
X119604635Y-62783976D01*
X119542655Y-62668019D01*
X119302564Y-62601039D01*
X118516604Y-63386999D01*
X119302564Y-64172959D01*
X119542655Y-64105979D01*
X119606484Y-63970239D01*
X119638994Y-64048726D01*
X119791879Y-64277534D01*
X119986464Y-64472119D01*
X120215272Y-64625004D01*
X120469509Y-64730313D01*
X120739407Y-64783999D01*
X121014591Y-64783999D01*
X121284489Y-64730313D01*
X121538726Y-64625004D01*
X121767534Y-64472119D01*
X121962119Y-64277534D01*
X122115004Y-64048726D01*
X122146999Y-63971484D01*
X122178994Y-64048726D01*
X122331879Y-64277534D01*
X122526464Y-64472119D01*
X122755272Y-64625004D01*
X122832514Y-64656999D01*
X122755272Y-64688994D01*
X122526464Y-64841879D01*
X122331879Y-65036464D01*
X122178994Y-65265272D01*
X122073685Y-65519509D01*
X122019999Y-65789407D01*
X122019999Y-66064591D01*
X122073685Y-66334489D01*
X122178994Y-66588726D01*
X122331879Y-66817534D01*
X122526464Y-67012119D01*
X122755272Y-67165004D01*
X122832514Y-67196999D01*
X122755272Y-67228994D01*
X122526464Y-67381879D01*
X122331879Y-67576464D01*
X122178994Y-67805272D01*
X122073685Y-68059509D01*
X122019999Y-68329407D01*
X122019999Y-68604591D01*
X122073685Y-68874489D01*
X122178994Y-69128726D01*
X122331879Y-69357534D01*
X122526464Y-69552119D01*
X122755272Y-69705004D01*
X122832514Y-69736999D01*
X122755272Y-69768994D01*
X122526464Y-69921879D01*
X122331879Y-70116464D01*
X122178994Y-70345272D01*
X122073685Y-70599509D01*
X122019999Y-70869407D01*
X122019999Y-71144591D01*
X122073685Y-71414489D01*
X122178994Y-71668726D01*
X122331879Y-71897534D01*
X122526464Y-72092119D01*
X122755272Y-72245004D01*
X122832514Y-72276999D01*
X122755272Y-72308994D01*
X122526464Y-72461879D01*
X122331879Y-72656464D01*
X122178994Y-72885272D01*
X122073685Y-73139509D01*
X122019999Y-73409407D01*
X122019999Y-73684591D01*
X122057675Y-73874000D01*
X117054465Y-73874000D01*
X117010999Y-73869719D01*
X116967533Y-73874000D01*
X116967523Y-73874000D01*
X116837510Y-73886805D01*
X116670687Y-73937411D01*
X116516941Y-74019589D01*
X116516939Y-74019590D01*
X116516940Y-74019590D01*
X116415953Y-74102468D01*
X116415951Y-74102470D01*
X116382183Y-74130183D01*
X116354470Y-74163951D01*
X110236423Y-80281999D01*
X109265817Y-80281999D01*
X109262119Y-80276464D01*
X109067534Y-80081879D01*
X108838726Y-79928994D01*
X108761484Y-79896999D01*
X108838726Y-79865004D01*
X109067534Y-79712119D01*
X109262119Y-79517534D01*
X109265817Y-79511999D01*
X110559532Y-79511999D01*
X110603001Y-79516280D01*
X110646470Y-79511999D01*
X110646478Y-79511999D01*
X110776491Y-79499194D01*
X110943314Y-79448588D01*
X111097060Y-79366410D01*
X111231818Y-79255816D01*
X111259535Y-79222043D01*
X115180047Y-75301532D01*
X115213815Y-75273819D01*
X115324409Y-75139061D01*
X115406587Y-74985315D01*
X115457193Y-74818492D01*
X115469998Y-74688479D01*
X115469998Y-74688469D01*
X115474279Y-74645003D01*
X115469998Y-74601537D01*
X115469998Y-64746323D01*
X115659407Y-64783999D01*
X115934591Y-64783999D01*
X116204489Y-64730313D01*
X116458726Y-64625004D01*
X116687534Y-64472119D01*
X116807089Y-64352564D01*
X117551039Y-64352564D01*
X117618019Y-64592655D01*
X117867047Y-64709755D01*
X118134134Y-64776022D01*
X118409016Y-64788909D01*
X118681132Y-64747921D01*
X118940022Y-64654635D01*
X119055979Y-64592655D01*
X119122959Y-64352564D01*
X118336999Y-63566604D01*
X117551039Y-64352564D01*
X116807089Y-64352564D01*
X116882119Y-64277534D01*
X117035004Y-64048726D01*
X117064691Y-63977056D01*
X117069363Y-63990022D01*
X117131343Y-64105979D01*
X117371434Y-64172959D01*
X118157394Y-63386999D01*
X117371434Y-62601039D01*
X117131343Y-62668019D01*
X117067514Y-62803759D01*
X117035004Y-62725272D01*
X116882119Y-62496464D01*
X116807089Y-62421434D01*
X117551039Y-62421434D01*
X118336999Y-63207394D01*
X119122959Y-62421434D01*
X119055979Y-62181343D01*
X118806951Y-62064243D01*
X118539864Y-61997976D01*
X118264982Y-61985089D01*
X117992866Y-62026077D01*
X117733976Y-62119363D01*
X117618019Y-62181343D01*
X117551039Y-62421434D01*
X116807089Y-62421434D01*
X116718617Y-62332962D01*
X117435049Y-61616530D01*
X117468817Y-61588817D01*
X117496533Y-61555046D01*
X117579410Y-61454060D01*
X117579411Y-61454059D01*
X117661589Y-61300313D01*
X117712195Y-61133490D01*
X117725000Y-61003477D01*
X117725000Y-61003467D01*
X117729281Y-60960001D01*
X117725000Y-60916535D01*
X117725000Y-60884656D01*
X117786632Y-60843475D01*
X117993475Y-60636632D01*
X118115195Y-60454466D01*
X118184822Y-60571355D01*
X118379731Y-60787588D01*
X118613080Y-60961641D01*
X118875901Y-61086825D01*
X119023110Y-61131476D01*
X119253000Y-61010155D01*
X119253000Y-59817000D01*
X119507000Y-59817000D01*
X119507000Y-61010155D01*
X119736890Y-61131476D01*
X119884099Y-61086825D01*
X120146920Y-60961641D01*
X120380269Y-60787588D01*
X120575178Y-60571355D01*
X120724157Y-60321252D01*
X120821481Y-60046891D01*
X120700814Y-59817000D01*
X119507000Y-59817000D01*
X119253000Y-59817000D01*
X119233000Y-59817000D01*
X119233000Y-59563000D01*
X119253000Y-59563000D01*
X119253000Y-58369845D01*
X119507000Y-58369845D01*
X119507000Y-59563000D01*
X120700814Y-59563000D01*
X120821481Y-59333109D01*
X120724157Y-59058748D01*
X120575178Y-58808645D01*
X120380269Y-58592412D01*
X120146920Y-58418359D01*
X119884099Y-58293175D01*
X119736890Y-58248524D01*
X119507000Y-58369845D01*
X119253000Y-58369845D01*
X119023110Y-58248524D01*
X118875901Y-58293175D01*
X118613080Y-58418359D01*
X118379731Y-58592412D01*
X118184822Y-58808645D01*
X118115195Y-58925534D01*
X117993475Y-58743368D01*
X117786632Y-58536525D01*
X117543411Y-58374010D01*
X117273158Y-58262068D01*
X116986260Y-58205000D01*
X116693740Y-58205000D01*
X116406842Y-58262068D01*
X116136589Y-58374010D01*
X115893368Y-58536525D01*
X115686525Y-58743368D01*
X115570000Y-58917760D01*
X115453475Y-58743368D01*
X115246632Y-58536525D01*
X115003411Y-58374010D01*
X114733158Y-58262068D01*
X114446260Y-58205000D01*
X114153740Y-58205000D01*
X113866842Y-58262068D01*
X113596589Y-58374010D01*
X113353368Y-58536525D01*
X113221513Y-58668380D01*
X113199502Y-58595820D01*
X113140537Y-58485506D01*
X113061185Y-58388815D01*
X112964494Y-58309463D01*
X112854180Y-58250498D01*
X112734482Y-58214188D01*
X112610000Y-58201928D01*
X110910000Y-58201928D01*
X110785518Y-58214188D01*
X110665820Y-58250498D01*
X110555506Y-58309463D01*
X110458815Y-58388815D01*
X110379463Y-58485506D01*
X110320498Y-58595820D01*
X110284188Y-58715518D01*
X110271928Y-58840000D01*
X110271928Y-60540000D01*
X110284188Y-60664482D01*
X110320498Y-60784180D01*
X110379463Y-60894494D01*
X110458815Y-60991185D01*
X110555506Y-61070537D01*
X110665820Y-61129502D01*
X110785518Y-61165812D01*
X110875001Y-61174625D01*
X110875001Y-61994059D01*
X110854591Y-61989999D01*
X110579407Y-61989999D01*
X110309509Y-62043685D01*
X110055272Y-62148994D01*
X109826464Y-62301879D01*
X109631879Y-62496464D01*
X109478994Y-62725272D01*
X109446999Y-62802514D01*
X109415004Y-62725272D01*
X109262119Y-62496464D01*
X109067534Y-62301879D01*
X108838726Y-62148994D01*
X108584489Y-62043685D01*
X108314591Y-61989999D01*
X108039407Y-61989999D01*
X107769509Y-62043685D01*
X107515272Y-62148994D01*
X107286464Y-62301879D01*
X107091879Y-62496464D01*
X106938994Y-62725272D01*
X106833685Y-62979509D01*
X106779999Y-63249407D01*
X106779999Y-63524591D01*
X106833685Y-63794489D01*
X106938994Y-64048726D01*
X107091879Y-64277534D01*
X107286464Y-64472119D01*
X107515272Y-64625004D01*
X107592514Y-64656999D01*
X107515272Y-64688994D01*
X107286464Y-64841879D01*
X107091879Y-65036464D01*
X106938994Y-65265272D01*
X106833685Y-65519509D01*
X106779999Y-65789407D01*
X106779999Y-66064591D01*
X106833685Y-66334489D01*
X106938994Y-66588726D01*
X107091879Y-66817534D01*
X107286464Y-67012119D01*
X107515272Y-67165004D01*
X107592514Y-67196999D01*
X107515272Y-67228994D01*
X107286464Y-67381879D01*
X107091879Y-67576464D01*
X106938994Y-67805272D01*
X106833685Y-68059509D01*
X106779999Y-68329407D01*
X106779999Y-68604591D01*
X106833685Y-68874489D01*
X106938994Y-69128726D01*
X107091879Y-69357534D01*
X107286464Y-69552119D01*
X107515272Y-69705004D01*
X107592514Y-69736999D01*
X107515272Y-69768994D01*
X107286464Y-69921879D01*
X107091879Y-70116464D01*
X106938994Y-70345272D01*
X106833685Y-70599509D01*
X106779999Y-70869407D01*
X106779999Y-71144591D01*
X106833685Y-71414489D01*
X106938994Y-71668726D01*
X107091879Y-71897534D01*
X107286464Y-72092119D01*
X107515272Y-72245004D01*
X107592514Y-72276999D01*
X107515272Y-72308994D01*
X107286464Y-72461879D01*
X107091879Y-72656464D01*
X106938994Y-72885272D01*
X106833685Y-73139509D01*
X106779999Y-73409407D01*
X106779999Y-73684591D01*
X106833685Y-73954489D01*
X106938994Y-74208726D01*
X107091879Y-74437534D01*
X107286464Y-74632119D01*
X107515272Y-74785004D01*
X107592514Y-74816999D01*
X107515272Y-74848994D01*
X107286464Y-75001879D01*
X107091879Y-75196464D01*
X106938994Y-75425272D01*
X106833685Y-75679509D01*
X106779999Y-75949407D01*
X106779999Y-76224591D01*
X106833685Y-76494489D01*
X106938994Y-76748726D01*
X107091879Y-76977534D01*
X107286464Y-77172119D01*
X107515272Y-77325004D01*
X107592514Y-77356999D01*
X107515272Y-77388994D01*
X107286464Y-77541879D01*
X107091879Y-77736464D01*
X106938994Y-77965272D01*
X106833685Y-78219509D01*
X106779999Y-78489407D01*
X106779999Y-78764591D01*
X106833685Y-79034489D01*
X106938994Y-79288726D01*
X107091879Y-79517534D01*
X107286464Y-79712119D01*
X107515272Y-79865004D01*
X107592514Y-79896999D01*
X107515272Y-79928994D01*
X107286464Y-80081879D01*
X107091879Y-80276464D01*
X106938994Y-80505272D01*
X106833685Y-80759509D01*
X106779999Y-81029407D01*
X106779999Y-81304591D01*
X106833685Y-81574489D01*
X106938994Y-81828726D01*
X107091879Y-82057534D01*
X107286464Y-82252119D01*
X107515272Y-82405004D01*
X107592514Y-82436999D01*
X107515272Y-82468994D01*
X107286464Y-82621879D01*
X107091879Y-82816464D01*
X106938994Y-83045272D01*
X106833685Y-83299509D01*
X106779999Y-83569407D01*
X106779999Y-83844591D01*
X106833685Y-84114489D01*
X106938994Y-84368726D01*
X107091879Y-84597534D01*
X107286464Y-84792119D01*
X107515272Y-84945004D01*
X107592514Y-84976999D01*
X107515272Y-85008994D01*
X107286464Y-85161879D01*
X107091879Y-85356464D01*
X106938994Y-85585272D01*
X106833685Y-85839509D01*
X106779999Y-86109407D01*
X106779999Y-86384591D01*
X106833685Y-86654489D01*
X106938994Y-86908726D01*
X107091879Y-87137534D01*
X107286464Y-87332119D01*
X107515272Y-87485004D01*
X107592514Y-87516999D01*
X107515272Y-87548994D01*
X107286464Y-87701879D01*
X107091879Y-87896464D01*
X106938994Y-88125272D01*
X106833685Y-88379509D01*
X106779999Y-88649407D01*
X106779999Y-88924591D01*
X106833685Y-89194489D01*
X106938994Y-89448726D01*
X107091879Y-89677534D01*
X107286464Y-89872119D01*
X107515272Y-90025004D01*
X107586942Y-90054691D01*
X107573976Y-90059363D01*
X107458019Y-90121343D01*
X107391039Y-90361434D01*
X108176999Y-91147394D01*
X108962959Y-90361434D01*
X108895979Y-90121343D01*
X108760239Y-90057514D01*
X108838726Y-90025004D01*
X109067534Y-89872119D01*
X109262119Y-89677534D01*
X109415004Y-89448726D01*
X109520313Y-89194489D01*
X109573999Y-88924591D01*
X109573999Y-88649407D01*
X109520313Y-88379509D01*
X109415004Y-88125272D01*
X109262119Y-87896464D01*
X109067534Y-87701879D01*
X108838726Y-87548994D01*
X108761484Y-87516999D01*
X108838726Y-87485004D01*
X109067534Y-87332119D01*
X109262119Y-87137534D01*
X109415004Y-86908726D01*
X109520313Y-86654489D01*
X109573999Y-86384591D01*
X109573999Y-86109407D01*
X109520313Y-85839509D01*
X109415004Y-85585272D01*
X109262119Y-85356464D01*
X109067534Y-85161879D01*
X108838726Y-85008994D01*
X108761484Y-84976999D01*
X108838726Y-84945004D01*
X109067534Y-84792119D01*
X109262119Y-84597534D01*
X109265817Y-84591999D01*
X111829532Y-84591999D01*
X111873001Y-84596280D01*
X111916470Y-84591999D01*
X111916478Y-84591999D01*
X112046491Y-84579194D01*
X112213314Y-84528588D01*
X112367060Y-84446410D01*
X112501818Y-84335816D01*
X112529535Y-84302043D01*
X118647579Y-78184000D01*
X122088393Y-78184000D01*
X122073685Y-78219509D01*
X122019999Y-78489407D01*
X122019999Y-78764591D01*
X122073685Y-79034489D01*
X122178994Y-79288726D01*
X122331879Y-79517534D01*
X122526464Y-79712119D01*
X122755272Y-79865004D01*
X122832514Y-79896999D01*
X122755272Y-79928994D01*
X122526464Y-80081879D01*
X122331879Y-80276464D01*
X122178994Y-80505272D01*
X122073685Y-80759509D01*
X122019999Y-81029407D01*
X122019999Y-81304591D01*
X122073685Y-81574489D01*
X122178994Y-81828726D01*
X122331879Y-82057534D01*
X122526464Y-82252119D01*
X122755272Y-82405004D01*
X122832514Y-82436999D01*
X122755272Y-82468994D01*
X122526464Y-82621879D01*
X122331879Y-82816464D01*
X122178994Y-83045272D01*
X122073685Y-83299509D01*
X122019999Y-83569407D01*
X122019999Y-83844591D01*
X122073685Y-84114489D01*
X122178994Y-84368726D01*
X122331879Y-84597534D01*
X122526464Y-84792119D01*
X122755272Y-84945004D01*
X122832514Y-84976999D01*
X122755272Y-85008994D01*
X122526464Y-85161879D01*
X122331879Y-85356464D01*
X122178994Y-85585272D01*
X122073685Y-85839509D01*
X122019999Y-86109407D01*
X122019999Y-86384591D01*
X122073685Y-86654489D01*
X122178994Y-86908726D01*
X122331879Y-87137534D01*
X122526464Y-87332119D01*
X122755272Y-87485004D01*
X122832514Y-87516999D01*
X122755272Y-87548994D01*
X122526464Y-87701879D01*
X122331879Y-87896464D01*
X122178994Y-88125272D01*
X122073685Y-88379509D01*
X122019999Y-88649407D01*
X122019999Y-88924591D01*
X122073685Y-89194489D01*
X122178994Y-89448726D01*
X122331879Y-89677534D01*
X122526464Y-89872119D01*
X122755272Y-90025004D01*
X122832514Y-90056999D01*
X122755272Y-90088994D01*
X122526464Y-90241879D01*
X122331879Y-90436464D01*
X122178994Y-90665272D01*
X122073685Y-90919509D01*
X122019999Y-91189407D01*
X122019999Y-91464591D01*
X122073685Y-91734489D01*
X122178994Y-91988726D01*
X122331879Y-92217534D01*
X122526464Y-92412119D01*
X122755272Y-92565004D01*
X122832514Y-92596999D01*
X122755272Y-92628994D01*
X122526464Y-92781879D01*
X122331879Y-92976464D01*
X122178994Y-93205272D01*
X122073685Y-93459509D01*
X122019999Y-93729407D01*
X122019999Y-94004591D01*
X122073685Y-94274489D01*
X122178994Y-94528726D01*
X122331879Y-94757534D01*
X122526464Y-94952119D01*
X122755272Y-95105004D01*
X122832514Y-95136999D01*
X122755272Y-95168994D01*
X122526464Y-95321879D01*
X122331879Y-95516464D01*
X122328181Y-95521999D01*
X115823578Y-95521999D01*
X113573533Y-93271955D01*
X113545816Y-93238182D01*
X113411058Y-93127588D01*
X113257312Y-93045410D01*
X113090489Y-92994804D01*
X112960476Y-92981999D01*
X112960468Y-92981999D01*
X112916999Y-92977718D01*
X112873530Y-92981999D01*
X109265817Y-92981999D01*
X109262119Y-92976464D01*
X109067534Y-92781879D01*
X108838726Y-92628994D01*
X108767056Y-92599307D01*
X108780022Y-92594635D01*
X108895979Y-92532655D01*
X108962959Y-92292564D01*
X108176999Y-91506604D01*
X107391039Y-92292564D01*
X107458019Y-92532655D01*
X107593759Y-92596484D01*
X107515272Y-92628994D01*
X107286464Y-92781879D01*
X107091879Y-92976464D01*
X107088181Y-92981999D01*
X106836466Y-92981999D01*
X106793000Y-92977718D01*
X106749534Y-92981999D01*
X106749524Y-92981999D01*
X106619511Y-92994804D01*
X106452688Y-93045410D01*
X106298942Y-93127588D01*
X106298940Y-93127589D01*
X106298941Y-93127589D01*
X106197954Y-93210467D01*
X106197952Y-93210469D01*
X106164184Y-93238182D01*
X106136471Y-93271950D01*
X105449956Y-93958466D01*
X105416183Y-93986183D01*
X105305589Y-94120942D01*
X105223411Y-94274688D01*
X105172805Y-94441511D01*
X105160000Y-94571524D01*
X105160000Y-94571531D01*
X105155719Y-94615000D01*
X104800000Y-94615000D01*
X104800000Y-91399016D01*
X106775089Y-91399016D01*
X106816077Y-91671132D01*
X106909363Y-91930022D01*
X106971343Y-92045979D01*
X107211434Y-92112959D01*
X107997394Y-91326999D01*
X108356604Y-91326999D01*
X109142564Y-92112959D01*
X109382655Y-92045979D01*
X109499755Y-91796951D01*
X109566022Y-91529864D01*
X109578909Y-91254982D01*
X109537921Y-90982866D01*
X109444635Y-90723976D01*
X109382655Y-90608019D01*
X109142564Y-90541039D01*
X108356604Y-91326999D01*
X107997394Y-91326999D01*
X107211434Y-90541039D01*
X106971343Y-90608019D01*
X106854243Y-90857047D01*
X106787976Y-91124134D01*
X106775089Y-91399016D01*
X104800000Y-91399016D01*
X104800000Y-58452279D01*
X104838909Y-58055455D01*
X104944780Y-57704792D01*
X105116744Y-57381375D01*
X105348254Y-57097516D01*
X105630486Y-56864035D01*
X105952695Y-56689817D01*
X106302614Y-56581498D01*
X106697443Y-56540000D01*
X142207721Y-56540000D01*
X142604545Y-56578909D01*
G37*
X142604545Y-56578909D02*
X142955208Y-56684780D01*
X143278625Y-56856744D01*
X143562484Y-57088254D01*
X143795965Y-57370486D01*
X143970183Y-57692695D01*
X144078502Y-58042614D01*
X144120000Y-58437443D01*
X144120001Y-59657581D01*
X144120000Y-112997721D01*
X144081091Y-113394545D01*
X143975220Y-113745206D01*
X143803257Y-114068623D01*
X143571748Y-114352482D01*
X143289514Y-114585965D01*
X142967304Y-114760184D01*
X142617385Y-114868502D01*
X142222557Y-114910000D01*
X106712279Y-114910000D01*
X106315455Y-114871091D01*
X105964794Y-114765220D01*
X105641377Y-114593257D01*
X105357518Y-114361748D01*
X105124035Y-114079514D01*
X104949816Y-113757304D01*
X104841498Y-113407385D01*
X104800000Y-113012557D01*
X104800000Y-94615000D01*
X105155719Y-94615000D01*
X105160000Y-94658469D01*
X105160001Y-106531521D01*
X105155719Y-106575000D01*
X105172805Y-106748490D01*
X105223412Y-106915313D01*
X105305590Y-107069059D01*
X105388468Y-107170046D01*
X105388471Y-107170049D01*
X105416184Y-107203817D01*
X105449951Y-107231529D01*
X106763470Y-108545049D01*
X106791183Y-108578817D01*
X106824951Y-108606530D01*
X106824953Y-108606532D01*
X106925941Y-108689411D01*
X107079686Y-108771589D01*
X107246510Y-108822195D01*
X107281928Y-108825683D01*
X107281928Y-109250000D01*
X107294188Y-109374482D01*
X107330498Y-109494180D01*
X107389463Y-109604494D01*
X107468815Y-109701185D01*
X107565506Y-109780537D01*
X107675820Y-109839502D01*
X107795518Y-109875812D01*
X107920000Y-109888072D01*
X110520000Y-109888072D01*
X110644482Y-109875812D01*
X110764180Y-109839502D01*
X110874494Y-109780537D01*
X110971185Y-109701185D01*
X111050537Y-109604494D01*
X111109502Y-109494180D01*
X111145812Y-109374482D01*
X111158072Y-109250000D01*
X111158072Y-106650000D01*
X111145812Y-106525518D01*
X111109502Y-106405820D01*
X111050537Y-106295506D01*
X110971185Y-106198815D01*
X110874494Y-106119463D01*
X110764180Y-106060498D01*
X110644482Y-106024188D01*
X110520000Y-106011928D01*
X107920000Y-106011928D01*
X107795518Y-106024188D01*
X107675820Y-106060498D01*
X107565506Y-106119463D01*
X107468815Y-106198815D01*
X107389463Y-106295506D01*
X107330498Y-106405820D01*
X107294188Y-106525518D01*
X107289966Y-106568387D01*
X106930000Y-106208422D01*
X106930000Y-97047013D01*
X106938994Y-97068726D01*
X107091879Y-97297534D01*
X107286464Y-97492119D01*
X107515272Y-97645004D01*
X107769509Y-97750313D01*
X108039407Y-97803999D01*
X108314591Y-97803999D01*
X108321122Y-97802700D01*
X110173470Y-99655049D01*
X110201183Y-99688817D01*
X110234951Y-99716530D01*
X110234953Y-99716532D01*
X110306452Y-99775210D01*
X110335941Y-99799411D01*
X110489687Y-99881589D01*
X110605903Y-99916843D01*
X110656509Y-99932195D01*
X110671306Y-99933652D01*
X110786523Y-99945000D01*
X110786531Y-99945000D01*
X110830000Y-99949281D01*
X110873469Y-99945000D01*
X121035000Y-99945000D01*
X121035001Y-104096521D01*
X121030719Y-104140000D01*
X121047805Y-104313490D01*
X121098412Y-104480313D01*
X121180590Y-104634059D01*
X121263468Y-104735046D01*
X121263471Y-104735049D01*
X121291184Y-104768817D01*
X121324951Y-104796529D01*
X122084092Y-105555670D01*
X121975752Y-105545000D01*
X121975751Y-105545000D01*
X121920000Y-105539509D01*
X121864249Y-105545000D01*
X120345107Y-105545000D01*
X120326632Y-105526525D01*
X120083411Y-105364010D01*
X119813158Y-105252068D01*
X119526260Y-105195000D01*
X119233740Y-105195000D01*
X118946842Y-105252068D01*
X118676589Y-105364010D01*
X118433368Y-105526525D01*
X118226525Y-105733368D01*
X118064010Y-105976589D01*
X117952068Y-106246842D01*
X117895000Y-106533740D01*
X117895000Y-106826260D01*
X117952068Y-107113158D01*
X118064010Y-107383411D01*
X118226525Y-107626632D01*
X118358380Y-107758487D01*
X118285820Y-107780498D01*
X118175506Y-107839463D01*
X118078815Y-107918815D01*
X117999463Y-108015506D01*
X117962317Y-108085000D01*
X117945132Y-108085000D01*
X117046996Y-107186865D01*
X117011449Y-107143551D01*
X116838623Y-107001716D01*
X116641447Y-106896324D01*
X116427499Y-106831423D01*
X116260752Y-106815000D01*
X116260751Y-106815000D01*
X116205000Y-106809509D01*
X116149249Y-106815000D01*
X115868822Y-106815000D01*
X115803013Y-106716509D01*
X115533491Y-106446987D01*
X115216566Y-106235225D01*
X114864419Y-106089361D01*
X114490581Y-106015000D01*
X114109419Y-106015000D01*
X113735581Y-106089361D01*
X113383434Y-106235225D01*
X113066509Y-106446987D01*
X112796987Y-106716509D01*
X112585225Y-107033434D01*
X112439361Y-107385581D01*
X112365000Y-107759419D01*
X112365000Y-108140581D01*
X112439361Y-108514419D01*
X112585225Y-108866566D01*
X112796987Y-109183491D01*
X113066509Y-109453013D01*
X113383434Y-109664775D01*
X113735581Y-109810639D01*
X114109419Y-109885000D01*
X114490581Y-109885000D01*
X114864419Y-109810639D01*
X115216566Y-109664775D01*
X115533491Y-109453013D01*
X115803013Y-109183491D01*
X115815168Y-109165299D01*
X116633008Y-109983140D01*
X116668551Y-110026449D01*
X116841377Y-110168284D01*
X117038553Y-110273676D01*
X117172076Y-110314180D01*
X117252500Y-110338577D01*
X117273493Y-110340644D01*
X117419248Y-110355000D01*
X117419255Y-110355000D01*
X117474999Y-110360490D01*
X117530743Y-110355000D01*
X117962317Y-110355000D01*
X117999463Y-110424494D01*
X118078815Y-110521185D01*
X118175506Y-110600537D01*
X118285820Y-110659502D01*
X118405518Y-110695812D01*
X118530000Y-110708072D01*
X120230000Y-110708072D01*
X120354482Y-110695812D01*
X120474180Y-110659502D01*
X120584494Y-110600537D01*
X120681185Y-110521185D01*
X120760537Y-110424494D01*
X120819502Y-110314180D01*
X120855812Y-110194482D01*
X120868072Y-110070000D01*
X120868072Y-108370000D01*
X120855812Y-108245518D01*
X120819502Y-108125820D01*
X120760537Y-108015506D01*
X120681185Y-107918815D01*
X120584494Y-107839463D01*
X120538728Y-107815000D01*
X121449869Y-107815000D01*
X124888013Y-111253146D01*
X124923551Y-111296449D01*
X124966854Y-111331987D01*
X124966856Y-111331989D01*
X125096377Y-111438284D01*
X125293553Y-111543676D01*
X125507501Y-111608577D01*
X125730000Y-111630491D01*
X125785752Y-111625000D01*
X128214249Y-111625000D01*
X128270000Y-111630491D01*
X128325751Y-111625000D01*
X128325752Y-111625000D01*
X128492499Y-111608577D01*
X128706447Y-111543676D01*
X128903623Y-111438284D01*
X129076449Y-111296449D01*
X129111996Y-111253135D01*
X130938141Y-109426991D01*
X130981449Y-109391449D01*
X131123284Y-109218623D01*
X131228676Y-109021447D01*
X131293577Y-108807499D01*
X131310000Y-108640752D01*
X131310000Y-108640751D01*
X131315491Y-108585000D01*
X131310000Y-108529248D01*
X131310000Y-103560751D01*
X131315491Y-103505000D01*
X131293577Y-103282501D01*
X131228676Y-103068553D01*
X131123284Y-102871377D01*
X130981449Y-102698551D01*
X130938140Y-102663008D01*
X130764131Y-102489000D01*
X135383141Y-97869991D01*
X135426449Y-97834449D01*
X135568284Y-97661623D01*
X135673676Y-97464447D01*
X135738577Y-97250499D01*
X135755000Y-97083752D01*
X135755000Y-97083743D01*
X135760490Y-97028001D01*
X135755000Y-96972259D01*
X135755000Y-90035000D01*
X139644249Y-90035000D01*
X139700000Y-90040491D01*
X139755751Y-90035000D01*
X139755752Y-90035000D01*
X139922499Y-90018577D01*
X140136447Y-89953676D01*
X140333623Y-89848284D01*
X140506449Y-89706449D01*
X140541996Y-89663135D01*
X141733140Y-88471992D01*
X141776449Y-88436449D01*
X141918284Y-88263623D01*
X142023676Y-88066447D01*
X142088577Y-87852499D01*
X142105000Y-87685752D01*
X142105000Y-87685745D01*
X142110490Y-87630001D01*
X142105000Y-87574257D01*
X142105000Y-87325107D01*
X142123475Y-87306632D01*
X142285990Y-87063411D01*
X142397932Y-86793158D01*
X142455000Y-86506260D01*
X142455000Y-86213740D01*
X142397932Y-85926842D01*
X142285990Y-85656589D01*
X142123475Y-85413368D01*
X142105000Y-85394893D01*
X142105000Y-84785107D01*
X142123475Y-84766632D01*
X142285990Y-84523411D01*
X142397932Y-84253158D01*
X142455000Y-83966260D01*
X142455000Y-83673740D01*
X142397932Y-83386842D01*
X142285990Y-83116589D01*
X142123475Y-82873368D01*
X142105000Y-82854893D01*
X142105000Y-82245107D01*
X142123475Y-82226632D01*
X142285990Y-81983411D01*
X142397932Y-81713158D01*
X142455000Y-81426260D01*
X142455000Y-81133740D01*
X142397932Y-80846842D01*
X142285990Y-80576589D01*
X142123475Y-80333368D01*
X142105000Y-80314893D01*
X142105000Y-79705107D01*
X142123475Y-79686632D01*
X142285990Y-79443411D01*
X142397932Y-79173158D01*
X142455000Y-78886260D01*
X142455000Y-78593740D01*
X142397932Y-78306842D01*
X142285990Y-78036589D01*
X142123475Y-77793368D01*
X142105000Y-77774893D01*
X142105000Y-77165107D01*
X142123475Y-77146632D01*
X142285990Y-76903411D01*
X142397932Y-76633158D01*
X142455000Y-76346260D01*
X142455000Y-76053740D01*
X142397932Y-75766842D01*
X142285990Y-75496589D01*
X142123475Y-75253368D01*
X142105000Y-75234893D01*
X142105000Y-74625107D01*
X142123475Y-74606632D01*
X142285990Y-74363411D01*
X142397932Y-74093158D01*
X142455000Y-73806260D01*
X142455000Y-73513740D01*
X142397932Y-73226842D01*
X142285990Y-72956589D01*
X142123475Y-72713368D01*
X142105000Y-72694893D01*
X142105000Y-72085107D01*
X142123475Y-72066632D01*
X142285990Y-71823411D01*
X142397932Y-71553158D01*
X142455000Y-71266260D01*
X142455000Y-70973740D01*
X142397932Y-70686842D01*
X142285990Y-70416589D01*
X142123475Y-70173368D01*
X142105000Y-70154893D01*
X142105000Y-69545107D01*
X142123475Y-69526632D01*
X142285990Y-69283411D01*
X142397932Y-69013158D01*
X142455000Y-68726260D01*
X142455000Y-68433740D01*
X142397932Y-68146842D01*
X142285990Y-67876589D01*
X142123475Y-67633368D01*
X141916632Y-67426525D01*
X141673411Y-67264010D01*
X141403158Y-67152068D01*
X141116260Y-67095000D01*
X140823740Y-67095000D01*
X140536842Y-67152068D01*
X140266589Y-67264010D01*
X140023368Y-67426525D01*
X139891513Y-67558380D01*
X139869502Y-67485820D01*
X139810537Y-67375506D01*
X139731185Y-67278815D01*
X139634494Y-67199463D01*
X139524180Y-67140498D01*
X139404482Y-67104188D01*
X139280000Y-67091928D01*
X137580000Y-67091928D01*
X137455518Y-67104188D01*
X137335820Y-67140498D01*
X137225506Y-67199463D01*
X137128815Y-67278815D01*
X137049463Y-67375506D01*
X136990498Y-67485820D01*
X136954188Y-67605518D01*
X136945375Y-67695000D01*
X135754521Y-67695000D01*
X135734637Y-67665241D01*
X135534759Y-67465363D01*
X135299727Y-67308320D01*
X135038574Y-67200147D01*
X134761335Y-67145000D01*
X134478665Y-67145000D01*
X134201426Y-67200147D01*
X133940273Y-67308320D01*
X133705241Y-67465363D01*
X133505363Y-67665241D01*
X133348320Y-67900273D01*
X133240147Y-68161426D01*
X133185000Y-68438665D01*
X133185000Y-68721335D01*
X133240147Y-68998574D01*
X133348320Y-69259727D01*
X133505363Y-69494759D01*
X133705241Y-69694637D01*
X133937759Y-69850000D01*
X133705241Y-70005363D01*
X133505363Y-70205241D01*
X133348320Y-70440273D01*
X133240147Y-70701426D01*
X133185000Y-70978665D01*
X133185000Y-71261335D01*
X133240147Y-71538574D01*
X133348320Y-71799727D01*
X133505363Y-72034759D01*
X133705241Y-72234637D01*
X133937759Y-72390000D01*
X133705241Y-72545363D01*
X133505363Y-72745241D01*
X133348320Y-72980273D01*
X133240147Y-73241426D01*
X133185000Y-73518665D01*
X133185000Y-73801335D01*
X133240147Y-74078574D01*
X133348320Y-74339727D01*
X133505363Y-74574759D01*
X133705241Y-74774637D01*
X133937759Y-74930000D01*
X133705241Y-75085363D01*
X133505363Y-75285241D01*
X133348320Y-75520273D01*
X133240147Y-75781426D01*
X133185000Y-76058665D01*
X133185000Y-76341335D01*
X133240147Y-76618574D01*
X133348320Y-76879727D01*
X133505363Y-77114759D01*
X133705241Y-77314637D01*
X133937759Y-77470000D01*
X133705241Y-77625363D01*
X133505363Y-77825241D01*
X133348320Y-78060273D01*
X133240147Y-78321426D01*
X133185000Y-78598665D01*
X133185000Y-78881335D01*
X133240147Y-79158574D01*
X133348320Y-79419727D01*
X133505363Y-79654759D01*
X133705241Y-79854637D01*
X133937759Y-80010000D01*
X133705241Y-80165363D01*
X133505363Y-80365241D01*
X133348320Y-80600273D01*
X133240147Y-80861426D01*
X133185000Y-81138665D01*
X133185000Y-81421335D01*
X133240147Y-81698574D01*
X133348320Y-81959727D01*
X133505363Y-82194759D01*
X133705241Y-82394637D01*
X133937759Y-82550000D01*
X133705241Y-82705363D01*
X133505363Y-82905241D01*
X133348320Y-83140273D01*
X133240147Y-83401426D01*
X133185000Y-83678665D01*
X133185000Y-83961335D01*
X133240147Y-84238574D01*
X133348320Y-84499727D01*
X133505363Y-84734759D01*
X133705241Y-84934637D01*
X133937759Y-85090000D01*
X133705241Y-85245363D01*
X133505363Y-85445241D01*
X133348320Y-85680273D01*
X133240147Y-85941426D01*
X133185000Y-86218665D01*
X133185000Y-86501335D01*
X133240147Y-86778574D01*
X133348320Y-87039727D01*
X133505363Y-87274759D01*
X133705241Y-87474637D01*
X133937759Y-87630000D01*
X133705241Y-87785363D01*
X133505363Y-87985241D01*
X133348320Y-88220273D01*
X133240147Y-88481426D01*
X133185000Y-88758665D01*
X133185000Y-89041335D01*
X133240147Y-89318574D01*
X133348320Y-89579727D01*
X133485001Y-89784285D01*
X133485000Y-96557868D01*
X128688869Y-101354000D01*
X128069884Y-101354000D01*
X127915727Y-101250995D01*
X127838485Y-101219000D01*
X127915727Y-101187005D01*
X128144535Y-101034120D01*
X128339120Y-100839535D01*
X128492005Y-100610727D01*
X128597314Y-100356490D01*
X128651000Y-100086592D01*
X128651000Y-99811408D01*
X128597314Y-99541510D01*
X128492005Y-99287273D01*
X128339120Y-99058465D01*
X128144535Y-98863880D01*
X127915727Y-98710995D01*
X127838485Y-98679000D01*
X127915727Y-98647005D01*
X128144535Y-98494120D01*
X128339120Y-98299535D01*
X128492005Y-98070727D01*
X128597314Y-97816490D01*
X128651000Y-97546592D01*
X128651000Y-97271408D01*
X128597314Y-97001510D01*
X128492005Y-96747273D01*
X128339120Y-96518465D01*
X128144535Y-96323880D01*
X127915727Y-96170995D01*
X127661490Y-96065686D01*
X127391592Y-96012000D01*
X127116408Y-96012000D01*
X126846510Y-96065686D01*
X126592273Y-96170995D01*
X126363465Y-96323880D01*
X126168880Y-96518465D01*
X126015995Y-96747273D01*
X125910686Y-97001510D01*
X125857000Y-97271408D01*
X125857000Y-97546592D01*
X125910686Y-97816490D01*
X126015995Y-98070727D01*
X126168880Y-98299535D01*
X126363465Y-98494120D01*
X126592273Y-98647005D01*
X126669515Y-98679000D01*
X126592273Y-98710995D01*
X126363465Y-98863880D01*
X126168880Y-99058465D01*
X126015995Y-99287273D01*
X125910686Y-99541510D01*
X125857000Y-99811408D01*
X125857000Y-100086592D01*
X125910686Y-100356490D01*
X126015995Y-100610727D01*
X126168880Y-100839535D01*
X126363465Y-101034120D01*
X126592273Y-101187005D01*
X126669515Y-101219000D01*
X126592273Y-101250995D01*
X126363465Y-101403880D01*
X126168880Y-101598465D01*
X126015995Y-101827273D01*
X125910686Y-102081510D01*
X125857000Y-102351408D01*
X125857000Y-102626592D01*
X125910686Y-102896490D01*
X126015995Y-103150727D01*
X126168880Y-103379535D01*
X126363465Y-103574120D01*
X126592273Y-103727005D01*
X126669515Y-103759000D01*
X126592273Y-103790995D01*
X126363465Y-103943880D01*
X126168880Y-104138465D01*
X126015995Y-104367273D01*
X125910686Y-104621510D01*
X125857000Y-104891408D01*
X125857000Y-105166592D01*
X125910686Y-105436490D01*
X126015995Y-105690727D01*
X126168880Y-105919535D01*
X126363465Y-106114120D01*
X126592273Y-106267005D01*
X126669515Y-106299000D01*
X126592273Y-106330995D01*
X126363465Y-106483880D01*
X126168880Y-106678465D01*
X126165182Y-106684000D01*
X125715579Y-106684000D01*
X122805000Y-103773422D01*
X122805000Y-99103477D01*
X122809282Y-99060000D01*
X122792195Y-98886510D01*
X122741589Y-98719687D01*
X122659411Y-98565941D01*
X122548817Y-98431183D01*
X122414059Y-98320589D01*
X122260313Y-98238411D01*
X122093490Y-98187805D01*
X121963477Y-98175000D01*
X121963476Y-98175000D01*
X121920000Y-98170718D01*
X121876523Y-98175000D01*
X111196579Y-98175000D01*
X109572700Y-96551122D01*
X109573999Y-96544591D01*
X109573999Y-96269407D01*
X109520313Y-95999509D01*
X109415004Y-95745272D01*
X109262119Y-95516464D01*
X109067534Y-95321879D01*
X108838726Y-95168994D01*
X108761484Y-95136999D01*
X108838726Y-95105004D01*
X109067534Y-94952119D01*
X109262119Y-94757534D01*
X109265817Y-94751999D01*
X112550421Y-94751999D01*
X114800469Y-97002048D01*
X114828182Y-97035816D01*
X114861950Y-97063529D01*
X114861952Y-97063531D01*
X114933451Y-97122209D01*
X114962940Y-97146410D01*
X115116686Y-97228588D01*
X115283509Y-97279194D01*
X115413522Y-97291999D01*
X115413532Y-97291999D01*
X115456998Y-97296280D01*
X115500464Y-97291999D01*
X122328181Y-97291999D01*
X122331879Y-97297534D01*
X122526464Y-97492119D01*
X122755272Y-97645004D01*
X123009509Y-97750313D01*
X123279407Y-97803999D01*
X123554591Y-97803999D01*
X123824489Y-97750313D01*
X124078726Y-97645004D01*
X124307534Y-97492119D01*
X124502119Y-97297534D01*
X124655004Y-97068726D01*
X124760313Y-96814489D01*
X124813999Y-96544591D01*
X124813999Y-96269407D01*
X124760313Y-95999509D01*
X124655004Y-95745272D01*
X124502119Y-95516464D01*
X124307534Y-95321879D01*
X124078726Y-95168994D01*
X124001484Y-95136999D01*
X124078726Y-95105004D01*
X124307534Y-94952119D01*
X124502119Y-94757534D01*
X124655004Y-94528726D01*
X124760313Y-94274489D01*
X124813999Y-94004591D01*
X124813999Y-93729407D01*
X124760313Y-93459509D01*
X124655004Y-93205272D01*
X124502119Y-92976464D01*
X124307534Y-92781879D01*
X124078726Y-92628994D01*
X124001484Y-92596999D01*
X124078726Y-92565004D01*
X124307534Y-92412119D01*
X124502119Y-92217534D01*
X124655004Y-91988726D01*
X124760313Y-91734489D01*
X124813999Y-91464591D01*
X124813999Y-91189407D01*
X124760313Y-90919509D01*
X124655004Y-90665272D01*
X124502119Y-90436464D01*
X124307534Y-90241879D01*
X124078726Y-90088994D01*
X124001484Y-90056999D01*
X124078726Y-90025004D01*
X124307534Y-89872119D01*
X124502119Y-89677534D01*
X124655004Y-89448726D01*
X124760313Y-89194489D01*
X124813999Y-88924591D01*
X124813999Y-88649407D01*
X124760313Y-88379509D01*
X124655004Y-88125272D01*
X124502119Y-87896464D01*
X124307534Y-87701879D01*
X124078726Y-87548994D01*
X124001484Y-87516999D01*
X124078726Y-87485004D01*
X124307534Y-87332119D01*
X124502119Y-87137534D01*
X124505817Y-87131999D01*
X125789974Y-87131999D01*
X125885363Y-87274759D01*
X126085241Y-87474637D01*
X126317759Y-87630000D01*
X126085241Y-87785363D01*
X125885363Y-87985241D01*
X125728320Y-88220273D01*
X125620147Y-88481426D01*
X125565000Y-88758665D01*
X125565000Y-89041335D01*
X125620147Y-89318574D01*
X125728320Y-89579727D01*
X125885363Y-89814759D01*
X126085241Y-90014637D01*
X126320273Y-90171680D01*
X126581426Y-90279853D01*
X126858665Y-90335000D01*
X127141335Y-90335000D01*
X127418574Y-90279853D01*
X127679727Y-90171680D01*
X127914759Y-90014637D01*
X128114637Y-89814759D01*
X128271680Y-89579727D01*
X128379853Y-89318574D01*
X128435000Y-89041335D01*
X128435000Y-88758665D01*
X128379853Y-88481426D01*
X128271680Y-88220273D01*
X128114637Y-87985241D01*
X127914759Y-87785363D01*
X127682241Y-87630000D01*
X127914759Y-87474637D01*
X128114637Y-87274759D01*
X128271680Y-87039727D01*
X128379853Y-86778574D01*
X128435000Y-86501335D01*
X128435000Y-86218665D01*
X128379853Y-85941426D01*
X128271680Y-85680273D01*
X128114637Y-85445241D01*
X127914759Y-85245363D01*
X127682241Y-85090000D01*
X127914759Y-84934637D01*
X128114637Y-84734759D01*
X128271680Y-84499727D01*
X128379853Y-84238574D01*
X128435000Y-83961335D01*
X128435000Y-83678665D01*
X128379853Y-83401426D01*
X128271680Y-83140273D01*
X128114637Y-82905241D01*
X127914759Y-82705363D01*
X127682241Y-82550000D01*
X127914759Y-82394637D01*
X128114637Y-82194759D01*
X128271680Y-81959727D01*
X128379853Y-81698574D01*
X128435000Y-81421335D01*
X128435000Y-81138665D01*
X128379853Y-80861426D01*
X128271680Y-80600273D01*
X128114637Y-80365241D01*
X127914759Y-80165363D01*
X127682241Y-80010000D01*
X127914759Y-79854637D01*
X128114637Y-79654759D01*
X128271680Y-79419727D01*
X128379853Y-79158574D01*
X128435000Y-78881335D01*
X128435000Y-78598665D01*
X128379853Y-78321426D01*
X128271680Y-78060273D01*
X128114637Y-77825241D01*
X127914759Y-77625363D01*
X127682241Y-77470000D01*
X127914759Y-77314637D01*
X128114637Y-77114759D01*
X128271680Y-76879727D01*
X128379853Y-76618574D01*
X128435000Y-76341335D01*
X128435000Y-76058665D01*
X128379853Y-75781426D01*
X128271680Y-75520273D01*
X128114637Y-75285241D01*
X127914759Y-75085363D01*
X127682241Y-74930000D01*
X127914759Y-74774637D01*
X128114637Y-74574759D01*
X128271680Y-74339727D01*
X128379853Y-74078574D01*
X128435000Y-73801335D01*
X128435000Y-73518665D01*
X128379853Y-73241426D01*
X128271680Y-72980273D01*
X128114637Y-72745241D01*
X127914759Y-72545363D01*
X127682241Y-72390000D01*
X127914759Y-72234637D01*
X128114637Y-72034759D01*
X128271680Y-71799727D01*
X128379853Y-71538574D01*
X128435000Y-71261335D01*
X128435000Y-70978665D01*
X128379853Y-70701426D01*
X128271680Y-70440273D01*
X128114637Y-70205241D01*
X127916039Y-70006643D01*
X127924482Y-70005812D01*
X128044180Y-69969502D01*
X128154494Y-69910537D01*
X128251185Y-69831185D01*
X128330537Y-69734494D01*
X128389502Y-69624180D01*
X128425812Y-69504482D01*
X128438072Y-69380000D01*
X128438072Y-67780000D01*
X128425812Y-67655518D01*
X128389502Y-67535820D01*
X128330537Y-67425506D01*
X128251185Y-67328815D01*
X128154494Y-67249463D01*
X128044180Y-67190498D01*
X127924482Y-67154188D01*
X127800000Y-67141928D01*
X126200000Y-67141928D01*
X126075518Y-67154188D01*
X125955820Y-67190498D01*
X125845506Y-67249463D01*
X125748815Y-67328815D01*
X125669463Y-67425506D01*
X125610498Y-67535820D01*
X125596490Y-67581999D01*
X124505817Y-67581999D01*
X124502119Y-67576464D01*
X124307534Y-67381879D01*
X124078726Y-67228994D01*
X124001484Y-67196999D01*
X124078726Y-67165004D01*
X124307534Y-67012119D01*
X124502119Y-66817534D01*
X124655004Y-66588726D01*
X124760313Y-66334489D01*
X124813999Y-66064591D01*
X124813999Y-65789407D01*
X124760313Y-65519509D01*
X124655004Y-65265272D01*
X124502119Y-65036464D01*
X124307534Y-64841879D01*
X124078726Y-64688994D01*
X124001484Y-64656999D01*
X124078726Y-64625004D01*
X124307534Y-64472119D01*
X124502119Y-64277534D01*
X124655004Y-64048726D01*
X124760313Y-63794489D01*
X124813999Y-63524591D01*
X124813999Y-63249407D01*
X124760313Y-62979509D01*
X124655004Y-62725272D01*
X124502119Y-62496464D01*
X124307534Y-62301879D01*
X124078726Y-62148994D01*
X123824489Y-62043685D01*
X123554591Y-61989999D01*
X123279407Y-61989999D01*
X123009509Y-62043685D01*
X122755272Y-62148994D01*
X122526464Y-62301879D01*
X122331879Y-62496464D01*
X122178994Y-62725272D01*
X122146999Y-62802514D01*
X122115004Y-62725272D01*
X121962119Y-62496464D01*
X121767534Y-62301879D01*
X121538726Y-62148994D01*
X121284489Y-62043685D01*
X121014591Y-61989999D01*
X120739407Y-61989999D01*
X120469509Y-62043685D01*
X120215272Y-62148994D01*
X119986464Y-62301879D01*
X119791879Y-62496464D01*
X119638994Y-62725272D01*
X119609307Y-62796942D01*
X119604635Y-62783976D01*
X119542655Y-62668019D01*
X119302564Y-62601039D01*
X118516604Y-63386999D01*
X119302564Y-64172959D01*
X119542655Y-64105979D01*
X119606484Y-63970239D01*
X119638994Y-64048726D01*
X119791879Y-64277534D01*
X119986464Y-64472119D01*
X120215272Y-64625004D01*
X120469509Y-64730313D01*
X120739407Y-64783999D01*
X121014591Y-64783999D01*
X121284489Y-64730313D01*
X121538726Y-64625004D01*
X121767534Y-64472119D01*
X121962119Y-64277534D01*
X122115004Y-64048726D01*
X122146999Y-63971484D01*
X122178994Y-64048726D01*
X122331879Y-64277534D01*
X122526464Y-64472119D01*
X122755272Y-64625004D01*
X122832514Y-64656999D01*
X122755272Y-64688994D01*
X122526464Y-64841879D01*
X122331879Y-65036464D01*
X122178994Y-65265272D01*
X122073685Y-65519509D01*
X122019999Y-65789407D01*
X122019999Y-66064591D01*
X122073685Y-66334489D01*
X122178994Y-66588726D01*
X122331879Y-66817534D01*
X122526464Y-67012119D01*
X122755272Y-67165004D01*
X122832514Y-67196999D01*
X122755272Y-67228994D01*
X122526464Y-67381879D01*
X122331879Y-67576464D01*
X122178994Y-67805272D01*
X122073685Y-68059509D01*
X122019999Y-68329407D01*
X122019999Y-68604591D01*
X122073685Y-68874489D01*
X122178994Y-69128726D01*
X122331879Y-69357534D01*
X122526464Y-69552119D01*
X122755272Y-69705004D01*
X122832514Y-69736999D01*
X122755272Y-69768994D01*
X122526464Y-69921879D01*
X122331879Y-70116464D01*
X122178994Y-70345272D01*
X122073685Y-70599509D01*
X122019999Y-70869407D01*
X122019999Y-71144591D01*
X122073685Y-71414489D01*
X122178994Y-71668726D01*
X122331879Y-71897534D01*
X122526464Y-72092119D01*
X122755272Y-72245004D01*
X122832514Y-72276999D01*
X122755272Y-72308994D01*
X122526464Y-72461879D01*
X122331879Y-72656464D01*
X122178994Y-72885272D01*
X122073685Y-73139509D01*
X122019999Y-73409407D01*
X122019999Y-73684591D01*
X122057675Y-73874000D01*
X117054465Y-73874000D01*
X117010999Y-73869719D01*
X116967533Y-73874000D01*
X116967523Y-73874000D01*
X116837510Y-73886805D01*
X116670687Y-73937411D01*
X116516941Y-74019589D01*
X116516939Y-74019590D01*
X116516940Y-74019590D01*
X116415953Y-74102468D01*
X116415951Y-74102470D01*
X116382183Y-74130183D01*
X116354470Y-74163951D01*
X110236423Y-80281999D01*
X109265817Y-80281999D01*
X109262119Y-80276464D01*
X109067534Y-80081879D01*
X108838726Y-79928994D01*
X108761484Y-79896999D01*
X108838726Y-79865004D01*
X109067534Y-79712119D01*
X109262119Y-79517534D01*
X109265817Y-79511999D01*
X110559532Y-79511999D01*
X110603001Y-79516280D01*
X110646470Y-79511999D01*
X110646478Y-79511999D01*
X110776491Y-79499194D01*
X110943314Y-79448588D01*
X111097060Y-79366410D01*
X111231818Y-79255816D01*
X111259535Y-79222043D01*
X115180047Y-75301532D01*
X115213815Y-75273819D01*
X115324409Y-75139061D01*
X115406587Y-74985315D01*
X115457193Y-74818492D01*
X115469998Y-74688479D01*
X115469998Y-74688469D01*
X115474279Y-74645003D01*
X115469998Y-74601537D01*
X115469998Y-64746323D01*
X115659407Y-64783999D01*
X115934591Y-64783999D01*
X116204489Y-64730313D01*
X116458726Y-64625004D01*
X116687534Y-64472119D01*
X116807089Y-64352564D01*
X117551039Y-64352564D01*
X117618019Y-64592655D01*
X117867047Y-64709755D01*
X118134134Y-64776022D01*
X118409016Y-64788909D01*
X118681132Y-64747921D01*
X118940022Y-64654635D01*
X119055979Y-64592655D01*
X119122959Y-64352564D01*
X118336999Y-63566604D01*
X117551039Y-64352564D01*
X116807089Y-64352564D01*
X116882119Y-64277534D01*
X117035004Y-64048726D01*
X117064691Y-63977056D01*
X117069363Y-63990022D01*
X117131343Y-64105979D01*
X117371434Y-64172959D01*
X118157394Y-63386999D01*
X117371434Y-62601039D01*
X117131343Y-62668019D01*
X117067514Y-62803759D01*
X117035004Y-62725272D01*
X116882119Y-62496464D01*
X116807089Y-62421434D01*
X117551039Y-62421434D01*
X118336999Y-63207394D01*
X119122959Y-62421434D01*
X119055979Y-62181343D01*
X118806951Y-62064243D01*
X118539864Y-61997976D01*
X118264982Y-61985089D01*
X117992866Y-62026077D01*
X117733976Y-62119363D01*
X117618019Y-62181343D01*
X117551039Y-62421434D01*
X116807089Y-62421434D01*
X116718617Y-62332962D01*
X117435049Y-61616530D01*
X117468817Y-61588817D01*
X117496533Y-61555046D01*
X117579410Y-61454060D01*
X117579411Y-61454059D01*
X117661589Y-61300313D01*
X117712195Y-61133490D01*
X117725000Y-61003477D01*
X117725000Y-61003467D01*
X117729281Y-60960001D01*
X117725000Y-60916535D01*
X117725000Y-60884656D01*
X117786632Y-60843475D01*
X117993475Y-60636632D01*
X118115195Y-60454466D01*
X118184822Y-60571355D01*
X118379731Y-60787588D01*
X118613080Y-60961641D01*
X118875901Y-61086825D01*
X119023110Y-61131476D01*
X119253000Y-61010155D01*
X119253000Y-59817000D01*
X119507000Y-59817000D01*
X119507000Y-61010155D01*
X119736890Y-61131476D01*
X119884099Y-61086825D01*
X120146920Y-60961641D01*
X120380269Y-60787588D01*
X120575178Y-60571355D01*
X120724157Y-60321252D01*
X120821481Y-60046891D01*
X120700814Y-59817000D01*
X119507000Y-59817000D01*
X119253000Y-59817000D01*
X119233000Y-59817000D01*
X119233000Y-59563000D01*
X119253000Y-59563000D01*
X119253000Y-58369845D01*
X119507000Y-58369845D01*
X119507000Y-59563000D01*
X120700814Y-59563000D01*
X120821481Y-59333109D01*
X120724157Y-59058748D01*
X120575178Y-58808645D01*
X120380269Y-58592412D01*
X120146920Y-58418359D01*
X119884099Y-58293175D01*
X119736890Y-58248524D01*
X119507000Y-58369845D01*
X119253000Y-58369845D01*
X119023110Y-58248524D01*
X118875901Y-58293175D01*
X118613080Y-58418359D01*
X118379731Y-58592412D01*
X118184822Y-58808645D01*
X118115195Y-58925534D01*
X117993475Y-58743368D01*
X117786632Y-58536525D01*
X117543411Y-58374010D01*
X117273158Y-58262068D01*
X116986260Y-58205000D01*
X116693740Y-58205000D01*
X116406842Y-58262068D01*
X116136589Y-58374010D01*
X115893368Y-58536525D01*
X115686525Y-58743368D01*
X115570000Y-58917760D01*
X115453475Y-58743368D01*
X115246632Y-58536525D01*
X115003411Y-58374010D01*
X114733158Y-58262068D01*
X114446260Y-58205000D01*
X114153740Y-58205000D01*
X113866842Y-58262068D01*
X113596589Y-58374010D01*
X113353368Y-58536525D01*
X113221513Y-58668380D01*
X113199502Y-58595820D01*
X113140537Y-58485506D01*
X113061185Y-58388815D01*
X112964494Y-58309463D01*
X112854180Y-58250498D01*
X112734482Y-58214188D01*
X112610000Y-58201928D01*
X110910000Y-58201928D01*
X110785518Y-58214188D01*
X110665820Y-58250498D01*
X110555506Y-58309463D01*
X110458815Y-58388815D01*
X110379463Y-58485506D01*
X110320498Y-58595820D01*
X110284188Y-58715518D01*
X110271928Y-58840000D01*
X110271928Y-60540000D01*
X110284188Y-60664482D01*
X110320498Y-60784180D01*
X110379463Y-60894494D01*
X110458815Y-60991185D01*
X110555506Y-61070537D01*
X110665820Y-61129502D01*
X110785518Y-61165812D01*
X110875001Y-61174625D01*
X110875001Y-61994059D01*
X110854591Y-61989999D01*
X110579407Y-61989999D01*
X110309509Y-62043685D01*
X110055272Y-62148994D01*
X109826464Y-62301879D01*
X109631879Y-62496464D01*
X109478994Y-62725272D01*
X109446999Y-62802514D01*
X109415004Y-62725272D01*
X109262119Y-62496464D01*
X109067534Y-62301879D01*
X108838726Y-62148994D01*
X108584489Y-62043685D01*
X108314591Y-61989999D01*
X108039407Y-61989999D01*
X107769509Y-62043685D01*
X107515272Y-62148994D01*
X107286464Y-62301879D01*
X107091879Y-62496464D01*
X106938994Y-62725272D01*
X106833685Y-62979509D01*
X106779999Y-63249407D01*
X106779999Y-63524591D01*
X106833685Y-63794489D01*
X106938994Y-64048726D01*
X107091879Y-64277534D01*
X107286464Y-64472119D01*
X107515272Y-64625004D01*
X107592514Y-64656999D01*
X107515272Y-64688994D01*
X107286464Y-64841879D01*
X107091879Y-65036464D01*
X106938994Y-65265272D01*
X106833685Y-65519509D01*
X106779999Y-65789407D01*
X106779999Y-66064591D01*
X106833685Y-66334489D01*
X106938994Y-66588726D01*
X107091879Y-66817534D01*
X107286464Y-67012119D01*
X107515272Y-67165004D01*
X107592514Y-67196999D01*
X107515272Y-67228994D01*
X107286464Y-67381879D01*
X107091879Y-67576464D01*
X106938994Y-67805272D01*
X106833685Y-68059509D01*
X106779999Y-68329407D01*
X106779999Y-68604591D01*
X106833685Y-68874489D01*
X106938994Y-69128726D01*
X107091879Y-69357534D01*
X107286464Y-69552119D01*
X107515272Y-69705004D01*
X107592514Y-69736999D01*
X107515272Y-69768994D01*
X107286464Y-69921879D01*
X107091879Y-70116464D01*
X106938994Y-70345272D01*
X106833685Y-70599509D01*
X106779999Y-70869407D01*
X106779999Y-71144591D01*
X106833685Y-71414489D01*
X106938994Y-71668726D01*
X107091879Y-71897534D01*
X107286464Y-72092119D01*
X107515272Y-72245004D01*
X107592514Y-72276999D01*
X107515272Y-72308994D01*
X107286464Y-72461879D01*
X107091879Y-72656464D01*
X106938994Y-72885272D01*
X106833685Y-73139509D01*
X106779999Y-73409407D01*
X106779999Y-73684591D01*
X106833685Y-73954489D01*
X106938994Y-74208726D01*
X107091879Y-74437534D01*
X107286464Y-74632119D01*
X107515272Y-74785004D01*
X107592514Y-74816999D01*
X107515272Y-74848994D01*
X107286464Y-75001879D01*
X107091879Y-75196464D01*
X106938994Y-75425272D01*
X106833685Y-75679509D01*
X106779999Y-75949407D01*
X106779999Y-76224591D01*
X106833685Y-76494489D01*
X106938994Y-76748726D01*
X107091879Y-76977534D01*
X107286464Y-77172119D01*
X107515272Y-77325004D01*
X107592514Y-77356999D01*
X107515272Y-77388994D01*
X107286464Y-77541879D01*
X107091879Y-77736464D01*
X106938994Y-77965272D01*
X106833685Y-78219509D01*
X106779999Y-78489407D01*
X106779999Y-78764591D01*
X106833685Y-79034489D01*
X106938994Y-79288726D01*
X107091879Y-79517534D01*
X107286464Y-79712119D01*
X107515272Y-79865004D01*
X107592514Y-79896999D01*
X107515272Y-79928994D01*
X107286464Y-80081879D01*
X107091879Y-80276464D01*
X106938994Y-80505272D01*
X106833685Y-80759509D01*
X106779999Y-81029407D01*
X106779999Y-81304591D01*
X106833685Y-81574489D01*
X106938994Y-81828726D01*
X107091879Y-82057534D01*
X107286464Y-82252119D01*
X107515272Y-82405004D01*
X107592514Y-82436999D01*
X107515272Y-82468994D01*
X107286464Y-82621879D01*
X107091879Y-82816464D01*
X106938994Y-83045272D01*
X106833685Y-83299509D01*
X106779999Y-83569407D01*
X106779999Y-83844591D01*
X106833685Y-84114489D01*
X106938994Y-84368726D01*
X107091879Y-84597534D01*
X107286464Y-84792119D01*
X107515272Y-84945004D01*
X107592514Y-84976999D01*
X107515272Y-85008994D01*
X107286464Y-85161879D01*
X107091879Y-85356464D01*
X106938994Y-85585272D01*
X106833685Y-85839509D01*
X106779999Y-86109407D01*
X106779999Y-86384591D01*
X106833685Y-86654489D01*
X106938994Y-86908726D01*
X107091879Y-87137534D01*
X107286464Y-87332119D01*
X107515272Y-87485004D01*
X107592514Y-87516999D01*
X107515272Y-87548994D01*
X107286464Y-87701879D01*
X107091879Y-87896464D01*
X106938994Y-88125272D01*
X106833685Y-88379509D01*
X106779999Y-88649407D01*
X106779999Y-88924591D01*
X106833685Y-89194489D01*
X106938994Y-89448726D01*
X107091879Y-89677534D01*
X107286464Y-89872119D01*
X107515272Y-90025004D01*
X107586942Y-90054691D01*
X107573976Y-90059363D01*
X107458019Y-90121343D01*
X107391039Y-90361434D01*
X108176999Y-91147394D01*
X108962959Y-90361434D01*
X108895979Y-90121343D01*
X108760239Y-90057514D01*
X108838726Y-90025004D01*
X109067534Y-89872119D01*
X109262119Y-89677534D01*
X109415004Y-89448726D01*
X109520313Y-89194489D01*
X109573999Y-88924591D01*
X109573999Y-88649407D01*
X109520313Y-88379509D01*
X109415004Y-88125272D01*
X109262119Y-87896464D01*
X109067534Y-87701879D01*
X108838726Y-87548994D01*
X108761484Y-87516999D01*
X108838726Y-87485004D01*
X109067534Y-87332119D01*
X109262119Y-87137534D01*
X109415004Y-86908726D01*
X109520313Y-86654489D01*
X109573999Y-86384591D01*
X109573999Y-86109407D01*
X109520313Y-85839509D01*
X109415004Y-85585272D01*
X109262119Y-85356464D01*
X109067534Y-85161879D01*
X108838726Y-85008994D01*
X108761484Y-84976999D01*
X108838726Y-84945004D01*
X109067534Y-84792119D01*
X109262119Y-84597534D01*
X109265817Y-84591999D01*
X111829532Y-84591999D01*
X111873001Y-84596280D01*
X111916470Y-84591999D01*
X111916478Y-84591999D01*
X112046491Y-84579194D01*
X112213314Y-84528588D01*
X112367060Y-84446410D01*
X112501818Y-84335816D01*
X112529535Y-84302043D01*
X118647579Y-78184000D01*
X122088393Y-78184000D01*
X122073685Y-78219509D01*
X122019999Y-78489407D01*
X122019999Y-78764591D01*
X122073685Y-79034489D01*
X122178994Y-79288726D01*
X122331879Y-79517534D01*
X122526464Y-79712119D01*
X122755272Y-79865004D01*
X122832514Y-79896999D01*
X122755272Y-79928994D01*
X122526464Y-80081879D01*
X122331879Y-80276464D01*
X122178994Y-80505272D01*
X122073685Y-80759509D01*
X122019999Y-81029407D01*
X122019999Y-81304591D01*
X122073685Y-81574489D01*
X122178994Y-81828726D01*
X122331879Y-82057534D01*
X122526464Y-82252119D01*
X122755272Y-82405004D01*
X122832514Y-82436999D01*
X122755272Y-82468994D01*
X122526464Y-82621879D01*
X122331879Y-82816464D01*
X122178994Y-83045272D01*
X122073685Y-83299509D01*
X122019999Y-83569407D01*
X122019999Y-83844591D01*
X122073685Y-84114489D01*
X122178994Y-84368726D01*
X122331879Y-84597534D01*
X122526464Y-84792119D01*
X122755272Y-84945004D01*
X122832514Y-84976999D01*
X122755272Y-85008994D01*
X122526464Y-85161879D01*
X122331879Y-85356464D01*
X122178994Y-85585272D01*
X122073685Y-85839509D01*
X122019999Y-86109407D01*
X122019999Y-86384591D01*
X122073685Y-86654489D01*
X122178994Y-86908726D01*
X122331879Y-87137534D01*
X122526464Y-87332119D01*
X122755272Y-87485004D01*
X122832514Y-87516999D01*
X122755272Y-87548994D01*
X122526464Y-87701879D01*
X122331879Y-87896464D01*
X122178994Y-88125272D01*
X122073685Y-88379509D01*
X122019999Y-88649407D01*
X122019999Y-88924591D01*
X122073685Y-89194489D01*
X122178994Y-89448726D01*
X122331879Y-89677534D01*
X122526464Y-89872119D01*
X122755272Y-90025004D01*
X122832514Y-90056999D01*
X122755272Y-90088994D01*
X122526464Y-90241879D01*
X122331879Y-90436464D01*
X122178994Y-90665272D01*
X122073685Y-90919509D01*
X122019999Y-91189407D01*
X122019999Y-91464591D01*
X122073685Y-91734489D01*
X122178994Y-91988726D01*
X122331879Y-92217534D01*
X122526464Y-92412119D01*
X122755272Y-92565004D01*
X122832514Y-92596999D01*
X122755272Y-92628994D01*
X122526464Y-92781879D01*
X122331879Y-92976464D01*
X122178994Y-93205272D01*
X122073685Y-93459509D01*
X122019999Y-93729407D01*
X122019999Y-94004591D01*
X122073685Y-94274489D01*
X122178994Y-94528726D01*
X122331879Y-94757534D01*
X122526464Y-94952119D01*
X122755272Y-95105004D01*
X122832514Y-95136999D01*
X122755272Y-95168994D01*
X122526464Y-95321879D01*
X122331879Y-95516464D01*
X122328181Y-95521999D01*
X115823578Y-95521999D01*
X113573533Y-93271955D01*
X113545816Y-93238182D01*
X113411058Y-93127588D01*
X113257312Y-93045410D01*
X113090489Y-92994804D01*
X112960476Y-92981999D01*
X112960468Y-92981999D01*
X112916999Y-92977718D01*
X112873530Y-92981999D01*
X109265817Y-92981999D01*
X109262119Y-92976464D01*
X109067534Y-92781879D01*
X108838726Y-92628994D01*
X108767056Y-92599307D01*
X108780022Y-92594635D01*
X108895979Y-92532655D01*
X108962959Y-92292564D01*
X108176999Y-91506604D01*
X107391039Y-92292564D01*
X107458019Y-92532655D01*
X107593759Y-92596484D01*
X107515272Y-92628994D01*
X107286464Y-92781879D01*
X107091879Y-92976464D01*
X107088181Y-92981999D01*
X106836466Y-92981999D01*
X106793000Y-92977718D01*
X106749534Y-92981999D01*
X106749524Y-92981999D01*
X106619511Y-92994804D01*
X106452688Y-93045410D01*
X106298942Y-93127588D01*
X106298940Y-93127589D01*
X106298941Y-93127589D01*
X106197954Y-93210467D01*
X106197952Y-93210469D01*
X106164184Y-93238182D01*
X106136471Y-93271950D01*
X105449956Y-93958466D01*
X105416183Y-93986183D01*
X105305589Y-94120942D01*
X105223411Y-94274688D01*
X105172805Y-94441511D01*
X105160000Y-94571524D01*
X105160000Y-94571531D01*
X105155719Y-94615000D01*
X104800000Y-94615000D01*
X104800000Y-91399016D01*
X106775089Y-91399016D01*
X106816077Y-91671132D01*
X106909363Y-91930022D01*
X106971343Y-92045979D01*
X107211434Y-92112959D01*
X107997394Y-91326999D01*
X108356604Y-91326999D01*
X109142564Y-92112959D01*
X109382655Y-92045979D01*
X109499755Y-91796951D01*
X109566022Y-91529864D01*
X109578909Y-91254982D01*
X109537921Y-90982866D01*
X109444635Y-90723976D01*
X109382655Y-90608019D01*
X109142564Y-90541039D01*
X108356604Y-91326999D01*
X107997394Y-91326999D01*
X107211434Y-90541039D01*
X106971343Y-90608019D01*
X106854243Y-90857047D01*
X106787976Y-91124134D01*
X106775089Y-91399016D01*
X104800000Y-91399016D01*
X104800000Y-58452279D01*
X104838909Y-58055455D01*
X104944780Y-57704792D01*
X105116744Y-57381375D01*
X105348254Y-57097516D01*
X105630486Y-56864035D01*
X105952695Y-56689817D01*
X106302614Y-56581498D01*
X106697443Y-56540000D01*
X142207721Y-56540000D01*
X142604545Y-56578909D01*
M02*
