G04 #@! TF.GenerationSoftware,KiCad,Pcbnew,(5.1.5)-3*
G04 #@! TF.CreationDate,2020-04-07T17:58:51+02:00*
G04 #@! TF.ProjectId,DrSquigglesController,44725371-7569-4676-976c-6573436f6e74,rev?*
G04 #@! TF.SameCoordinates,Original*
G04 #@! TF.FileFunction,Paste,Top*
G04 #@! TF.FilePolarity,Positive*
%FSLAX46Y46*%
G04 Gerber Fmt 4.6, Leading zero omitted, Abs format (unit mm)*
G04 Created by KiCad (PCBNEW (5.1.5)-3) date 2020-04-07 17:58:51*
%MOMM*%
%LPD*%
G04 APERTURE LIST*
%ADD10C,0.150000*%
G04 APERTURE END LIST*
D10*
X111055238Y-118562380D02*
X111055238Y-117562380D01*
X111293333Y-117562380D01*
X111436190Y-117610000D01*
X111531428Y-117705238D01*
X111579047Y-117800476D01*
X111626666Y-117990952D01*
X111626666Y-118133809D01*
X111579047Y-118324285D01*
X111531428Y-118419523D01*
X111436190Y-118514761D01*
X111293333Y-118562380D01*
X111055238Y-118562380D01*
X112055238Y-118562380D02*
X112055238Y-117895714D01*
X112055238Y-118086190D02*
X112102857Y-117990952D01*
X112150476Y-117943333D01*
X112245714Y-117895714D01*
X112340952Y-117895714D01*
X112674285Y-118467142D02*
X112721904Y-118514761D01*
X112674285Y-118562380D01*
X112626666Y-118514761D01*
X112674285Y-118467142D01*
X112674285Y-118562380D01*
X113864761Y-118514761D02*
X114007619Y-118562380D01*
X114245714Y-118562380D01*
X114340952Y-118514761D01*
X114388571Y-118467142D01*
X114436190Y-118371904D01*
X114436190Y-118276666D01*
X114388571Y-118181428D01*
X114340952Y-118133809D01*
X114245714Y-118086190D01*
X114055238Y-118038571D01*
X113960000Y-117990952D01*
X113912380Y-117943333D01*
X113864761Y-117848095D01*
X113864761Y-117752857D01*
X113912380Y-117657619D01*
X113960000Y-117610000D01*
X114055238Y-117562380D01*
X114293333Y-117562380D01*
X114436190Y-117610000D01*
X115293333Y-117895714D02*
X115293333Y-118895714D01*
X115293333Y-118514761D02*
X115198095Y-118562380D01*
X115007619Y-118562380D01*
X114912380Y-118514761D01*
X114864761Y-118467142D01*
X114817142Y-118371904D01*
X114817142Y-118086190D01*
X114864761Y-117990952D01*
X114912380Y-117943333D01*
X115007619Y-117895714D01*
X115198095Y-117895714D01*
X115293333Y-117943333D01*
X116198095Y-117895714D02*
X116198095Y-118562380D01*
X115769523Y-117895714D02*
X115769523Y-118419523D01*
X115817142Y-118514761D01*
X115912380Y-118562380D01*
X116055238Y-118562380D01*
X116150476Y-118514761D01*
X116198095Y-118467142D01*
X116674285Y-118562380D02*
X116674285Y-117895714D01*
X116674285Y-117562380D02*
X116626666Y-117610000D01*
X116674285Y-117657619D01*
X116721904Y-117610000D01*
X116674285Y-117562380D01*
X116674285Y-117657619D01*
X117579047Y-117895714D02*
X117579047Y-118705238D01*
X117531428Y-118800476D01*
X117483809Y-118848095D01*
X117388571Y-118895714D01*
X117245714Y-118895714D01*
X117150476Y-118848095D01*
X117579047Y-118514761D02*
X117483809Y-118562380D01*
X117293333Y-118562380D01*
X117198095Y-118514761D01*
X117150476Y-118467142D01*
X117102857Y-118371904D01*
X117102857Y-118086190D01*
X117150476Y-117990952D01*
X117198095Y-117943333D01*
X117293333Y-117895714D01*
X117483809Y-117895714D01*
X117579047Y-117943333D01*
X118483809Y-117895714D02*
X118483809Y-118705238D01*
X118436190Y-118800476D01*
X118388571Y-118848095D01*
X118293333Y-118895714D01*
X118150476Y-118895714D01*
X118055238Y-118848095D01*
X118483809Y-118514761D02*
X118388571Y-118562380D01*
X118198095Y-118562380D01*
X118102857Y-118514761D01*
X118055238Y-118467142D01*
X118007619Y-118371904D01*
X118007619Y-118086190D01*
X118055238Y-117990952D01*
X118102857Y-117943333D01*
X118198095Y-117895714D01*
X118388571Y-117895714D01*
X118483809Y-117943333D01*
X119102857Y-118562380D02*
X119007619Y-118514761D01*
X118960000Y-118419523D01*
X118960000Y-117562380D01*
X119864761Y-118514761D02*
X119769523Y-118562380D01*
X119579047Y-118562380D01*
X119483809Y-118514761D01*
X119436190Y-118419523D01*
X119436190Y-118038571D01*
X119483809Y-117943333D01*
X119579047Y-117895714D01*
X119769523Y-117895714D01*
X119864761Y-117943333D01*
X119912380Y-118038571D01*
X119912380Y-118133809D01*
X119436190Y-118229047D01*
X120293333Y-118514761D02*
X120388571Y-118562380D01*
X120579047Y-118562380D01*
X120674285Y-118514761D01*
X120721904Y-118419523D01*
X120721904Y-118371904D01*
X120674285Y-118276666D01*
X120579047Y-118229047D01*
X120436190Y-118229047D01*
X120340952Y-118181428D01*
X120293333Y-118086190D01*
X120293333Y-118038571D01*
X120340952Y-117943333D01*
X120436190Y-117895714D01*
X120579047Y-117895714D01*
X120674285Y-117943333D01*
X122483809Y-118467142D02*
X122436190Y-118514761D01*
X122293333Y-118562380D01*
X122198095Y-118562380D01*
X122055238Y-118514761D01*
X121960000Y-118419523D01*
X121912380Y-118324285D01*
X121864761Y-118133809D01*
X121864761Y-117990952D01*
X121912380Y-117800476D01*
X121960000Y-117705238D01*
X122055238Y-117610000D01*
X122198095Y-117562380D01*
X122293333Y-117562380D01*
X122436190Y-117610000D01*
X122483809Y-117657619D01*
X123055238Y-118562380D02*
X122960000Y-118514761D01*
X122912380Y-118467142D01*
X122864761Y-118371904D01*
X122864761Y-118086190D01*
X122912380Y-117990952D01*
X122960000Y-117943333D01*
X123055238Y-117895714D01*
X123198095Y-117895714D01*
X123293333Y-117943333D01*
X123340952Y-117990952D01*
X123388571Y-118086190D01*
X123388571Y-118371904D01*
X123340952Y-118467142D01*
X123293333Y-118514761D01*
X123198095Y-118562380D01*
X123055238Y-118562380D01*
X123817142Y-117895714D02*
X123817142Y-118562380D01*
X123817142Y-117990952D02*
X123864761Y-117943333D01*
X123960000Y-117895714D01*
X124102857Y-117895714D01*
X124198095Y-117943333D01*
X124245714Y-118038571D01*
X124245714Y-118562380D01*
X124579047Y-117895714D02*
X124960000Y-117895714D01*
X124721904Y-117562380D02*
X124721904Y-118419523D01*
X124769523Y-118514761D01*
X124864761Y-118562380D01*
X124960000Y-118562380D01*
X125293333Y-118562380D02*
X125293333Y-117895714D01*
X125293333Y-118086190D02*
X125340952Y-117990952D01*
X125388571Y-117943333D01*
X125483809Y-117895714D01*
X125579047Y-117895714D01*
X126055238Y-118562380D02*
X125960000Y-118514761D01*
X125912380Y-118467142D01*
X125864761Y-118371904D01*
X125864761Y-118086190D01*
X125912380Y-117990952D01*
X125960000Y-117943333D01*
X126055238Y-117895714D01*
X126198095Y-117895714D01*
X126293333Y-117943333D01*
X126340952Y-117990952D01*
X126388571Y-118086190D01*
X126388571Y-118371904D01*
X126340952Y-118467142D01*
X126293333Y-118514761D01*
X126198095Y-118562380D01*
X126055238Y-118562380D01*
X126960000Y-118562380D02*
X126864761Y-118514761D01*
X126817142Y-118419523D01*
X126817142Y-117562380D01*
X127483809Y-118562380D02*
X127388571Y-118514761D01*
X127340952Y-118419523D01*
X127340952Y-117562380D01*
X128245714Y-118514761D02*
X128150476Y-118562380D01*
X127960000Y-118562380D01*
X127864761Y-118514761D01*
X127817142Y-118419523D01*
X127817142Y-118038571D01*
X127864761Y-117943333D01*
X127960000Y-117895714D01*
X128150476Y-117895714D01*
X128245714Y-117943333D01*
X128293333Y-118038571D01*
X128293333Y-118133809D01*
X127817142Y-118229047D01*
X128721904Y-118562380D02*
X128721904Y-117895714D01*
X128721904Y-118086190D02*
X128769523Y-117990952D01*
X128817142Y-117943333D01*
X128912380Y-117895714D01*
X129007619Y-117895714D01*
X130436190Y-118038571D02*
X130579047Y-118086190D01*
X130626666Y-118133809D01*
X130674285Y-118229047D01*
X130674285Y-118371904D01*
X130626666Y-118467142D01*
X130579047Y-118514761D01*
X130483809Y-118562380D01*
X130102857Y-118562380D01*
X130102857Y-117562380D01*
X130436190Y-117562380D01*
X130531428Y-117610000D01*
X130579047Y-117657619D01*
X130626666Y-117752857D01*
X130626666Y-117848095D01*
X130579047Y-117943333D01*
X130531428Y-117990952D01*
X130436190Y-118038571D01*
X130102857Y-118038571D01*
X131245714Y-118562380D02*
X131150476Y-118514761D01*
X131102857Y-118467142D01*
X131055238Y-118371904D01*
X131055238Y-118086190D01*
X131102857Y-117990952D01*
X131150476Y-117943333D01*
X131245714Y-117895714D01*
X131388571Y-117895714D01*
X131483809Y-117943333D01*
X131531428Y-117990952D01*
X131579047Y-118086190D01*
X131579047Y-118371904D01*
X131531428Y-118467142D01*
X131483809Y-118514761D01*
X131388571Y-118562380D01*
X131245714Y-118562380D01*
X132436190Y-118562380D02*
X132436190Y-118038571D01*
X132388571Y-117943333D01*
X132293333Y-117895714D01*
X132102857Y-117895714D01*
X132007619Y-117943333D01*
X132436190Y-118514761D02*
X132340952Y-118562380D01*
X132102857Y-118562380D01*
X132007619Y-118514761D01*
X131960000Y-118419523D01*
X131960000Y-118324285D01*
X132007619Y-118229047D01*
X132102857Y-118181428D01*
X132340952Y-118181428D01*
X132436190Y-118133809D01*
X132912380Y-118562380D02*
X132912380Y-117895714D01*
X132912380Y-118086190D02*
X132960000Y-117990952D01*
X133007619Y-117943333D01*
X133102857Y-117895714D01*
X133198095Y-117895714D01*
X133960000Y-118562380D02*
X133960000Y-117562380D01*
X133960000Y-118514761D02*
X133864761Y-118562380D01*
X133674285Y-118562380D01*
X133579047Y-118514761D01*
X133531428Y-118467142D01*
X133483809Y-118371904D01*
X133483809Y-118086190D01*
X133531428Y-117990952D01*
X133579047Y-117943333D01*
X133674285Y-117895714D01*
X133864761Y-117895714D01*
X133960000Y-117943333D01*
X135102857Y-117895714D02*
X135340952Y-118562380D01*
X135579047Y-117895714D01*
X136483809Y-118562380D02*
X135912380Y-118562380D01*
X136198095Y-118562380D02*
X136198095Y-117562380D01*
X136102857Y-117705238D01*
X136007619Y-117800476D01*
X135912380Y-117848095D01*
X136912380Y-118467142D02*
X136960000Y-118514761D01*
X136912380Y-118562380D01*
X136864761Y-118514761D01*
X136912380Y-118467142D01*
X136912380Y-118562380D01*
X137579047Y-117562380D02*
X137674285Y-117562380D01*
X137769523Y-117610000D01*
X137817142Y-117657619D01*
X137864761Y-117752857D01*
X137912380Y-117943333D01*
X137912380Y-118181428D01*
X137864761Y-118371904D01*
X137817142Y-118467142D01*
X137769523Y-118514761D01*
X137674285Y-118562380D01*
X137579047Y-118562380D01*
X137483809Y-118514761D01*
X137436190Y-118467142D01*
X137388571Y-118371904D01*
X137340952Y-118181428D01*
X137340952Y-117943333D01*
X137388571Y-117752857D01*
X137436190Y-117657619D01*
X137483809Y-117610000D01*
X137579047Y-117562380D01*
M02*
