G04 #@! TF.GenerationSoftware,KiCad,Pcbnew,(5.1.5)-3*
G04 #@! TF.CreationDate,2020-04-07T15:58:51+02:00*
G04 #@! TF.ProjectId,DrSquigglesController,44725371-7569-4676-976c-6573436f6e74,rev?*
G04 #@! TF.SameCoordinates,Original*
G04 #@! TF.FileFunction,Copper,L2,Bot*
G04 #@! TF.FilePolarity,Positive*
%FSLAX46Y46*%
G04 Gerber Fmt 4.6, Leading zero omitted, Abs format (unit mm)*
G04 Created by KiCad (PCBNEW (5.1.5)-3) date 2020-04-07 15:58:51*
%MOMM*%
%LPD*%
G04 APERTURE LIST*
%ADD10O,1.700000X1.700000*%
%ADD11R,1.700000X1.700000*%
%ADD12C,1.524000*%
%ADD13O,1.600000X1.600000*%
%ADD14R,1.600000X1.600000*%
%ADD15C,2.600000*%
%ADD16R,2.600000X2.600000*%
%ADD17C,0.254000*%
G04 APERTURE END LIST*
D10*
X124460000Y-109220000D03*
D11*
X124460000Y-111760000D03*
D12*
X108176999Y-96406999D03*
X108176999Y-93866999D03*
X108176999Y-91326999D03*
X108176999Y-88786999D03*
X108176999Y-86246999D03*
X108176999Y-83706999D03*
X108176999Y-81166999D03*
X108176999Y-78626999D03*
X108176999Y-76086999D03*
X108176999Y-73546999D03*
X108176999Y-71006999D03*
X108176999Y-68466999D03*
X108176999Y-65926999D03*
X108176999Y-63386999D03*
X110716999Y-63386999D03*
X113256999Y-63386999D03*
X115796999Y-63386999D03*
X118336999Y-63386999D03*
X120876999Y-63386999D03*
X123416999Y-63386999D03*
X123416999Y-65926999D03*
X123416999Y-68466999D03*
X123416999Y-71006999D03*
X123416999Y-73546999D03*
X123416999Y-76086999D03*
X123416999Y-78626999D03*
X123416999Y-81166999D03*
X123416999Y-83706999D03*
X123416999Y-86246999D03*
X123416999Y-88786999D03*
X123416999Y-91326999D03*
X123416999Y-93866999D03*
X123416999Y-96406999D03*
D13*
X134620000Y-64770000D03*
X127000000Y-85090000D03*
X134620000Y-67310000D03*
X127000000Y-82550000D03*
X134620000Y-69850000D03*
X127000000Y-80010000D03*
X134620000Y-72390000D03*
X127000000Y-77470000D03*
X134620000Y-74930000D03*
X127000000Y-74930000D03*
X134620000Y-77470000D03*
X127000000Y-72390000D03*
X134620000Y-80010000D03*
X127000000Y-69850000D03*
X134620000Y-82550000D03*
X127000000Y-67310000D03*
X134620000Y-85090000D03*
D14*
X127000000Y-64770000D03*
D12*
X127000000Y-99060000D03*
X127000000Y-96520000D03*
X127000000Y-93980000D03*
X127000000Y-91440000D03*
X127000000Y-88900000D03*
D15*
X135890000Y-111760000D03*
D16*
X130810000Y-111760000D03*
D10*
X140970000Y-83820000D03*
X138430000Y-83820000D03*
X140970000Y-81280000D03*
X138430000Y-81280000D03*
X140970000Y-78740000D03*
X138430000Y-78740000D03*
X140970000Y-76200000D03*
X138430000Y-76200000D03*
X140970000Y-73660000D03*
X138430000Y-73660000D03*
X140970000Y-71120000D03*
X138430000Y-71120000D03*
X140970000Y-68580000D03*
X138430000Y-68580000D03*
X140970000Y-66040000D03*
D11*
X138430000Y-66040000D03*
D10*
X140970000Y-109220000D03*
D11*
X140970000Y-111760000D03*
D10*
X119380000Y-59690000D03*
X116840000Y-59690000D03*
X114300000Y-59690000D03*
D11*
X111760000Y-59690000D03*
D17*
G36*
X142604545Y-56578909D02*
G01*
X142955208Y-56684780D01*
X143278625Y-56856744D01*
X143562484Y-57088254D01*
X143795965Y-57370486D01*
X143970183Y-57692695D01*
X144078502Y-58042614D01*
X144120000Y-58437443D01*
X144120001Y-59657572D01*
X144120000Y-59657582D01*
X144120001Y-63467581D01*
X144120000Y-116807721D01*
X144081091Y-117204545D01*
X143975220Y-117555206D01*
X143803257Y-117878623D01*
X143571748Y-118162482D01*
X143289514Y-118395965D01*
X142967304Y-118570184D01*
X142617385Y-118678502D01*
X142222557Y-118720000D01*
X106712279Y-118720000D01*
X106315455Y-118681091D01*
X105964794Y-118575220D01*
X105641377Y-118403257D01*
X105357518Y-118171748D01*
X105124035Y-117889514D01*
X104949816Y-117567304D01*
X104841498Y-117217385D01*
X104800000Y-116822557D01*
X104800000Y-112610000D01*
X122971928Y-112610000D01*
X122984188Y-112734482D01*
X123020498Y-112854180D01*
X123079463Y-112964494D01*
X123158815Y-113061185D01*
X123255506Y-113140537D01*
X123365820Y-113199502D01*
X123485518Y-113235812D01*
X123610000Y-113248072D01*
X124174250Y-113245000D01*
X124333000Y-113086250D01*
X124333000Y-111887000D01*
X124587000Y-111887000D01*
X124587000Y-113086250D01*
X124745750Y-113245000D01*
X125310000Y-113248072D01*
X125434482Y-113235812D01*
X125554180Y-113199502D01*
X125664494Y-113140537D01*
X125761185Y-113061185D01*
X125762157Y-113060000D01*
X128871928Y-113060000D01*
X128884188Y-113184482D01*
X128920498Y-113304180D01*
X128979463Y-113414494D01*
X129058815Y-113511185D01*
X129155506Y-113590537D01*
X129265820Y-113649502D01*
X129385518Y-113685812D01*
X129510000Y-113698072D01*
X130524250Y-113695000D01*
X130683000Y-113536250D01*
X130683000Y-111887000D01*
X130937000Y-111887000D01*
X130937000Y-113536250D01*
X131095750Y-113695000D01*
X132110000Y-113698072D01*
X132234482Y-113685812D01*
X132354180Y-113649502D01*
X132464494Y-113590537D01*
X132561185Y-113511185D01*
X132640537Y-113414494D01*
X132699502Y-113304180D01*
X132735812Y-113184482D01*
X132748072Y-113060000D01*
X132745000Y-112045750D01*
X132586250Y-111887000D01*
X130937000Y-111887000D01*
X130683000Y-111887000D01*
X129033750Y-111887000D01*
X128875000Y-112045750D01*
X128871928Y-113060000D01*
X125762157Y-113060000D01*
X125840537Y-112964494D01*
X125899502Y-112854180D01*
X125935812Y-112734482D01*
X125948072Y-112610000D01*
X125945000Y-112045750D01*
X125786250Y-111887000D01*
X124587000Y-111887000D01*
X124333000Y-111887000D01*
X123133750Y-111887000D01*
X122975000Y-112045750D01*
X122971928Y-112610000D01*
X104800000Y-112610000D01*
X104800000Y-110910000D01*
X122971928Y-110910000D01*
X122975000Y-111474250D01*
X123133750Y-111633000D01*
X124333000Y-111633000D01*
X124333000Y-111613000D01*
X124587000Y-111613000D01*
X124587000Y-111633000D01*
X125786250Y-111633000D01*
X125945000Y-111474250D01*
X125948072Y-110910000D01*
X125935812Y-110785518D01*
X125899502Y-110665820D01*
X125840537Y-110555506D01*
X125762158Y-110460000D01*
X128871928Y-110460000D01*
X128875000Y-111474250D01*
X129033750Y-111633000D01*
X130683000Y-111633000D01*
X130683000Y-109983750D01*
X130937000Y-109983750D01*
X130937000Y-111633000D01*
X132586250Y-111633000D01*
X132649831Y-111569419D01*
X133955000Y-111569419D01*
X133955000Y-111950581D01*
X134029361Y-112324419D01*
X134175225Y-112676566D01*
X134386987Y-112993491D01*
X134656509Y-113263013D01*
X134973434Y-113474775D01*
X135325581Y-113620639D01*
X135699419Y-113695000D01*
X136080581Y-113695000D01*
X136454419Y-113620639D01*
X136806566Y-113474775D01*
X137123491Y-113263013D01*
X137393013Y-112993491D01*
X137604775Y-112676566D01*
X137750639Y-112324419D01*
X137825000Y-111950581D01*
X137825000Y-111569419D01*
X137750639Y-111195581D01*
X137632348Y-110910000D01*
X139481928Y-110910000D01*
X139481928Y-112610000D01*
X139494188Y-112734482D01*
X139530498Y-112854180D01*
X139589463Y-112964494D01*
X139668815Y-113061185D01*
X139765506Y-113140537D01*
X139875820Y-113199502D01*
X139995518Y-113235812D01*
X140120000Y-113248072D01*
X141820000Y-113248072D01*
X141944482Y-113235812D01*
X142064180Y-113199502D01*
X142174494Y-113140537D01*
X142271185Y-113061185D01*
X142350537Y-112964494D01*
X142409502Y-112854180D01*
X142445812Y-112734482D01*
X142458072Y-112610000D01*
X142458072Y-110910000D01*
X142445812Y-110785518D01*
X142409502Y-110665820D01*
X142350537Y-110555506D01*
X142271185Y-110458815D01*
X142174494Y-110379463D01*
X142064180Y-110320498D01*
X141991620Y-110298487D01*
X142123475Y-110166632D01*
X142285990Y-109923411D01*
X142397932Y-109653158D01*
X142455000Y-109366260D01*
X142455000Y-109073740D01*
X142397932Y-108786842D01*
X142285990Y-108516589D01*
X142123475Y-108273368D01*
X141916632Y-108066525D01*
X141673411Y-107904010D01*
X141403158Y-107792068D01*
X141116260Y-107735000D01*
X140823740Y-107735000D01*
X140536842Y-107792068D01*
X140266589Y-107904010D01*
X140023368Y-108066525D01*
X139816525Y-108273368D01*
X139654010Y-108516589D01*
X139542068Y-108786842D01*
X139485000Y-109073740D01*
X139485000Y-109366260D01*
X139542068Y-109653158D01*
X139654010Y-109923411D01*
X139816525Y-110166632D01*
X139948380Y-110298487D01*
X139875820Y-110320498D01*
X139765506Y-110379463D01*
X139668815Y-110458815D01*
X139589463Y-110555506D01*
X139530498Y-110665820D01*
X139494188Y-110785518D01*
X139481928Y-110910000D01*
X137632348Y-110910000D01*
X137604775Y-110843434D01*
X137393013Y-110526509D01*
X137123491Y-110256987D01*
X136806566Y-110045225D01*
X136454419Y-109899361D01*
X136080581Y-109825000D01*
X135699419Y-109825000D01*
X135325581Y-109899361D01*
X134973434Y-110045225D01*
X134656509Y-110256987D01*
X134386987Y-110526509D01*
X134175225Y-110843434D01*
X134029361Y-111195581D01*
X133955000Y-111569419D01*
X132649831Y-111569419D01*
X132745000Y-111474250D01*
X132748072Y-110460000D01*
X132735812Y-110335518D01*
X132699502Y-110215820D01*
X132640537Y-110105506D01*
X132561185Y-110008815D01*
X132464494Y-109929463D01*
X132354180Y-109870498D01*
X132234482Y-109834188D01*
X132110000Y-109821928D01*
X131095750Y-109825000D01*
X130937000Y-109983750D01*
X130683000Y-109983750D01*
X130524250Y-109825000D01*
X129510000Y-109821928D01*
X129385518Y-109834188D01*
X129265820Y-109870498D01*
X129155506Y-109929463D01*
X129058815Y-110008815D01*
X128979463Y-110105506D01*
X128920498Y-110215820D01*
X128884188Y-110335518D01*
X128871928Y-110460000D01*
X125762158Y-110460000D01*
X125761185Y-110458815D01*
X125664494Y-110379463D01*
X125554180Y-110320498D01*
X125481620Y-110298487D01*
X125613475Y-110166632D01*
X125775990Y-109923411D01*
X125887932Y-109653158D01*
X125945000Y-109366260D01*
X125945000Y-109073740D01*
X125887932Y-108786842D01*
X125775990Y-108516589D01*
X125613475Y-108273368D01*
X125406632Y-108066525D01*
X125163411Y-107904010D01*
X124893158Y-107792068D01*
X124606260Y-107735000D01*
X124313740Y-107735000D01*
X124026842Y-107792068D01*
X123756589Y-107904010D01*
X123513368Y-108066525D01*
X123306525Y-108273368D01*
X123144010Y-108516589D01*
X123032068Y-108786842D01*
X122975000Y-109073740D01*
X122975000Y-109366260D01*
X123032068Y-109653158D01*
X123144010Y-109923411D01*
X123306525Y-110166632D01*
X123438380Y-110298487D01*
X123365820Y-110320498D01*
X123255506Y-110379463D01*
X123158815Y-110458815D01*
X123079463Y-110555506D01*
X123020498Y-110665820D01*
X122984188Y-110785518D01*
X122971928Y-110910000D01*
X104800000Y-110910000D01*
X104800000Y-98922408D01*
X125603000Y-98922408D01*
X125603000Y-99197592D01*
X125656686Y-99467490D01*
X125761995Y-99721727D01*
X125914880Y-99950535D01*
X126109465Y-100145120D01*
X126338273Y-100298005D01*
X126592510Y-100403314D01*
X126862408Y-100457000D01*
X127137592Y-100457000D01*
X127407490Y-100403314D01*
X127661727Y-100298005D01*
X127890535Y-100145120D01*
X128085120Y-99950535D01*
X128238005Y-99721727D01*
X128343314Y-99467490D01*
X128397000Y-99197592D01*
X128397000Y-98922408D01*
X128343314Y-98652510D01*
X128238005Y-98398273D01*
X128085120Y-98169465D01*
X127890535Y-97974880D01*
X127661727Y-97821995D01*
X127590057Y-97792308D01*
X127603023Y-97787636D01*
X127718980Y-97725656D01*
X127785960Y-97485565D01*
X127000000Y-96699605D01*
X126214040Y-97485565D01*
X126281020Y-97725656D01*
X126416760Y-97789485D01*
X126338273Y-97821995D01*
X126109465Y-97974880D01*
X125914880Y-98169465D01*
X125761995Y-98398273D01*
X125656686Y-98652510D01*
X125603000Y-98922408D01*
X104800000Y-98922408D01*
X104800000Y-96269407D01*
X106779999Y-96269407D01*
X106779999Y-96544591D01*
X106833685Y-96814489D01*
X106938994Y-97068726D01*
X107091879Y-97297534D01*
X107286464Y-97492119D01*
X107515272Y-97645004D01*
X107769509Y-97750313D01*
X108039407Y-97803999D01*
X108314591Y-97803999D01*
X108584489Y-97750313D01*
X108838726Y-97645004D01*
X109067534Y-97492119D01*
X109187089Y-97372564D01*
X122631039Y-97372564D01*
X122698019Y-97612655D01*
X122947047Y-97729755D01*
X123214134Y-97796022D01*
X123489016Y-97808909D01*
X123761132Y-97767921D01*
X124020022Y-97674635D01*
X124135979Y-97612655D01*
X124202959Y-97372564D01*
X123416999Y-96586604D01*
X122631039Y-97372564D01*
X109187089Y-97372564D01*
X109262119Y-97297534D01*
X109415004Y-97068726D01*
X109520313Y-96814489D01*
X109573999Y-96544591D01*
X109573999Y-96479016D01*
X122015089Y-96479016D01*
X122056077Y-96751132D01*
X122149363Y-97010022D01*
X122211343Y-97125979D01*
X122451434Y-97192959D01*
X123237394Y-96406999D01*
X123596604Y-96406999D01*
X124382564Y-97192959D01*
X124622655Y-97125979D01*
X124739755Y-96876951D01*
X124806022Y-96609864D01*
X124806858Y-96592017D01*
X125598090Y-96592017D01*
X125639078Y-96864133D01*
X125732364Y-97123023D01*
X125794344Y-97238980D01*
X126034435Y-97305960D01*
X126820395Y-96520000D01*
X127179605Y-96520000D01*
X127965565Y-97305960D01*
X128205656Y-97238980D01*
X128322756Y-96989952D01*
X128389023Y-96722865D01*
X128401910Y-96447983D01*
X128360922Y-96175867D01*
X128267636Y-95916977D01*
X128205656Y-95801020D01*
X127965565Y-95734040D01*
X127179605Y-96520000D01*
X126820395Y-96520000D01*
X126034435Y-95734040D01*
X125794344Y-95801020D01*
X125677244Y-96050048D01*
X125610977Y-96317135D01*
X125598090Y-96592017D01*
X124806858Y-96592017D01*
X124818909Y-96334982D01*
X124777921Y-96062866D01*
X124684635Y-95803976D01*
X124622655Y-95688019D01*
X124382564Y-95621039D01*
X123596604Y-96406999D01*
X123237394Y-96406999D01*
X122451434Y-95621039D01*
X122211343Y-95688019D01*
X122094243Y-95937047D01*
X122027976Y-96204134D01*
X122015089Y-96479016D01*
X109573999Y-96479016D01*
X109573999Y-96269407D01*
X109520313Y-95999509D01*
X109415004Y-95745272D01*
X109262119Y-95516464D01*
X109067534Y-95321879D01*
X108838726Y-95168994D01*
X108767056Y-95139307D01*
X108780022Y-95134635D01*
X108895979Y-95072655D01*
X108962959Y-94832564D01*
X108176999Y-94046604D01*
X107391039Y-94832564D01*
X107458019Y-95072655D01*
X107593759Y-95136484D01*
X107515272Y-95168994D01*
X107286464Y-95321879D01*
X107091879Y-95516464D01*
X106938994Y-95745272D01*
X106833685Y-95999509D01*
X106779999Y-96269407D01*
X104800000Y-96269407D01*
X104800000Y-93939016D01*
X106775089Y-93939016D01*
X106816077Y-94211132D01*
X106909363Y-94470022D01*
X106971343Y-94585979D01*
X107211434Y-94652959D01*
X107997394Y-93866999D01*
X108356604Y-93866999D01*
X109142564Y-94652959D01*
X109382655Y-94585979D01*
X109499755Y-94336951D01*
X109566022Y-94069864D01*
X109578909Y-93794982D01*
X109537921Y-93522866D01*
X109444635Y-93263976D01*
X109382655Y-93148019D01*
X109142564Y-93081039D01*
X108356604Y-93866999D01*
X107997394Y-93866999D01*
X107211434Y-93081039D01*
X106971343Y-93148019D01*
X106854243Y-93397047D01*
X106787976Y-93664134D01*
X106775089Y-93939016D01*
X104800000Y-93939016D01*
X104800000Y-63249407D01*
X106779999Y-63249407D01*
X106779999Y-63524591D01*
X106833685Y-63794489D01*
X106938994Y-64048726D01*
X107091879Y-64277534D01*
X107286464Y-64472119D01*
X107515272Y-64625004D01*
X107592514Y-64656999D01*
X107515272Y-64688994D01*
X107286464Y-64841879D01*
X107091879Y-65036464D01*
X106938994Y-65265272D01*
X106833685Y-65519509D01*
X106779999Y-65789407D01*
X106779999Y-66064591D01*
X106833685Y-66334489D01*
X106938994Y-66588726D01*
X107091879Y-66817534D01*
X107286464Y-67012119D01*
X107515272Y-67165004D01*
X107592514Y-67196999D01*
X107515272Y-67228994D01*
X107286464Y-67381879D01*
X107091879Y-67576464D01*
X106938994Y-67805272D01*
X106833685Y-68059509D01*
X106779999Y-68329407D01*
X106779999Y-68604591D01*
X106833685Y-68874489D01*
X106938994Y-69128726D01*
X107091879Y-69357534D01*
X107286464Y-69552119D01*
X107515272Y-69705004D01*
X107592514Y-69736999D01*
X107515272Y-69768994D01*
X107286464Y-69921879D01*
X107091879Y-70116464D01*
X106938994Y-70345272D01*
X106833685Y-70599509D01*
X106779999Y-70869407D01*
X106779999Y-71144591D01*
X106833685Y-71414489D01*
X106938994Y-71668726D01*
X107091879Y-71897534D01*
X107286464Y-72092119D01*
X107515272Y-72245004D01*
X107592514Y-72276999D01*
X107515272Y-72308994D01*
X107286464Y-72461879D01*
X107091879Y-72656464D01*
X106938994Y-72885272D01*
X106833685Y-73139509D01*
X106779999Y-73409407D01*
X106779999Y-73684591D01*
X106833685Y-73954489D01*
X106938994Y-74208726D01*
X107091879Y-74437534D01*
X107286464Y-74632119D01*
X107515272Y-74785004D01*
X107592514Y-74816999D01*
X107515272Y-74848994D01*
X107286464Y-75001879D01*
X107091879Y-75196464D01*
X106938994Y-75425272D01*
X106833685Y-75679509D01*
X106779999Y-75949407D01*
X106779999Y-76224591D01*
X106833685Y-76494489D01*
X106938994Y-76748726D01*
X107091879Y-76977534D01*
X107286464Y-77172119D01*
X107515272Y-77325004D01*
X107592514Y-77356999D01*
X107515272Y-77388994D01*
X107286464Y-77541879D01*
X107091879Y-77736464D01*
X106938994Y-77965272D01*
X106833685Y-78219509D01*
X106779999Y-78489407D01*
X106779999Y-78764591D01*
X106833685Y-79034489D01*
X106938994Y-79288726D01*
X107091879Y-79517534D01*
X107286464Y-79712119D01*
X107515272Y-79865004D01*
X107592514Y-79896999D01*
X107515272Y-79928994D01*
X107286464Y-80081879D01*
X107091879Y-80276464D01*
X106938994Y-80505272D01*
X106833685Y-80759509D01*
X106779999Y-81029407D01*
X106779999Y-81304591D01*
X106833685Y-81574489D01*
X106938994Y-81828726D01*
X107091879Y-82057534D01*
X107286464Y-82252119D01*
X107515272Y-82405004D01*
X107592514Y-82436999D01*
X107515272Y-82468994D01*
X107286464Y-82621879D01*
X107091879Y-82816464D01*
X106938994Y-83045272D01*
X106833685Y-83299509D01*
X106779999Y-83569407D01*
X106779999Y-83844591D01*
X106833685Y-84114489D01*
X106938994Y-84368726D01*
X107091879Y-84597534D01*
X107286464Y-84792119D01*
X107515272Y-84945004D01*
X107592514Y-84976999D01*
X107515272Y-85008994D01*
X107286464Y-85161879D01*
X107091879Y-85356464D01*
X106938994Y-85585272D01*
X106833685Y-85839509D01*
X106779999Y-86109407D01*
X106779999Y-86384591D01*
X106833685Y-86654489D01*
X106938994Y-86908726D01*
X107091879Y-87137534D01*
X107286464Y-87332119D01*
X107515272Y-87485004D01*
X107592514Y-87516999D01*
X107515272Y-87548994D01*
X107286464Y-87701879D01*
X107091879Y-87896464D01*
X106938994Y-88125272D01*
X106833685Y-88379509D01*
X106779999Y-88649407D01*
X106779999Y-88924591D01*
X106833685Y-89194489D01*
X106938994Y-89448726D01*
X107091879Y-89677534D01*
X107286464Y-89872119D01*
X107515272Y-90025004D01*
X107592514Y-90056999D01*
X107515272Y-90088994D01*
X107286464Y-90241879D01*
X107091879Y-90436464D01*
X106938994Y-90665272D01*
X106833685Y-90919509D01*
X106779999Y-91189407D01*
X106779999Y-91464591D01*
X106833685Y-91734489D01*
X106938994Y-91988726D01*
X107091879Y-92217534D01*
X107286464Y-92412119D01*
X107515272Y-92565004D01*
X107586942Y-92594691D01*
X107573976Y-92599363D01*
X107458019Y-92661343D01*
X107391039Y-92901434D01*
X108176999Y-93687394D01*
X108962959Y-92901434D01*
X108895979Y-92661343D01*
X108760239Y-92597514D01*
X108838726Y-92565004D01*
X109067534Y-92412119D01*
X109262119Y-92217534D01*
X109415004Y-91988726D01*
X109520313Y-91734489D01*
X109573999Y-91464591D01*
X109573999Y-91189407D01*
X109520313Y-90919509D01*
X109415004Y-90665272D01*
X109262119Y-90436464D01*
X109067534Y-90241879D01*
X108838726Y-90088994D01*
X108761484Y-90056999D01*
X108838726Y-90025004D01*
X109067534Y-89872119D01*
X109262119Y-89677534D01*
X109415004Y-89448726D01*
X109520313Y-89194489D01*
X109573999Y-88924591D01*
X109573999Y-88649407D01*
X109520313Y-88379509D01*
X109415004Y-88125272D01*
X109262119Y-87896464D01*
X109067534Y-87701879D01*
X108838726Y-87548994D01*
X108761484Y-87516999D01*
X108838726Y-87485004D01*
X109067534Y-87332119D01*
X109262119Y-87137534D01*
X109415004Y-86908726D01*
X109520313Y-86654489D01*
X109573999Y-86384591D01*
X109573999Y-86109407D01*
X109520313Y-85839509D01*
X109415004Y-85585272D01*
X109262119Y-85356464D01*
X109067534Y-85161879D01*
X108838726Y-85008994D01*
X108761484Y-84976999D01*
X108838726Y-84945004D01*
X109067534Y-84792119D01*
X109262119Y-84597534D01*
X109415004Y-84368726D01*
X109520313Y-84114489D01*
X109573999Y-83844591D01*
X109573999Y-83569407D01*
X109520313Y-83299509D01*
X109415004Y-83045272D01*
X109262119Y-82816464D01*
X109067534Y-82621879D01*
X108838726Y-82468994D01*
X108761484Y-82436999D01*
X108838726Y-82405004D01*
X109067534Y-82252119D01*
X109262119Y-82057534D01*
X109415004Y-81828726D01*
X109520313Y-81574489D01*
X109573999Y-81304591D01*
X109573999Y-81029407D01*
X109520313Y-80759509D01*
X109415004Y-80505272D01*
X109262119Y-80276464D01*
X109067534Y-80081879D01*
X108838726Y-79928994D01*
X108761484Y-79896999D01*
X108838726Y-79865004D01*
X109067534Y-79712119D01*
X109262119Y-79517534D01*
X109415004Y-79288726D01*
X109520313Y-79034489D01*
X109573999Y-78764591D01*
X109573999Y-78489407D01*
X109520313Y-78219509D01*
X109415004Y-77965272D01*
X109262119Y-77736464D01*
X109067534Y-77541879D01*
X108838726Y-77388994D01*
X108761484Y-77356999D01*
X108838726Y-77325004D01*
X109067534Y-77172119D01*
X109262119Y-76977534D01*
X109415004Y-76748726D01*
X109520313Y-76494489D01*
X109573999Y-76224591D01*
X109573999Y-75949407D01*
X109520313Y-75679509D01*
X109415004Y-75425272D01*
X109262119Y-75196464D01*
X109067534Y-75001879D01*
X108838726Y-74848994D01*
X108761484Y-74816999D01*
X108838726Y-74785004D01*
X109067534Y-74632119D01*
X109262119Y-74437534D01*
X109415004Y-74208726D01*
X109520313Y-73954489D01*
X109573999Y-73684591D01*
X109573999Y-73409407D01*
X109520313Y-73139509D01*
X109415004Y-72885272D01*
X109262119Y-72656464D01*
X109067534Y-72461879D01*
X108838726Y-72308994D01*
X108761484Y-72276999D01*
X108838726Y-72245004D01*
X109067534Y-72092119D01*
X109262119Y-71897534D01*
X109415004Y-71668726D01*
X109520313Y-71414489D01*
X109573999Y-71144591D01*
X109573999Y-70869407D01*
X109520313Y-70599509D01*
X109415004Y-70345272D01*
X109262119Y-70116464D01*
X109067534Y-69921879D01*
X108838726Y-69768994D01*
X108761484Y-69736999D01*
X108838726Y-69705004D01*
X109067534Y-69552119D01*
X109262119Y-69357534D01*
X109415004Y-69128726D01*
X109520313Y-68874489D01*
X109573999Y-68604591D01*
X109573999Y-68329407D01*
X109520313Y-68059509D01*
X109415004Y-67805272D01*
X109262119Y-67576464D01*
X109067534Y-67381879D01*
X108838726Y-67228994D01*
X108761484Y-67196999D01*
X108838726Y-67165004D01*
X109067534Y-67012119D01*
X109262119Y-66817534D01*
X109415004Y-66588726D01*
X109520313Y-66334489D01*
X109573999Y-66064591D01*
X109573999Y-65789407D01*
X109520313Y-65519509D01*
X109415004Y-65265272D01*
X109262119Y-65036464D01*
X109067534Y-64841879D01*
X108838726Y-64688994D01*
X108761484Y-64656999D01*
X108838726Y-64625004D01*
X109067534Y-64472119D01*
X109262119Y-64277534D01*
X109415004Y-64048726D01*
X109446999Y-63971484D01*
X109478994Y-64048726D01*
X109631879Y-64277534D01*
X109826464Y-64472119D01*
X110055272Y-64625004D01*
X110309509Y-64730313D01*
X110579407Y-64783999D01*
X110854591Y-64783999D01*
X111124489Y-64730313D01*
X111378726Y-64625004D01*
X111607534Y-64472119D01*
X111802119Y-64277534D01*
X111955004Y-64048726D01*
X111986999Y-63971484D01*
X112018994Y-64048726D01*
X112171879Y-64277534D01*
X112366464Y-64472119D01*
X112595272Y-64625004D01*
X112849509Y-64730313D01*
X113119407Y-64783999D01*
X113394591Y-64783999D01*
X113664489Y-64730313D01*
X113918726Y-64625004D01*
X114147534Y-64472119D01*
X114267089Y-64352564D01*
X115011039Y-64352564D01*
X115078019Y-64592655D01*
X115327047Y-64709755D01*
X115594134Y-64776022D01*
X115869016Y-64788909D01*
X116141132Y-64747921D01*
X116400022Y-64654635D01*
X116515979Y-64592655D01*
X116582959Y-64352564D01*
X115796999Y-63566604D01*
X115011039Y-64352564D01*
X114267089Y-64352564D01*
X114342119Y-64277534D01*
X114495004Y-64048726D01*
X114524691Y-63977056D01*
X114529363Y-63990022D01*
X114591343Y-64105979D01*
X114831434Y-64172959D01*
X115617394Y-63386999D01*
X115976604Y-63386999D01*
X116762564Y-64172959D01*
X117002655Y-64105979D01*
X117066484Y-63970239D01*
X117098994Y-64048726D01*
X117251879Y-64277534D01*
X117446464Y-64472119D01*
X117675272Y-64625004D01*
X117929509Y-64730313D01*
X118199407Y-64783999D01*
X118474591Y-64783999D01*
X118744489Y-64730313D01*
X118998726Y-64625004D01*
X119227534Y-64472119D01*
X119422119Y-64277534D01*
X119575004Y-64048726D01*
X119606999Y-63971484D01*
X119638994Y-64048726D01*
X119791879Y-64277534D01*
X119986464Y-64472119D01*
X120215272Y-64625004D01*
X120469509Y-64730313D01*
X120739407Y-64783999D01*
X121014591Y-64783999D01*
X121284489Y-64730313D01*
X121538726Y-64625004D01*
X121767534Y-64472119D01*
X121962119Y-64277534D01*
X122115004Y-64048726D01*
X122146999Y-63971484D01*
X122178994Y-64048726D01*
X122331879Y-64277534D01*
X122526464Y-64472119D01*
X122755272Y-64625004D01*
X122832514Y-64656999D01*
X122755272Y-64688994D01*
X122526464Y-64841879D01*
X122331879Y-65036464D01*
X122178994Y-65265272D01*
X122073685Y-65519509D01*
X122019999Y-65789407D01*
X122019999Y-66064591D01*
X122073685Y-66334489D01*
X122178994Y-66588726D01*
X122331879Y-66817534D01*
X122526464Y-67012119D01*
X122755272Y-67165004D01*
X122832514Y-67196999D01*
X122755272Y-67228994D01*
X122526464Y-67381879D01*
X122331879Y-67576464D01*
X122178994Y-67805272D01*
X122073685Y-68059509D01*
X122019999Y-68329407D01*
X122019999Y-68604591D01*
X122073685Y-68874489D01*
X122178994Y-69128726D01*
X122331879Y-69357534D01*
X122526464Y-69552119D01*
X122755272Y-69705004D01*
X122832514Y-69736999D01*
X122755272Y-69768994D01*
X122526464Y-69921879D01*
X122331879Y-70116464D01*
X122178994Y-70345272D01*
X122073685Y-70599509D01*
X122019999Y-70869407D01*
X122019999Y-71144591D01*
X122073685Y-71414489D01*
X122178994Y-71668726D01*
X122331879Y-71897534D01*
X122526464Y-72092119D01*
X122755272Y-72245004D01*
X122832514Y-72276999D01*
X122755272Y-72308994D01*
X122526464Y-72461879D01*
X122331879Y-72656464D01*
X122178994Y-72885272D01*
X122073685Y-73139509D01*
X122019999Y-73409407D01*
X122019999Y-73684591D01*
X122073685Y-73954489D01*
X122178994Y-74208726D01*
X122331879Y-74437534D01*
X122526464Y-74632119D01*
X122755272Y-74785004D01*
X122832514Y-74816999D01*
X122755272Y-74848994D01*
X122526464Y-75001879D01*
X122331879Y-75196464D01*
X122178994Y-75425272D01*
X122073685Y-75679509D01*
X122019999Y-75949407D01*
X122019999Y-76224591D01*
X122073685Y-76494489D01*
X122178994Y-76748726D01*
X122331879Y-76977534D01*
X122526464Y-77172119D01*
X122755272Y-77325004D01*
X122832514Y-77356999D01*
X122755272Y-77388994D01*
X122526464Y-77541879D01*
X122331879Y-77736464D01*
X122178994Y-77965272D01*
X122073685Y-78219509D01*
X122019999Y-78489407D01*
X122019999Y-78764591D01*
X122073685Y-79034489D01*
X122178994Y-79288726D01*
X122331879Y-79517534D01*
X122526464Y-79712119D01*
X122755272Y-79865004D01*
X122832514Y-79896999D01*
X122755272Y-79928994D01*
X122526464Y-80081879D01*
X122331879Y-80276464D01*
X122178994Y-80505272D01*
X122073685Y-80759509D01*
X122019999Y-81029407D01*
X122019999Y-81304591D01*
X122073685Y-81574489D01*
X122178994Y-81828726D01*
X122331879Y-82057534D01*
X122526464Y-82252119D01*
X122755272Y-82405004D01*
X122832514Y-82436999D01*
X122755272Y-82468994D01*
X122526464Y-82621879D01*
X122331879Y-82816464D01*
X122178994Y-83045272D01*
X122073685Y-83299509D01*
X122019999Y-83569407D01*
X122019999Y-83844591D01*
X122073685Y-84114489D01*
X122178994Y-84368726D01*
X122331879Y-84597534D01*
X122526464Y-84792119D01*
X122755272Y-84945004D01*
X122832514Y-84976999D01*
X122755272Y-85008994D01*
X122526464Y-85161879D01*
X122331879Y-85356464D01*
X122178994Y-85585272D01*
X122073685Y-85839509D01*
X122019999Y-86109407D01*
X122019999Y-86384591D01*
X122073685Y-86654489D01*
X122178994Y-86908726D01*
X122331879Y-87137534D01*
X122526464Y-87332119D01*
X122755272Y-87485004D01*
X122832514Y-87516999D01*
X122755272Y-87548994D01*
X122526464Y-87701879D01*
X122331879Y-87896464D01*
X122178994Y-88125272D01*
X122073685Y-88379509D01*
X122019999Y-88649407D01*
X122019999Y-88924591D01*
X122073685Y-89194489D01*
X122178994Y-89448726D01*
X122331879Y-89677534D01*
X122526464Y-89872119D01*
X122755272Y-90025004D01*
X122832514Y-90056999D01*
X122755272Y-90088994D01*
X122526464Y-90241879D01*
X122331879Y-90436464D01*
X122178994Y-90665272D01*
X122073685Y-90919509D01*
X122019999Y-91189407D01*
X122019999Y-91464591D01*
X122073685Y-91734489D01*
X122178994Y-91988726D01*
X122331879Y-92217534D01*
X122526464Y-92412119D01*
X122755272Y-92565004D01*
X122832514Y-92596999D01*
X122755272Y-92628994D01*
X122526464Y-92781879D01*
X122331879Y-92976464D01*
X122178994Y-93205272D01*
X122073685Y-93459509D01*
X122019999Y-93729407D01*
X122019999Y-94004591D01*
X122073685Y-94274489D01*
X122178994Y-94528726D01*
X122331879Y-94757534D01*
X122526464Y-94952119D01*
X122755272Y-95105004D01*
X122826942Y-95134691D01*
X122813976Y-95139363D01*
X122698019Y-95201343D01*
X122631039Y-95441434D01*
X123416999Y-96227394D01*
X124202959Y-95441434D01*
X124135979Y-95201343D01*
X124000239Y-95137514D01*
X124078726Y-95105004D01*
X124307534Y-94952119D01*
X124502119Y-94757534D01*
X124655004Y-94528726D01*
X124760313Y-94274489D01*
X124813999Y-94004591D01*
X124813999Y-93729407D01*
X124760313Y-93459509D01*
X124655004Y-93205272D01*
X124502119Y-92976464D01*
X124307534Y-92781879D01*
X124078726Y-92628994D01*
X124001484Y-92596999D01*
X124078726Y-92565004D01*
X124307534Y-92412119D01*
X124502119Y-92217534D01*
X124655004Y-91988726D01*
X124760313Y-91734489D01*
X124813999Y-91464591D01*
X124813999Y-91189407D01*
X124760313Y-90919509D01*
X124655004Y-90665272D01*
X124502119Y-90436464D01*
X124307534Y-90241879D01*
X124078726Y-90088994D01*
X124001484Y-90056999D01*
X124078726Y-90025004D01*
X124307534Y-89872119D01*
X124502119Y-89677534D01*
X124655004Y-89448726D01*
X124760313Y-89194489D01*
X124813999Y-88924591D01*
X124813999Y-88762408D01*
X125603000Y-88762408D01*
X125603000Y-89037592D01*
X125656686Y-89307490D01*
X125761995Y-89561727D01*
X125914880Y-89790535D01*
X126109465Y-89985120D01*
X126338273Y-90138005D01*
X126415515Y-90170000D01*
X126338273Y-90201995D01*
X126109465Y-90354880D01*
X125914880Y-90549465D01*
X125761995Y-90778273D01*
X125656686Y-91032510D01*
X125603000Y-91302408D01*
X125603000Y-91577592D01*
X125656686Y-91847490D01*
X125761995Y-92101727D01*
X125914880Y-92330535D01*
X126109465Y-92525120D01*
X126338273Y-92678005D01*
X126415515Y-92710000D01*
X126338273Y-92741995D01*
X126109465Y-92894880D01*
X125914880Y-93089465D01*
X125761995Y-93318273D01*
X125656686Y-93572510D01*
X125603000Y-93842408D01*
X125603000Y-94117592D01*
X125656686Y-94387490D01*
X125761995Y-94641727D01*
X125914880Y-94870535D01*
X126109465Y-95065120D01*
X126338273Y-95218005D01*
X126409943Y-95247692D01*
X126396977Y-95252364D01*
X126281020Y-95314344D01*
X126214040Y-95554435D01*
X127000000Y-96340395D01*
X127785960Y-95554435D01*
X127718980Y-95314344D01*
X127583240Y-95250515D01*
X127661727Y-95218005D01*
X127890535Y-95065120D01*
X128085120Y-94870535D01*
X128238005Y-94641727D01*
X128343314Y-94387490D01*
X128397000Y-94117592D01*
X128397000Y-93842408D01*
X128343314Y-93572510D01*
X128238005Y-93318273D01*
X128085120Y-93089465D01*
X127890535Y-92894880D01*
X127661727Y-92741995D01*
X127584485Y-92710000D01*
X127661727Y-92678005D01*
X127890535Y-92525120D01*
X128085120Y-92330535D01*
X128238005Y-92101727D01*
X128343314Y-91847490D01*
X128397000Y-91577592D01*
X128397000Y-91302408D01*
X128343314Y-91032510D01*
X128238005Y-90778273D01*
X128085120Y-90549465D01*
X127890535Y-90354880D01*
X127661727Y-90201995D01*
X127584485Y-90170000D01*
X127661727Y-90138005D01*
X127890535Y-89985120D01*
X128085120Y-89790535D01*
X128238005Y-89561727D01*
X128343314Y-89307490D01*
X128397000Y-89037592D01*
X128397000Y-88762408D01*
X128343314Y-88492510D01*
X128238005Y-88238273D01*
X128085120Y-88009465D01*
X127890535Y-87814880D01*
X127661727Y-87661995D01*
X127407490Y-87556686D01*
X127137592Y-87503000D01*
X126862408Y-87503000D01*
X126592510Y-87556686D01*
X126338273Y-87661995D01*
X126109465Y-87814880D01*
X125914880Y-88009465D01*
X125761995Y-88238273D01*
X125656686Y-88492510D01*
X125603000Y-88762408D01*
X124813999Y-88762408D01*
X124813999Y-88649407D01*
X124760313Y-88379509D01*
X124655004Y-88125272D01*
X124502119Y-87896464D01*
X124307534Y-87701879D01*
X124078726Y-87548994D01*
X124001484Y-87516999D01*
X124078726Y-87485004D01*
X124307534Y-87332119D01*
X124502119Y-87137534D01*
X124655004Y-86908726D01*
X124760313Y-86654489D01*
X124813999Y-86384591D01*
X124813999Y-86109407D01*
X124760313Y-85839509D01*
X124655004Y-85585272D01*
X124557294Y-85439039D01*
X125608096Y-85439039D01*
X125648754Y-85573087D01*
X125768963Y-85827420D01*
X125936481Y-86053414D01*
X126144869Y-86242385D01*
X126386119Y-86387070D01*
X126650960Y-86481909D01*
X126873000Y-86360624D01*
X126873000Y-85217000D01*
X127127000Y-85217000D01*
X127127000Y-86360624D01*
X127349040Y-86481909D01*
X127613881Y-86387070D01*
X127855131Y-86242385D01*
X128063519Y-86053414D01*
X128231037Y-85827420D01*
X128351246Y-85573087D01*
X128391904Y-85439039D01*
X128269915Y-85217000D01*
X127127000Y-85217000D01*
X126873000Y-85217000D01*
X125730085Y-85217000D01*
X125608096Y-85439039D01*
X124557294Y-85439039D01*
X124502119Y-85356464D01*
X124307534Y-85161879D01*
X124078726Y-85008994D01*
X124001484Y-84976999D01*
X124078726Y-84945004D01*
X124307534Y-84792119D01*
X124502119Y-84597534D01*
X124655004Y-84368726D01*
X124760313Y-84114489D01*
X124813999Y-83844591D01*
X124813999Y-83569407D01*
X124760313Y-83299509D01*
X124655004Y-83045272D01*
X124502119Y-82816464D01*
X124307534Y-82621879D01*
X124078726Y-82468994D01*
X124001484Y-82436999D01*
X124078726Y-82405004D01*
X124307534Y-82252119D01*
X124502119Y-82057534D01*
X124655004Y-81828726D01*
X124760313Y-81574489D01*
X124813999Y-81304591D01*
X124813999Y-81029407D01*
X124760313Y-80759509D01*
X124655004Y-80505272D01*
X124502119Y-80276464D01*
X124307534Y-80081879D01*
X124078726Y-79928994D01*
X124001484Y-79896999D01*
X124078726Y-79865004D01*
X124307534Y-79712119D01*
X124502119Y-79517534D01*
X124655004Y-79288726D01*
X124760313Y-79034489D01*
X124813999Y-78764591D01*
X124813999Y-78489407D01*
X124760313Y-78219509D01*
X124655004Y-77965272D01*
X124502119Y-77736464D01*
X124307534Y-77541879D01*
X124078726Y-77388994D01*
X124001484Y-77356999D01*
X124078726Y-77325004D01*
X124307534Y-77172119D01*
X124502119Y-76977534D01*
X124655004Y-76748726D01*
X124760313Y-76494489D01*
X124813999Y-76224591D01*
X124813999Y-75949407D01*
X124760313Y-75679509D01*
X124655004Y-75425272D01*
X124502119Y-75196464D01*
X124307534Y-75001879D01*
X124078726Y-74848994D01*
X124001484Y-74816999D01*
X124078726Y-74785004D01*
X124307534Y-74632119D01*
X124502119Y-74437534D01*
X124655004Y-74208726D01*
X124760313Y-73954489D01*
X124813999Y-73684591D01*
X124813999Y-73409407D01*
X124760313Y-73139509D01*
X124655004Y-72885272D01*
X124502119Y-72656464D01*
X124307534Y-72461879D01*
X124078726Y-72308994D01*
X124001484Y-72276999D01*
X124078726Y-72245004D01*
X124307534Y-72092119D01*
X124502119Y-71897534D01*
X124655004Y-71668726D01*
X124760313Y-71414489D01*
X124813999Y-71144591D01*
X124813999Y-70869407D01*
X124760313Y-70599509D01*
X124655004Y-70345272D01*
X124502119Y-70116464D01*
X124307534Y-69921879D01*
X124078726Y-69768994D01*
X124001484Y-69736999D01*
X124078726Y-69705004D01*
X124307534Y-69552119D01*
X124502119Y-69357534D01*
X124655004Y-69128726D01*
X124760313Y-68874489D01*
X124813999Y-68604591D01*
X124813999Y-68329407D01*
X124760313Y-68059509D01*
X124655004Y-67805272D01*
X124502119Y-67576464D01*
X124307534Y-67381879D01*
X124078726Y-67228994D01*
X124001484Y-67196999D01*
X124078726Y-67165004D01*
X124307534Y-67012119D01*
X124502119Y-66817534D01*
X124655004Y-66588726D01*
X124760313Y-66334489D01*
X124813999Y-66064591D01*
X124813999Y-65789407D01*
X124760313Y-65519509D01*
X124655004Y-65265272D01*
X124502119Y-65036464D01*
X124307534Y-64841879D01*
X124078726Y-64688994D01*
X124001484Y-64656999D01*
X124078726Y-64625004D01*
X124307534Y-64472119D01*
X124502119Y-64277534D01*
X124655004Y-64048726D01*
X124687613Y-63970000D01*
X125561928Y-63970000D01*
X125561928Y-65570000D01*
X125574188Y-65694482D01*
X125610498Y-65814180D01*
X125669463Y-65924494D01*
X125748815Y-66021185D01*
X125845506Y-66100537D01*
X125955820Y-66159502D01*
X126075518Y-66195812D01*
X126083961Y-66196643D01*
X125885363Y-66395241D01*
X125728320Y-66630273D01*
X125620147Y-66891426D01*
X125565000Y-67168665D01*
X125565000Y-67451335D01*
X125620147Y-67728574D01*
X125728320Y-67989727D01*
X125885363Y-68224759D01*
X126085241Y-68424637D01*
X126317759Y-68580000D01*
X126085241Y-68735363D01*
X125885363Y-68935241D01*
X125728320Y-69170273D01*
X125620147Y-69431426D01*
X125565000Y-69708665D01*
X125565000Y-69991335D01*
X125620147Y-70268574D01*
X125728320Y-70529727D01*
X125885363Y-70764759D01*
X126085241Y-70964637D01*
X126317759Y-71120000D01*
X126085241Y-71275363D01*
X125885363Y-71475241D01*
X125728320Y-71710273D01*
X125620147Y-71971426D01*
X125565000Y-72248665D01*
X125565000Y-72531335D01*
X125620147Y-72808574D01*
X125728320Y-73069727D01*
X125885363Y-73304759D01*
X126085241Y-73504637D01*
X126317759Y-73660000D01*
X126085241Y-73815363D01*
X125885363Y-74015241D01*
X125728320Y-74250273D01*
X125620147Y-74511426D01*
X125565000Y-74788665D01*
X125565000Y-75071335D01*
X125620147Y-75348574D01*
X125728320Y-75609727D01*
X125885363Y-75844759D01*
X126085241Y-76044637D01*
X126317759Y-76200000D01*
X126085241Y-76355363D01*
X125885363Y-76555241D01*
X125728320Y-76790273D01*
X125620147Y-77051426D01*
X125565000Y-77328665D01*
X125565000Y-77611335D01*
X125620147Y-77888574D01*
X125728320Y-78149727D01*
X125885363Y-78384759D01*
X126085241Y-78584637D01*
X126317759Y-78740000D01*
X126085241Y-78895363D01*
X125885363Y-79095241D01*
X125728320Y-79330273D01*
X125620147Y-79591426D01*
X125565000Y-79868665D01*
X125565000Y-80151335D01*
X125620147Y-80428574D01*
X125728320Y-80689727D01*
X125885363Y-80924759D01*
X126085241Y-81124637D01*
X126317759Y-81280000D01*
X126085241Y-81435363D01*
X125885363Y-81635241D01*
X125728320Y-81870273D01*
X125620147Y-82131426D01*
X125565000Y-82408665D01*
X125565000Y-82691335D01*
X125620147Y-82968574D01*
X125728320Y-83229727D01*
X125885363Y-83464759D01*
X126085241Y-83664637D01*
X126320273Y-83821680D01*
X126330865Y-83826067D01*
X126144869Y-83937615D01*
X125936481Y-84126586D01*
X125768963Y-84352580D01*
X125648754Y-84606913D01*
X125608096Y-84740961D01*
X125730085Y-84963000D01*
X126873000Y-84963000D01*
X126873000Y-84943000D01*
X127127000Y-84943000D01*
X127127000Y-84963000D01*
X128269915Y-84963000D01*
X128391904Y-84740961D01*
X128351246Y-84606913D01*
X128231037Y-84352580D01*
X128063519Y-84126586D01*
X127855131Y-83937615D01*
X127669135Y-83826067D01*
X127679727Y-83821680D01*
X127914759Y-83664637D01*
X128114637Y-83464759D01*
X128271680Y-83229727D01*
X128379853Y-82968574D01*
X128435000Y-82691335D01*
X128435000Y-82408665D01*
X128379853Y-82131426D01*
X128271680Y-81870273D01*
X128114637Y-81635241D01*
X127914759Y-81435363D01*
X127682241Y-81280000D01*
X127914759Y-81124637D01*
X128114637Y-80924759D01*
X128271680Y-80689727D01*
X128379853Y-80428574D01*
X128435000Y-80151335D01*
X128435000Y-79868665D01*
X128379853Y-79591426D01*
X128271680Y-79330273D01*
X128114637Y-79095241D01*
X127914759Y-78895363D01*
X127682241Y-78740000D01*
X127914759Y-78584637D01*
X128114637Y-78384759D01*
X128271680Y-78149727D01*
X128379853Y-77888574D01*
X128435000Y-77611335D01*
X128435000Y-77328665D01*
X128379853Y-77051426D01*
X128271680Y-76790273D01*
X128114637Y-76555241D01*
X127914759Y-76355363D01*
X127682241Y-76200000D01*
X127914759Y-76044637D01*
X128114637Y-75844759D01*
X128271680Y-75609727D01*
X128379853Y-75348574D01*
X128435000Y-75071335D01*
X128435000Y-74788665D01*
X128379853Y-74511426D01*
X128271680Y-74250273D01*
X128114637Y-74015241D01*
X127914759Y-73815363D01*
X127682241Y-73660000D01*
X127914759Y-73504637D01*
X128114637Y-73304759D01*
X128271680Y-73069727D01*
X128379853Y-72808574D01*
X128435000Y-72531335D01*
X128435000Y-72248665D01*
X128379853Y-71971426D01*
X128271680Y-71710273D01*
X128114637Y-71475241D01*
X127914759Y-71275363D01*
X127682241Y-71120000D01*
X127914759Y-70964637D01*
X128114637Y-70764759D01*
X128271680Y-70529727D01*
X128379853Y-70268574D01*
X128435000Y-69991335D01*
X128435000Y-69708665D01*
X128379853Y-69431426D01*
X128271680Y-69170273D01*
X128114637Y-68935241D01*
X127914759Y-68735363D01*
X127682241Y-68580000D01*
X127914759Y-68424637D01*
X128114637Y-68224759D01*
X128271680Y-67989727D01*
X128379853Y-67728574D01*
X128435000Y-67451335D01*
X128435000Y-67168665D01*
X128379853Y-66891426D01*
X128271680Y-66630273D01*
X128114637Y-66395241D01*
X127916039Y-66196643D01*
X127924482Y-66195812D01*
X128044180Y-66159502D01*
X128154494Y-66100537D01*
X128251185Y-66021185D01*
X128330537Y-65924494D01*
X128389502Y-65814180D01*
X128425812Y-65694482D01*
X128438072Y-65570000D01*
X128438072Y-64628665D01*
X133185000Y-64628665D01*
X133185000Y-64911335D01*
X133240147Y-65188574D01*
X133348320Y-65449727D01*
X133505363Y-65684759D01*
X133705241Y-65884637D01*
X133937759Y-66040000D01*
X133705241Y-66195363D01*
X133505363Y-66395241D01*
X133348320Y-66630273D01*
X133240147Y-66891426D01*
X133185000Y-67168665D01*
X133185000Y-67451335D01*
X133240147Y-67728574D01*
X133348320Y-67989727D01*
X133505363Y-68224759D01*
X133705241Y-68424637D01*
X133937759Y-68580000D01*
X133705241Y-68735363D01*
X133505363Y-68935241D01*
X133348320Y-69170273D01*
X133240147Y-69431426D01*
X133185000Y-69708665D01*
X133185000Y-69991335D01*
X133240147Y-70268574D01*
X133348320Y-70529727D01*
X133505363Y-70764759D01*
X133705241Y-70964637D01*
X133937759Y-71120000D01*
X133705241Y-71275363D01*
X133505363Y-71475241D01*
X133348320Y-71710273D01*
X133240147Y-71971426D01*
X133185000Y-72248665D01*
X133185000Y-72531335D01*
X133240147Y-72808574D01*
X133348320Y-73069727D01*
X133505363Y-73304759D01*
X133705241Y-73504637D01*
X133937759Y-73660000D01*
X133705241Y-73815363D01*
X133505363Y-74015241D01*
X133348320Y-74250273D01*
X133240147Y-74511426D01*
X133185000Y-74788665D01*
X133185000Y-75071335D01*
X133240147Y-75348574D01*
X133348320Y-75609727D01*
X133505363Y-75844759D01*
X133705241Y-76044637D01*
X133937759Y-76200000D01*
X133705241Y-76355363D01*
X133505363Y-76555241D01*
X133348320Y-76790273D01*
X133240147Y-77051426D01*
X133185000Y-77328665D01*
X133185000Y-77611335D01*
X133240147Y-77888574D01*
X133348320Y-78149727D01*
X133505363Y-78384759D01*
X133705241Y-78584637D01*
X133937759Y-78740000D01*
X133705241Y-78895363D01*
X133505363Y-79095241D01*
X133348320Y-79330273D01*
X133240147Y-79591426D01*
X133185000Y-79868665D01*
X133185000Y-80151335D01*
X133240147Y-80428574D01*
X133348320Y-80689727D01*
X133505363Y-80924759D01*
X133705241Y-81124637D01*
X133937759Y-81280000D01*
X133705241Y-81435363D01*
X133505363Y-81635241D01*
X133348320Y-81870273D01*
X133240147Y-82131426D01*
X133185000Y-82408665D01*
X133185000Y-82691335D01*
X133240147Y-82968574D01*
X133348320Y-83229727D01*
X133505363Y-83464759D01*
X133705241Y-83664637D01*
X133937759Y-83820000D01*
X133705241Y-83975363D01*
X133505363Y-84175241D01*
X133348320Y-84410273D01*
X133240147Y-84671426D01*
X133185000Y-84948665D01*
X133185000Y-85231335D01*
X133240147Y-85508574D01*
X133348320Y-85769727D01*
X133505363Y-86004759D01*
X133705241Y-86204637D01*
X133940273Y-86361680D01*
X134201426Y-86469853D01*
X134478665Y-86525000D01*
X134761335Y-86525000D01*
X135038574Y-86469853D01*
X135299727Y-86361680D01*
X135534759Y-86204637D01*
X135734637Y-86004759D01*
X135891680Y-85769727D01*
X135999853Y-85508574D01*
X136055000Y-85231335D01*
X136055000Y-84948665D01*
X135999853Y-84671426D01*
X135891680Y-84410273D01*
X135734637Y-84175241D01*
X135534759Y-83975363D01*
X135302241Y-83820000D01*
X135534759Y-83664637D01*
X135734637Y-83464759D01*
X135891680Y-83229727D01*
X135999853Y-82968574D01*
X136055000Y-82691335D01*
X136055000Y-82408665D01*
X135999853Y-82131426D01*
X135891680Y-81870273D01*
X135734637Y-81635241D01*
X135534759Y-81435363D01*
X135302241Y-81280000D01*
X135534759Y-81124637D01*
X135734637Y-80924759D01*
X135891680Y-80689727D01*
X135999853Y-80428574D01*
X136055000Y-80151335D01*
X136055000Y-79868665D01*
X135999853Y-79591426D01*
X135891680Y-79330273D01*
X135734637Y-79095241D01*
X135534759Y-78895363D01*
X135302241Y-78740000D01*
X135534759Y-78584637D01*
X135734637Y-78384759D01*
X135891680Y-78149727D01*
X135999853Y-77888574D01*
X136055000Y-77611335D01*
X136055000Y-77328665D01*
X135999853Y-77051426D01*
X135891680Y-76790273D01*
X135734637Y-76555241D01*
X135534759Y-76355363D01*
X135302241Y-76200000D01*
X135534759Y-76044637D01*
X135734637Y-75844759D01*
X135891680Y-75609727D01*
X135999853Y-75348574D01*
X136055000Y-75071335D01*
X136055000Y-74788665D01*
X135999853Y-74511426D01*
X135891680Y-74250273D01*
X135734637Y-74015241D01*
X135534759Y-73815363D01*
X135302241Y-73660000D01*
X135534759Y-73504637D01*
X135734637Y-73304759D01*
X135891680Y-73069727D01*
X135999853Y-72808574D01*
X136055000Y-72531335D01*
X136055000Y-72248665D01*
X135999853Y-71971426D01*
X135891680Y-71710273D01*
X135734637Y-71475241D01*
X135534759Y-71275363D01*
X135302241Y-71120000D01*
X135534759Y-70964637D01*
X135734637Y-70764759D01*
X135891680Y-70529727D01*
X135999853Y-70268574D01*
X136055000Y-69991335D01*
X136055000Y-69708665D01*
X135999853Y-69431426D01*
X135891680Y-69170273D01*
X135734637Y-68935241D01*
X135534759Y-68735363D01*
X135302241Y-68580000D01*
X135534759Y-68424637D01*
X135734637Y-68224759D01*
X135891680Y-67989727D01*
X135999853Y-67728574D01*
X136055000Y-67451335D01*
X136055000Y-67168665D01*
X135999853Y-66891426D01*
X135891680Y-66630273D01*
X135734637Y-66395241D01*
X135534759Y-66195363D01*
X135302241Y-66040000D01*
X135534759Y-65884637D01*
X135734637Y-65684759D01*
X135891680Y-65449727D01*
X135999262Y-65190000D01*
X136941928Y-65190000D01*
X136941928Y-66890000D01*
X136954188Y-67014482D01*
X136990498Y-67134180D01*
X137049463Y-67244494D01*
X137128815Y-67341185D01*
X137225506Y-67420537D01*
X137335820Y-67479502D01*
X137408380Y-67501513D01*
X137276525Y-67633368D01*
X137114010Y-67876589D01*
X137002068Y-68146842D01*
X136945000Y-68433740D01*
X136945000Y-68726260D01*
X137002068Y-69013158D01*
X137114010Y-69283411D01*
X137276525Y-69526632D01*
X137483368Y-69733475D01*
X137657760Y-69850000D01*
X137483368Y-69966525D01*
X137276525Y-70173368D01*
X137114010Y-70416589D01*
X137002068Y-70686842D01*
X136945000Y-70973740D01*
X136945000Y-71266260D01*
X137002068Y-71553158D01*
X137114010Y-71823411D01*
X137276525Y-72066632D01*
X137483368Y-72273475D01*
X137657760Y-72390000D01*
X137483368Y-72506525D01*
X137276525Y-72713368D01*
X137114010Y-72956589D01*
X137002068Y-73226842D01*
X136945000Y-73513740D01*
X136945000Y-73806260D01*
X137002068Y-74093158D01*
X137114010Y-74363411D01*
X137276525Y-74606632D01*
X137483368Y-74813475D01*
X137657760Y-74930000D01*
X137483368Y-75046525D01*
X137276525Y-75253368D01*
X137114010Y-75496589D01*
X137002068Y-75766842D01*
X136945000Y-76053740D01*
X136945000Y-76346260D01*
X137002068Y-76633158D01*
X137114010Y-76903411D01*
X137276525Y-77146632D01*
X137483368Y-77353475D01*
X137657760Y-77470000D01*
X137483368Y-77586525D01*
X137276525Y-77793368D01*
X137114010Y-78036589D01*
X137002068Y-78306842D01*
X136945000Y-78593740D01*
X136945000Y-78886260D01*
X137002068Y-79173158D01*
X137114010Y-79443411D01*
X137276525Y-79686632D01*
X137483368Y-79893475D01*
X137657760Y-80010000D01*
X137483368Y-80126525D01*
X137276525Y-80333368D01*
X137114010Y-80576589D01*
X137002068Y-80846842D01*
X136945000Y-81133740D01*
X136945000Y-81426260D01*
X137002068Y-81713158D01*
X137114010Y-81983411D01*
X137276525Y-82226632D01*
X137483368Y-82433475D01*
X137657760Y-82550000D01*
X137483368Y-82666525D01*
X137276525Y-82873368D01*
X137114010Y-83116589D01*
X137002068Y-83386842D01*
X136945000Y-83673740D01*
X136945000Y-83966260D01*
X137002068Y-84253158D01*
X137114010Y-84523411D01*
X137276525Y-84766632D01*
X137483368Y-84973475D01*
X137726589Y-85135990D01*
X137996842Y-85247932D01*
X138283740Y-85305000D01*
X138576260Y-85305000D01*
X138863158Y-85247932D01*
X139133411Y-85135990D01*
X139376632Y-84973475D01*
X139583475Y-84766632D01*
X139700000Y-84592240D01*
X139816525Y-84766632D01*
X140023368Y-84973475D01*
X140266589Y-85135990D01*
X140536842Y-85247932D01*
X140823740Y-85305000D01*
X141116260Y-85305000D01*
X141403158Y-85247932D01*
X141673411Y-85135990D01*
X141916632Y-84973475D01*
X142123475Y-84766632D01*
X142285990Y-84523411D01*
X142397932Y-84253158D01*
X142455000Y-83966260D01*
X142455000Y-83673740D01*
X142397932Y-83386842D01*
X142285990Y-83116589D01*
X142123475Y-82873368D01*
X141916632Y-82666525D01*
X141742240Y-82550000D01*
X141916632Y-82433475D01*
X142123475Y-82226632D01*
X142285990Y-81983411D01*
X142397932Y-81713158D01*
X142455000Y-81426260D01*
X142455000Y-81133740D01*
X142397932Y-80846842D01*
X142285990Y-80576589D01*
X142123475Y-80333368D01*
X141916632Y-80126525D01*
X141742240Y-80010000D01*
X141916632Y-79893475D01*
X142123475Y-79686632D01*
X142285990Y-79443411D01*
X142397932Y-79173158D01*
X142455000Y-78886260D01*
X142455000Y-78593740D01*
X142397932Y-78306842D01*
X142285990Y-78036589D01*
X142123475Y-77793368D01*
X141916632Y-77586525D01*
X141742240Y-77470000D01*
X141916632Y-77353475D01*
X142123475Y-77146632D01*
X142285990Y-76903411D01*
X142397932Y-76633158D01*
X142455000Y-76346260D01*
X142455000Y-76053740D01*
X142397932Y-75766842D01*
X142285990Y-75496589D01*
X142123475Y-75253368D01*
X141916632Y-75046525D01*
X141742240Y-74930000D01*
X141916632Y-74813475D01*
X142123475Y-74606632D01*
X142285990Y-74363411D01*
X142397932Y-74093158D01*
X142455000Y-73806260D01*
X142455000Y-73513740D01*
X142397932Y-73226842D01*
X142285990Y-72956589D01*
X142123475Y-72713368D01*
X141916632Y-72506525D01*
X141742240Y-72390000D01*
X141916632Y-72273475D01*
X142123475Y-72066632D01*
X142285990Y-71823411D01*
X142397932Y-71553158D01*
X142455000Y-71266260D01*
X142455000Y-70973740D01*
X142397932Y-70686842D01*
X142285990Y-70416589D01*
X142123475Y-70173368D01*
X141916632Y-69966525D01*
X141742240Y-69850000D01*
X141916632Y-69733475D01*
X142123475Y-69526632D01*
X142285990Y-69283411D01*
X142397932Y-69013158D01*
X142455000Y-68726260D01*
X142455000Y-68433740D01*
X142397932Y-68146842D01*
X142285990Y-67876589D01*
X142123475Y-67633368D01*
X141916632Y-67426525D01*
X141742240Y-67310000D01*
X141916632Y-67193475D01*
X142123475Y-66986632D01*
X142285990Y-66743411D01*
X142397932Y-66473158D01*
X142455000Y-66186260D01*
X142455000Y-65893740D01*
X142397932Y-65606842D01*
X142285990Y-65336589D01*
X142123475Y-65093368D01*
X141916632Y-64886525D01*
X141673411Y-64724010D01*
X141403158Y-64612068D01*
X141116260Y-64555000D01*
X140823740Y-64555000D01*
X140536842Y-64612068D01*
X140266589Y-64724010D01*
X140023368Y-64886525D01*
X139891513Y-65018380D01*
X139869502Y-64945820D01*
X139810537Y-64835506D01*
X139731185Y-64738815D01*
X139634494Y-64659463D01*
X139524180Y-64600498D01*
X139404482Y-64564188D01*
X139280000Y-64551928D01*
X137580000Y-64551928D01*
X137455518Y-64564188D01*
X137335820Y-64600498D01*
X137225506Y-64659463D01*
X137128815Y-64738815D01*
X137049463Y-64835506D01*
X136990498Y-64945820D01*
X136954188Y-65065518D01*
X136941928Y-65190000D01*
X135999262Y-65190000D01*
X135999853Y-65188574D01*
X136055000Y-64911335D01*
X136055000Y-64628665D01*
X135999853Y-64351426D01*
X135891680Y-64090273D01*
X135734637Y-63855241D01*
X135534759Y-63655363D01*
X135299727Y-63498320D01*
X135038574Y-63390147D01*
X134761335Y-63335000D01*
X134478665Y-63335000D01*
X134201426Y-63390147D01*
X133940273Y-63498320D01*
X133705241Y-63655363D01*
X133505363Y-63855241D01*
X133348320Y-64090273D01*
X133240147Y-64351426D01*
X133185000Y-64628665D01*
X128438072Y-64628665D01*
X128438072Y-63970000D01*
X128425812Y-63845518D01*
X128389502Y-63725820D01*
X128330537Y-63615506D01*
X128251185Y-63518815D01*
X128154494Y-63439463D01*
X128044180Y-63380498D01*
X127924482Y-63344188D01*
X127800000Y-63331928D01*
X126200000Y-63331928D01*
X126075518Y-63344188D01*
X125955820Y-63380498D01*
X125845506Y-63439463D01*
X125748815Y-63518815D01*
X125669463Y-63615506D01*
X125610498Y-63725820D01*
X125574188Y-63845518D01*
X125561928Y-63970000D01*
X124687613Y-63970000D01*
X124760313Y-63794489D01*
X124813999Y-63524591D01*
X124813999Y-63249407D01*
X124760313Y-62979509D01*
X124655004Y-62725272D01*
X124502119Y-62496464D01*
X124307534Y-62301879D01*
X124078726Y-62148994D01*
X123824489Y-62043685D01*
X123554591Y-61989999D01*
X123279407Y-61989999D01*
X123009509Y-62043685D01*
X122755272Y-62148994D01*
X122526464Y-62301879D01*
X122331879Y-62496464D01*
X122178994Y-62725272D01*
X122146999Y-62802514D01*
X122115004Y-62725272D01*
X121962119Y-62496464D01*
X121767534Y-62301879D01*
X121538726Y-62148994D01*
X121284489Y-62043685D01*
X121014591Y-61989999D01*
X120739407Y-61989999D01*
X120469509Y-62043685D01*
X120215272Y-62148994D01*
X119986464Y-62301879D01*
X119791879Y-62496464D01*
X119638994Y-62725272D01*
X119606999Y-62802514D01*
X119575004Y-62725272D01*
X119422119Y-62496464D01*
X119227534Y-62301879D01*
X118998726Y-62148994D01*
X118744489Y-62043685D01*
X118474591Y-61989999D01*
X118199407Y-61989999D01*
X117929509Y-62043685D01*
X117675272Y-62148994D01*
X117446464Y-62301879D01*
X117251879Y-62496464D01*
X117098994Y-62725272D01*
X117069307Y-62796942D01*
X117064635Y-62783976D01*
X117002655Y-62668019D01*
X116762564Y-62601039D01*
X115976604Y-63386999D01*
X115617394Y-63386999D01*
X114831434Y-62601039D01*
X114591343Y-62668019D01*
X114527514Y-62803759D01*
X114495004Y-62725272D01*
X114342119Y-62496464D01*
X114267089Y-62421434D01*
X115011039Y-62421434D01*
X115796999Y-63207394D01*
X116582959Y-62421434D01*
X116515979Y-62181343D01*
X116266951Y-62064243D01*
X115999864Y-61997976D01*
X115724982Y-61985089D01*
X115452866Y-62026077D01*
X115193976Y-62119363D01*
X115078019Y-62181343D01*
X115011039Y-62421434D01*
X114267089Y-62421434D01*
X114147534Y-62301879D01*
X113918726Y-62148994D01*
X113664489Y-62043685D01*
X113394591Y-61989999D01*
X113119407Y-61989999D01*
X112849509Y-62043685D01*
X112595272Y-62148994D01*
X112366464Y-62301879D01*
X112171879Y-62496464D01*
X112018994Y-62725272D01*
X111986999Y-62802514D01*
X111955004Y-62725272D01*
X111802119Y-62496464D01*
X111607534Y-62301879D01*
X111378726Y-62148994D01*
X111124489Y-62043685D01*
X110854591Y-61989999D01*
X110579407Y-61989999D01*
X110309509Y-62043685D01*
X110055272Y-62148994D01*
X109826464Y-62301879D01*
X109631879Y-62496464D01*
X109478994Y-62725272D01*
X109446999Y-62802514D01*
X109415004Y-62725272D01*
X109262119Y-62496464D01*
X109067534Y-62301879D01*
X108838726Y-62148994D01*
X108584489Y-62043685D01*
X108314591Y-61989999D01*
X108039407Y-61989999D01*
X107769509Y-62043685D01*
X107515272Y-62148994D01*
X107286464Y-62301879D01*
X107091879Y-62496464D01*
X106938994Y-62725272D01*
X106833685Y-62979509D01*
X106779999Y-63249407D01*
X104800000Y-63249407D01*
X104800000Y-58840000D01*
X110271928Y-58840000D01*
X110271928Y-60540000D01*
X110284188Y-60664482D01*
X110320498Y-60784180D01*
X110379463Y-60894494D01*
X110458815Y-60991185D01*
X110555506Y-61070537D01*
X110665820Y-61129502D01*
X110785518Y-61165812D01*
X110910000Y-61178072D01*
X112610000Y-61178072D01*
X112734482Y-61165812D01*
X112854180Y-61129502D01*
X112964494Y-61070537D01*
X113061185Y-60991185D01*
X113140537Y-60894494D01*
X113199502Y-60784180D01*
X113221513Y-60711620D01*
X113353368Y-60843475D01*
X113596589Y-61005990D01*
X113866842Y-61117932D01*
X114153740Y-61175000D01*
X114446260Y-61175000D01*
X114733158Y-61117932D01*
X115003411Y-61005990D01*
X115246632Y-60843475D01*
X115453475Y-60636632D01*
X115575195Y-60454466D01*
X115644822Y-60571355D01*
X115839731Y-60787588D01*
X116073080Y-60961641D01*
X116335901Y-61086825D01*
X116483110Y-61131476D01*
X116713000Y-61010155D01*
X116713000Y-59817000D01*
X116693000Y-59817000D01*
X116693000Y-59563000D01*
X116713000Y-59563000D01*
X116713000Y-58369845D01*
X116967000Y-58369845D01*
X116967000Y-59563000D01*
X116987000Y-59563000D01*
X116987000Y-59817000D01*
X116967000Y-59817000D01*
X116967000Y-61010155D01*
X117196890Y-61131476D01*
X117344099Y-61086825D01*
X117606920Y-60961641D01*
X117840269Y-60787588D01*
X118035178Y-60571355D01*
X118104805Y-60454466D01*
X118226525Y-60636632D01*
X118433368Y-60843475D01*
X118676589Y-61005990D01*
X118946842Y-61117932D01*
X119233740Y-61175000D01*
X119526260Y-61175000D01*
X119813158Y-61117932D01*
X120083411Y-61005990D01*
X120326632Y-60843475D01*
X120533475Y-60636632D01*
X120695990Y-60393411D01*
X120807932Y-60123158D01*
X120865000Y-59836260D01*
X120865000Y-59543740D01*
X120807932Y-59256842D01*
X120695990Y-58986589D01*
X120533475Y-58743368D01*
X120326632Y-58536525D01*
X120083411Y-58374010D01*
X119813158Y-58262068D01*
X119526260Y-58205000D01*
X119233740Y-58205000D01*
X118946842Y-58262068D01*
X118676589Y-58374010D01*
X118433368Y-58536525D01*
X118226525Y-58743368D01*
X118104805Y-58925534D01*
X118035178Y-58808645D01*
X117840269Y-58592412D01*
X117606920Y-58418359D01*
X117344099Y-58293175D01*
X117196890Y-58248524D01*
X116967000Y-58369845D01*
X116713000Y-58369845D01*
X116483110Y-58248524D01*
X116335901Y-58293175D01*
X116073080Y-58418359D01*
X115839731Y-58592412D01*
X115644822Y-58808645D01*
X115575195Y-58925534D01*
X115453475Y-58743368D01*
X115246632Y-58536525D01*
X115003411Y-58374010D01*
X114733158Y-58262068D01*
X114446260Y-58205000D01*
X114153740Y-58205000D01*
X113866842Y-58262068D01*
X113596589Y-58374010D01*
X113353368Y-58536525D01*
X113221513Y-58668380D01*
X113199502Y-58595820D01*
X113140537Y-58485506D01*
X113061185Y-58388815D01*
X112964494Y-58309463D01*
X112854180Y-58250498D01*
X112734482Y-58214188D01*
X112610000Y-58201928D01*
X110910000Y-58201928D01*
X110785518Y-58214188D01*
X110665820Y-58250498D01*
X110555506Y-58309463D01*
X110458815Y-58388815D01*
X110379463Y-58485506D01*
X110320498Y-58595820D01*
X110284188Y-58715518D01*
X110271928Y-58840000D01*
X104800000Y-58840000D01*
X104800000Y-58452279D01*
X104838909Y-58055455D01*
X104944780Y-57704792D01*
X105116744Y-57381375D01*
X105348254Y-57097516D01*
X105630486Y-56864035D01*
X105952695Y-56689817D01*
X106302614Y-56581498D01*
X106697443Y-56540000D01*
X142207721Y-56540000D01*
X142604545Y-56578909D01*
G37*
X142604545Y-56578909D02*
X142955208Y-56684780D01*
X143278625Y-56856744D01*
X143562484Y-57088254D01*
X143795965Y-57370486D01*
X143970183Y-57692695D01*
X144078502Y-58042614D01*
X144120000Y-58437443D01*
X144120001Y-59657572D01*
X144120000Y-59657582D01*
X144120001Y-63467581D01*
X144120000Y-116807721D01*
X144081091Y-117204545D01*
X143975220Y-117555206D01*
X143803257Y-117878623D01*
X143571748Y-118162482D01*
X143289514Y-118395965D01*
X142967304Y-118570184D01*
X142617385Y-118678502D01*
X142222557Y-118720000D01*
X106712279Y-118720000D01*
X106315455Y-118681091D01*
X105964794Y-118575220D01*
X105641377Y-118403257D01*
X105357518Y-118171748D01*
X105124035Y-117889514D01*
X104949816Y-117567304D01*
X104841498Y-117217385D01*
X104800000Y-116822557D01*
X104800000Y-112610000D01*
X122971928Y-112610000D01*
X122984188Y-112734482D01*
X123020498Y-112854180D01*
X123079463Y-112964494D01*
X123158815Y-113061185D01*
X123255506Y-113140537D01*
X123365820Y-113199502D01*
X123485518Y-113235812D01*
X123610000Y-113248072D01*
X124174250Y-113245000D01*
X124333000Y-113086250D01*
X124333000Y-111887000D01*
X124587000Y-111887000D01*
X124587000Y-113086250D01*
X124745750Y-113245000D01*
X125310000Y-113248072D01*
X125434482Y-113235812D01*
X125554180Y-113199502D01*
X125664494Y-113140537D01*
X125761185Y-113061185D01*
X125762157Y-113060000D01*
X128871928Y-113060000D01*
X128884188Y-113184482D01*
X128920498Y-113304180D01*
X128979463Y-113414494D01*
X129058815Y-113511185D01*
X129155506Y-113590537D01*
X129265820Y-113649502D01*
X129385518Y-113685812D01*
X129510000Y-113698072D01*
X130524250Y-113695000D01*
X130683000Y-113536250D01*
X130683000Y-111887000D01*
X130937000Y-111887000D01*
X130937000Y-113536250D01*
X131095750Y-113695000D01*
X132110000Y-113698072D01*
X132234482Y-113685812D01*
X132354180Y-113649502D01*
X132464494Y-113590537D01*
X132561185Y-113511185D01*
X132640537Y-113414494D01*
X132699502Y-113304180D01*
X132735812Y-113184482D01*
X132748072Y-113060000D01*
X132745000Y-112045750D01*
X132586250Y-111887000D01*
X130937000Y-111887000D01*
X130683000Y-111887000D01*
X129033750Y-111887000D01*
X128875000Y-112045750D01*
X128871928Y-113060000D01*
X125762157Y-113060000D01*
X125840537Y-112964494D01*
X125899502Y-112854180D01*
X125935812Y-112734482D01*
X125948072Y-112610000D01*
X125945000Y-112045750D01*
X125786250Y-111887000D01*
X124587000Y-111887000D01*
X124333000Y-111887000D01*
X123133750Y-111887000D01*
X122975000Y-112045750D01*
X122971928Y-112610000D01*
X104800000Y-112610000D01*
X104800000Y-110910000D01*
X122971928Y-110910000D01*
X122975000Y-111474250D01*
X123133750Y-111633000D01*
X124333000Y-111633000D01*
X124333000Y-111613000D01*
X124587000Y-111613000D01*
X124587000Y-111633000D01*
X125786250Y-111633000D01*
X125945000Y-111474250D01*
X125948072Y-110910000D01*
X125935812Y-110785518D01*
X125899502Y-110665820D01*
X125840537Y-110555506D01*
X125762158Y-110460000D01*
X128871928Y-110460000D01*
X128875000Y-111474250D01*
X129033750Y-111633000D01*
X130683000Y-111633000D01*
X130683000Y-109983750D01*
X130937000Y-109983750D01*
X130937000Y-111633000D01*
X132586250Y-111633000D01*
X132649831Y-111569419D01*
X133955000Y-111569419D01*
X133955000Y-111950581D01*
X134029361Y-112324419D01*
X134175225Y-112676566D01*
X134386987Y-112993491D01*
X134656509Y-113263013D01*
X134973434Y-113474775D01*
X135325581Y-113620639D01*
X135699419Y-113695000D01*
X136080581Y-113695000D01*
X136454419Y-113620639D01*
X136806566Y-113474775D01*
X137123491Y-113263013D01*
X137393013Y-112993491D01*
X137604775Y-112676566D01*
X137750639Y-112324419D01*
X137825000Y-111950581D01*
X137825000Y-111569419D01*
X137750639Y-111195581D01*
X137632348Y-110910000D01*
X139481928Y-110910000D01*
X139481928Y-112610000D01*
X139494188Y-112734482D01*
X139530498Y-112854180D01*
X139589463Y-112964494D01*
X139668815Y-113061185D01*
X139765506Y-113140537D01*
X139875820Y-113199502D01*
X139995518Y-113235812D01*
X140120000Y-113248072D01*
X141820000Y-113248072D01*
X141944482Y-113235812D01*
X142064180Y-113199502D01*
X142174494Y-113140537D01*
X142271185Y-113061185D01*
X142350537Y-112964494D01*
X142409502Y-112854180D01*
X142445812Y-112734482D01*
X142458072Y-112610000D01*
X142458072Y-110910000D01*
X142445812Y-110785518D01*
X142409502Y-110665820D01*
X142350537Y-110555506D01*
X142271185Y-110458815D01*
X142174494Y-110379463D01*
X142064180Y-110320498D01*
X141991620Y-110298487D01*
X142123475Y-110166632D01*
X142285990Y-109923411D01*
X142397932Y-109653158D01*
X142455000Y-109366260D01*
X142455000Y-109073740D01*
X142397932Y-108786842D01*
X142285990Y-108516589D01*
X142123475Y-108273368D01*
X141916632Y-108066525D01*
X141673411Y-107904010D01*
X141403158Y-107792068D01*
X141116260Y-107735000D01*
X140823740Y-107735000D01*
X140536842Y-107792068D01*
X140266589Y-107904010D01*
X140023368Y-108066525D01*
X139816525Y-108273368D01*
X139654010Y-108516589D01*
X139542068Y-108786842D01*
X139485000Y-109073740D01*
X139485000Y-109366260D01*
X139542068Y-109653158D01*
X139654010Y-109923411D01*
X139816525Y-110166632D01*
X139948380Y-110298487D01*
X139875820Y-110320498D01*
X139765506Y-110379463D01*
X139668815Y-110458815D01*
X139589463Y-110555506D01*
X139530498Y-110665820D01*
X139494188Y-110785518D01*
X139481928Y-110910000D01*
X137632348Y-110910000D01*
X137604775Y-110843434D01*
X137393013Y-110526509D01*
X137123491Y-110256987D01*
X136806566Y-110045225D01*
X136454419Y-109899361D01*
X136080581Y-109825000D01*
X135699419Y-109825000D01*
X135325581Y-109899361D01*
X134973434Y-110045225D01*
X134656509Y-110256987D01*
X134386987Y-110526509D01*
X134175225Y-110843434D01*
X134029361Y-111195581D01*
X133955000Y-111569419D01*
X132649831Y-111569419D01*
X132745000Y-111474250D01*
X132748072Y-110460000D01*
X132735812Y-110335518D01*
X132699502Y-110215820D01*
X132640537Y-110105506D01*
X132561185Y-110008815D01*
X132464494Y-109929463D01*
X132354180Y-109870498D01*
X132234482Y-109834188D01*
X132110000Y-109821928D01*
X131095750Y-109825000D01*
X130937000Y-109983750D01*
X130683000Y-109983750D01*
X130524250Y-109825000D01*
X129510000Y-109821928D01*
X129385518Y-109834188D01*
X129265820Y-109870498D01*
X129155506Y-109929463D01*
X129058815Y-110008815D01*
X128979463Y-110105506D01*
X128920498Y-110215820D01*
X128884188Y-110335518D01*
X128871928Y-110460000D01*
X125762158Y-110460000D01*
X125761185Y-110458815D01*
X125664494Y-110379463D01*
X125554180Y-110320498D01*
X125481620Y-110298487D01*
X125613475Y-110166632D01*
X125775990Y-109923411D01*
X125887932Y-109653158D01*
X125945000Y-109366260D01*
X125945000Y-109073740D01*
X125887932Y-108786842D01*
X125775990Y-108516589D01*
X125613475Y-108273368D01*
X125406632Y-108066525D01*
X125163411Y-107904010D01*
X124893158Y-107792068D01*
X124606260Y-107735000D01*
X124313740Y-107735000D01*
X124026842Y-107792068D01*
X123756589Y-107904010D01*
X123513368Y-108066525D01*
X123306525Y-108273368D01*
X123144010Y-108516589D01*
X123032068Y-108786842D01*
X122975000Y-109073740D01*
X122975000Y-109366260D01*
X123032068Y-109653158D01*
X123144010Y-109923411D01*
X123306525Y-110166632D01*
X123438380Y-110298487D01*
X123365820Y-110320498D01*
X123255506Y-110379463D01*
X123158815Y-110458815D01*
X123079463Y-110555506D01*
X123020498Y-110665820D01*
X122984188Y-110785518D01*
X122971928Y-110910000D01*
X104800000Y-110910000D01*
X104800000Y-98922408D01*
X125603000Y-98922408D01*
X125603000Y-99197592D01*
X125656686Y-99467490D01*
X125761995Y-99721727D01*
X125914880Y-99950535D01*
X126109465Y-100145120D01*
X126338273Y-100298005D01*
X126592510Y-100403314D01*
X126862408Y-100457000D01*
X127137592Y-100457000D01*
X127407490Y-100403314D01*
X127661727Y-100298005D01*
X127890535Y-100145120D01*
X128085120Y-99950535D01*
X128238005Y-99721727D01*
X128343314Y-99467490D01*
X128397000Y-99197592D01*
X128397000Y-98922408D01*
X128343314Y-98652510D01*
X128238005Y-98398273D01*
X128085120Y-98169465D01*
X127890535Y-97974880D01*
X127661727Y-97821995D01*
X127590057Y-97792308D01*
X127603023Y-97787636D01*
X127718980Y-97725656D01*
X127785960Y-97485565D01*
X127000000Y-96699605D01*
X126214040Y-97485565D01*
X126281020Y-97725656D01*
X126416760Y-97789485D01*
X126338273Y-97821995D01*
X126109465Y-97974880D01*
X125914880Y-98169465D01*
X125761995Y-98398273D01*
X125656686Y-98652510D01*
X125603000Y-98922408D01*
X104800000Y-98922408D01*
X104800000Y-96269407D01*
X106779999Y-96269407D01*
X106779999Y-96544591D01*
X106833685Y-96814489D01*
X106938994Y-97068726D01*
X107091879Y-97297534D01*
X107286464Y-97492119D01*
X107515272Y-97645004D01*
X107769509Y-97750313D01*
X108039407Y-97803999D01*
X108314591Y-97803999D01*
X108584489Y-97750313D01*
X108838726Y-97645004D01*
X109067534Y-97492119D01*
X109187089Y-97372564D01*
X122631039Y-97372564D01*
X122698019Y-97612655D01*
X122947047Y-97729755D01*
X123214134Y-97796022D01*
X123489016Y-97808909D01*
X123761132Y-97767921D01*
X124020022Y-97674635D01*
X124135979Y-97612655D01*
X124202959Y-97372564D01*
X123416999Y-96586604D01*
X122631039Y-97372564D01*
X109187089Y-97372564D01*
X109262119Y-97297534D01*
X109415004Y-97068726D01*
X109520313Y-96814489D01*
X109573999Y-96544591D01*
X109573999Y-96479016D01*
X122015089Y-96479016D01*
X122056077Y-96751132D01*
X122149363Y-97010022D01*
X122211343Y-97125979D01*
X122451434Y-97192959D01*
X123237394Y-96406999D01*
X123596604Y-96406999D01*
X124382564Y-97192959D01*
X124622655Y-97125979D01*
X124739755Y-96876951D01*
X124806022Y-96609864D01*
X124806858Y-96592017D01*
X125598090Y-96592017D01*
X125639078Y-96864133D01*
X125732364Y-97123023D01*
X125794344Y-97238980D01*
X126034435Y-97305960D01*
X126820395Y-96520000D01*
X127179605Y-96520000D01*
X127965565Y-97305960D01*
X128205656Y-97238980D01*
X128322756Y-96989952D01*
X128389023Y-96722865D01*
X128401910Y-96447983D01*
X128360922Y-96175867D01*
X128267636Y-95916977D01*
X128205656Y-95801020D01*
X127965565Y-95734040D01*
X127179605Y-96520000D01*
X126820395Y-96520000D01*
X126034435Y-95734040D01*
X125794344Y-95801020D01*
X125677244Y-96050048D01*
X125610977Y-96317135D01*
X125598090Y-96592017D01*
X124806858Y-96592017D01*
X124818909Y-96334982D01*
X124777921Y-96062866D01*
X124684635Y-95803976D01*
X124622655Y-95688019D01*
X124382564Y-95621039D01*
X123596604Y-96406999D01*
X123237394Y-96406999D01*
X122451434Y-95621039D01*
X122211343Y-95688019D01*
X122094243Y-95937047D01*
X122027976Y-96204134D01*
X122015089Y-96479016D01*
X109573999Y-96479016D01*
X109573999Y-96269407D01*
X109520313Y-95999509D01*
X109415004Y-95745272D01*
X109262119Y-95516464D01*
X109067534Y-95321879D01*
X108838726Y-95168994D01*
X108767056Y-95139307D01*
X108780022Y-95134635D01*
X108895979Y-95072655D01*
X108962959Y-94832564D01*
X108176999Y-94046604D01*
X107391039Y-94832564D01*
X107458019Y-95072655D01*
X107593759Y-95136484D01*
X107515272Y-95168994D01*
X107286464Y-95321879D01*
X107091879Y-95516464D01*
X106938994Y-95745272D01*
X106833685Y-95999509D01*
X106779999Y-96269407D01*
X104800000Y-96269407D01*
X104800000Y-93939016D01*
X106775089Y-93939016D01*
X106816077Y-94211132D01*
X106909363Y-94470022D01*
X106971343Y-94585979D01*
X107211434Y-94652959D01*
X107997394Y-93866999D01*
X108356604Y-93866999D01*
X109142564Y-94652959D01*
X109382655Y-94585979D01*
X109499755Y-94336951D01*
X109566022Y-94069864D01*
X109578909Y-93794982D01*
X109537921Y-93522866D01*
X109444635Y-93263976D01*
X109382655Y-93148019D01*
X109142564Y-93081039D01*
X108356604Y-93866999D01*
X107997394Y-93866999D01*
X107211434Y-93081039D01*
X106971343Y-93148019D01*
X106854243Y-93397047D01*
X106787976Y-93664134D01*
X106775089Y-93939016D01*
X104800000Y-93939016D01*
X104800000Y-63249407D01*
X106779999Y-63249407D01*
X106779999Y-63524591D01*
X106833685Y-63794489D01*
X106938994Y-64048726D01*
X107091879Y-64277534D01*
X107286464Y-64472119D01*
X107515272Y-64625004D01*
X107592514Y-64656999D01*
X107515272Y-64688994D01*
X107286464Y-64841879D01*
X107091879Y-65036464D01*
X106938994Y-65265272D01*
X106833685Y-65519509D01*
X106779999Y-65789407D01*
X106779999Y-66064591D01*
X106833685Y-66334489D01*
X106938994Y-66588726D01*
X107091879Y-66817534D01*
X107286464Y-67012119D01*
X107515272Y-67165004D01*
X107592514Y-67196999D01*
X107515272Y-67228994D01*
X107286464Y-67381879D01*
X107091879Y-67576464D01*
X106938994Y-67805272D01*
X106833685Y-68059509D01*
X106779999Y-68329407D01*
X106779999Y-68604591D01*
X106833685Y-68874489D01*
X106938994Y-69128726D01*
X107091879Y-69357534D01*
X107286464Y-69552119D01*
X107515272Y-69705004D01*
X107592514Y-69736999D01*
X107515272Y-69768994D01*
X107286464Y-69921879D01*
X107091879Y-70116464D01*
X106938994Y-70345272D01*
X106833685Y-70599509D01*
X106779999Y-70869407D01*
X106779999Y-71144591D01*
X106833685Y-71414489D01*
X106938994Y-71668726D01*
X107091879Y-71897534D01*
X107286464Y-72092119D01*
X107515272Y-72245004D01*
X107592514Y-72276999D01*
X107515272Y-72308994D01*
X107286464Y-72461879D01*
X107091879Y-72656464D01*
X106938994Y-72885272D01*
X106833685Y-73139509D01*
X106779999Y-73409407D01*
X106779999Y-73684591D01*
X106833685Y-73954489D01*
X106938994Y-74208726D01*
X107091879Y-74437534D01*
X107286464Y-74632119D01*
X107515272Y-74785004D01*
X107592514Y-74816999D01*
X107515272Y-74848994D01*
X107286464Y-75001879D01*
X107091879Y-75196464D01*
X106938994Y-75425272D01*
X106833685Y-75679509D01*
X106779999Y-75949407D01*
X106779999Y-76224591D01*
X106833685Y-76494489D01*
X106938994Y-76748726D01*
X107091879Y-76977534D01*
X107286464Y-77172119D01*
X107515272Y-77325004D01*
X107592514Y-77356999D01*
X107515272Y-77388994D01*
X107286464Y-77541879D01*
X107091879Y-77736464D01*
X106938994Y-77965272D01*
X106833685Y-78219509D01*
X106779999Y-78489407D01*
X106779999Y-78764591D01*
X106833685Y-79034489D01*
X106938994Y-79288726D01*
X107091879Y-79517534D01*
X107286464Y-79712119D01*
X107515272Y-79865004D01*
X107592514Y-79896999D01*
X107515272Y-79928994D01*
X107286464Y-80081879D01*
X107091879Y-80276464D01*
X106938994Y-80505272D01*
X106833685Y-80759509D01*
X106779999Y-81029407D01*
X106779999Y-81304591D01*
X106833685Y-81574489D01*
X106938994Y-81828726D01*
X107091879Y-82057534D01*
X107286464Y-82252119D01*
X107515272Y-82405004D01*
X107592514Y-82436999D01*
X107515272Y-82468994D01*
X107286464Y-82621879D01*
X107091879Y-82816464D01*
X106938994Y-83045272D01*
X106833685Y-83299509D01*
X106779999Y-83569407D01*
X106779999Y-83844591D01*
X106833685Y-84114489D01*
X106938994Y-84368726D01*
X107091879Y-84597534D01*
X107286464Y-84792119D01*
X107515272Y-84945004D01*
X107592514Y-84976999D01*
X107515272Y-85008994D01*
X107286464Y-85161879D01*
X107091879Y-85356464D01*
X106938994Y-85585272D01*
X106833685Y-85839509D01*
X106779999Y-86109407D01*
X106779999Y-86384591D01*
X106833685Y-86654489D01*
X106938994Y-86908726D01*
X107091879Y-87137534D01*
X107286464Y-87332119D01*
X107515272Y-87485004D01*
X107592514Y-87516999D01*
X107515272Y-87548994D01*
X107286464Y-87701879D01*
X107091879Y-87896464D01*
X106938994Y-88125272D01*
X106833685Y-88379509D01*
X106779999Y-88649407D01*
X106779999Y-88924591D01*
X106833685Y-89194489D01*
X106938994Y-89448726D01*
X107091879Y-89677534D01*
X107286464Y-89872119D01*
X107515272Y-90025004D01*
X107592514Y-90056999D01*
X107515272Y-90088994D01*
X107286464Y-90241879D01*
X107091879Y-90436464D01*
X106938994Y-90665272D01*
X106833685Y-90919509D01*
X106779999Y-91189407D01*
X106779999Y-91464591D01*
X106833685Y-91734489D01*
X106938994Y-91988726D01*
X107091879Y-92217534D01*
X107286464Y-92412119D01*
X107515272Y-92565004D01*
X107586942Y-92594691D01*
X107573976Y-92599363D01*
X107458019Y-92661343D01*
X107391039Y-92901434D01*
X108176999Y-93687394D01*
X108962959Y-92901434D01*
X108895979Y-92661343D01*
X108760239Y-92597514D01*
X108838726Y-92565004D01*
X109067534Y-92412119D01*
X109262119Y-92217534D01*
X109415004Y-91988726D01*
X109520313Y-91734489D01*
X109573999Y-91464591D01*
X109573999Y-91189407D01*
X109520313Y-90919509D01*
X109415004Y-90665272D01*
X109262119Y-90436464D01*
X109067534Y-90241879D01*
X108838726Y-90088994D01*
X108761484Y-90056999D01*
X108838726Y-90025004D01*
X109067534Y-89872119D01*
X109262119Y-89677534D01*
X109415004Y-89448726D01*
X109520313Y-89194489D01*
X109573999Y-88924591D01*
X109573999Y-88649407D01*
X109520313Y-88379509D01*
X109415004Y-88125272D01*
X109262119Y-87896464D01*
X109067534Y-87701879D01*
X108838726Y-87548994D01*
X108761484Y-87516999D01*
X108838726Y-87485004D01*
X109067534Y-87332119D01*
X109262119Y-87137534D01*
X109415004Y-86908726D01*
X109520313Y-86654489D01*
X109573999Y-86384591D01*
X109573999Y-86109407D01*
X109520313Y-85839509D01*
X109415004Y-85585272D01*
X109262119Y-85356464D01*
X109067534Y-85161879D01*
X108838726Y-85008994D01*
X108761484Y-84976999D01*
X108838726Y-84945004D01*
X109067534Y-84792119D01*
X109262119Y-84597534D01*
X109415004Y-84368726D01*
X109520313Y-84114489D01*
X109573999Y-83844591D01*
X109573999Y-83569407D01*
X109520313Y-83299509D01*
X109415004Y-83045272D01*
X109262119Y-82816464D01*
X109067534Y-82621879D01*
X108838726Y-82468994D01*
X108761484Y-82436999D01*
X108838726Y-82405004D01*
X109067534Y-82252119D01*
X109262119Y-82057534D01*
X109415004Y-81828726D01*
X109520313Y-81574489D01*
X109573999Y-81304591D01*
X109573999Y-81029407D01*
X109520313Y-80759509D01*
X109415004Y-80505272D01*
X109262119Y-80276464D01*
X109067534Y-80081879D01*
X108838726Y-79928994D01*
X108761484Y-79896999D01*
X108838726Y-79865004D01*
X109067534Y-79712119D01*
X109262119Y-79517534D01*
X109415004Y-79288726D01*
X109520313Y-79034489D01*
X109573999Y-78764591D01*
X109573999Y-78489407D01*
X109520313Y-78219509D01*
X109415004Y-77965272D01*
X109262119Y-77736464D01*
X109067534Y-77541879D01*
X108838726Y-77388994D01*
X108761484Y-77356999D01*
X108838726Y-77325004D01*
X109067534Y-77172119D01*
X109262119Y-76977534D01*
X109415004Y-76748726D01*
X109520313Y-76494489D01*
X109573999Y-76224591D01*
X109573999Y-75949407D01*
X109520313Y-75679509D01*
X109415004Y-75425272D01*
X109262119Y-75196464D01*
X109067534Y-75001879D01*
X108838726Y-74848994D01*
X108761484Y-74816999D01*
X108838726Y-74785004D01*
X109067534Y-74632119D01*
X109262119Y-74437534D01*
X109415004Y-74208726D01*
X109520313Y-73954489D01*
X109573999Y-73684591D01*
X109573999Y-73409407D01*
X109520313Y-73139509D01*
X109415004Y-72885272D01*
X109262119Y-72656464D01*
X109067534Y-72461879D01*
X108838726Y-72308994D01*
X108761484Y-72276999D01*
X108838726Y-72245004D01*
X109067534Y-72092119D01*
X109262119Y-71897534D01*
X109415004Y-71668726D01*
X109520313Y-71414489D01*
X109573999Y-71144591D01*
X109573999Y-70869407D01*
X109520313Y-70599509D01*
X109415004Y-70345272D01*
X109262119Y-70116464D01*
X109067534Y-69921879D01*
X108838726Y-69768994D01*
X108761484Y-69736999D01*
X108838726Y-69705004D01*
X109067534Y-69552119D01*
X109262119Y-69357534D01*
X109415004Y-69128726D01*
X109520313Y-68874489D01*
X109573999Y-68604591D01*
X109573999Y-68329407D01*
X109520313Y-68059509D01*
X109415004Y-67805272D01*
X109262119Y-67576464D01*
X109067534Y-67381879D01*
X108838726Y-67228994D01*
X108761484Y-67196999D01*
X108838726Y-67165004D01*
X109067534Y-67012119D01*
X109262119Y-66817534D01*
X109415004Y-66588726D01*
X109520313Y-66334489D01*
X109573999Y-66064591D01*
X109573999Y-65789407D01*
X109520313Y-65519509D01*
X109415004Y-65265272D01*
X109262119Y-65036464D01*
X109067534Y-64841879D01*
X108838726Y-64688994D01*
X108761484Y-64656999D01*
X108838726Y-64625004D01*
X109067534Y-64472119D01*
X109262119Y-64277534D01*
X109415004Y-64048726D01*
X109446999Y-63971484D01*
X109478994Y-64048726D01*
X109631879Y-64277534D01*
X109826464Y-64472119D01*
X110055272Y-64625004D01*
X110309509Y-64730313D01*
X110579407Y-64783999D01*
X110854591Y-64783999D01*
X111124489Y-64730313D01*
X111378726Y-64625004D01*
X111607534Y-64472119D01*
X111802119Y-64277534D01*
X111955004Y-64048726D01*
X111986999Y-63971484D01*
X112018994Y-64048726D01*
X112171879Y-64277534D01*
X112366464Y-64472119D01*
X112595272Y-64625004D01*
X112849509Y-64730313D01*
X113119407Y-64783999D01*
X113394591Y-64783999D01*
X113664489Y-64730313D01*
X113918726Y-64625004D01*
X114147534Y-64472119D01*
X114267089Y-64352564D01*
X115011039Y-64352564D01*
X115078019Y-64592655D01*
X115327047Y-64709755D01*
X115594134Y-64776022D01*
X115869016Y-64788909D01*
X116141132Y-64747921D01*
X116400022Y-64654635D01*
X116515979Y-64592655D01*
X116582959Y-64352564D01*
X115796999Y-63566604D01*
X115011039Y-64352564D01*
X114267089Y-64352564D01*
X114342119Y-64277534D01*
X114495004Y-64048726D01*
X114524691Y-63977056D01*
X114529363Y-63990022D01*
X114591343Y-64105979D01*
X114831434Y-64172959D01*
X115617394Y-63386999D01*
X115976604Y-63386999D01*
X116762564Y-64172959D01*
X117002655Y-64105979D01*
X117066484Y-63970239D01*
X117098994Y-64048726D01*
X117251879Y-64277534D01*
X117446464Y-64472119D01*
X117675272Y-64625004D01*
X117929509Y-64730313D01*
X118199407Y-64783999D01*
X118474591Y-64783999D01*
X118744489Y-64730313D01*
X118998726Y-64625004D01*
X119227534Y-64472119D01*
X119422119Y-64277534D01*
X119575004Y-64048726D01*
X119606999Y-63971484D01*
X119638994Y-64048726D01*
X119791879Y-64277534D01*
X119986464Y-64472119D01*
X120215272Y-64625004D01*
X120469509Y-64730313D01*
X120739407Y-64783999D01*
X121014591Y-64783999D01*
X121284489Y-64730313D01*
X121538726Y-64625004D01*
X121767534Y-64472119D01*
X121962119Y-64277534D01*
X122115004Y-64048726D01*
X122146999Y-63971484D01*
X122178994Y-64048726D01*
X122331879Y-64277534D01*
X122526464Y-64472119D01*
X122755272Y-64625004D01*
X122832514Y-64656999D01*
X122755272Y-64688994D01*
X122526464Y-64841879D01*
X122331879Y-65036464D01*
X122178994Y-65265272D01*
X122073685Y-65519509D01*
X122019999Y-65789407D01*
X122019999Y-66064591D01*
X122073685Y-66334489D01*
X122178994Y-66588726D01*
X122331879Y-66817534D01*
X122526464Y-67012119D01*
X122755272Y-67165004D01*
X122832514Y-67196999D01*
X122755272Y-67228994D01*
X122526464Y-67381879D01*
X122331879Y-67576464D01*
X122178994Y-67805272D01*
X122073685Y-68059509D01*
X122019999Y-68329407D01*
X122019999Y-68604591D01*
X122073685Y-68874489D01*
X122178994Y-69128726D01*
X122331879Y-69357534D01*
X122526464Y-69552119D01*
X122755272Y-69705004D01*
X122832514Y-69736999D01*
X122755272Y-69768994D01*
X122526464Y-69921879D01*
X122331879Y-70116464D01*
X122178994Y-70345272D01*
X122073685Y-70599509D01*
X122019999Y-70869407D01*
X122019999Y-71144591D01*
X122073685Y-71414489D01*
X122178994Y-71668726D01*
X122331879Y-71897534D01*
X122526464Y-72092119D01*
X122755272Y-72245004D01*
X122832514Y-72276999D01*
X122755272Y-72308994D01*
X122526464Y-72461879D01*
X122331879Y-72656464D01*
X122178994Y-72885272D01*
X122073685Y-73139509D01*
X122019999Y-73409407D01*
X122019999Y-73684591D01*
X122073685Y-73954489D01*
X122178994Y-74208726D01*
X122331879Y-74437534D01*
X122526464Y-74632119D01*
X122755272Y-74785004D01*
X122832514Y-74816999D01*
X122755272Y-74848994D01*
X122526464Y-75001879D01*
X122331879Y-75196464D01*
X122178994Y-75425272D01*
X122073685Y-75679509D01*
X122019999Y-75949407D01*
X122019999Y-76224591D01*
X122073685Y-76494489D01*
X122178994Y-76748726D01*
X122331879Y-76977534D01*
X122526464Y-77172119D01*
X122755272Y-77325004D01*
X122832514Y-77356999D01*
X122755272Y-77388994D01*
X122526464Y-77541879D01*
X122331879Y-77736464D01*
X122178994Y-77965272D01*
X122073685Y-78219509D01*
X122019999Y-78489407D01*
X122019999Y-78764591D01*
X122073685Y-79034489D01*
X122178994Y-79288726D01*
X122331879Y-79517534D01*
X122526464Y-79712119D01*
X122755272Y-79865004D01*
X122832514Y-79896999D01*
X122755272Y-79928994D01*
X122526464Y-80081879D01*
X122331879Y-80276464D01*
X122178994Y-80505272D01*
X122073685Y-80759509D01*
X122019999Y-81029407D01*
X122019999Y-81304591D01*
X122073685Y-81574489D01*
X122178994Y-81828726D01*
X122331879Y-82057534D01*
X122526464Y-82252119D01*
X122755272Y-82405004D01*
X122832514Y-82436999D01*
X122755272Y-82468994D01*
X122526464Y-82621879D01*
X122331879Y-82816464D01*
X122178994Y-83045272D01*
X122073685Y-83299509D01*
X122019999Y-83569407D01*
X122019999Y-83844591D01*
X122073685Y-84114489D01*
X122178994Y-84368726D01*
X122331879Y-84597534D01*
X122526464Y-84792119D01*
X122755272Y-84945004D01*
X122832514Y-84976999D01*
X122755272Y-85008994D01*
X122526464Y-85161879D01*
X122331879Y-85356464D01*
X122178994Y-85585272D01*
X122073685Y-85839509D01*
X122019999Y-86109407D01*
X122019999Y-86384591D01*
X122073685Y-86654489D01*
X122178994Y-86908726D01*
X122331879Y-87137534D01*
X122526464Y-87332119D01*
X122755272Y-87485004D01*
X122832514Y-87516999D01*
X122755272Y-87548994D01*
X122526464Y-87701879D01*
X122331879Y-87896464D01*
X122178994Y-88125272D01*
X122073685Y-88379509D01*
X122019999Y-88649407D01*
X122019999Y-88924591D01*
X122073685Y-89194489D01*
X122178994Y-89448726D01*
X122331879Y-89677534D01*
X122526464Y-89872119D01*
X122755272Y-90025004D01*
X122832514Y-90056999D01*
X122755272Y-90088994D01*
X122526464Y-90241879D01*
X122331879Y-90436464D01*
X122178994Y-90665272D01*
X122073685Y-90919509D01*
X122019999Y-91189407D01*
X122019999Y-91464591D01*
X122073685Y-91734489D01*
X122178994Y-91988726D01*
X122331879Y-92217534D01*
X122526464Y-92412119D01*
X122755272Y-92565004D01*
X122832514Y-92596999D01*
X122755272Y-92628994D01*
X122526464Y-92781879D01*
X122331879Y-92976464D01*
X122178994Y-93205272D01*
X122073685Y-93459509D01*
X122019999Y-93729407D01*
X122019999Y-94004591D01*
X122073685Y-94274489D01*
X122178994Y-94528726D01*
X122331879Y-94757534D01*
X122526464Y-94952119D01*
X122755272Y-95105004D01*
X122826942Y-95134691D01*
X122813976Y-95139363D01*
X122698019Y-95201343D01*
X122631039Y-95441434D01*
X123416999Y-96227394D01*
X124202959Y-95441434D01*
X124135979Y-95201343D01*
X124000239Y-95137514D01*
X124078726Y-95105004D01*
X124307534Y-94952119D01*
X124502119Y-94757534D01*
X124655004Y-94528726D01*
X124760313Y-94274489D01*
X124813999Y-94004591D01*
X124813999Y-93729407D01*
X124760313Y-93459509D01*
X124655004Y-93205272D01*
X124502119Y-92976464D01*
X124307534Y-92781879D01*
X124078726Y-92628994D01*
X124001484Y-92596999D01*
X124078726Y-92565004D01*
X124307534Y-92412119D01*
X124502119Y-92217534D01*
X124655004Y-91988726D01*
X124760313Y-91734489D01*
X124813999Y-91464591D01*
X124813999Y-91189407D01*
X124760313Y-90919509D01*
X124655004Y-90665272D01*
X124502119Y-90436464D01*
X124307534Y-90241879D01*
X124078726Y-90088994D01*
X124001484Y-90056999D01*
X124078726Y-90025004D01*
X124307534Y-89872119D01*
X124502119Y-89677534D01*
X124655004Y-89448726D01*
X124760313Y-89194489D01*
X124813999Y-88924591D01*
X124813999Y-88762408D01*
X125603000Y-88762408D01*
X125603000Y-89037592D01*
X125656686Y-89307490D01*
X125761995Y-89561727D01*
X125914880Y-89790535D01*
X126109465Y-89985120D01*
X126338273Y-90138005D01*
X126415515Y-90170000D01*
X126338273Y-90201995D01*
X126109465Y-90354880D01*
X125914880Y-90549465D01*
X125761995Y-90778273D01*
X125656686Y-91032510D01*
X125603000Y-91302408D01*
X125603000Y-91577592D01*
X125656686Y-91847490D01*
X125761995Y-92101727D01*
X125914880Y-92330535D01*
X126109465Y-92525120D01*
X126338273Y-92678005D01*
X126415515Y-92710000D01*
X126338273Y-92741995D01*
X126109465Y-92894880D01*
X125914880Y-93089465D01*
X125761995Y-93318273D01*
X125656686Y-93572510D01*
X125603000Y-93842408D01*
X125603000Y-94117592D01*
X125656686Y-94387490D01*
X125761995Y-94641727D01*
X125914880Y-94870535D01*
X126109465Y-95065120D01*
X126338273Y-95218005D01*
X126409943Y-95247692D01*
X126396977Y-95252364D01*
X126281020Y-95314344D01*
X126214040Y-95554435D01*
X127000000Y-96340395D01*
X127785960Y-95554435D01*
X127718980Y-95314344D01*
X127583240Y-95250515D01*
X127661727Y-95218005D01*
X127890535Y-95065120D01*
X128085120Y-94870535D01*
X128238005Y-94641727D01*
X128343314Y-94387490D01*
X128397000Y-94117592D01*
X128397000Y-93842408D01*
X128343314Y-93572510D01*
X128238005Y-93318273D01*
X128085120Y-93089465D01*
X127890535Y-92894880D01*
X127661727Y-92741995D01*
X127584485Y-92710000D01*
X127661727Y-92678005D01*
X127890535Y-92525120D01*
X128085120Y-92330535D01*
X128238005Y-92101727D01*
X128343314Y-91847490D01*
X128397000Y-91577592D01*
X128397000Y-91302408D01*
X128343314Y-91032510D01*
X128238005Y-90778273D01*
X128085120Y-90549465D01*
X127890535Y-90354880D01*
X127661727Y-90201995D01*
X127584485Y-90170000D01*
X127661727Y-90138005D01*
X127890535Y-89985120D01*
X128085120Y-89790535D01*
X128238005Y-89561727D01*
X128343314Y-89307490D01*
X128397000Y-89037592D01*
X128397000Y-88762408D01*
X128343314Y-88492510D01*
X128238005Y-88238273D01*
X128085120Y-88009465D01*
X127890535Y-87814880D01*
X127661727Y-87661995D01*
X127407490Y-87556686D01*
X127137592Y-87503000D01*
X126862408Y-87503000D01*
X126592510Y-87556686D01*
X126338273Y-87661995D01*
X126109465Y-87814880D01*
X125914880Y-88009465D01*
X125761995Y-88238273D01*
X125656686Y-88492510D01*
X125603000Y-88762408D01*
X124813999Y-88762408D01*
X124813999Y-88649407D01*
X124760313Y-88379509D01*
X124655004Y-88125272D01*
X124502119Y-87896464D01*
X124307534Y-87701879D01*
X124078726Y-87548994D01*
X124001484Y-87516999D01*
X124078726Y-87485004D01*
X124307534Y-87332119D01*
X124502119Y-87137534D01*
X124655004Y-86908726D01*
X124760313Y-86654489D01*
X124813999Y-86384591D01*
X124813999Y-86109407D01*
X124760313Y-85839509D01*
X124655004Y-85585272D01*
X124557294Y-85439039D01*
X125608096Y-85439039D01*
X125648754Y-85573087D01*
X125768963Y-85827420D01*
X125936481Y-86053414D01*
X126144869Y-86242385D01*
X126386119Y-86387070D01*
X126650960Y-86481909D01*
X126873000Y-86360624D01*
X126873000Y-85217000D01*
X127127000Y-85217000D01*
X127127000Y-86360624D01*
X127349040Y-86481909D01*
X127613881Y-86387070D01*
X127855131Y-86242385D01*
X128063519Y-86053414D01*
X128231037Y-85827420D01*
X128351246Y-85573087D01*
X128391904Y-85439039D01*
X128269915Y-85217000D01*
X127127000Y-85217000D01*
X126873000Y-85217000D01*
X125730085Y-85217000D01*
X125608096Y-85439039D01*
X124557294Y-85439039D01*
X124502119Y-85356464D01*
X124307534Y-85161879D01*
X124078726Y-85008994D01*
X124001484Y-84976999D01*
X124078726Y-84945004D01*
X124307534Y-84792119D01*
X124502119Y-84597534D01*
X124655004Y-84368726D01*
X124760313Y-84114489D01*
X124813999Y-83844591D01*
X124813999Y-83569407D01*
X124760313Y-83299509D01*
X124655004Y-83045272D01*
X124502119Y-82816464D01*
X124307534Y-82621879D01*
X124078726Y-82468994D01*
X124001484Y-82436999D01*
X124078726Y-82405004D01*
X124307534Y-82252119D01*
X124502119Y-82057534D01*
X124655004Y-81828726D01*
X124760313Y-81574489D01*
X124813999Y-81304591D01*
X124813999Y-81029407D01*
X124760313Y-80759509D01*
X124655004Y-80505272D01*
X124502119Y-80276464D01*
X124307534Y-80081879D01*
X124078726Y-79928994D01*
X124001484Y-79896999D01*
X124078726Y-79865004D01*
X124307534Y-79712119D01*
X124502119Y-79517534D01*
X124655004Y-79288726D01*
X124760313Y-79034489D01*
X124813999Y-78764591D01*
X124813999Y-78489407D01*
X124760313Y-78219509D01*
X124655004Y-77965272D01*
X124502119Y-77736464D01*
X124307534Y-77541879D01*
X124078726Y-77388994D01*
X124001484Y-77356999D01*
X124078726Y-77325004D01*
X124307534Y-77172119D01*
X124502119Y-76977534D01*
X124655004Y-76748726D01*
X124760313Y-76494489D01*
X124813999Y-76224591D01*
X124813999Y-75949407D01*
X124760313Y-75679509D01*
X124655004Y-75425272D01*
X124502119Y-75196464D01*
X124307534Y-75001879D01*
X124078726Y-74848994D01*
X124001484Y-74816999D01*
X124078726Y-74785004D01*
X124307534Y-74632119D01*
X124502119Y-74437534D01*
X124655004Y-74208726D01*
X124760313Y-73954489D01*
X124813999Y-73684591D01*
X124813999Y-73409407D01*
X124760313Y-73139509D01*
X124655004Y-72885272D01*
X124502119Y-72656464D01*
X124307534Y-72461879D01*
X124078726Y-72308994D01*
X124001484Y-72276999D01*
X124078726Y-72245004D01*
X124307534Y-72092119D01*
X124502119Y-71897534D01*
X124655004Y-71668726D01*
X124760313Y-71414489D01*
X124813999Y-71144591D01*
X124813999Y-70869407D01*
X124760313Y-70599509D01*
X124655004Y-70345272D01*
X124502119Y-70116464D01*
X124307534Y-69921879D01*
X124078726Y-69768994D01*
X124001484Y-69736999D01*
X124078726Y-69705004D01*
X124307534Y-69552119D01*
X124502119Y-69357534D01*
X124655004Y-69128726D01*
X124760313Y-68874489D01*
X124813999Y-68604591D01*
X124813999Y-68329407D01*
X124760313Y-68059509D01*
X124655004Y-67805272D01*
X124502119Y-67576464D01*
X124307534Y-67381879D01*
X124078726Y-67228994D01*
X124001484Y-67196999D01*
X124078726Y-67165004D01*
X124307534Y-67012119D01*
X124502119Y-66817534D01*
X124655004Y-66588726D01*
X124760313Y-66334489D01*
X124813999Y-66064591D01*
X124813999Y-65789407D01*
X124760313Y-65519509D01*
X124655004Y-65265272D01*
X124502119Y-65036464D01*
X124307534Y-64841879D01*
X124078726Y-64688994D01*
X124001484Y-64656999D01*
X124078726Y-64625004D01*
X124307534Y-64472119D01*
X124502119Y-64277534D01*
X124655004Y-64048726D01*
X124687613Y-63970000D01*
X125561928Y-63970000D01*
X125561928Y-65570000D01*
X125574188Y-65694482D01*
X125610498Y-65814180D01*
X125669463Y-65924494D01*
X125748815Y-66021185D01*
X125845506Y-66100537D01*
X125955820Y-66159502D01*
X126075518Y-66195812D01*
X126083961Y-66196643D01*
X125885363Y-66395241D01*
X125728320Y-66630273D01*
X125620147Y-66891426D01*
X125565000Y-67168665D01*
X125565000Y-67451335D01*
X125620147Y-67728574D01*
X125728320Y-67989727D01*
X125885363Y-68224759D01*
X126085241Y-68424637D01*
X126317759Y-68580000D01*
X126085241Y-68735363D01*
X125885363Y-68935241D01*
X125728320Y-69170273D01*
X125620147Y-69431426D01*
X125565000Y-69708665D01*
X125565000Y-69991335D01*
X125620147Y-70268574D01*
X125728320Y-70529727D01*
X125885363Y-70764759D01*
X126085241Y-70964637D01*
X126317759Y-71120000D01*
X126085241Y-71275363D01*
X125885363Y-71475241D01*
X125728320Y-71710273D01*
X125620147Y-71971426D01*
X125565000Y-72248665D01*
X125565000Y-72531335D01*
X125620147Y-72808574D01*
X125728320Y-73069727D01*
X125885363Y-73304759D01*
X126085241Y-73504637D01*
X126317759Y-73660000D01*
X126085241Y-73815363D01*
X125885363Y-74015241D01*
X125728320Y-74250273D01*
X125620147Y-74511426D01*
X125565000Y-74788665D01*
X125565000Y-75071335D01*
X125620147Y-75348574D01*
X125728320Y-75609727D01*
X125885363Y-75844759D01*
X126085241Y-76044637D01*
X126317759Y-76200000D01*
X126085241Y-76355363D01*
X125885363Y-76555241D01*
X125728320Y-76790273D01*
X125620147Y-77051426D01*
X125565000Y-77328665D01*
X125565000Y-77611335D01*
X125620147Y-77888574D01*
X125728320Y-78149727D01*
X125885363Y-78384759D01*
X126085241Y-78584637D01*
X126317759Y-78740000D01*
X126085241Y-78895363D01*
X125885363Y-79095241D01*
X125728320Y-79330273D01*
X125620147Y-79591426D01*
X125565000Y-79868665D01*
X125565000Y-80151335D01*
X125620147Y-80428574D01*
X125728320Y-80689727D01*
X125885363Y-80924759D01*
X126085241Y-81124637D01*
X126317759Y-81280000D01*
X126085241Y-81435363D01*
X125885363Y-81635241D01*
X125728320Y-81870273D01*
X125620147Y-82131426D01*
X125565000Y-82408665D01*
X125565000Y-82691335D01*
X125620147Y-82968574D01*
X125728320Y-83229727D01*
X125885363Y-83464759D01*
X126085241Y-83664637D01*
X126320273Y-83821680D01*
X126330865Y-83826067D01*
X126144869Y-83937615D01*
X125936481Y-84126586D01*
X125768963Y-84352580D01*
X125648754Y-84606913D01*
X125608096Y-84740961D01*
X125730085Y-84963000D01*
X126873000Y-84963000D01*
X126873000Y-84943000D01*
X127127000Y-84943000D01*
X127127000Y-84963000D01*
X128269915Y-84963000D01*
X128391904Y-84740961D01*
X128351246Y-84606913D01*
X128231037Y-84352580D01*
X128063519Y-84126586D01*
X127855131Y-83937615D01*
X127669135Y-83826067D01*
X127679727Y-83821680D01*
X127914759Y-83664637D01*
X128114637Y-83464759D01*
X128271680Y-83229727D01*
X128379853Y-82968574D01*
X128435000Y-82691335D01*
X128435000Y-82408665D01*
X128379853Y-82131426D01*
X128271680Y-81870273D01*
X128114637Y-81635241D01*
X127914759Y-81435363D01*
X127682241Y-81280000D01*
X127914759Y-81124637D01*
X128114637Y-80924759D01*
X128271680Y-80689727D01*
X128379853Y-80428574D01*
X128435000Y-80151335D01*
X128435000Y-79868665D01*
X128379853Y-79591426D01*
X128271680Y-79330273D01*
X128114637Y-79095241D01*
X127914759Y-78895363D01*
X127682241Y-78740000D01*
X127914759Y-78584637D01*
X128114637Y-78384759D01*
X128271680Y-78149727D01*
X128379853Y-77888574D01*
X128435000Y-77611335D01*
X128435000Y-77328665D01*
X128379853Y-77051426D01*
X128271680Y-76790273D01*
X128114637Y-76555241D01*
X127914759Y-76355363D01*
X127682241Y-76200000D01*
X127914759Y-76044637D01*
X128114637Y-75844759D01*
X128271680Y-75609727D01*
X128379853Y-75348574D01*
X128435000Y-75071335D01*
X128435000Y-74788665D01*
X128379853Y-74511426D01*
X128271680Y-74250273D01*
X128114637Y-74015241D01*
X127914759Y-73815363D01*
X127682241Y-73660000D01*
X127914759Y-73504637D01*
X128114637Y-73304759D01*
X128271680Y-73069727D01*
X128379853Y-72808574D01*
X128435000Y-72531335D01*
X128435000Y-72248665D01*
X128379853Y-71971426D01*
X128271680Y-71710273D01*
X128114637Y-71475241D01*
X127914759Y-71275363D01*
X127682241Y-71120000D01*
X127914759Y-70964637D01*
X128114637Y-70764759D01*
X128271680Y-70529727D01*
X128379853Y-70268574D01*
X128435000Y-69991335D01*
X128435000Y-69708665D01*
X128379853Y-69431426D01*
X128271680Y-69170273D01*
X128114637Y-68935241D01*
X127914759Y-68735363D01*
X127682241Y-68580000D01*
X127914759Y-68424637D01*
X128114637Y-68224759D01*
X128271680Y-67989727D01*
X128379853Y-67728574D01*
X128435000Y-67451335D01*
X128435000Y-67168665D01*
X128379853Y-66891426D01*
X128271680Y-66630273D01*
X128114637Y-66395241D01*
X127916039Y-66196643D01*
X127924482Y-66195812D01*
X128044180Y-66159502D01*
X128154494Y-66100537D01*
X128251185Y-66021185D01*
X128330537Y-65924494D01*
X128389502Y-65814180D01*
X128425812Y-65694482D01*
X128438072Y-65570000D01*
X128438072Y-64628665D01*
X133185000Y-64628665D01*
X133185000Y-64911335D01*
X133240147Y-65188574D01*
X133348320Y-65449727D01*
X133505363Y-65684759D01*
X133705241Y-65884637D01*
X133937759Y-66040000D01*
X133705241Y-66195363D01*
X133505363Y-66395241D01*
X133348320Y-66630273D01*
X133240147Y-66891426D01*
X133185000Y-67168665D01*
X133185000Y-67451335D01*
X133240147Y-67728574D01*
X133348320Y-67989727D01*
X133505363Y-68224759D01*
X133705241Y-68424637D01*
X133937759Y-68580000D01*
X133705241Y-68735363D01*
X133505363Y-68935241D01*
X133348320Y-69170273D01*
X133240147Y-69431426D01*
X133185000Y-69708665D01*
X133185000Y-69991335D01*
X133240147Y-70268574D01*
X133348320Y-70529727D01*
X133505363Y-70764759D01*
X133705241Y-70964637D01*
X133937759Y-71120000D01*
X133705241Y-71275363D01*
X133505363Y-71475241D01*
X133348320Y-71710273D01*
X133240147Y-71971426D01*
X133185000Y-72248665D01*
X133185000Y-72531335D01*
X133240147Y-72808574D01*
X133348320Y-73069727D01*
X133505363Y-73304759D01*
X133705241Y-73504637D01*
X133937759Y-73660000D01*
X133705241Y-73815363D01*
X133505363Y-74015241D01*
X133348320Y-74250273D01*
X133240147Y-74511426D01*
X133185000Y-74788665D01*
X133185000Y-75071335D01*
X133240147Y-75348574D01*
X133348320Y-75609727D01*
X133505363Y-75844759D01*
X133705241Y-76044637D01*
X133937759Y-76200000D01*
X133705241Y-76355363D01*
X133505363Y-76555241D01*
X133348320Y-76790273D01*
X133240147Y-77051426D01*
X133185000Y-77328665D01*
X133185000Y-77611335D01*
X133240147Y-77888574D01*
X133348320Y-78149727D01*
X133505363Y-78384759D01*
X133705241Y-78584637D01*
X133937759Y-78740000D01*
X133705241Y-78895363D01*
X133505363Y-79095241D01*
X133348320Y-79330273D01*
X133240147Y-79591426D01*
X133185000Y-79868665D01*
X133185000Y-80151335D01*
X133240147Y-80428574D01*
X133348320Y-80689727D01*
X133505363Y-80924759D01*
X133705241Y-81124637D01*
X133937759Y-81280000D01*
X133705241Y-81435363D01*
X133505363Y-81635241D01*
X133348320Y-81870273D01*
X133240147Y-82131426D01*
X133185000Y-82408665D01*
X133185000Y-82691335D01*
X133240147Y-82968574D01*
X133348320Y-83229727D01*
X133505363Y-83464759D01*
X133705241Y-83664637D01*
X133937759Y-83820000D01*
X133705241Y-83975363D01*
X133505363Y-84175241D01*
X133348320Y-84410273D01*
X133240147Y-84671426D01*
X133185000Y-84948665D01*
X133185000Y-85231335D01*
X133240147Y-85508574D01*
X133348320Y-85769727D01*
X133505363Y-86004759D01*
X133705241Y-86204637D01*
X133940273Y-86361680D01*
X134201426Y-86469853D01*
X134478665Y-86525000D01*
X134761335Y-86525000D01*
X135038574Y-86469853D01*
X135299727Y-86361680D01*
X135534759Y-86204637D01*
X135734637Y-86004759D01*
X135891680Y-85769727D01*
X135999853Y-85508574D01*
X136055000Y-85231335D01*
X136055000Y-84948665D01*
X135999853Y-84671426D01*
X135891680Y-84410273D01*
X135734637Y-84175241D01*
X135534759Y-83975363D01*
X135302241Y-83820000D01*
X135534759Y-83664637D01*
X135734637Y-83464759D01*
X135891680Y-83229727D01*
X135999853Y-82968574D01*
X136055000Y-82691335D01*
X136055000Y-82408665D01*
X135999853Y-82131426D01*
X135891680Y-81870273D01*
X135734637Y-81635241D01*
X135534759Y-81435363D01*
X135302241Y-81280000D01*
X135534759Y-81124637D01*
X135734637Y-80924759D01*
X135891680Y-80689727D01*
X135999853Y-80428574D01*
X136055000Y-80151335D01*
X136055000Y-79868665D01*
X135999853Y-79591426D01*
X135891680Y-79330273D01*
X135734637Y-79095241D01*
X135534759Y-78895363D01*
X135302241Y-78740000D01*
X135534759Y-78584637D01*
X135734637Y-78384759D01*
X135891680Y-78149727D01*
X135999853Y-77888574D01*
X136055000Y-77611335D01*
X136055000Y-77328665D01*
X135999853Y-77051426D01*
X135891680Y-76790273D01*
X135734637Y-76555241D01*
X135534759Y-76355363D01*
X135302241Y-76200000D01*
X135534759Y-76044637D01*
X135734637Y-75844759D01*
X135891680Y-75609727D01*
X135999853Y-75348574D01*
X136055000Y-75071335D01*
X136055000Y-74788665D01*
X135999853Y-74511426D01*
X135891680Y-74250273D01*
X135734637Y-74015241D01*
X135534759Y-73815363D01*
X135302241Y-73660000D01*
X135534759Y-73504637D01*
X135734637Y-73304759D01*
X135891680Y-73069727D01*
X135999853Y-72808574D01*
X136055000Y-72531335D01*
X136055000Y-72248665D01*
X135999853Y-71971426D01*
X135891680Y-71710273D01*
X135734637Y-71475241D01*
X135534759Y-71275363D01*
X135302241Y-71120000D01*
X135534759Y-70964637D01*
X135734637Y-70764759D01*
X135891680Y-70529727D01*
X135999853Y-70268574D01*
X136055000Y-69991335D01*
X136055000Y-69708665D01*
X135999853Y-69431426D01*
X135891680Y-69170273D01*
X135734637Y-68935241D01*
X135534759Y-68735363D01*
X135302241Y-68580000D01*
X135534759Y-68424637D01*
X135734637Y-68224759D01*
X135891680Y-67989727D01*
X135999853Y-67728574D01*
X136055000Y-67451335D01*
X136055000Y-67168665D01*
X135999853Y-66891426D01*
X135891680Y-66630273D01*
X135734637Y-66395241D01*
X135534759Y-66195363D01*
X135302241Y-66040000D01*
X135534759Y-65884637D01*
X135734637Y-65684759D01*
X135891680Y-65449727D01*
X135999262Y-65190000D01*
X136941928Y-65190000D01*
X136941928Y-66890000D01*
X136954188Y-67014482D01*
X136990498Y-67134180D01*
X137049463Y-67244494D01*
X137128815Y-67341185D01*
X137225506Y-67420537D01*
X137335820Y-67479502D01*
X137408380Y-67501513D01*
X137276525Y-67633368D01*
X137114010Y-67876589D01*
X137002068Y-68146842D01*
X136945000Y-68433740D01*
X136945000Y-68726260D01*
X137002068Y-69013158D01*
X137114010Y-69283411D01*
X137276525Y-69526632D01*
X137483368Y-69733475D01*
X137657760Y-69850000D01*
X137483368Y-69966525D01*
X137276525Y-70173368D01*
X137114010Y-70416589D01*
X137002068Y-70686842D01*
X136945000Y-70973740D01*
X136945000Y-71266260D01*
X137002068Y-71553158D01*
X137114010Y-71823411D01*
X137276525Y-72066632D01*
X137483368Y-72273475D01*
X137657760Y-72390000D01*
X137483368Y-72506525D01*
X137276525Y-72713368D01*
X137114010Y-72956589D01*
X137002068Y-73226842D01*
X136945000Y-73513740D01*
X136945000Y-73806260D01*
X137002068Y-74093158D01*
X137114010Y-74363411D01*
X137276525Y-74606632D01*
X137483368Y-74813475D01*
X137657760Y-74930000D01*
X137483368Y-75046525D01*
X137276525Y-75253368D01*
X137114010Y-75496589D01*
X137002068Y-75766842D01*
X136945000Y-76053740D01*
X136945000Y-76346260D01*
X137002068Y-76633158D01*
X137114010Y-76903411D01*
X137276525Y-77146632D01*
X137483368Y-77353475D01*
X137657760Y-77470000D01*
X137483368Y-77586525D01*
X137276525Y-77793368D01*
X137114010Y-78036589D01*
X137002068Y-78306842D01*
X136945000Y-78593740D01*
X136945000Y-78886260D01*
X137002068Y-79173158D01*
X137114010Y-79443411D01*
X137276525Y-79686632D01*
X137483368Y-79893475D01*
X137657760Y-80010000D01*
X137483368Y-80126525D01*
X137276525Y-80333368D01*
X137114010Y-80576589D01*
X137002068Y-80846842D01*
X136945000Y-81133740D01*
X136945000Y-81426260D01*
X137002068Y-81713158D01*
X137114010Y-81983411D01*
X137276525Y-82226632D01*
X137483368Y-82433475D01*
X137657760Y-82550000D01*
X137483368Y-82666525D01*
X137276525Y-82873368D01*
X137114010Y-83116589D01*
X137002068Y-83386842D01*
X136945000Y-83673740D01*
X136945000Y-83966260D01*
X137002068Y-84253158D01*
X137114010Y-84523411D01*
X137276525Y-84766632D01*
X137483368Y-84973475D01*
X137726589Y-85135990D01*
X137996842Y-85247932D01*
X138283740Y-85305000D01*
X138576260Y-85305000D01*
X138863158Y-85247932D01*
X139133411Y-85135990D01*
X139376632Y-84973475D01*
X139583475Y-84766632D01*
X139700000Y-84592240D01*
X139816525Y-84766632D01*
X140023368Y-84973475D01*
X140266589Y-85135990D01*
X140536842Y-85247932D01*
X140823740Y-85305000D01*
X141116260Y-85305000D01*
X141403158Y-85247932D01*
X141673411Y-85135990D01*
X141916632Y-84973475D01*
X142123475Y-84766632D01*
X142285990Y-84523411D01*
X142397932Y-84253158D01*
X142455000Y-83966260D01*
X142455000Y-83673740D01*
X142397932Y-83386842D01*
X142285990Y-83116589D01*
X142123475Y-82873368D01*
X141916632Y-82666525D01*
X141742240Y-82550000D01*
X141916632Y-82433475D01*
X142123475Y-82226632D01*
X142285990Y-81983411D01*
X142397932Y-81713158D01*
X142455000Y-81426260D01*
X142455000Y-81133740D01*
X142397932Y-80846842D01*
X142285990Y-80576589D01*
X142123475Y-80333368D01*
X141916632Y-80126525D01*
X141742240Y-80010000D01*
X141916632Y-79893475D01*
X142123475Y-79686632D01*
X142285990Y-79443411D01*
X142397932Y-79173158D01*
X142455000Y-78886260D01*
X142455000Y-78593740D01*
X142397932Y-78306842D01*
X142285990Y-78036589D01*
X142123475Y-77793368D01*
X141916632Y-77586525D01*
X141742240Y-77470000D01*
X141916632Y-77353475D01*
X142123475Y-77146632D01*
X142285990Y-76903411D01*
X142397932Y-76633158D01*
X142455000Y-76346260D01*
X142455000Y-76053740D01*
X142397932Y-75766842D01*
X142285990Y-75496589D01*
X142123475Y-75253368D01*
X141916632Y-75046525D01*
X141742240Y-74930000D01*
X141916632Y-74813475D01*
X142123475Y-74606632D01*
X142285990Y-74363411D01*
X142397932Y-74093158D01*
X142455000Y-73806260D01*
X142455000Y-73513740D01*
X142397932Y-73226842D01*
X142285990Y-72956589D01*
X142123475Y-72713368D01*
X141916632Y-72506525D01*
X141742240Y-72390000D01*
X141916632Y-72273475D01*
X142123475Y-72066632D01*
X142285990Y-71823411D01*
X142397932Y-71553158D01*
X142455000Y-71266260D01*
X142455000Y-70973740D01*
X142397932Y-70686842D01*
X142285990Y-70416589D01*
X142123475Y-70173368D01*
X141916632Y-69966525D01*
X141742240Y-69850000D01*
X141916632Y-69733475D01*
X142123475Y-69526632D01*
X142285990Y-69283411D01*
X142397932Y-69013158D01*
X142455000Y-68726260D01*
X142455000Y-68433740D01*
X142397932Y-68146842D01*
X142285990Y-67876589D01*
X142123475Y-67633368D01*
X141916632Y-67426525D01*
X141742240Y-67310000D01*
X141916632Y-67193475D01*
X142123475Y-66986632D01*
X142285990Y-66743411D01*
X142397932Y-66473158D01*
X142455000Y-66186260D01*
X142455000Y-65893740D01*
X142397932Y-65606842D01*
X142285990Y-65336589D01*
X142123475Y-65093368D01*
X141916632Y-64886525D01*
X141673411Y-64724010D01*
X141403158Y-64612068D01*
X141116260Y-64555000D01*
X140823740Y-64555000D01*
X140536842Y-64612068D01*
X140266589Y-64724010D01*
X140023368Y-64886525D01*
X139891513Y-65018380D01*
X139869502Y-64945820D01*
X139810537Y-64835506D01*
X139731185Y-64738815D01*
X139634494Y-64659463D01*
X139524180Y-64600498D01*
X139404482Y-64564188D01*
X139280000Y-64551928D01*
X137580000Y-64551928D01*
X137455518Y-64564188D01*
X137335820Y-64600498D01*
X137225506Y-64659463D01*
X137128815Y-64738815D01*
X137049463Y-64835506D01*
X136990498Y-64945820D01*
X136954188Y-65065518D01*
X136941928Y-65190000D01*
X135999262Y-65190000D01*
X135999853Y-65188574D01*
X136055000Y-64911335D01*
X136055000Y-64628665D01*
X135999853Y-64351426D01*
X135891680Y-64090273D01*
X135734637Y-63855241D01*
X135534759Y-63655363D01*
X135299727Y-63498320D01*
X135038574Y-63390147D01*
X134761335Y-63335000D01*
X134478665Y-63335000D01*
X134201426Y-63390147D01*
X133940273Y-63498320D01*
X133705241Y-63655363D01*
X133505363Y-63855241D01*
X133348320Y-64090273D01*
X133240147Y-64351426D01*
X133185000Y-64628665D01*
X128438072Y-64628665D01*
X128438072Y-63970000D01*
X128425812Y-63845518D01*
X128389502Y-63725820D01*
X128330537Y-63615506D01*
X128251185Y-63518815D01*
X128154494Y-63439463D01*
X128044180Y-63380498D01*
X127924482Y-63344188D01*
X127800000Y-63331928D01*
X126200000Y-63331928D01*
X126075518Y-63344188D01*
X125955820Y-63380498D01*
X125845506Y-63439463D01*
X125748815Y-63518815D01*
X125669463Y-63615506D01*
X125610498Y-63725820D01*
X125574188Y-63845518D01*
X125561928Y-63970000D01*
X124687613Y-63970000D01*
X124760313Y-63794489D01*
X124813999Y-63524591D01*
X124813999Y-63249407D01*
X124760313Y-62979509D01*
X124655004Y-62725272D01*
X124502119Y-62496464D01*
X124307534Y-62301879D01*
X124078726Y-62148994D01*
X123824489Y-62043685D01*
X123554591Y-61989999D01*
X123279407Y-61989999D01*
X123009509Y-62043685D01*
X122755272Y-62148994D01*
X122526464Y-62301879D01*
X122331879Y-62496464D01*
X122178994Y-62725272D01*
X122146999Y-62802514D01*
X122115004Y-62725272D01*
X121962119Y-62496464D01*
X121767534Y-62301879D01*
X121538726Y-62148994D01*
X121284489Y-62043685D01*
X121014591Y-61989999D01*
X120739407Y-61989999D01*
X120469509Y-62043685D01*
X120215272Y-62148994D01*
X119986464Y-62301879D01*
X119791879Y-62496464D01*
X119638994Y-62725272D01*
X119606999Y-62802514D01*
X119575004Y-62725272D01*
X119422119Y-62496464D01*
X119227534Y-62301879D01*
X118998726Y-62148994D01*
X118744489Y-62043685D01*
X118474591Y-61989999D01*
X118199407Y-61989999D01*
X117929509Y-62043685D01*
X117675272Y-62148994D01*
X117446464Y-62301879D01*
X117251879Y-62496464D01*
X117098994Y-62725272D01*
X117069307Y-62796942D01*
X117064635Y-62783976D01*
X117002655Y-62668019D01*
X116762564Y-62601039D01*
X115976604Y-63386999D01*
X115617394Y-63386999D01*
X114831434Y-62601039D01*
X114591343Y-62668019D01*
X114527514Y-62803759D01*
X114495004Y-62725272D01*
X114342119Y-62496464D01*
X114267089Y-62421434D01*
X115011039Y-62421434D01*
X115796999Y-63207394D01*
X116582959Y-62421434D01*
X116515979Y-62181343D01*
X116266951Y-62064243D01*
X115999864Y-61997976D01*
X115724982Y-61985089D01*
X115452866Y-62026077D01*
X115193976Y-62119363D01*
X115078019Y-62181343D01*
X115011039Y-62421434D01*
X114267089Y-62421434D01*
X114147534Y-62301879D01*
X113918726Y-62148994D01*
X113664489Y-62043685D01*
X113394591Y-61989999D01*
X113119407Y-61989999D01*
X112849509Y-62043685D01*
X112595272Y-62148994D01*
X112366464Y-62301879D01*
X112171879Y-62496464D01*
X112018994Y-62725272D01*
X111986999Y-62802514D01*
X111955004Y-62725272D01*
X111802119Y-62496464D01*
X111607534Y-62301879D01*
X111378726Y-62148994D01*
X111124489Y-62043685D01*
X110854591Y-61989999D01*
X110579407Y-61989999D01*
X110309509Y-62043685D01*
X110055272Y-62148994D01*
X109826464Y-62301879D01*
X109631879Y-62496464D01*
X109478994Y-62725272D01*
X109446999Y-62802514D01*
X109415004Y-62725272D01*
X109262119Y-62496464D01*
X109067534Y-62301879D01*
X108838726Y-62148994D01*
X108584489Y-62043685D01*
X108314591Y-61989999D01*
X108039407Y-61989999D01*
X107769509Y-62043685D01*
X107515272Y-62148994D01*
X107286464Y-62301879D01*
X107091879Y-62496464D01*
X106938994Y-62725272D01*
X106833685Y-62979509D01*
X106779999Y-63249407D01*
X104800000Y-63249407D01*
X104800000Y-58840000D01*
X110271928Y-58840000D01*
X110271928Y-60540000D01*
X110284188Y-60664482D01*
X110320498Y-60784180D01*
X110379463Y-60894494D01*
X110458815Y-60991185D01*
X110555506Y-61070537D01*
X110665820Y-61129502D01*
X110785518Y-61165812D01*
X110910000Y-61178072D01*
X112610000Y-61178072D01*
X112734482Y-61165812D01*
X112854180Y-61129502D01*
X112964494Y-61070537D01*
X113061185Y-60991185D01*
X113140537Y-60894494D01*
X113199502Y-60784180D01*
X113221513Y-60711620D01*
X113353368Y-60843475D01*
X113596589Y-61005990D01*
X113866842Y-61117932D01*
X114153740Y-61175000D01*
X114446260Y-61175000D01*
X114733158Y-61117932D01*
X115003411Y-61005990D01*
X115246632Y-60843475D01*
X115453475Y-60636632D01*
X115575195Y-60454466D01*
X115644822Y-60571355D01*
X115839731Y-60787588D01*
X116073080Y-60961641D01*
X116335901Y-61086825D01*
X116483110Y-61131476D01*
X116713000Y-61010155D01*
X116713000Y-59817000D01*
X116693000Y-59817000D01*
X116693000Y-59563000D01*
X116713000Y-59563000D01*
X116713000Y-58369845D01*
X116967000Y-58369845D01*
X116967000Y-59563000D01*
X116987000Y-59563000D01*
X116987000Y-59817000D01*
X116967000Y-59817000D01*
X116967000Y-61010155D01*
X117196890Y-61131476D01*
X117344099Y-61086825D01*
X117606920Y-60961641D01*
X117840269Y-60787588D01*
X118035178Y-60571355D01*
X118104805Y-60454466D01*
X118226525Y-60636632D01*
X118433368Y-60843475D01*
X118676589Y-61005990D01*
X118946842Y-61117932D01*
X119233740Y-61175000D01*
X119526260Y-61175000D01*
X119813158Y-61117932D01*
X120083411Y-61005990D01*
X120326632Y-60843475D01*
X120533475Y-60636632D01*
X120695990Y-60393411D01*
X120807932Y-60123158D01*
X120865000Y-59836260D01*
X120865000Y-59543740D01*
X120807932Y-59256842D01*
X120695990Y-58986589D01*
X120533475Y-58743368D01*
X120326632Y-58536525D01*
X120083411Y-58374010D01*
X119813158Y-58262068D01*
X119526260Y-58205000D01*
X119233740Y-58205000D01*
X118946842Y-58262068D01*
X118676589Y-58374010D01*
X118433368Y-58536525D01*
X118226525Y-58743368D01*
X118104805Y-58925534D01*
X118035178Y-58808645D01*
X117840269Y-58592412D01*
X117606920Y-58418359D01*
X117344099Y-58293175D01*
X117196890Y-58248524D01*
X116967000Y-58369845D01*
X116713000Y-58369845D01*
X116483110Y-58248524D01*
X116335901Y-58293175D01*
X116073080Y-58418359D01*
X115839731Y-58592412D01*
X115644822Y-58808645D01*
X115575195Y-58925534D01*
X115453475Y-58743368D01*
X115246632Y-58536525D01*
X115003411Y-58374010D01*
X114733158Y-58262068D01*
X114446260Y-58205000D01*
X114153740Y-58205000D01*
X113866842Y-58262068D01*
X113596589Y-58374010D01*
X113353368Y-58536525D01*
X113221513Y-58668380D01*
X113199502Y-58595820D01*
X113140537Y-58485506D01*
X113061185Y-58388815D01*
X112964494Y-58309463D01*
X112854180Y-58250498D01*
X112734482Y-58214188D01*
X112610000Y-58201928D01*
X110910000Y-58201928D01*
X110785518Y-58214188D01*
X110665820Y-58250498D01*
X110555506Y-58309463D01*
X110458815Y-58388815D01*
X110379463Y-58485506D01*
X110320498Y-58595820D01*
X110284188Y-58715518D01*
X110271928Y-58840000D01*
X104800000Y-58840000D01*
X104800000Y-58452279D01*
X104838909Y-58055455D01*
X104944780Y-57704792D01*
X105116744Y-57381375D01*
X105348254Y-57097516D01*
X105630486Y-56864035D01*
X105952695Y-56689817D01*
X106302614Y-56581498D01*
X106697443Y-56540000D01*
X142207721Y-56540000D01*
X142604545Y-56578909D01*
M02*
