G04 #@! TF.GenerationSoftware,KiCad,Pcbnew,(5.1.5)-3*
G04 #@! TF.CreationDate,2020-04-05T19:38:58+02:00*
G04 #@! TF.ProjectId,DrSquigglesController,44725371-7569-4676-976c-6573436f6e74,rev?*
G04 #@! TF.SameCoordinates,Original*
G04 #@! TF.FileFunction,Soldermask,Bot*
G04 #@! TF.FilePolarity,Negative*
%FSLAX46Y46*%
G04 Gerber Fmt 4.6, Leading zero omitted, Abs format (unit mm)*
G04 Created by KiCad (PCBNEW (5.1.5)-3) date 2020-04-05 19:38:58*
%MOMM*%
%LPD*%
G04 APERTURE LIST*
%ADD10C,0.100000*%
G04 APERTURE END LIST*
D10*
G36*
X120281000Y-110121000D02*
G01*
X118479000Y-110121000D01*
X118479000Y-108319000D01*
X120281000Y-108319000D01*
X120281000Y-110121000D01*
G37*
G36*
X114694072Y-106650918D02*
G01*
X114939939Y-106752759D01*
X115051328Y-106827187D01*
X115161211Y-106900609D01*
X115349391Y-107088789D01*
X115361415Y-107106784D01*
X115497241Y-107310061D01*
X115599082Y-107555928D01*
X115651000Y-107816938D01*
X115651000Y-108083062D01*
X115599082Y-108344072D01*
X115497241Y-108589939D01*
X115349390Y-108811212D01*
X115161212Y-108999390D01*
X114939939Y-109147241D01*
X114939938Y-109147242D01*
X114939937Y-109147242D01*
X114694072Y-109249082D01*
X114433063Y-109301000D01*
X114166937Y-109301000D01*
X113905928Y-109249082D01*
X113660063Y-109147242D01*
X113660062Y-109147242D01*
X113660061Y-109147241D01*
X113438788Y-108999390D01*
X113250610Y-108811212D01*
X113102759Y-108589939D01*
X113000918Y-108344072D01*
X112949000Y-108083062D01*
X112949000Y-107816938D01*
X113000918Y-107555928D01*
X113102759Y-107310061D01*
X113238585Y-107106784D01*
X113250609Y-107088789D01*
X113438789Y-106900609D01*
X113548672Y-106827187D01*
X113660061Y-106752759D01*
X113905928Y-106650918D01*
X114166937Y-106599000D01*
X114433063Y-106599000D01*
X114694072Y-106650918D01*
G37*
G36*
X110571000Y-109301000D02*
G01*
X107869000Y-109301000D01*
X107869000Y-106599000D01*
X110571000Y-106599000D01*
X110571000Y-109301000D01*
G37*
G36*
X127491142Y-106787242D02*
G01*
X127639101Y-106848529D01*
X127772255Y-106937499D01*
X127885501Y-107050745D01*
X127974471Y-107183899D01*
X128035758Y-107331858D01*
X128067000Y-107488925D01*
X128067000Y-107649075D01*
X128035758Y-107806142D01*
X127974471Y-107954101D01*
X127885501Y-108087255D01*
X127772255Y-108200501D01*
X127639101Y-108289471D01*
X127491142Y-108350758D01*
X127334075Y-108382000D01*
X127173925Y-108382000D01*
X127016858Y-108350758D01*
X126868899Y-108289471D01*
X126735745Y-108200501D01*
X126622499Y-108087255D01*
X126533529Y-107954101D01*
X126472242Y-107806142D01*
X126441000Y-107649075D01*
X126441000Y-107488925D01*
X126472242Y-107331858D01*
X126533529Y-107183899D01*
X126622499Y-107050745D01*
X126735745Y-106937499D01*
X126868899Y-106848529D01*
X127016858Y-106787242D01*
X127173925Y-106756000D01*
X127334075Y-106756000D01*
X127491142Y-106787242D01*
G37*
G36*
X119493512Y-105783927D02*
G01*
X119642812Y-105813624D01*
X119806784Y-105881544D01*
X119954354Y-105980147D01*
X120079853Y-106105646D01*
X120178456Y-106253216D01*
X120246376Y-106417188D01*
X120281000Y-106591259D01*
X120281000Y-106768741D01*
X120246376Y-106942812D01*
X120178456Y-107106784D01*
X120079853Y-107254354D01*
X119954354Y-107379853D01*
X119806784Y-107478456D01*
X119642812Y-107546376D01*
X119493512Y-107576073D01*
X119468742Y-107581000D01*
X119291258Y-107581000D01*
X119266488Y-107576073D01*
X119117188Y-107546376D01*
X118953216Y-107478456D01*
X118805646Y-107379853D01*
X118680147Y-107254354D01*
X118581544Y-107106784D01*
X118513624Y-106942812D01*
X118479000Y-106768741D01*
X118479000Y-106591259D01*
X118513624Y-106417188D01*
X118581544Y-106253216D01*
X118680147Y-106105646D01*
X118805646Y-105980147D01*
X118953216Y-105881544D01*
X119117188Y-105813624D01*
X119266488Y-105783927D01*
X119291258Y-105779000D01*
X119468742Y-105779000D01*
X119493512Y-105783927D01*
G37*
G36*
X127491142Y-104247242D02*
G01*
X127639101Y-104308529D01*
X127772255Y-104397499D01*
X127885501Y-104510745D01*
X127974471Y-104643899D01*
X128035758Y-104791858D01*
X128067000Y-104948925D01*
X128067000Y-105109075D01*
X128035758Y-105266142D01*
X127974471Y-105414101D01*
X127885501Y-105547255D01*
X127772255Y-105660501D01*
X127639101Y-105749471D01*
X127491142Y-105810758D01*
X127334075Y-105842000D01*
X127173925Y-105842000D01*
X127016858Y-105810758D01*
X126868899Y-105749471D01*
X126735745Y-105660501D01*
X126622499Y-105547255D01*
X126533529Y-105414101D01*
X126472242Y-105266142D01*
X126441000Y-105109075D01*
X126441000Y-104948925D01*
X126472242Y-104791858D01*
X126533529Y-104643899D01*
X126622499Y-104510745D01*
X126735745Y-104397499D01*
X126868899Y-104308529D01*
X127016858Y-104247242D01*
X127173925Y-104216000D01*
X127334075Y-104216000D01*
X127491142Y-104247242D01*
G37*
G36*
X127491142Y-101707242D02*
G01*
X127639101Y-101768529D01*
X127772255Y-101857499D01*
X127885501Y-101970745D01*
X127974471Y-102103899D01*
X128035758Y-102251858D01*
X128067000Y-102408925D01*
X128067000Y-102569075D01*
X128035758Y-102726142D01*
X127974471Y-102874101D01*
X127885501Y-103007255D01*
X127772255Y-103120501D01*
X127639101Y-103209471D01*
X127491142Y-103270758D01*
X127334075Y-103302000D01*
X127173925Y-103302000D01*
X127016858Y-103270758D01*
X126868899Y-103209471D01*
X126735745Y-103120501D01*
X126622499Y-103007255D01*
X126533529Y-102874101D01*
X126472242Y-102726142D01*
X126441000Y-102569075D01*
X126441000Y-102408925D01*
X126472242Y-102251858D01*
X126533529Y-102103899D01*
X126622499Y-101970745D01*
X126735745Y-101857499D01*
X126868899Y-101768529D01*
X127016858Y-101707242D01*
X127173925Y-101676000D01*
X127334075Y-101676000D01*
X127491142Y-101707242D01*
G37*
G36*
X127491142Y-99167242D02*
G01*
X127639101Y-99228529D01*
X127772255Y-99317499D01*
X127885501Y-99430745D01*
X127974471Y-99563899D01*
X128035758Y-99711858D01*
X128067000Y-99868925D01*
X128067000Y-100029075D01*
X128035758Y-100186142D01*
X127974471Y-100334101D01*
X127885501Y-100467255D01*
X127772255Y-100580501D01*
X127639101Y-100669471D01*
X127491142Y-100730758D01*
X127334075Y-100762000D01*
X127173925Y-100762000D01*
X127016858Y-100730758D01*
X126868899Y-100669471D01*
X126735745Y-100580501D01*
X126622499Y-100467255D01*
X126533529Y-100334101D01*
X126472242Y-100186142D01*
X126441000Y-100029075D01*
X126441000Y-99868925D01*
X126472242Y-99711858D01*
X126533529Y-99563899D01*
X126622499Y-99430745D01*
X126735745Y-99317499D01*
X126868899Y-99228529D01*
X127016858Y-99167242D01*
X127173925Y-99136000D01*
X127334075Y-99136000D01*
X127491142Y-99167242D01*
G37*
G36*
X127491142Y-96627242D02*
G01*
X127639101Y-96688529D01*
X127772255Y-96777499D01*
X127885501Y-96890745D01*
X127974471Y-97023899D01*
X128035758Y-97171858D01*
X128067000Y-97328925D01*
X128067000Y-97489075D01*
X128035758Y-97646142D01*
X127974471Y-97794101D01*
X127885501Y-97927255D01*
X127772255Y-98040501D01*
X127639101Y-98129471D01*
X127491142Y-98190758D01*
X127334075Y-98222000D01*
X127173925Y-98222000D01*
X127016858Y-98190758D01*
X126868899Y-98129471D01*
X126735745Y-98040501D01*
X126622499Y-97927255D01*
X126533529Y-97794101D01*
X126472242Y-97646142D01*
X126441000Y-97489075D01*
X126441000Y-97328925D01*
X126472242Y-97171858D01*
X126533529Y-97023899D01*
X126622499Y-96890745D01*
X126735745Y-96777499D01*
X126868899Y-96688529D01*
X127016858Y-96627242D01*
X127173925Y-96596000D01*
X127334075Y-96596000D01*
X127491142Y-96627242D01*
G37*
G36*
X123654141Y-95625241D02*
G01*
X123802100Y-95686528D01*
X123935254Y-95775498D01*
X124048500Y-95888744D01*
X124137470Y-96021898D01*
X124198757Y-96169857D01*
X124229999Y-96326924D01*
X124229999Y-96487074D01*
X124198757Y-96644141D01*
X124137470Y-96792100D01*
X124048500Y-96925254D01*
X123935254Y-97038500D01*
X123802100Y-97127470D01*
X123654141Y-97188757D01*
X123497074Y-97219999D01*
X123336924Y-97219999D01*
X123179857Y-97188757D01*
X123031898Y-97127470D01*
X122898744Y-97038500D01*
X122785498Y-96925254D01*
X122696528Y-96792100D01*
X122635241Y-96644141D01*
X122603999Y-96487074D01*
X122603999Y-96326924D01*
X122635241Y-96169857D01*
X122696528Y-96021898D01*
X122785498Y-95888744D01*
X122898744Y-95775498D01*
X123031898Y-95686528D01*
X123179857Y-95625241D01*
X123336924Y-95593999D01*
X123497074Y-95593999D01*
X123654141Y-95625241D01*
G37*
G36*
X108414141Y-95625241D02*
G01*
X108562100Y-95686528D01*
X108695254Y-95775498D01*
X108808500Y-95888744D01*
X108897470Y-96021898D01*
X108958757Y-96169857D01*
X108989999Y-96326924D01*
X108989999Y-96487074D01*
X108958757Y-96644141D01*
X108897470Y-96792100D01*
X108808500Y-96925254D01*
X108695254Y-97038500D01*
X108562100Y-97127470D01*
X108414141Y-97188757D01*
X108257074Y-97219999D01*
X108096924Y-97219999D01*
X107939857Y-97188757D01*
X107791898Y-97127470D01*
X107658744Y-97038500D01*
X107545498Y-96925254D01*
X107456528Y-96792100D01*
X107395241Y-96644141D01*
X107363999Y-96487074D01*
X107363999Y-96326924D01*
X107395241Y-96169857D01*
X107456528Y-96021898D01*
X107545498Y-95888744D01*
X107658744Y-95775498D01*
X107791898Y-95686528D01*
X107939857Y-95625241D01*
X108096924Y-95593999D01*
X108257074Y-95593999D01*
X108414141Y-95625241D01*
G37*
G36*
X123654141Y-93085241D02*
G01*
X123802100Y-93146528D01*
X123935254Y-93235498D01*
X124048500Y-93348744D01*
X124137470Y-93481898D01*
X124198757Y-93629857D01*
X124229999Y-93786924D01*
X124229999Y-93947074D01*
X124198757Y-94104141D01*
X124137470Y-94252100D01*
X124048500Y-94385254D01*
X123935254Y-94498500D01*
X123802100Y-94587470D01*
X123654141Y-94648757D01*
X123497074Y-94679999D01*
X123336924Y-94679999D01*
X123179857Y-94648757D01*
X123031898Y-94587470D01*
X122898744Y-94498500D01*
X122785498Y-94385254D01*
X122696528Y-94252100D01*
X122635241Y-94104141D01*
X122603999Y-93947074D01*
X122603999Y-93786924D01*
X122635241Y-93629857D01*
X122696528Y-93481898D01*
X122785498Y-93348744D01*
X122898744Y-93235498D01*
X123031898Y-93146528D01*
X123179857Y-93085241D01*
X123336924Y-93053999D01*
X123497074Y-93053999D01*
X123654141Y-93085241D01*
G37*
G36*
X108414141Y-93085241D02*
G01*
X108562100Y-93146528D01*
X108695254Y-93235498D01*
X108808500Y-93348744D01*
X108897470Y-93481898D01*
X108958757Y-93629857D01*
X108989999Y-93786924D01*
X108989999Y-93947074D01*
X108958757Y-94104141D01*
X108897470Y-94252100D01*
X108808500Y-94385254D01*
X108695254Y-94498500D01*
X108562100Y-94587470D01*
X108414141Y-94648757D01*
X108257074Y-94679999D01*
X108096924Y-94679999D01*
X107939857Y-94648757D01*
X107791898Y-94587470D01*
X107658744Y-94498500D01*
X107545498Y-94385254D01*
X107456528Y-94252100D01*
X107395241Y-94104141D01*
X107363999Y-93947074D01*
X107363999Y-93786924D01*
X107395241Y-93629857D01*
X107456528Y-93481898D01*
X107545498Y-93348744D01*
X107658744Y-93235498D01*
X107791898Y-93146528D01*
X107939857Y-93085241D01*
X108096924Y-93053999D01*
X108257074Y-93053999D01*
X108414141Y-93085241D01*
G37*
G36*
X123654141Y-90545241D02*
G01*
X123802100Y-90606528D01*
X123935254Y-90695498D01*
X124048500Y-90808744D01*
X124137470Y-90941898D01*
X124198757Y-91089857D01*
X124229999Y-91246924D01*
X124229999Y-91407074D01*
X124198757Y-91564141D01*
X124137470Y-91712100D01*
X124048500Y-91845254D01*
X123935254Y-91958500D01*
X123802100Y-92047470D01*
X123654141Y-92108757D01*
X123497074Y-92139999D01*
X123336924Y-92139999D01*
X123179857Y-92108757D01*
X123031898Y-92047470D01*
X122898744Y-91958500D01*
X122785498Y-91845254D01*
X122696528Y-91712100D01*
X122635241Y-91564141D01*
X122603999Y-91407074D01*
X122603999Y-91246924D01*
X122635241Y-91089857D01*
X122696528Y-90941898D01*
X122785498Y-90808744D01*
X122898744Y-90695498D01*
X123031898Y-90606528D01*
X123179857Y-90545241D01*
X123336924Y-90513999D01*
X123497074Y-90513999D01*
X123654141Y-90545241D01*
G37*
G36*
X108414141Y-90545241D02*
G01*
X108562100Y-90606528D01*
X108695254Y-90695498D01*
X108808500Y-90808744D01*
X108897470Y-90941898D01*
X108958757Y-91089857D01*
X108989999Y-91246924D01*
X108989999Y-91407074D01*
X108958757Y-91564141D01*
X108897470Y-91712100D01*
X108808500Y-91845254D01*
X108695254Y-91958500D01*
X108562100Y-92047470D01*
X108414141Y-92108757D01*
X108257074Y-92139999D01*
X108096924Y-92139999D01*
X107939857Y-92108757D01*
X107791898Y-92047470D01*
X107658744Y-91958500D01*
X107545498Y-91845254D01*
X107456528Y-91712100D01*
X107395241Y-91564141D01*
X107363999Y-91407074D01*
X107363999Y-91246924D01*
X107395241Y-91089857D01*
X107456528Y-90941898D01*
X107545498Y-90808744D01*
X107658744Y-90695498D01*
X107791898Y-90606528D01*
X107939857Y-90545241D01*
X108096924Y-90513999D01*
X108257074Y-90513999D01*
X108414141Y-90545241D01*
G37*
G36*
X127248228Y-88081703D02*
G01*
X127403100Y-88145853D01*
X127542481Y-88238985D01*
X127661015Y-88357519D01*
X127754147Y-88496900D01*
X127818297Y-88651772D01*
X127851000Y-88816184D01*
X127851000Y-88983816D01*
X127818297Y-89148228D01*
X127754147Y-89303100D01*
X127661015Y-89442481D01*
X127542481Y-89561015D01*
X127403100Y-89654147D01*
X127248228Y-89718297D01*
X127083816Y-89751000D01*
X126916184Y-89751000D01*
X126751772Y-89718297D01*
X126596900Y-89654147D01*
X126457519Y-89561015D01*
X126338985Y-89442481D01*
X126245853Y-89303100D01*
X126181703Y-89148228D01*
X126149000Y-88983816D01*
X126149000Y-88816184D01*
X126181703Y-88651772D01*
X126245853Y-88496900D01*
X126338985Y-88357519D01*
X126457519Y-88238985D01*
X126596900Y-88145853D01*
X126751772Y-88081703D01*
X126916184Y-88049000D01*
X127083816Y-88049000D01*
X127248228Y-88081703D01*
G37*
G36*
X134868228Y-88081703D02*
G01*
X135023100Y-88145853D01*
X135162481Y-88238985D01*
X135281015Y-88357519D01*
X135374147Y-88496900D01*
X135438297Y-88651772D01*
X135471000Y-88816184D01*
X135471000Y-88983816D01*
X135438297Y-89148228D01*
X135374147Y-89303100D01*
X135281015Y-89442481D01*
X135162481Y-89561015D01*
X135023100Y-89654147D01*
X134868228Y-89718297D01*
X134703816Y-89751000D01*
X134536184Y-89751000D01*
X134371772Y-89718297D01*
X134216900Y-89654147D01*
X134077519Y-89561015D01*
X133958985Y-89442481D01*
X133865853Y-89303100D01*
X133801703Y-89148228D01*
X133769000Y-88983816D01*
X133769000Y-88816184D01*
X133801703Y-88651772D01*
X133865853Y-88496900D01*
X133958985Y-88357519D01*
X134077519Y-88238985D01*
X134216900Y-88145853D01*
X134371772Y-88081703D01*
X134536184Y-88049000D01*
X134703816Y-88049000D01*
X134868228Y-88081703D01*
G37*
G36*
X123654141Y-88005241D02*
G01*
X123802100Y-88066528D01*
X123935254Y-88155498D01*
X124048500Y-88268744D01*
X124137470Y-88401898D01*
X124198757Y-88549857D01*
X124229999Y-88706924D01*
X124229999Y-88867074D01*
X124198757Y-89024141D01*
X124137470Y-89172100D01*
X124048500Y-89305254D01*
X123935254Y-89418500D01*
X123802100Y-89507470D01*
X123654141Y-89568757D01*
X123497074Y-89599999D01*
X123336924Y-89599999D01*
X123179857Y-89568757D01*
X123031898Y-89507470D01*
X122898744Y-89418500D01*
X122785498Y-89305254D01*
X122696528Y-89172100D01*
X122635241Y-89024141D01*
X122603999Y-88867074D01*
X122603999Y-88706924D01*
X122635241Y-88549857D01*
X122696528Y-88401898D01*
X122785498Y-88268744D01*
X122898744Y-88155498D01*
X123031898Y-88066528D01*
X123179857Y-88005241D01*
X123336924Y-87973999D01*
X123497074Y-87973999D01*
X123654141Y-88005241D01*
G37*
G36*
X108414141Y-88005241D02*
G01*
X108562100Y-88066528D01*
X108695254Y-88155498D01*
X108808500Y-88268744D01*
X108897470Y-88401898D01*
X108958757Y-88549857D01*
X108989999Y-88706924D01*
X108989999Y-88867074D01*
X108958757Y-89024141D01*
X108897470Y-89172100D01*
X108808500Y-89305254D01*
X108695254Y-89418500D01*
X108562100Y-89507470D01*
X108414141Y-89568757D01*
X108257074Y-89599999D01*
X108096924Y-89599999D01*
X107939857Y-89568757D01*
X107791898Y-89507470D01*
X107658744Y-89418500D01*
X107545498Y-89305254D01*
X107456528Y-89172100D01*
X107395241Y-89024141D01*
X107363999Y-88867074D01*
X107363999Y-88706924D01*
X107395241Y-88549857D01*
X107456528Y-88401898D01*
X107545498Y-88268744D01*
X107658744Y-88155498D01*
X107791898Y-88066528D01*
X107939857Y-88005241D01*
X108096924Y-87973999D01*
X108257074Y-87973999D01*
X108414141Y-88005241D01*
G37*
G36*
X138543512Y-85463927D02*
G01*
X138692812Y-85493624D01*
X138856784Y-85561544D01*
X139004354Y-85660147D01*
X139129853Y-85785646D01*
X139228456Y-85933216D01*
X139296376Y-86097188D01*
X139331000Y-86271259D01*
X139331000Y-86448741D01*
X139296376Y-86622812D01*
X139228456Y-86786784D01*
X139129853Y-86934354D01*
X139004354Y-87059853D01*
X138856784Y-87158456D01*
X138692812Y-87226376D01*
X138543512Y-87256073D01*
X138518742Y-87261000D01*
X138341258Y-87261000D01*
X138316488Y-87256073D01*
X138167188Y-87226376D01*
X138003216Y-87158456D01*
X137855646Y-87059853D01*
X137730147Y-86934354D01*
X137631544Y-86786784D01*
X137563624Y-86622812D01*
X137529000Y-86448741D01*
X137529000Y-86271259D01*
X137563624Y-86097188D01*
X137631544Y-85933216D01*
X137730147Y-85785646D01*
X137855646Y-85660147D01*
X138003216Y-85561544D01*
X138167188Y-85493624D01*
X138316488Y-85463927D01*
X138341258Y-85459000D01*
X138518742Y-85459000D01*
X138543512Y-85463927D01*
G37*
G36*
X141083512Y-85463927D02*
G01*
X141232812Y-85493624D01*
X141396784Y-85561544D01*
X141544354Y-85660147D01*
X141669853Y-85785646D01*
X141768456Y-85933216D01*
X141836376Y-86097188D01*
X141871000Y-86271259D01*
X141871000Y-86448741D01*
X141836376Y-86622812D01*
X141768456Y-86786784D01*
X141669853Y-86934354D01*
X141544354Y-87059853D01*
X141396784Y-87158456D01*
X141232812Y-87226376D01*
X141083512Y-87256073D01*
X141058742Y-87261000D01*
X140881258Y-87261000D01*
X140856488Y-87256073D01*
X140707188Y-87226376D01*
X140543216Y-87158456D01*
X140395646Y-87059853D01*
X140270147Y-86934354D01*
X140171544Y-86786784D01*
X140103624Y-86622812D01*
X140069000Y-86448741D01*
X140069000Y-86271259D01*
X140103624Y-86097188D01*
X140171544Y-85933216D01*
X140270147Y-85785646D01*
X140395646Y-85660147D01*
X140543216Y-85561544D01*
X140707188Y-85493624D01*
X140856488Y-85463927D01*
X140881258Y-85459000D01*
X141058742Y-85459000D01*
X141083512Y-85463927D01*
G37*
G36*
X134868228Y-85541703D02*
G01*
X135023100Y-85605853D01*
X135162481Y-85698985D01*
X135281015Y-85817519D01*
X135374147Y-85956900D01*
X135438297Y-86111772D01*
X135471000Y-86276184D01*
X135471000Y-86443816D01*
X135438297Y-86608228D01*
X135374147Y-86763100D01*
X135281015Y-86902481D01*
X135162481Y-87021015D01*
X135023100Y-87114147D01*
X134868228Y-87178297D01*
X134703816Y-87211000D01*
X134536184Y-87211000D01*
X134371772Y-87178297D01*
X134216900Y-87114147D01*
X134077519Y-87021015D01*
X133958985Y-86902481D01*
X133865853Y-86763100D01*
X133801703Y-86608228D01*
X133769000Y-86443816D01*
X133769000Y-86276184D01*
X133801703Y-86111772D01*
X133865853Y-85956900D01*
X133958985Y-85817519D01*
X134077519Y-85698985D01*
X134216900Y-85605853D01*
X134371772Y-85541703D01*
X134536184Y-85509000D01*
X134703816Y-85509000D01*
X134868228Y-85541703D01*
G37*
G36*
X127248228Y-85541703D02*
G01*
X127403100Y-85605853D01*
X127542481Y-85698985D01*
X127661015Y-85817519D01*
X127754147Y-85956900D01*
X127818297Y-86111772D01*
X127851000Y-86276184D01*
X127851000Y-86443816D01*
X127818297Y-86608228D01*
X127754147Y-86763100D01*
X127661015Y-86902481D01*
X127542481Y-87021015D01*
X127403100Y-87114147D01*
X127248228Y-87178297D01*
X127083816Y-87211000D01*
X126916184Y-87211000D01*
X126751772Y-87178297D01*
X126596900Y-87114147D01*
X126457519Y-87021015D01*
X126338985Y-86902481D01*
X126245853Y-86763100D01*
X126181703Y-86608228D01*
X126149000Y-86443816D01*
X126149000Y-86276184D01*
X126181703Y-86111772D01*
X126245853Y-85956900D01*
X126338985Y-85817519D01*
X126457519Y-85698985D01*
X126596900Y-85605853D01*
X126751772Y-85541703D01*
X126916184Y-85509000D01*
X127083816Y-85509000D01*
X127248228Y-85541703D01*
G37*
G36*
X108414141Y-85465241D02*
G01*
X108562100Y-85526528D01*
X108695254Y-85615498D01*
X108808500Y-85728744D01*
X108897470Y-85861898D01*
X108958757Y-86009857D01*
X108989999Y-86166924D01*
X108989999Y-86327074D01*
X108958757Y-86484141D01*
X108897470Y-86632100D01*
X108808500Y-86765254D01*
X108695254Y-86878500D01*
X108562100Y-86967470D01*
X108414141Y-87028757D01*
X108257074Y-87059999D01*
X108096924Y-87059999D01*
X107939857Y-87028757D01*
X107791898Y-86967470D01*
X107658744Y-86878500D01*
X107545498Y-86765254D01*
X107456528Y-86632100D01*
X107395241Y-86484141D01*
X107363999Y-86327074D01*
X107363999Y-86166924D01*
X107395241Y-86009857D01*
X107456528Y-85861898D01*
X107545498Y-85728744D01*
X107658744Y-85615498D01*
X107791898Y-85526528D01*
X107939857Y-85465241D01*
X108096924Y-85433999D01*
X108257074Y-85433999D01*
X108414141Y-85465241D01*
G37*
G36*
X123654141Y-85465241D02*
G01*
X123802100Y-85526528D01*
X123935254Y-85615498D01*
X124048500Y-85728744D01*
X124137470Y-85861898D01*
X124198757Y-86009857D01*
X124229999Y-86166924D01*
X124229999Y-86327074D01*
X124198757Y-86484141D01*
X124137470Y-86632100D01*
X124048500Y-86765254D01*
X123935254Y-86878500D01*
X123802100Y-86967470D01*
X123654141Y-87028757D01*
X123497074Y-87059999D01*
X123336924Y-87059999D01*
X123179857Y-87028757D01*
X123031898Y-86967470D01*
X122898744Y-86878500D01*
X122785498Y-86765254D01*
X122696528Y-86632100D01*
X122635241Y-86484141D01*
X122603999Y-86327074D01*
X122603999Y-86166924D01*
X122635241Y-86009857D01*
X122696528Y-85861898D01*
X122785498Y-85728744D01*
X122898744Y-85615498D01*
X123031898Y-85526528D01*
X123179857Y-85465241D01*
X123336924Y-85433999D01*
X123497074Y-85433999D01*
X123654141Y-85465241D01*
G37*
G36*
X138543512Y-82923927D02*
G01*
X138692812Y-82953624D01*
X138856784Y-83021544D01*
X139004354Y-83120147D01*
X139129853Y-83245646D01*
X139228456Y-83393216D01*
X139296376Y-83557188D01*
X139331000Y-83731259D01*
X139331000Y-83908741D01*
X139296376Y-84082812D01*
X139228456Y-84246784D01*
X139129853Y-84394354D01*
X139004354Y-84519853D01*
X138856784Y-84618456D01*
X138692812Y-84686376D01*
X138543512Y-84716073D01*
X138518742Y-84721000D01*
X138341258Y-84721000D01*
X138316488Y-84716073D01*
X138167188Y-84686376D01*
X138003216Y-84618456D01*
X137855646Y-84519853D01*
X137730147Y-84394354D01*
X137631544Y-84246784D01*
X137563624Y-84082812D01*
X137529000Y-83908741D01*
X137529000Y-83731259D01*
X137563624Y-83557188D01*
X137631544Y-83393216D01*
X137730147Y-83245646D01*
X137855646Y-83120147D01*
X138003216Y-83021544D01*
X138167188Y-82953624D01*
X138316488Y-82923927D01*
X138341258Y-82919000D01*
X138518742Y-82919000D01*
X138543512Y-82923927D01*
G37*
G36*
X141083512Y-82923927D02*
G01*
X141232812Y-82953624D01*
X141396784Y-83021544D01*
X141544354Y-83120147D01*
X141669853Y-83245646D01*
X141768456Y-83393216D01*
X141836376Y-83557188D01*
X141871000Y-83731259D01*
X141871000Y-83908741D01*
X141836376Y-84082812D01*
X141768456Y-84246784D01*
X141669853Y-84394354D01*
X141544354Y-84519853D01*
X141396784Y-84618456D01*
X141232812Y-84686376D01*
X141083512Y-84716073D01*
X141058742Y-84721000D01*
X140881258Y-84721000D01*
X140856488Y-84716073D01*
X140707188Y-84686376D01*
X140543216Y-84618456D01*
X140395646Y-84519853D01*
X140270147Y-84394354D01*
X140171544Y-84246784D01*
X140103624Y-84082812D01*
X140069000Y-83908741D01*
X140069000Y-83731259D01*
X140103624Y-83557188D01*
X140171544Y-83393216D01*
X140270147Y-83245646D01*
X140395646Y-83120147D01*
X140543216Y-83021544D01*
X140707188Y-82953624D01*
X140856488Y-82923927D01*
X140881258Y-82919000D01*
X141058742Y-82919000D01*
X141083512Y-82923927D01*
G37*
G36*
X127248228Y-83001703D02*
G01*
X127403100Y-83065853D01*
X127542481Y-83158985D01*
X127661015Y-83277519D01*
X127754147Y-83416900D01*
X127818297Y-83571772D01*
X127851000Y-83736184D01*
X127851000Y-83903816D01*
X127818297Y-84068228D01*
X127754147Y-84223100D01*
X127661015Y-84362481D01*
X127542481Y-84481015D01*
X127403100Y-84574147D01*
X127248228Y-84638297D01*
X127083816Y-84671000D01*
X126916184Y-84671000D01*
X126751772Y-84638297D01*
X126596900Y-84574147D01*
X126457519Y-84481015D01*
X126338985Y-84362481D01*
X126245853Y-84223100D01*
X126181703Y-84068228D01*
X126149000Y-83903816D01*
X126149000Y-83736184D01*
X126181703Y-83571772D01*
X126245853Y-83416900D01*
X126338985Y-83277519D01*
X126457519Y-83158985D01*
X126596900Y-83065853D01*
X126751772Y-83001703D01*
X126916184Y-82969000D01*
X127083816Y-82969000D01*
X127248228Y-83001703D01*
G37*
G36*
X134868228Y-83001703D02*
G01*
X135023100Y-83065853D01*
X135162481Y-83158985D01*
X135281015Y-83277519D01*
X135374147Y-83416900D01*
X135438297Y-83571772D01*
X135471000Y-83736184D01*
X135471000Y-83903816D01*
X135438297Y-84068228D01*
X135374147Y-84223100D01*
X135281015Y-84362481D01*
X135162481Y-84481015D01*
X135023100Y-84574147D01*
X134868228Y-84638297D01*
X134703816Y-84671000D01*
X134536184Y-84671000D01*
X134371772Y-84638297D01*
X134216900Y-84574147D01*
X134077519Y-84481015D01*
X133958985Y-84362481D01*
X133865853Y-84223100D01*
X133801703Y-84068228D01*
X133769000Y-83903816D01*
X133769000Y-83736184D01*
X133801703Y-83571772D01*
X133865853Y-83416900D01*
X133958985Y-83277519D01*
X134077519Y-83158985D01*
X134216900Y-83065853D01*
X134371772Y-83001703D01*
X134536184Y-82969000D01*
X134703816Y-82969000D01*
X134868228Y-83001703D01*
G37*
G36*
X108414141Y-82925241D02*
G01*
X108562100Y-82986528D01*
X108695254Y-83075498D01*
X108808500Y-83188744D01*
X108897470Y-83321898D01*
X108958757Y-83469857D01*
X108989999Y-83626924D01*
X108989999Y-83787074D01*
X108958757Y-83944141D01*
X108897470Y-84092100D01*
X108808500Y-84225254D01*
X108695254Y-84338500D01*
X108562100Y-84427470D01*
X108414141Y-84488757D01*
X108257074Y-84519999D01*
X108096924Y-84519999D01*
X107939857Y-84488757D01*
X107791898Y-84427470D01*
X107658744Y-84338500D01*
X107545498Y-84225254D01*
X107456528Y-84092100D01*
X107395241Y-83944141D01*
X107363999Y-83787074D01*
X107363999Y-83626924D01*
X107395241Y-83469857D01*
X107456528Y-83321898D01*
X107545498Y-83188744D01*
X107658744Y-83075498D01*
X107791898Y-82986528D01*
X107939857Y-82925241D01*
X108096924Y-82893999D01*
X108257074Y-82893999D01*
X108414141Y-82925241D01*
G37*
G36*
X123654141Y-82925241D02*
G01*
X123802100Y-82986528D01*
X123935254Y-83075498D01*
X124048500Y-83188744D01*
X124137470Y-83321898D01*
X124198757Y-83469857D01*
X124229999Y-83626924D01*
X124229999Y-83787074D01*
X124198757Y-83944141D01*
X124137470Y-84092100D01*
X124048500Y-84225254D01*
X123935254Y-84338500D01*
X123802100Y-84427470D01*
X123654141Y-84488757D01*
X123497074Y-84519999D01*
X123336924Y-84519999D01*
X123179857Y-84488757D01*
X123031898Y-84427470D01*
X122898744Y-84338500D01*
X122785498Y-84225254D01*
X122696528Y-84092100D01*
X122635241Y-83944141D01*
X122603999Y-83787074D01*
X122603999Y-83626924D01*
X122635241Y-83469857D01*
X122696528Y-83321898D01*
X122785498Y-83188744D01*
X122898744Y-83075498D01*
X123031898Y-82986528D01*
X123179857Y-82925241D01*
X123336924Y-82893999D01*
X123497074Y-82893999D01*
X123654141Y-82925241D01*
G37*
G36*
X141083512Y-80383927D02*
G01*
X141232812Y-80413624D01*
X141396784Y-80481544D01*
X141544354Y-80580147D01*
X141669853Y-80705646D01*
X141768456Y-80853216D01*
X141836376Y-81017188D01*
X141871000Y-81191259D01*
X141871000Y-81368741D01*
X141836376Y-81542812D01*
X141768456Y-81706784D01*
X141669853Y-81854354D01*
X141544354Y-81979853D01*
X141396784Y-82078456D01*
X141232812Y-82146376D01*
X141083512Y-82176073D01*
X141058742Y-82181000D01*
X140881258Y-82181000D01*
X140856488Y-82176073D01*
X140707188Y-82146376D01*
X140543216Y-82078456D01*
X140395646Y-81979853D01*
X140270147Y-81854354D01*
X140171544Y-81706784D01*
X140103624Y-81542812D01*
X140069000Y-81368741D01*
X140069000Y-81191259D01*
X140103624Y-81017188D01*
X140171544Y-80853216D01*
X140270147Y-80705646D01*
X140395646Y-80580147D01*
X140543216Y-80481544D01*
X140707188Y-80413624D01*
X140856488Y-80383927D01*
X140881258Y-80379000D01*
X141058742Y-80379000D01*
X141083512Y-80383927D01*
G37*
G36*
X138543512Y-80383927D02*
G01*
X138692812Y-80413624D01*
X138856784Y-80481544D01*
X139004354Y-80580147D01*
X139129853Y-80705646D01*
X139228456Y-80853216D01*
X139296376Y-81017188D01*
X139331000Y-81191259D01*
X139331000Y-81368741D01*
X139296376Y-81542812D01*
X139228456Y-81706784D01*
X139129853Y-81854354D01*
X139004354Y-81979853D01*
X138856784Y-82078456D01*
X138692812Y-82146376D01*
X138543512Y-82176073D01*
X138518742Y-82181000D01*
X138341258Y-82181000D01*
X138316488Y-82176073D01*
X138167188Y-82146376D01*
X138003216Y-82078456D01*
X137855646Y-81979853D01*
X137730147Y-81854354D01*
X137631544Y-81706784D01*
X137563624Y-81542812D01*
X137529000Y-81368741D01*
X137529000Y-81191259D01*
X137563624Y-81017188D01*
X137631544Y-80853216D01*
X137730147Y-80705646D01*
X137855646Y-80580147D01*
X138003216Y-80481544D01*
X138167188Y-80413624D01*
X138316488Y-80383927D01*
X138341258Y-80379000D01*
X138518742Y-80379000D01*
X138543512Y-80383927D01*
G37*
G36*
X127248228Y-80461703D02*
G01*
X127403100Y-80525853D01*
X127542481Y-80618985D01*
X127661015Y-80737519D01*
X127754147Y-80876900D01*
X127818297Y-81031772D01*
X127851000Y-81196184D01*
X127851000Y-81363816D01*
X127818297Y-81528228D01*
X127754147Y-81683100D01*
X127661015Y-81822481D01*
X127542481Y-81941015D01*
X127403100Y-82034147D01*
X127248228Y-82098297D01*
X127083816Y-82131000D01*
X126916184Y-82131000D01*
X126751772Y-82098297D01*
X126596900Y-82034147D01*
X126457519Y-81941015D01*
X126338985Y-81822481D01*
X126245853Y-81683100D01*
X126181703Y-81528228D01*
X126149000Y-81363816D01*
X126149000Y-81196184D01*
X126181703Y-81031772D01*
X126245853Y-80876900D01*
X126338985Y-80737519D01*
X126457519Y-80618985D01*
X126596900Y-80525853D01*
X126751772Y-80461703D01*
X126916184Y-80429000D01*
X127083816Y-80429000D01*
X127248228Y-80461703D01*
G37*
G36*
X134868228Y-80461703D02*
G01*
X135023100Y-80525853D01*
X135162481Y-80618985D01*
X135281015Y-80737519D01*
X135374147Y-80876900D01*
X135438297Y-81031772D01*
X135471000Y-81196184D01*
X135471000Y-81363816D01*
X135438297Y-81528228D01*
X135374147Y-81683100D01*
X135281015Y-81822481D01*
X135162481Y-81941015D01*
X135023100Y-82034147D01*
X134868228Y-82098297D01*
X134703816Y-82131000D01*
X134536184Y-82131000D01*
X134371772Y-82098297D01*
X134216900Y-82034147D01*
X134077519Y-81941015D01*
X133958985Y-81822481D01*
X133865853Y-81683100D01*
X133801703Y-81528228D01*
X133769000Y-81363816D01*
X133769000Y-81196184D01*
X133801703Y-81031772D01*
X133865853Y-80876900D01*
X133958985Y-80737519D01*
X134077519Y-80618985D01*
X134216900Y-80525853D01*
X134371772Y-80461703D01*
X134536184Y-80429000D01*
X134703816Y-80429000D01*
X134868228Y-80461703D01*
G37*
G36*
X123654141Y-80385241D02*
G01*
X123802100Y-80446528D01*
X123935254Y-80535498D01*
X124048500Y-80648744D01*
X124137470Y-80781898D01*
X124198757Y-80929857D01*
X124229999Y-81086924D01*
X124229999Y-81247074D01*
X124198757Y-81404141D01*
X124137470Y-81552100D01*
X124048500Y-81685254D01*
X123935254Y-81798500D01*
X123802100Y-81887470D01*
X123654141Y-81948757D01*
X123497074Y-81979999D01*
X123336924Y-81979999D01*
X123179857Y-81948757D01*
X123031898Y-81887470D01*
X122898744Y-81798500D01*
X122785498Y-81685254D01*
X122696528Y-81552100D01*
X122635241Y-81404141D01*
X122603999Y-81247074D01*
X122603999Y-81086924D01*
X122635241Y-80929857D01*
X122696528Y-80781898D01*
X122785498Y-80648744D01*
X122898744Y-80535498D01*
X123031898Y-80446528D01*
X123179857Y-80385241D01*
X123336924Y-80353999D01*
X123497074Y-80353999D01*
X123654141Y-80385241D01*
G37*
G36*
X108414141Y-80385241D02*
G01*
X108562100Y-80446528D01*
X108695254Y-80535498D01*
X108808500Y-80648744D01*
X108897470Y-80781898D01*
X108958757Y-80929857D01*
X108989999Y-81086924D01*
X108989999Y-81247074D01*
X108958757Y-81404141D01*
X108897470Y-81552100D01*
X108808500Y-81685254D01*
X108695254Y-81798500D01*
X108562100Y-81887470D01*
X108414141Y-81948757D01*
X108257074Y-81979999D01*
X108096924Y-81979999D01*
X107939857Y-81948757D01*
X107791898Y-81887470D01*
X107658744Y-81798500D01*
X107545498Y-81685254D01*
X107456528Y-81552100D01*
X107395241Y-81404141D01*
X107363999Y-81247074D01*
X107363999Y-81086924D01*
X107395241Y-80929857D01*
X107456528Y-80781898D01*
X107545498Y-80648744D01*
X107658744Y-80535498D01*
X107791898Y-80446528D01*
X107939857Y-80385241D01*
X108096924Y-80353999D01*
X108257074Y-80353999D01*
X108414141Y-80385241D01*
G37*
G36*
X141083512Y-77843927D02*
G01*
X141232812Y-77873624D01*
X141396784Y-77941544D01*
X141544354Y-78040147D01*
X141669853Y-78165646D01*
X141768456Y-78313216D01*
X141836376Y-78477188D01*
X141871000Y-78651259D01*
X141871000Y-78828741D01*
X141836376Y-79002812D01*
X141768456Y-79166784D01*
X141669853Y-79314354D01*
X141544354Y-79439853D01*
X141396784Y-79538456D01*
X141232812Y-79606376D01*
X141083512Y-79636073D01*
X141058742Y-79641000D01*
X140881258Y-79641000D01*
X140856488Y-79636073D01*
X140707188Y-79606376D01*
X140543216Y-79538456D01*
X140395646Y-79439853D01*
X140270147Y-79314354D01*
X140171544Y-79166784D01*
X140103624Y-79002812D01*
X140069000Y-78828741D01*
X140069000Y-78651259D01*
X140103624Y-78477188D01*
X140171544Y-78313216D01*
X140270147Y-78165646D01*
X140395646Y-78040147D01*
X140543216Y-77941544D01*
X140707188Y-77873624D01*
X140856488Y-77843927D01*
X140881258Y-77839000D01*
X141058742Y-77839000D01*
X141083512Y-77843927D01*
G37*
G36*
X138543512Y-77843927D02*
G01*
X138692812Y-77873624D01*
X138856784Y-77941544D01*
X139004354Y-78040147D01*
X139129853Y-78165646D01*
X139228456Y-78313216D01*
X139296376Y-78477188D01*
X139331000Y-78651259D01*
X139331000Y-78828741D01*
X139296376Y-79002812D01*
X139228456Y-79166784D01*
X139129853Y-79314354D01*
X139004354Y-79439853D01*
X138856784Y-79538456D01*
X138692812Y-79606376D01*
X138543512Y-79636073D01*
X138518742Y-79641000D01*
X138341258Y-79641000D01*
X138316488Y-79636073D01*
X138167188Y-79606376D01*
X138003216Y-79538456D01*
X137855646Y-79439853D01*
X137730147Y-79314354D01*
X137631544Y-79166784D01*
X137563624Y-79002812D01*
X137529000Y-78828741D01*
X137529000Y-78651259D01*
X137563624Y-78477188D01*
X137631544Y-78313216D01*
X137730147Y-78165646D01*
X137855646Y-78040147D01*
X138003216Y-77941544D01*
X138167188Y-77873624D01*
X138316488Y-77843927D01*
X138341258Y-77839000D01*
X138518742Y-77839000D01*
X138543512Y-77843927D01*
G37*
G36*
X127248228Y-77921703D02*
G01*
X127403100Y-77985853D01*
X127542481Y-78078985D01*
X127661015Y-78197519D01*
X127754147Y-78336900D01*
X127818297Y-78491772D01*
X127851000Y-78656184D01*
X127851000Y-78823816D01*
X127818297Y-78988228D01*
X127754147Y-79143100D01*
X127661015Y-79282481D01*
X127542481Y-79401015D01*
X127403100Y-79494147D01*
X127248228Y-79558297D01*
X127083816Y-79591000D01*
X126916184Y-79591000D01*
X126751772Y-79558297D01*
X126596900Y-79494147D01*
X126457519Y-79401015D01*
X126338985Y-79282481D01*
X126245853Y-79143100D01*
X126181703Y-78988228D01*
X126149000Y-78823816D01*
X126149000Y-78656184D01*
X126181703Y-78491772D01*
X126245853Y-78336900D01*
X126338985Y-78197519D01*
X126457519Y-78078985D01*
X126596900Y-77985853D01*
X126751772Y-77921703D01*
X126916184Y-77889000D01*
X127083816Y-77889000D01*
X127248228Y-77921703D01*
G37*
G36*
X134868228Y-77921703D02*
G01*
X135023100Y-77985853D01*
X135162481Y-78078985D01*
X135281015Y-78197519D01*
X135374147Y-78336900D01*
X135438297Y-78491772D01*
X135471000Y-78656184D01*
X135471000Y-78823816D01*
X135438297Y-78988228D01*
X135374147Y-79143100D01*
X135281015Y-79282481D01*
X135162481Y-79401015D01*
X135023100Y-79494147D01*
X134868228Y-79558297D01*
X134703816Y-79591000D01*
X134536184Y-79591000D01*
X134371772Y-79558297D01*
X134216900Y-79494147D01*
X134077519Y-79401015D01*
X133958985Y-79282481D01*
X133865853Y-79143100D01*
X133801703Y-78988228D01*
X133769000Y-78823816D01*
X133769000Y-78656184D01*
X133801703Y-78491772D01*
X133865853Y-78336900D01*
X133958985Y-78197519D01*
X134077519Y-78078985D01*
X134216900Y-77985853D01*
X134371772Y-77921703D01*
X134536184Y-77889000D01*
X134703816Y-77889000D01*
X134868228Y-77921703D01*
G37*
G36*
X108414141Y-77845241D02*
G01*
X108562100Y-77906528D01*
X108695254Y-77995498D01*
X108808500Y-78108744D01*
X108897470Y-78241898D01*
X108958757Y-78389857D01*
X108989999Y-78546924D01*
X108989999Y-78707074D01*
X108958757Y-78864141D01*
X108897470Y-79012100D01*
X108808500Y-79145254D01*
X108695254Y-79258500D01*
X108562100Y-79347470D01*
X108414141Y-79408757D01*
X108257074Y-79439999D01*
X108096924Y-79439999D01*
X107939857Y-79408757D01*
X107791898Y-79347470D01*
X107658744Y-79258500D01*
X107545498Y-79145254D01*
X107456528Y-79012100D01*
X107395241Y-78864141D01*
X107363999Y-78707074D01*
X107363999Y-78546924D01*
X107395241Y-78389857D01*
X107456528Y-78241898D01*
X107545498Y-78108744D01*
X107658744Y-77995498D01*
X107791898Y-77906528D01*
X107939857Y-77845241D01*
X108096924Y-77813999D01*
X108257074Y-77813999D01*
X108414141Y-77845241D01*
G37*
G36*
X123654141Y-77845241D02*
G01*
X123802100Y-77906528D01*
X123935254Y-77995498D01*
X124048500Y-78108744D01*
X124137470Y-78241898D01*
X124198757Y-78389857D01*
X124229999Y-78546924D01*
X124229999Y-78707074D01*
X124198757Y-78864141D01*
X124137470Y-79012100D01*
X124048500Y-79145254D01*
X123935254Y-79258500D01*
X123802100Y-79347470D01*
X123654141Y-79408757D01*
X123497074Y-79439999D01*
X123336924Y-79439999D01*
X123179857Y-79408757D01*
X123031898Y-79347470D01*
X122898744Y-79258500D01*
X122785498Y-79145254D01*
X122696528Y-79012100D01*
X122635241Y-78864141D01*
X122603999Y-78707074D01*
X122603999Y-78546924D01*
X122635241Y-78389857D01*
X122696528Y-78241898D01*
X122785498Y-78108744D01*
X122898744Y-77995498D01*
X123031898Y-77906528D01*
X123179857Y-77845241D01*
X123336924Y-77813999D01*
X123497074Y-77813999D01*
X123654141Y-77845241D01*
G37*
G36*
X141083512Y-75303927D02*
G01*
X141232812Y-75333624D01*
X141396784Y-75401544D01*
X141544354Y-75500147D01*
X141669853Y-75625646D01*
X141768456Y-75773216D01*
X141836376Y-75937188D01*
X141871000Y-76111259D01*
X141871000Y-76288741D01*
X141836376Y-76462812D01*
X141768456Y-76626784D01*
X141669853Y-76774354D01*
X141544354Y-76899853D01*
X141396784Y-76998456D01*
X141232812Y-77066376D01*
X141083512Y-77096073D01*
X141058742Y-77101000D01*
X140881258Y-77101000D01*
X140856488Y-77096073D01*
X140707188Y-77066376D01*
X140543216Y-76998456D01*
X140395646Y-76899853D01*
X140270147Y-76774354D01*
X140171544Y-76626784D01*
X140103624Y-76462812D01*
X140069000Y-76288741D01*
X140069000Y-76111259D01*
X140103624Y-75937188D01*
X140171544Y-75773216D01*
X140270147Y-75625646D01*
X140395646Y-75500147D01*
X140543216Y-75401544D01*
X140707188Y-75333624D01*
X140856488Y-75303927D01*
X140881258Y-75299000D01*
X141058742Y-75299000D01*
X141083512Y-75303927D01*
G37*
G36*
X138543512Y-75303927D02*
G01*
X138692812Y-75333624D01*
X138856784Y-75401544D01*
X139004354Y-75500147D01*
X139129853Y-75625646D01*
X139228456Y-75773216D01*
X139296376Y-75937188D01*
X139331000Y-76111259D01*
X139331000Y-76288741D01*
X139296376Y-76462812D01*
X139228456Y-76626784D01*
X139129853Y-76774354D01*
X139004354Y-76899853D01*
X138856784Y-76998456D01*
X138692812Y-77066376D01*
X138543512Y-77096073D01*
X138518742Y-77101000D01*
X138341258Y-77101000D01*
X138316488Y-77096073D01*
X138167188Y-77066376D01*
X138003216Y-76998456D01*
X137855646Y-76899853D01*
X137730147Y-76774354D01*
X137631544Y-76626784D01*
X137563624Y-76462812D01*
X137529000Y-76288741D01*
X137529000Y-76111259D01*
X137563624Y-75937188D01*
X137631544Y-75773216D01*
X137730147Y-75625646D01*
X137855646Y-75500147D01*
X138003216Y-75401544D01*
X138167188Y-75333624D01*
X138316488Y-75303927D01*
X138341258Y-75299000D01*
X138518742Y-75299000D01*
X138543512Y-75303927D01*
G37*
G36*
X127248228Y-75381703D02*
G01*
X127403100Y-75445853D01*
X127542481Y-75538985D01*
X127661015Y-75657519D01*
X127754147Y-75796900D01*
X127818297Y-75951772D01*
X127851000Y-76116184D01*
X127851000Y-76283816D01*
X127818297Y-76448228D01*
X127754147Y-76603100D01*
X127661015Y-76742481D01*
X127542481Y-76861015D01*
X127403100Y-76954147D01*
X127248228Y-77018297D01*
X127083816Y-77051000D01*
X126916184Y-77051000D01*
X126751772Y-77018297D01*
X126596900Y-76954147D01*
X126457519Y-76861015D01*
X126338985Y-76742481D01*
X126245853Y-76603100D01*
X126181703Y-76448228D01*
X126149000Y-76283816D01*
X126149000Y-76116184D01*
X126181703Y-75951772D01*
X126245853Y-75796900D01*
X126338985Y-75657519D01*
X126457519Y-75538985D01*
X126596900Y-75445853D01*
X126751772Y-75381703D01*
X126916184Y-75349000D01*
X127083816Y-75349000D01*
X127248228Y-75381703D01*
G37*
G36*
X134868228Y-75381703D02*
G01*
X135023100Y-75445853D01*
X135162481Y-75538985D01*
X135281015Y-75657519D01*
X135374147Y-75796900D01*
X135438297Y-75951772D01*
X135471000Y-76116184D01*
X135471000Y-76283816D01*
X135438297Y-76448228D01*
X135374147Y-76603100D01*
X135281015Y-76742481D01*
X135162481Y-76861015D01*
X135023100Y-76954147D01*
X134868228Y-77018297D01*
X134703816Y-77051000D01*
X134536184Y-77051000D01*
X134371772Y-77018297D01*
X134216900Y-76954147D01*
X134077519Y-76861015D01*
X133958985Y-76742481D01*
X133865853Y-76603100D01*
X133801703Y-76448228D01*
X133769000Y-76283816D01*
X133769000Y-76116184D01*
X133801703Y-75951772D01*
X133865853Y-75796900D01*
X133958985Y-75657519D01*
X134077519Y-75538985D01*
X134216900Y-75445853D01*
X134371772Y-75381703D01*
X134536184Y-75349000D01*
X134703816Y-75349000D01*
X134868228Y-75381703D01*
G37*
G36*
X108414141Y-75305241D02*
G01*
X108562100Y-75366528D01*
X108695254Y-75455498D01*
X108808500Y-75568744D01*
X108897470Y-75701898D01*
X108958757Y-75849857D01*
X108989999Y-76006924D01*
X108989999Y-76167074D01*
X108958757Y-76324141D01*
X108897470Y-76472100D01*
X108808500Y-76605254D01*
X108695254Y-76718500D01*
X108562100Y-76807470D01*
X108414141Y-76868757D01*
X108257074Y-76899999D01*
X108096924Y-76899999D01*
X107939857Y-76868757D01*
X107791898Y-76807470D01*
X107658744Y-76718500D01*
X107545498Y-76605254D01*
X107456528Y-76472100D01*
X107395241Y-76324141D01*
X107363999Y-76167074D01*
X107363999Y-76006924D01*
X107395241Y-75849857D01*
X107456528Y-75701898D01*
X107545498Y-75568744D01*
X107658744Y-75455498D01*
X107791898Y-75366528D01*
X107939857Y-75305241D01*
X108096924Y-75273999D01*
X108257074Y-75273999D01*
X108414141Y-75305241D01*
G37*
G36*
X123654141Y-75305241D02*
G01*
X123802100Y-75366528D01*
X123935254Y-75455498D01*
X124048500Y-75568744D01*
X124137470Y-75701898D01*
X124198757Y-75849857D01*
X124229999Y-76006924D01*
X124229999Y-76167074D01*
X124198757Y-76324141D01*
X124137470Y-76472100D01*
X124048500Y-76605254D01*
X123935254Y-76718500D01*
X123802100Y-76807470D01*
X123654141Y-76868757D01*
X123497074Y-76899999D01*
X123336924Y-76899999D01*
X123179857Y-76868757D01*
X123031898Y-76807470D01*
X122898744Y-76718500D01*
X122785498Y-76605254D01*
X122696528Y-76472100D01*
X122635241Y-76324141D01*
X122603999Y-76167074D01*
X122603999Y-76006924D01*
X122635241Y-75849857D01*
X122696528Y-75701898D01*
X122785498Y-75568744D01*
X122898744Y-75455498D01*
X123031898Y-75366528D01*
X123179857Y-75305241D01*
X123336924Y-75273999D01*
X123497074Y-75273999D01*
X123654141Y-75305241D01*
G37*
G36*
X138543512Y-72763927D02*
G01*
X138692812Y-72793624D01*
X138856784Y-72861544D01*
X139004354Y-72960147D01*
X139129853Y-73085646D01*
X139228456Y-73233216D01*
X139296376Y-73397188D01*
X139331000Y-73571259D01*
X139331000Y-73748741D01*
X139296376Y-73922812D01*
X139228456Y-74086784D01*
X139129853Y-74234354D01*
X139004354Y-74359853D01*
X138856784Y-74458456D01*
X138692812Y-74526376D01*
X138543512Y-74556073D01*
X138518742Y-74561000D01*
X138341258Y-74561000D01*
X138316488Y-74556073D01*
X138167188Y-74526376D01*
X138003216Y-74458456D01*
X137855646Y-74359853D01*
X137730147Y-74234354D01*
X137631544Y-74086784D01*
X137563624Y-73922812D01*
X137529000Y-73748741D01*
X137529000Y-73571259D01*
X137563624Y-73397188D01*
X137631544Y-73233216D01*
X137730147Y-73085646D01*
X137855646Y-72960147D01*
X138003216Y-72861544D01*
X138167188Y-72793624D01*
X138316488Y-72763927D01*
X138341258Y-72759000D01*
X138518742Y-72759000D01*
X138543512Y-72763927D01*
G37*
G36*
X141083512Y-72763927D02*
G01*
X141232812Y-72793624D01*
X141396784Y-72861544D01*
X141544354Y-72960147D01*
X141669853Y-73085646D01*
X141768456Y-73233216D01*
X141836376Y-73397188D01*
X141871000Y-73571259D01*
X141871000Y-73748741D01*
X141836376Y-73922812D01*
X141768456Y-74086784D01*
X141669853Y-74234354D01*
X141544354Y-74359853D01*
X141396784Y-74458456D01*
X141232812Y-74526376D01*
X141083512Y-74556073D01*
X141058742Y-74561000D01*
X140881258Y-74561000D01*
X140856488Y-74556073D01*
X140707188Y-74526376D01*
X140543216Y-74458456D01*
X140395646Y-74359853D01*
X140270147Y-74234354D01*
X140171544Y-74086784D01*
X140103624Y-73922812D01*
X140069000Y-73748741D01*
X140069000Y-73571259D01*
X140103624Y-73397188D01*
X140171544Y-73233216D01*
X140270147Y-73085646D01*
X140395646Y-72960147D01*
X140543216Y-72861544D01*
X140707188Y-72793624D01*
X140856488Y-72763927D01*
X140881258Y-72759000D01*
X141058742Y-72759000D01*
X141083512Y-72763927D01*
G37*
G36*
X127248228Y-72841703D02*
G01*
X127403100Y-72905853D01*
X127542481Y-72998985D01*
X127661015Y-73117519D01*
X127754147Y-73256900D01*
X127818297Y-73411772D01*
X127851000Y-73576184D01*
X127851000Y-73743816D01*
X127818297Y-73908228D01*
X127754147Y-74063100D01*
X127661015Y-74202481D01*
X127542481Y-74321015D01*
X127403100Y-74414147D01*
X127248228Y-74478297D01*
X127083816Y-74511000D01*
X126916184Y-74511000D01*
X126751772Y-74478297D01*
X126596900Y-74414147D01*
X126457519Y-74321015D01*
X126338985Y-74202481D01*
X126245853Y-74063100D01*
X126181703Y-73908228D01*
X126149000Y-73743816D01*
X126149000Y-73576184D01*
X126181703Y-73411772D01*
X126245853Y-73256900D01*
X126338985Y-73117519D01*
X126457519Y-72998985D01*
X126596900Y-72905853D01*
X126751772Y-72841703D01*
X126916184Y-72809000D01*
X127083816Y-72809000D01*
X127248228Y-72841703D01*
G37*
G36*
X134868228Y-72841703D02*
G01*
X135023100Y-72905853D01*
X135162481Y-72998985D01*
X135281015Y-73117519D01*
X135374147Y-73256900D01*
X135438297Y-73411772D01*
X135471000Y-73576184D01*
X135471000Y-73743816D01*
X135438297Y-73908228D01*
X135374147Y-74063100D01*
X135281015Y-74202481D01*
X135162481Y-74321015D01*
X135023100Y-74414147D01*
X134868228Y-74478297D01*
X134703816Y-74511000D01*
X134536184Y-74511000D01*
X134371772Y-74478297D01*
X134216900Y-74414147D01*
X134077519Y-74321015D01*
X133958985Y-74202481D01*
X133865853Y-74063100D01*
X133801703Y-73908228D01*
X133769000Y-73743816D01*
X133769000Y-73576184D01*
X133801703Y-73411772D01*
X133865853Y-73256900D01*
X133958985Y-73117519D01*
X134077519Y-72998985D01*
X134216900Y-72905853D01*
X134371772Y-72841703D01*
X134536184Y-72809000D01*
X134703816Y-72809000D01*
X134868228Y-72841703D01*
G37*
G36*
X108414141Y-72765241D02*
G01*
X108562100Y-72826528D01*
X108695254Y-72915498D01*
X108808500Y-73028744D01*
X108897470Y-73161898D01*
X108958757Y-73309857D01*
X108989999Y-73466924D01*
X108989999Y-73627074D01*
X108958757Y-73784141D01*
X108897470Y-73932100D01*
X108808500Y-74065254D01*
X108695254Y-74178500D01*
X108562100Y-74267470D01*
X108414141Y-74328757D01*
X108257074Y-74359999D01*
X108096924Y-74359999D01*
X107939857Y-74328757D01*
X107791898Y-74267470D01*
X107658744Y-74178500D01*
X107545498Y-74065254D01*
X107456528Y-73932100D01*
X107395241Y-73784141D01*
X107363999Y-73627074D01*
X107363999Y-73466924D01*
X107395241Y-73309857D01*
X107456528Y-73161898D01*
X107545498Y-73028744D01*
X107658744Y-72915498D01*
X107791898Y-72826528D01*
X107939857Y-72765241D01*
X108096924Y-72733999D01*
X108257074Y-72733999D01*
X108414141Y-72765241D01*
G37*
G36*
X123654141Y-72765241D02*
G01*
X123802100Y-72826528D01*
X123935254Y-72915498D01*
X124048500Y-73028744D01*
X124137470Y-73161898D01*
X124198757Y-73309857D01*
X124229999Y-73466924D01*
X124229999Y-73627074D01*
X124198757Y-73784141D01*
X124137470Y-73932100D01*
X124048500Y-74065254D01*
X123935254Y-74178500D01*
X123802100Y-74267470D01*
X123654141Y-74328757D01*
X123497074Y-74359999D01*
X123336924Y-74359999D01*
X123179857Y-74328757D01*
X123031898Y-74267470D01*
X122898744Y-74178500D01*
X122785498Y-74065254D01*
X122696528Y-73932100D01*
X122635241Y-73784141D01*
X122603999Y-73627074D01*
X122603999Y-73466924D01*
X122635241Y-73309857D01*
X122696528Y-73161898D01*
X122785498Y-73028744D01*
X122898744Y-72915498D01*
X123031898Y-72826528D01*
X123179857Y-72765241D01*
X123336924Y-72733999D01*
X123497074Y-72733999D01*
X123654141Y-72765241D01*
G37*
G36*
X138543512Y-70223927D02*
G01*
X138692812Y-70253624D01*
X138856784Y-70321544D01*
X139004354Y-70420147D01*
X139129853Y-70545646D01*
X139228456Y-70693216D01*
X139296376Y-70857188D01*
X139331000Y-71031259D01*
X139331000Y-71208741D01*
X139296376Y-71382812D01*
X139228456Y-71546784D01*
X139129853Y-71694354D01*
X139004354Y-71819853D01*
X138856784Y-71918456D01*
X138692812Y-71986376D01*
X138543512Y-72016073D01*
X138518742Y-72021000D01*
X138341258Y-72021000D01*
X138316488Y-72016073D01*
X138167188Y-71986376D01*
X138003216Y-71918456D01*
X137855646Y-71819853D01*
X137730147Y-71694354D01*
X137631544Y-71546784D01*
X137563624Y-71382812D01*
X137529000Y-71208741D01*
X137529000Y-71031259D01*
X137563624Y-70857188D01*
X137631544Y-70693216D01*
X137730147Y-70545646D01*
X137855646Y-70420147D01*
X138003216Y-70321544D01*
X138167188Y-70253624D01*
X138316488Y-70223927D01*
X138341258Y-70219000D01*
X138518742Y-70219000D01*
X138543512Y-70223927D01*
G37*
G36*
X141083512Y-70223927D02*
G01*
X141232812Y-70253624D01*
X141396784Y-70321544D01*
X141544354Y-70420147D01*
X141669853Y-70545646D01*
X141768456Y-70693216D01*
X141836376Y-70857188D01*
X141871000Y-71031259D01*
X141871000Y-71208741D01*
X141836376Y-71382812D01*
X141768456Y-71546784D01*
X141669853Y-71694354D01*
X141544354Y-71819853D01*
X141396784Y-71918456D01*
X141232812Y-71986376D01*
X141083512Y-72016073D01*
X141058742Y-72021000D01*
X140881258Y-72021000D01*
X140856488Y-72016073D01*
X140707188Y-71986376D01*
X140543216Y-71918456D01*
X140395646Y-71819853D01*
X140270147Y-71694354D01*
X140171544Y-71546784D01*
X140103624Y-71382812D01*
X140069000Y-71208741D01*
X140069000Y-71031259D01*
X140103624Y-70857188D01*
X140171544Y-70693216D01*
X140270147Y-70545646D01*
X140395646Y-70420147D01*
X140543216Y-70321544D01*
X140707188Y-70253624D01*
X140856488Y-70223927D01*
X140881258Y-70219000D01*
X141058742Y-70219000D01*
X141083512Y-70223927D01*
G37*
G36*
X134868228Y-70301703D02*
G01*
X135023100Y-70365853D01*
X135162481Y-70458985D01*
X135281015Y-70577519D01*
X135374147Y-70716900D01*
X135438297Y-70871772D01*
X135471000Y-71036184D01*
X135471000Y-71203816D01*
X135438297Y-71368228D01*
X135374147Y-71523100D01*
X135281015Y-71662481D01*
X135162481Y-71781015D01*
X135023100Y-71874147D01*
X134868228Y-71938297D01*
X134703816Y-71971000D01*
X134536184Y-71971000D01*
X134371772Y-71938297D01*
X134216900Y-71874147D01*
X134077519Y-71781015D01*
X133958985Y-71662481D01*
X133865853Y-71523100D01*
X133801703Y-71368228D01*
X133769000Y-71203816D01*
X133769000Y-71036184D01*
X133801703Y-70871772D01*
X133865853Y-70716900D01*
X133958985Y-70577519D01*
X134077519Y-70458985D01*
X134216900Y-70365853D01*
X134371772Y-70301703D01*
X134536184Y-70269000D01*
X134703816Y-70269000D01*
X134868228Y-70301703D01*
G37*
G36*
X127248228Y-70301703D02*
G01*
X127403100Y-70365853D01*
X127542481Y-70458985D01*
X127661015Y-70577519D01*
X127754147Y-70716900D01*
X127818297Y-70871772D01*
X127851000Y-71036184D01*
X127851000Y-71203816D01*
X127818297Y-71368228D01*
X127754147Y-71523100D01*
X127661015Y-71662481D01*
X127542481Y-71781015D01*
X127403100Y-71874147D01*
X127248228Y-71938297D01*
X127083816Y-71971000D01*
X126916184Y-71971000D01*
X126751772Y-71938297D01*
X126596900Y-71874147D01*
X126457519Y-71781015D01*
X126338985Y-71662481D01*
X126245853Y-71523100D01*
X126181703Y-71368228D01*
X126149000Y-71203816D01*
X126149000Y-71036184D01*
X126181703Y-70871772D01*
X126245853Y-70716900D01*
X126338985Y-70577519D01*
X126457519Y-70458985D01*
X126596900Y-70365853D01*
X126751772Y-70301703D01*
X126916184Y-70269000D01*
X127083816Y-70269000D01*
X127248228Y-70301703D01*
G37*
G36*
X123654141Y-70225241D02*
G01*
X123802100Y-70286528D01*
X123935254Y-70375498D01*
X124048500Y-70488744D01*
X124137470Y-70621898D01*
X124198757Y-70769857D01*
X124229999Y-70926924D01*
X124229999Y-71087074D01*
X124198757Y-71244141D01*
X124137470Y-71392100D01*
X124048500Y-71525254D01*
X123935254Y-71638500D01*
X123802100Y-71727470D01*
X123654141Y-71788757D01*
X123497074Y-71819999D01*
X123336924Y-71819999D01*
X123179857Y-71788757D01*
X123031898Y-71727470D01*
X122898744Y-71638500D01*
X122785498Y-71525254D01*
X122696528Y-71392100D01*
X122635241Y-71244141D01*
X122603999Y-71087074D01*
X122603999Y-70926924D01*
X122635241Y-70769857D01*
X122696528Y-70621898D01*
X122785498Y-70488744D01*
X122898744Y-70375498D01*
X123031898Y-70286528D01*
X123179857Y-70225241D01*
X123336924Y-70193999D01*
X123497074Y-70193999D01*
X123654141Y-70225241D01*
G37*
G36*
X108414141Y-70225241D02*
G01*
X108562100Y-70286528D01*
X108695254Y-70375498D01*
X108808500Y-70488744D01*
X108897470Y-70621898D01*
X108958757Y-70769857D01*
X108989999Y-70926924D01*
X108989999Y-71087074D01*
X108958757Y-71244141D01*
X108897470Y-71392100D01*
X108808500Y-71525254D01*
X108695254Y-71638500D01*
X108562100Y-71727470D01*
X108414141Y-71788757D01*
X108257074Y-71819999D01*
X108096924Y-71819999D01*
X107939857Y-71788757D01*
X107791898Y-71727470D01*
X107658744Y-71638500D01*
X107545498Y-71525254D01*
X107456528Y-71392100D01*
X107395241Y-71244141D01*
X107363999Y-71087074D01*
X107363999Y-70926924D01*
X107395241Y-70769857D01*
X107456528Y-70621898D01*
X107545498Y-70488744D01*
X107658744Y-70375498D01*
X107791898Y-70286528D01*
X107939857Y-70225241D01*
X108096924Y-70193999D01*
X108257074Y-70193999D01*
X108414141Y-70225241D01*
G37*
G36*
X139331000Y-69481000D02*
G01*
X137529000Y-69481000D01*
X137529000Y-67679000D01*
X139331000Y-67679000D01*
X139331000Y-69481000D01*
G37*
G36*
X141083512Y-67683927D02*
G01*
X141232812Y-67713624D01*
X141396784Y-67781544D01*
X141544354Y-67880147D01*
X141669853Y-68005646D01*
X141768456Y-68153216D01*
X141836376Y-68317188D01*
X141871000Y-68491259D01*
X141871000Y-68668741D01*
X141836376Y-68842812D01*
X141768456Y-69006784D01*
X141669853Y-69154354D01*
X141544354Y-69279853D01*
X141396784Y-69378456D01*
X141232812Y-69446376D01*
X141083512Y-69476073D01*
X141058742Y-69481000D01*
X140881258Y-69481000D01*
X140856488Y-69476073D01*
X140707188Y-69446376D01*
X140543216Y-69378456D01*
X140395646Y-69279853D01*
X140270147Y-69154354D01*
X140171544Y-69006784D01*
X140103624Y-68842812D01*
X140069000Y-68668741D01*
X140069000Y-68491259D01*
X140103624Y-68317188D01*
X140171544Y-68153216D01*
X140270147Y-68005646D01*
X140395646Y-67880147D01*
X140543216Y-67781544D01*
X140707188Y-67713624D01*
X140856488Y-67683927D01*
X140881258Y-67679000D01*
X141058742Y-67679000D01*
X141083512Y-67683927D01*
G37*
G36*
X127851000Y-69431000D02*
G01*
X126149000Y-69431000D01*
X126149000Y-67729000D01*
X127851000Y-67729000D01*
X127851000Y-69431000D01*
G37*
G36*
X134868228Y-67761703D02*
G01*
X135023100Y-67825853D01*
X135162481Y-67918985D01*
X135281015Y-68037519D01*
X135374147Y-68176900D01*
X135438297Y-68331772D01*
X135471000Y-68496184D01*
X135471000Y-68663816D01*
X135438297Y-68828228D01*
X135374147Y-68983100D01*
X135281015Y-69122481D01*
X135162481Y-69241015D01*
X135023100Y-69334147D01*
X134868228Y-69398297D01*
X134703816Y-69431000D01*
X134536184Y-69431000D01*
X134371772Y-69398297D01*
X134216900Y-69334147D01*
X134077519Y-69241015D01*
X133958985Y-69122481D01*
X133865853Y-68983100D01*
X133801703Y-68828228D01*
X133769000Y-68663816D01*
X133769000Y-68496184D01*
X133801703Y-68331772D01*
X133865853Y-68176900D01*
X133958985Y-68037519D01*
X134077519Y-67918985D01*
X134216900Y-67825853D01*
X134371772Y-67761703D01*
X134536184Y-67729000D01*
X134703816Y-67729000D01*
X134868228Y-67761703D01*
G37*
G36*
X108414141Y-67685241D02*
G01*
X108562100Y-67746528D01*
X108695254Y-67835498D01*
X108808500Y-67948744D01*
X108897470Y-68081898D01*
X108958757Y-68229857D01*
X108989999Y-68386924D01*
X108989999Y-68547074D01*
X108958757Y-68704141D01*
X108897470Y-68852100D01*
X108808500Y-68985254D01*
X108695254Y-69098500D01*
X108562100Y-69187470D01*
X108414141Y-69248757D01*
X108257074Y-69279999D01*
X108096924Y-69279999D01*
X107939857Y-69248757D01*
X107791898Y-69187470D01*
X107658744Y-69098500D01*
X107545498Y-68985254D01*
X107456528Y-68852100D01*
X107395241Y-68704141D01*
X107363999Y-68547074D01*
X107363999Y-68386924D01*
X107395241Y-68229857D01*
X107456528Y-68081898D01*
X107545498Y-67948744D01*
X107658744Y-67835498D01*
X107791898Y-67746528D01*
X107939857Y-67685241D01*
X108096924Y-67653999D01*
X108257074Y-67653999D01*
X108414141Y-67685241D01*
G37*
G36*
X123654141Y-67685241D02*
G01*
X123802100Y-67746528D01*
X123935254Y-67835498D01*
X124048500Y-67948744D01*
X124137470Y-68081898D01*
X124198757Y-68229857D01*
X124229999Y-68386924D01*
X124229999Y-68547074D01*
X124198757Y-68704141D01*
X124137470Y-68852100D01*
X124048500Y-68985254D01*
X123935254Y-69098500D01*
X123802100Y-69187470D01*
X123654141Y-69248757D01*
X123497074Y-69279999D01*
X123336924Y-69279999D01*
X123179857Y-69248757D01*
X123031898Y-69187470D01*
X122898744Y-69098500D01*
X122785498Y-68985254D01*
X122696528Y-68852100D01*
X122635241Y-68704141D01*
X122603999Y-68547074D01*
X122603999Y-68386924D01*
X122635241Y-68229857D01*
X122696528Y-68081898D01*
X122785498Y-67948744D01*
X122898744Y-67835498D01*
X123031898Y-67746528D01*
X123179857Y-67685241D01*
X123336924Y-67653999D01*
X123497074Y-67653999D01*
X123654141Y-67685241D01*
G37*
G36*
X108414141Y-65145241D02*
G01*
X108562100Y-65206528D01*
X108695254Y-65295498D01*
X108808500Y-65408744D01*
X108897470Y-65541898D01*
X108958757Y-65689857D01*
X108989999Y-65846924D01*
X108989999Y-66007074D01*
X108958757Y-66164141D01*
X108897470Y-66312100D01*
X108808500Y-66445254D01*
X108695254Y-66558500D01*
X108562100Y-66647470D01*
X108414141Y-66708757D01*
X108257074Y-66739999D01*
X108096924Y-66739999D01*
X107939857Y-66708757D01*
X107791898Y-66647470D01*
X107658744Y-66558500D01*
X107545498Y-66445254D01*
X107456528Y-66312100D01*
X107395241Y-66164141D01*
X107363999Y-66007074D01*
X107363999Y-65846924D01*
X107395241Y-65689857D01*
X107456528Y-65541898D01*
X107545498Y-65408744D01*
X107658744Y-65295498D01*
X107791898Y-65206528D01*
X107939857Y-65145241D01*
X108096924Y-65113999D01*
X108257074Y-65113999D01*
X108414141Y-65145241D01*
G37*
G36*
X123654141Y-65145241D02*
G01*
X123802100Y-65206528D01*
X123935254Y-65295498D01*
X124048500Y-65408744D01*
X124137470Y-65541898D01*
X124198757Y-65689857D01*
X124229999Y-65846924D01*
X124229999Y-66007074D01*
X124198757Y-66164141D01*
X124137470Y-66312100D01*
X124048500Y-66445254D01*
X123935254Y-66558500D01*
X123802100Y-66647470D01*
X123654141Y-66708757D01*
X123497074Y-66739999D01*
X123336924Y-66739999D01*
X123179857Y-66708757D01*
X123031898Y-66647470D01*
X122898744Y-66558500D01*
X122785498Y-66445254D01*
X122696528Y-66312100D01*
X122635241Y-66164141D01*
X122603999Y-66007074D01*
X122603999Y-65846924D01*
X122635241Y-65689857D01*
X122696528Y-65541898D01*
X122785498Y-65408744D01*
X122898744Y-65295498D01*
X123031898Y-65206528D01*
X123179857Y-65145241D01*
X123336924Y-65113999D01*
X123497074Y-65113999D01*
X123654141Y-65145241D01*
G37*
G36*
X123654141Y-62605241D02*
G01*
X123802100Y-62666528D01*
X123935254Y-62755498D01*
X124048500Y-62868744D01*
X124137470Y-63001898D01*
X124198757Y-63149857D01*
X124229999Y-63306924D01*
X124229999Y-63467074D01*
X124198757Y-63624141D01*
X124137470Y-63772100D01*
X124048500Y-63905254D01*
X123935254Y-64018500D01*
X123802100Y-64107470D01*
X123654141Y-64168757D01*
X123497074Y-64199999D01*
X123336924Y-64199999D01*
X123179857Y-64168757D01*
X123031898Y-64107470D01*
X122898744Y-64018500D01*
X122785498Y-63905254D01*
X122696528Y-63772100D01*
X122635241Y-63624141D01*
X122603999Y-63467074D01*
X122603999Y-63306924D01*
X122635241Y-63149857D01*
X122696528Y-63001898D01*
X122785498Y-62868744D01*
X122898744Y-62755498D01*
X123031898Y-62666528D01*
X123179857Y-62605241D01*
X123336924Y-62573999D01*
X123497074Y-62573999D01*
X123654141Y-62605241D01*
G37*
G36*
X108414141Y-62605241D02*
G01*
X108562100Y-62666528D01*
X108695254Y-62755498D01*
X108808500Y-62868744D01*
X108897470Y-63001898D01*
X108958757Y-63149857D01*
X108989999Y-63306924D01*
X108989999Y-63467074D01*
X108958757Y-63624141D01*
X108897470Y-63772100D01*
X108808500Y-63905254D01*
X108695254Y-64018500D01*
X108562100Y-64107470D01*
X108414141Y-64168757D01*
X108257074Y-64199999D01*
X108096924Y-64199999D01*
X107939857Y-64168757D01*
X107791898Y-64107470D01*
X107658744Y-64018500D01*
X107545498Y-63905254D01*
X107456528Y-63772100D01*
X107395241Y-63624141D01*
X107363999Y-63467074D01*
X107363999Y-63306924D01*
X107395241Y-63149857D01*
X107456528Y-63001898D01*
X107545498Y-62868744D01*
X107658744Y-62755498D01*
X107791898Y-62666528D01*
X107939857Y-62605241D01*
X108096924Y-62573999D01*
X108257074Y-62573999D01*
X108414141Y-62605241D01*
G37*
G36*
X110954141Y-62605241D02*
G01*
X111102100Y-62666528D01*
X111235254Y-62755498D01*
X111348500Y-62868744D01*
X111437470Y-63001898D01*
X111498757Y-63149857D01*
X111529999Y-63306924D01*
X111529999Y-63467074D01*
X111498757Y-63624141D01*
X111437470Y-63772100D01*
X111348500Y-63905254D01*
X111235254Y-64018500D01*
X111102100Y-64107470D01*
X110954141Y-64168757D01*
X110797074Y-64199999D01*
X110636924Y-64199999D01*
X110479857Y-64168757D01*
X110331898Y-64107470D01*
X110198744Y-64018500D01*
X110085498Y-63905254D01*
X109996528Y-63772100D01*
X109935241Y-63624141D01*
X109903999Y-63467074D01*
X109903999Y-63306924D01*
X109935241Y-63149857D01*
X109996528Y-63001898D01*
X110085498Y-62868744D01*
X110198744Y-62755498D01*
X110331898Y-62666528D01*
X110479857Y-62605241D01*
X110636924Y-62573999D01*
X110797074Y-62573999D01*
X110954141Y-62605241D01*
G37*
G36*
X118574141Y-62605241D02*
G01*
X118722100Y-62666528D01*
X118855254Y-62755498D01*
X118968500Y-62868744D01*
X119057470Y-63001898D01*
X119118757Y-63149857D01*
X119149999Y-63306924D01*
X119149999Y-63467074D01*
X119118757Y-63624141D01*
X119057470Y-63772100D01*
X118968500Y-63905254D01*
X118855254Y-64018500D01*
X118722100Y-64107470D01*
X118574141Y-64168757D01*
X118417074Y-64199999D01*
X118256924Y-64199999D01*
X118099857Y-64168757D01*
X117951898Y-64107470D01*
X117818744Y-64018500D01*
X117705498Y-63905254D01*
X117616528Y-63772100D01*
X117555241Y-63624141D01*
X117523999Y-63467074D01*
X117523999Y-63306924D01*
X117555241Y-63149857D01*
X117616528Y-63001898D01*
X117705498Y-62868744D01*
X117818744Y-62755498D01*
X117951898Y-62666528D01*
X118099857Y-62605241D01*
X118256924Y-62573999D01*
X118417074Y-62573999D01*
X118574141Y-62605241D01*
G37*
G36*
X116034141Y-62605241D02*
G01*
X116182100Y-62666528D01*
X116315254Y-62755498D01*
X116428500Y-62868744D01*
X116517470Y-63001898D01*
X116578757Y-63149857D01*
X116609999Y-63306924D01*
X116609999Y-63467074D01*
X116578757Y-63624141D01*
X116517470Y-63772100D01*
X116428500Y-63905254D01*
X116315254Y-64018500D01*
X116182100Y-64107470D01*
X116034141Y-64168757D01*
X115877074Y-64199999D01*
X115716924Y-64199999D01*
X115559857Y-64168757D01*
X115411898Y-64107470D01*
X115278744Y-64018500D01*
X115165498Y-63905254D01*
X115076528Y-63772100D01*
X115015241Y-63624141D01*
X114983999Y-63467074D01*
X114983999Y-63306924D01*
X115015241Y-63149857D01*
X115076528Y-63001898D01*
X115165498Y-62868744D01*
X115278744Y-62755498D01*
X115411898Y-62666528D01*
X115559857Y-62605241D01*
X115716924Y-62573999D01*
X115877074Y-62573999D01*
X116034141Y-62605241D01*
G37*
G36*
X121114141Y-62605241D02*
G01*
X121262100Y-62666528D01*
X121395254Y-62755498D01*
X121508500Y-62868744D01*
X121597470Y-63001898D01*
X121658757Y-63149857D01*
X121689999Y-63306924D01*
X121689999Y-63467074D01*
X121658757Y-63624141D01*
X121597470Y-63772100D01*
X121508500Y-63905254D01*
X121395254Y-64018500D01*
X121262100Y-64107470D01*
X121114141Y-64168757D01*
X120957074Y-64199999D01*
X120796924Y-64199999D01*
X120639857Y-64168757D01*
X120491898Y-64107470D01*
X120358744Y-64018500D01*
X120245498Y-63905254D01*
X120156528Y-63772100D01*
X120095241Y-63624141D01*
X120063999Y-63467074D01*
X120063999Y-63306924D01*
X120095241Y-63149857D01*
X120156528Y-63001898D01*
X120245498Y-62868744D01*
X120358744Y-62755498D01*
X120491898Y-62666528D01*
X120639857Y-62605241D01*
X120796924Y-62573999D01*
X120957074Y-62573999D01*
X121114141Y-62605241D01*
G37*
G36*
X113494141Y-62605241D02*
G01*
X113642100Y-62666528D01*
X113775254Y-62755498D01*
X113888500Y-62868744D01*
X113977470Y-63001898D01*
X114038757Y-63149857D01*
X114069999Y-63306924D01*
X114069999Y-63467074D01*
X114038757Y-63624141D01*
X113977470Y-63772100D01*
X113888500Y-63905254D01*
X113775254Y-64018500D01*
X113642100Y-64107470D01*
X113494141Y-64168757D01*
X113337074Y-64199999D01*
X113176924Y-64199999D01*
X113019857Y-64168757D01*
X112871898Y-64107470D01*
X112738744Y-64018500D01*
X112625498Y-63905254D01*
X112536528Y-63772100D01*
X112475241Y-63624141D01*
X112443999Y-63467074D01*
X112443999Y-63306924D01*
X112475241Y-63149857D01*
X112536528Y-63001898D01*
X112625498Y-62868744D01*
X112738744Y-62755498D01*
X112871898Y-62666528D01*
X113019857Y-62605241D01*
X113176924Y-62573999D01*
X113337074Y-62573999D01*
X113494141Y-62605241D01*
G37*
G36*
X112661000Y-60591000D02*
G01*
X110859000Y-60591000D01*
X110859000Y-58789000D01*
X112661000Y-58789000D01*
X112661000Y-60591000D01*
G37*
G36*
X114413512Y-58793927D02*
G01*
X114562812Y-58823624D01*
X114726784Y-58891544D01*
X114874354Y-58990147D01*
X114999853Y-59115646D01*
X115098456Y-59263216D01*
X115166376Y-59427188D01*
X115201000Y-59601259D01*
X115201000Y-59778741D01*
X115166376Y-59952812D01*
X115098456Y-60116784D01*
X114999853Y-60264354D01*
X114874354Y-60389853D01*
X114726784Y-60488456D01*
X114562812Y-60556376D01*
X114413512Y-60586073D01*
X114388742Y-60591000D01*
X114211258Y-60591000D01*
X114186488Y-60586073D01*
X114037188Y-60556376D01*
X113873216Y-60488456D01*
X113725646Y-60389853D01*
X113600147Y-60264354D01*
X113501544Y-60116784D01*
X113433624Y-59952812D01*
X113399000Y-59778741D01*
X113399000Y-59601259D01*
X113433624Y-59427188D01*
X113501544Y-59263216D01*
X113600147Y-59115646D01*
X113725646Y-58990147D01*
X113873216Y-58891544D01*
X114037188Y-58823624D01*
X114186488Y-58793927D01*
X114211258Y-58789000D01*
X114388742Y-58789000D01*
X114413512Y-58793927D01*
G37*
G36*
X116953512Y-58793927D02*
G01*
X117102812Y-58823624D01*
X117266784Y-58891544D01*
X117414354Y-58990147D01*
X117539853Y-59115646D01*
X117638456Y-59263216D01*
X117706376Y-59427188D01*
X117741000Y-59601259D01*
X117741000Y-59778741D01*
X117706376Y-59952812D01*
X117638456Y-60116784D01*
X117539853Y-60264354D01*
X117414354Y-60389853D01*
X117266784Y-60488456D01*
X117102812Y-60556376D01*
X116953512Y-60586073D01*
X116928742Y-60591000D01*
X116751258Y-60591000D01*
X116726488Y-60586073D01*
X116577188Y-60556376D01*
X116413216Y-60488456D01*
X116265646Y-60389853D01*
X116140147Y-60264354D01*
X116041544Y-60116784D01*
X115973624Y-59952812D01*
X115939000Y-59778741D01*
X115939000Y-59601259D01*
X115973624Y-59427188D01*
X116041544Y-59263216D01*
X116140147Y-59115646D01*
X116265646Y-58990147D01*
X116413216Y-58891544D01*
X116577188Y-58823624D01*
X116726488Y-58793927D01*
X116751258Y-58789000D01*
X116928742Y-58789000D01*
X116953512Y-58793927D01*
G37*
G36*
X119493512Y-58793927D02*
G01*
X119642812Y-58823624D01*
X119806784Y-58891544D01*
X119954354Y-58990147D01*
X120079853Y-59115646D01*
X120178456Y-59263216D01*
X120246376Y-59427188D01*
X120281000Y-59601259D01*
X120281000Y-59778741D01*
X120246376Y-59952812D01*
X120178456Y-60116784D01*
X120079853Y-60264354D01*
X119954354Y-60389853D01*
X119806784Y-60488456D01*
X119642812Y-60556376D01*
X119493512Y-60586073D01*
X119468742Y-60591000D01*
X119291258Y-60591000D01*
X119266488Y-60586073D01*
X119117188Y-60556376D01*
X118953216Y-60488456D01*
X118805646Y-60389853D01*
X118680147Y-60264354D01*
X118581544Y-60116784D01*
X118513624Y-59952812D01*
X118479000Y-59778741D01*
X118479000Y-59601259D01*
X118513624Y-59427188D01*
X118581544Y-59263216D01*
X118680147Y-59115646D01*
X118805646Y-58990147D01*
X118953216Y-58891544D01*
X119117188Y-58823624D01*
X119266488Y-58793927D01*
X119291258Y-58789000D01*
X119468742Y-58789000D01*
X119493512Y-58793927D01*
G37*
M02*
